<svg width="636" height="657" viewBox="0 0 636 657" fill="none" xmlns="http://www.w3.org/2000/svg">
<path d="M162.959 541.248C162.959 541.248 57.5414 463.564 32.6717 342.384C7.80236 221.204 109.973 196.774 169.899 155.708C229.825 114.642 251.881 68.4322 338.715 65.5978C425.548 62.7637 470.468 93.9741 501.82 154.448C533.173 214.923 549.917 277.022 559.772 337.628C569.627 398.234 564.784 446.642 509.047 470.789C453.31 494.935 427.443 484.342 400.967 512.149C374.491 539.956 253.654 602.896 162.959 541.248Z" fill="#EBC556"/>
<path opacity="0.7" d="M162.959 541.248C162.959 541.248 57.5414 463.564 32.6717 342.384C7.80236 221.204 109.973 196.774 169.899 155.708C229.825 114.642 251.881 68.4322 338.715 65.5978C425.548 62.7637 470.468 93.9741 501.82 154.448C533.173 214.923 549.917 277.022 559.772 337.628C569.627 398.234 564.784 446.642 509.047 470.789C453.31 494.935 427.443 484.342 400.967 512.149C374.491 539.956 253.654 602.896 162.959 541.248Z" fill="#F7F9F8"/>
<path opacity="0.3" d="M244.723 106.651H16.2119V225.615H244.723V106.651Z" stroke="black" stroke-miterlimit="10"/>
<path opacity="0.3" d="M574.94 106.651H346.429V225.615H574.94V106.651Z" stroke="black" stroke-miterlimit="10"/>
<path opacity="0.3" d="M170.283 112.56L128.747 153.908" stroke="black" stroke-miterlimit="10"/>
<path opacity="0.3" d="M141.334 153.908L85.1138 209.874" stroke="black" stroke-miterlimit="10"/>
<path opacity="0.3" d="M55.3257 125.508L30.572 150.149" stroke="black" stroke-miterlimit="10"/>
<path opacity="0.3" d="M549.979 121.749L508.863 162.679" stroke="black" stroke-miterlimit="10"/>
<path opacity="0.3" d="M532.357 157.667L503.198 186.694" stroke="black" stroke-miterlimit="10"/>
<path opacity="0.3" d="M390.549 173.12L352.789 210.71" stroke="black" stroke-miterlimit="10"/>
<path opacity="0.3" d="M399.359 169.779L379.43 189.618" stroke="black" stroke-miterlimit="10"/>
<g opacity="0.3">
<path d="M102.274 303.919V323.106H101.151C100.352 321.074 99.1295 319.259 97.6114 317.737C94.7326 314.872 90.7497 313.095 86.3528 313.095C79.6292 313.095 73.8816 317.247 71.5549 323.106H70.4312V303.919C70.4312 301.858 70.8254 299.886 71.5549 298.08C73.8816 292.211 79.6292 288.07 86.3528 288.07C90.7497 288.07 94.7326 289.846 97.6114 292.712C99.1295 294.223 100.352 296.048 101.151 298.08C101.88 299.886 102.274 301.858 102.274 303.919Z" stroke="black" stroke-miterlimit="10"/>
<path d="M134.127 303.919V323.106H133.003C132.205 321.074 130.983 319.259 129.464 317.737C126.576 314.872 122.593 313.095 118.196 313.095C111.482 313.095 105.735 317.247 103.398 323.106H102.274V303.919C102.274 301.858 102.669 299.886 103.398 298.08C105.725 292.211 111.482 288.07 118.196 288.07C122.593 288.07 126.576 289.846 129.464 292.712C130.983 294.223 132.205 296.048 133.003 298.08C133.733 299.886 134.127 301.858 134.127 303.919Z" stroke="black" stroke-miterlimit="10"/>
<path d="M165.971 303.919V323.106H164.847C164.049 321.074 162.826 319.259 161.308 317.737C158.429 314.872 154.446 313.095 150.049 313.095C143.326 313.095 137.578 317.247 135.252 323.106H134.128V303.919C134.128 301.858 134.522 299.886 135.252 298.08C137.578 292.211 143.326 288.07 150.049 288.07C154.446 288.07 158.429 289.846 161.308 292.712C162.826 294.223 164.049 296.048 164.847 298.08C165.577 299.886 165.971 301.858 165.971 303.919Z" stroke="black" stroke-miterlimit="10"/>
<path d="M197.814 303.919V323.106H196.69C195.892 321.074 194.669 319.259 193.151 317.737C190.272 314.872 186.289 313.095 181.892 313.095C175.169 313.095 169.421 317.247 167.095 323.106H165.971V303.919C165.971 301.858 166.365 299.886 167.095 298.08C169.421 292.211 175.169 288.07 181.892 288.07C186.289 288.07 190.272 289.846 193.151 292.712C194.669 294.223 195.892 296.048 196.69 298.08C197.42 299.886 197.814 301.858 197.814 303.919Z" stroke="black" stroke-miterlimit="10"/>
<path d="M229.657 303.919V323.106H228.533C227.735 321.074 226.512 319.259 224.994 317.737C222.115 314.872 218.132 313.095 213.735 313.095C207.012 313.095 201.264 317.247 198.938 323.106H197.814V303.919C197.814 301.858 198.208 299.886 198.938 298.08C201.264 292.211 207.012 288.07 213.735 288.07C218.132 288.07 222.115 289.846 224.994 292.712C226.512 294.223 227.735 296.048 228.533 298.08C229.263 299.886 229.657 301.858 229.657 303.919Z" stroke="black" stroke-miterlimit="10"/>
<path d="M261.501 303.919V323.106H260.377C259.579 321.074 258.356 319.259 256.838 317.737C253.959 314.872 249.976 313.095 245.579 313.095C238.856 313.095 233.108 317.247 230.781 323.106H229.658V303.919C229.658 301.858 230.052 299.886 230.781 298.08C233.108 292.211 238.856 288.07 245.579 288.07C249.976 288.07 253.959 289.846 256.838 292.712C258.356 294.223 259.579 296.048 260.377 298.08C261.107 299.886 261.501 301.858 261.501 303.919Z" stroke="black" stroke-miterlimit="10"/>
<path d="M293.344 303.919V323.106H292.22C291.422 321.074 290.199 319.259 288.681 317.737C285.802 314.872 281.819 313.095 277.422 313.095C270.699 313.095 264.951 317.247 262.625 323.106H261.501V303.919C261.501 301.858 261.895 299.886 262.625 298.08C264.951 292.211 270.699 288.07 277.422 288.07C281.819 288.07 285.802 289.846 288.681 292.712C290.199 294.223 291.422 296.048 292.22 298.08C292.95 299.886 293.344 301.858 293.344 303.919Z" stroke="black" stroke-miterlimit="10"/>
<path d="M325.187 303.919V323.106H324.063C323.265 321.074 322.042 319.259 320.524 317.737C317.645 314.872 313.662 313.095 309.266 313.095C302.542 313.095 296.794 317.247 294.468 323.106H293.344V303.919C293.344 301.858 293.738 299.886 294.468 298.08C296.794 292.211 302.542 288.07 309.266 288.07C313.662 288.07 317.645 289.846 320.524 292.712C322.042 294.223 323.265 296.048 324.063 298.08C324.793 299.886 325.187 301.858 325.187 303.919Z" stroke="black" stroke-miterlimit="10"/>
<path d="M357.031 303.919V323.106H355.907C355.109 321.074 353.886 319.259 352.368 317.737C349.489 314.872 345.506 313.095 341.109 313.095C334.386 313.095 328.638 317.247 326.312 323.106H325.188V303.919C325.188 301.858 325.582 299.886 326.312 298.08C328.638 292.211 334.386 288.07 341.109 288.07C345.506 288.07 349.489 289.846 352.368 292.712C353.886 294.223 355.109 296.048 355.907 298.08C356.637 299.886 357.031 301.858 357.031 303.919Z" stroke="black" stroke-miterlimit="10"/>
<path d="M388.884 303.919V323.106H387.76C386.962 321.074 385.739 319.259 384.221 317.737C381.342 314.872 377.359 313.095 372.962 313.095C366.239 313.095 360.491 317.247 358.155 323.106H357.031V303.919C357.031 301.858 357.425 299.886 358.155 298.08C360.491 292.211 366.239 288.07 372.962 288.07C377.359 288.07 381.342 289.846 384.221 292.712C385.739 294.223 386.962 296.048 387.76 298.08C388.49 299.886 388.884 301.858 388.884 303.919Z" stroke="black" stroke-miterlimit="10"/>
<path d="M420.728 303.919V323.106H419.604C418.805 321.074 417.583 319.259 416.065 317.737C413.186 314.872 409.203 313.095 404.806 313.095C398.082 313.095 392.335 317.247 390.008 323.106H388.884V303.919C388.884 301.858 389.279 299.886 390.008 298.08C392.335 292.211 398.082 288.07 404.806 288.07C409.203 288.07 413.186 289.846 416.065 292.712C417.583 294.223 418.805 296.048 419.604 298.08C420.333 299.886 420.728 301.858 420.728 303.919Z" stroke="black" stroke-miterlimit="10"/>
<path d="M452.571 303.919V323.106H451.447C450.648 321.074 449.426 319.259 447.907 317.737C445.029 314.872 441.046 313.095 436.649 313.095C429.925 313.095 424.178 317.247 421.851 323.106H420.727V303.919C420.727 301.858 421.122 299.886 421.851 298.08C424.178 292.211 429.925 288.07 436.649 288.07C441.046 288.07 445.029 289.846 447.907 292.712C449.426 294.223 450.648 296.048 451.447 298.08C452.176 299.886 452.571 301.858 452.571 303.919Z" stroke="black" stroke-miterlimit="10"/>
<path d="M484.415 303.919V323.106H483.291C482.492 321.074 481.27 319.259 479.751 317.737C476.873 314.872 472.89 313.095 468.493 313.095C461.769 313.095 456.022 317.247 453.695 323.106H452.571V303.919C452.571 301.858 452.966 299.886 453.695 298.08C456.022 292.211 461.769 288.07 468.493 288.07C472.89 288.07 476.873 289.846 479.751 292.712C481.27 294.223 482.492 296.048 483.291 298.08C484.02 299.886 484.415 301.858 484.415 303.919Z" stroke="black" stroke-miterlimit="10"/>
<path d="M516.258 303.919V323.106H515.134C514.335 321.074 513.113 319.259 511.595 317.737C508.716 314.872 504.733 313.095 500.336 313.095C493.612 313.095 487.865 317.247 485.538 323.106H484.414V303.919C484.414 301.858 484.809 299.886 485.538 298.08C487.865 292.211 493.612 288.07 500.336 288.07C504.733 288.07 508.716 289.846 511.595 292.712C513.113 294.223 514.335 296.048 515.134 298.08C515.863 299.886 516.258 301.858 516.258 303.919Z" stroke="black" stroke-miterlimit="10"/>
<path d="M548.101 303.919V323.106H546.977C546.178 321.074 544.956 319.259 543.438 317.737C540.559 314.872 536.576 313.095 532.179 313.095C525.455 313.095 519.708 317.247 517.381 323.106H516.257V303.919C516.257 301.858 516.652 299.886 517.381 298.08C519.708 292.211 525.455 288.07 532.179 288.07C536.576 288.07 540.559 289.846 543.438 292.712C544.956 294.223 546.178 296.048 546.977 298.08C547.706 299.886 548.101 301.858 548.101 303.919Z" stroke="black" stroke-miterlimit="10"/>
<path d="M579.944 303.919V323.106H578.82C578.021 321.074 576.799 319.259 575.281 317.737C572.402 314.872 568.419 313.095 564.022 313.095C557.298 313.095 551.551 317.247 549.224 323.106H548.1V303.919C548.1 301.858 548.495 299.886 549.224 298.08C551.551 292.211 557.298 288.07 564.022 288.07C568.419 288.07 572.402 289.846 575.281 292.712C576.799 294.223 578.021 296.048 578.82 298.08C579.549 299.886 579.944 301.858 579.944 303.919Z" stroke="black" stroke-miterlimit="10"/>
<path d="M611.798 303.919V323.106H610.674C609.875 321.074 608.653 319.259 607.134 317.737C604.246 314.872 600.263 313.095 595.866 313.095C589.142 313.095 583.395 317.247 581.068 323.106H579.944V303.919C579.944 301.858 580.339 299.886 581.068 298.08C583.395 292.211 589.142 288.07 595.866 288.07C600.263 288.07 604.246 289.846 607.134 292.712C608.653 294.223 609.875 296.048 610.674 298.08C611.403 299.886 611.798 301.858 611.798 303.919Z" stroke="black" stroke-miterlimit="10"/>
<path d="M102.274 328.945V348.141H101.151C100.352 346.11 99.1295 344.285 97.6114 342.773C94.7326 339.907 90.7497 338.131 86.3528 338.131C79.6292 338.131 73.8816 342.273 71.5549 348.141H70.4312V328.945C70.4312 326.884 70.8254 324.912 71.5549 323.106C73.8816 317.247 79.6292 313.095 86.3528 313.095C90.7497 313.095 94.7326 314.872 97.6114 317.737C99.1295 319.259 100.352 321.074 101.151 323.106C101.88 324.912 102.274 326.884 102.274 328.945Z" stroke="black" stroke-miterlimit="10"/>
<path d="M134.127 328.945V348.141H133.003C132.205 346.11 130.983 344.285 129.464 342.773C126.576 339.907 122.593 338.131 118.196 338.131C111.482 338.131 105.725 342.273 103.398 348.141H102.274V328.945C102.274 326.884 102.669 324.912 103.398 323.106C105.735 317.247 111.482 313.095 118.196 313.095C122.593 313.095 126.576 314.872 129.464 317.737C130.983 319.259 132.205 321.074 133.003 323.106C133.733 324.912 134.127 326.884 134.127 328.945Z" stroke="black" stroke-miterlimit="10"/>
<path d="M165.971 328.945V348.141H164.847C164.049 346.11 162.826 344.285 161.308 342.773C158.429 339.907 154.446 338.131 150.049 338.131C143.326 338.131 137.578 342.273 135.252 348.141H134.128V328.945C134.128 326.884 134.522 324.912 135.252 323.106C137.578 317.247 143.326 313.095 150.049 313.095C154.446 313.095 158.429 314.872 161.308 317.737C162.826 319.259 164.049 321.074 164.847 323.106C165.577 324.912 165.971 326.884 165.971 328.945Z" stroke="black" stroke-miterlimit="10"/>
<path d="M197.814 328.945V348.141H196.69C195.892 346.11 194.669 344.285 193.151 342.773C190.272 339.907 186.289 338.131 181.892 338.131C175.169 338.131 169.421 342.273 167.095 348.141H165.971V328.945C165.971 326.884 166.365 324.912 167.095 323.106C169.421 317.247 175.169 313.095 181.892 313.095C186.289 313.095 190.272 314.872 193.151 317.737C194.669 319.259 195.892 321.074 196.69 323.106C197.42 324.912 197.814 326.884 197.814 328.945Z" stroke="black" stroke-miterlimit="10"/>
<path d="M229.657 328.945V348.141H228.533C227.735 346.11 226.512 344.285 224.994 342.773C222.115 339.907 218.132 338.131 213.735 338.131C207.012 338.131 201.264 342.273 198.938 348.141H197.814V328.945C197.814 326.884 198.208 324.912 198.938 323.106C201.264 317.247 207.012 313.095 213.735 313.095C218.132 313.095 222.115 314.872 224.994 317.737C226.512 319.259 227.735 321.074 228.533 323.106C229.263 324.912 229.657 326.884 229.657 328.945Z" stroke="black" stroke-miterlimit="10"/>
<path d="M261.501 328.945V348.141H260.377C259.579 346.11 258.356 344.285 256.838 342.773C253.959 339.907 249.976 338.131 245.579 338.131C238.856 338.131 233.108 342.273 230.781 348.141H229.658V328.945C229.658 326.884 230.052 324.912 230.781 323.106C233.108 317.247 238.856 313.095 245.579 313.095C249.976 313.095 253.959 314.872 256.838 317.737C258.356 319.259 259.579 321.074 260.377 323.106C261.107 324.912 261.501 326.884 261.501 328.945Z" stroke="black" stroke-miterlimit="10"/>
<path d="M293.344 328.945V348.141H292.22C291.422 346.11 290.199 344.285 288.681 342.773C285.802 339.907 281.819 338.131 277.422 338.131C270.699 338.131 264.951 342.273 262.625 348.141H261.501V328.945C261.501 326.884 261.895 324.912 262.625 323.106C264.951 317.247 270.699 313.095 277.422 313.095C281.819 313.095 285.802 314.872 288.681 317.737C290.199 319.259 291.422 321.074 292.22 323.106C292.95 324.912 293.344 326.884 293.344 328.945Z" stroke="black" stroke-miterlimit="10"/>
<path d="M325.187 328.945V348.141H324.063C323.265 346.11 322.042 344.285 320.524 342.773C317.645 339.907 313.662 338.131 309.266 338.131C302.542 338.131 296.794 342.273 294.468 348.141H293.344V328.945C293.344 326.884 293.738 324.912 294.468 323.106C296.794 317.247 302.542 313.095 309.266 313.095C313.662 313.095 317.645 314.872 320.524 317.737C322.042 319.259 323.265 321.074 324.063 323.106C324.793 324.912 325.187 326.884 325.187 328.945Z" stroke="black" stroke-miterlimit="10"/>
<path d="M357.031 328.945V348.141H355.907C355.109 346.11 353.886 344.285 352.368 342.773C349.489 339.907 345.506 338.131 341.109 338.131C334.386 338.131 328.638 342.273 326.312 348.141H325.188V328.945C325.188 326.884 325.582 324.912 326.312 323.106C328.638 317.247 334.386 313.095 341.109 313.095C345.506 313.095 349.489 314.872 352.368 317.737C353.886 319.259 355.109 321.074 355.907 323.106C356.637 324.912 357.031 326.884 357.031 328.945Z" stroke="black" stroke-miterlimit="10"/>
<path d="M388.884 328.945V348.141H387.76C386.962 346.11 385.739 344.285 384.221 342.773C381.342 339.907 377.359 338.131 372.962 338.131C366.239 338.131 360.491 342.273 358.155 348.141H357.031V328.945C357.031 326.884 357.425 324.912 358.155 323.106C360.491 317.247 366.239 313.095 372.962 313.095C377.359 313.095 381.342 314.872 384.221 317.737C385.739 319.259 386.962 321.074 387.76 323.106C388.49 324.912 388.884 326.884 388.884 328.945Z" stroke="black" stroke-miterlimit="10"/>
<path d="M420.728 328.945V348.141H419.604C418.805 346.11 417.583 344.285 416.065 342.773C413.186 339.907 409.203 338.131 404.806 338.131C398.082 338.131 392.335 342.273 390.008 348.141H388.884V328.945C388.884 326.884 389.279 324.912 390.008 323.106C392.335 317.247 398.082 313.095 404.806 313.095C409.203 313.095 413.186 314.872 416.065 317.737C417.583 319.259 418.805 321.074 419.604 323.106C420.333 324.912 420.728 326.884 420.728 328.945Z" stroke="black" stroke-miterlimit="10"/>
<path d="M452.571 328.945V348.141H451.447C450.648 346.11 449.426 344.285 447.907 342.773C445.029 339.907 441.046 338.131 436.649 338.131C429.925 338.131 424.178 342.273 421.851 348.141H420.727V328.945C420.727 326.884 421.122 324.912 421.851 323.106C424.178 317.247 429.925 313.095 436.649 313.095C441.046 313.095 445.029 314.872 447.907 317.737C449.426 319.259 450.648 321.074 451.447 323.106C452.176 324.912 452.571 326.884 452.571 328.945Z" stroke="black" stroke-miterlimit="10"/>
<path d="M484.415 328.945V348.141H483.291C482.492 346.11 481.27 344.285 479.751 342.773C476.873 339.907 472.89 338.131 468.493 338.131C461.769 338.131 456.022 342.273 453.695 348.141H452.571V328.945C452.571 326.884 452.966 324.912 453.695 323.106C456.022 317.247 461.769 313.095 468.493 313.095C472.89 313.095 476.873 314.872 479.751 317.737C481.27 319.259 482.492 321.074 483.291 323.106C484.02 324.912 484.415 326.884 484.415 328.945Z" stroke="black" stroke-miterlimit="10"/>
<path d="M516.258 328.945V348.141H515.134C514.335 346.11 513.113 344.285 511.595 342.773C508.716 339.907 504.733 338.131 500.336 338.131C493.612 338.131 487.865 342.273 485.538 348.141H484.414V328.945C484.414 326.884 484.809 324.912 485.538 323.106C487.865 317.247 493.612 313.095 500.336 313.095C504.733 313.095 508.716 314.872 511.595 317.737C513.113 319.259 514.335 321.074 515.134 323.106C515.863 324.912 516.258 326.884 516.258 328.945Z" stroke="black" stroke-miterlimit="10"/>
<path d="M548.101 328.945V348.141H546.977C546.178 346.11 544.956 344.285 543.438 342.773C540.559 339.907 536.576 338.131 532.179 338.131C525.455 338.131 519.708 342.273 517.381 348.141H516.257V328.945C516.257 326.884 516.652 324.912 517.381 323.106C519.708 317.247 525.455 313.095 532.179 313.095C536.576 313.095 540.559 314.872 543.438 317.737C544.956 319.259 546.178 321.074 546.977 323.106C547.706 324.912 548.101 326.884 548.101 328.945Z" stroke="black" stroke-miterlimit="10"/>
<path d="M579.944 328.945V348.141H578.82C578.021 346.11 576.799 344.285 575.281 342.773C572.402 339.907 568.419 338.131 564.022 338.131C557.298 338.131 551.551 342.273 549.224 348.141H548.1V328.945C548.1 326.884 548.495 324.912 549.224 323.106C551.551 317.247 557.298 313.095 564.022 313.095C568.419 313.095 572.402 314.872 575.281 317.737C576.799 319.259 578.021 321.074 578.82 323.106C579.549 324.912 579.944 326.884 579.944 328.945Z" stroke="black" stroke-miterlimit="10"/>
<path d="M611.798 328.945V348.141H610.674C609.875 346.11 608.653 344.285 607.134 342.773C604.246 339.907 600.263 338.131 595.866 338.131C589.142 338.131 583.395 342.273 581.068 348.141H579.944V328.945C579.944 326.884 580.339 324.912 581.068 323.106C583.395 317.247 589.142 313.095 595.866 313.095C600.263 313.095 604.246 314.872 607.134 317.737C608.653 319.259 609.875 321.074 610.674 323.106C611.403 324.912 611.798 326.884 611.798 328.945Z" stroke="black" stroke-miterlimit="10"/>
<path d="M57.726 304.425H0" stroke="black" stroke-miterlimit="10"/>
<path d="M57.726 324.128H0" stroke="black" stroke-miterlimit="10"/>
<path d="M57.726 343.83H0" stroke="black" stroke-miterlimit="10"/>
<path d="M57.726 363.533H0" stroke="black" stroke-miterlimit="10"/>
<path d="M57.726 383.235H0" stroke="black" stroke-miterlimit="10"/>
<path d="M57.726 402.937H0" stroke="black" stroke-miterlimit="10"/>
<path d="M57.726 422.64H0" stroke="black" stroke-miterlimit="10"/>
<path d="M57.726 442.342H0" stroke="black" stroke-miterlimit="10"/>
<path d="M57.726 462.045H0" stroke="black" stroke-miterlimit="10"/>
<path d="M57.726 481.747H0" stroke="black" stroke-miterlimit="10"/>
<path d="M57.726 501.449H0" stroke="black" stroke-miterlimit="10"/>
<path d="M70.4312 361.142V353.981C70.4312 351.92 70.8254 349.947 71.5549 348.141C73.8816 342.273 79.6292 338.131 86.3528 338.131C90.7497 338.131 94.7326 339.907 97.6114 342.773C99.1295 344.285 100.352 346.11 101.151 348.141C101.88 349.947 102.274 351.92 102.274 353.981V373.167H70.4312V367.294" stroke="black" stroke-miterlimit="10"/>
<path d="M134.127 353.981V373.167H102.274V353.981C102.274 351.92 102.669 349.947 103.398 348.141C105.725 342.273 111.482 338.131 118.196 338.131C122.593 338.131 126.576 339.907 129.464 342.773C130.983 344.285 132.205 346.11 133.003 348.141C133.733 349.947 134.127 351.92 134.127 353.981Z" stroke="black" stroke-miterlimit="10"/>
<path d="M165.971 353.981V373.167H134.128V353.981C134.128 351.92 134.522 349.947 135.252 348.141C137.578 342.273 143.326 338.131 150.049 338.131C154.446 338.131 158.429 339.907 161.308 342.773C162.826 344.285 164.049 346.11 164.847 348.141C165.577 349.947 165.971 351.92 165.971 353.981Z" stroke="black" stroke-miterlimit="10"/>
<path d="M197.814 353.981V373.167H165.971V353.981C165.971 351.92 166.365 349.947 167.095 348.141C169.421 342.273 175.169 338.131 181.892 338.131C186.289 338.131 190.272 339.907 193.151 342.773C194.669 344.285 195.892 346.11 196.69 348.141C197.42 349.947 197.814 351.92 197.814 353.981Z" stroke="black" stroke-miterlimit="10"/>
<path d="M229.657 353.981V373.167H197.814V353.981C197.814 351.92 198.208 349.947 198.938 348.141C201.264 342.273 207.012 338.131 213.735 338.131C218.132 338.131 222.115 339.907 224.994 342.773C226.512 344.285 227.735 346.11 228.533 348.141C229.263 349.947 229.657 351.92 229.657 353.981Z" stroke="black" stroke-miterlimit="10"/>
<path d="M261.501 353.981V373.167H229.658V353.981C229.658 351.92 230.052 349.947 230.781 348.141C233.108 342.273 238.856 338.131 245.579 338.131C249.976 338.131 253.959 339.907 256.838 342.773C258.356 344.285 259.579 346.11 260.377 348.141C261.107 349.947 261.501 351.92 261.501 353.981Z" stroke="black" stroke-miterlimit="10"/>
<path d="M293.344 353.981V373.167H261.501V353.981C261.501 351.92 261.895 349.947 262.625 348.141C264.951 342.273 270.699 338.131 277.422 338.131C281.819 338.131 285.802 339.907 288.681 342.773C290.199 344.285 291.422 346.11 292.22 348.141C292.95 349.947 293.344 351.92 293.344 353.981Z" stroke="black" stroke-miterlimit="10"/>
<path d="M325.187 353.981V373.167H293.344V353.981C293.344 351.92 293.738 349.947 294.468 348.141C296.794 342.273 302.542 338.131 309.266 338.131C313.662 338.131 317.645 339.907 320.524 342.773C322.042 344.285 323.265 346.11 324.063 348.141C324.793 349.947 325.187 351.92 325.187 353.981Z" stroke="black" stroke-miterlimit="10"/>
<path d="M357.031 353.981V373.167H325.188V353.981C325.188 351.92 325.582 349.947 326.312 348.141C328.638 342.273 334.386 338.131 341.109 338.131C345.506 338.131 349.489 339.907 352.368 342.773C353.886 344.285 355.109 346.11 355.907 348.141C356.637 349.947 357.031 351.92 357.031 353.981Z" stroke="black" stroke-miterlimit="10"/>
<path d="M388.884 353.981V373.167H357.031V353.981C357.031 351.92 357.425 349.947 358.155 348.141C360.491 342.273 366.239 338.131 372.962 338.131C377.359 338.131 381.342 339.907 384.221 342.773C385.739 344.285 386.962 346.11 387.76 348.141C388.49 349.947 388.884 351.92 388.884 353.981Z" stroke="black" stroke-miterlimit="10"/>
<path d="M420.728 353.981V373.167H388.884V353.981C388.884 351.92 389.279 349.947 390.008 348.141C392.335 342.273 398.082 338.131 404.806 338.131C409.203 338.131 413.186 339.907 416.065 342.773C417.583 344.285 418.805 346.11 419.604 348.141C420.333 349.947 420.728 351.92 420.728 353.981Z" stroke="black" stroke-miterlimit="10"/>
<path d="M452.571 353.981V373.167H420.727V353.981C420.727 351.92 421.122 349.947 421.851 348.141C424.178 342.273 429.925 338.131 436.649 338.131C441.046 338.131 445.029 339.907 447.907 342.773C449.426 344.285 450.648 346.11 451.447 348.141C452.176 349.947 452.571 351.92 452.571 353.981Z" stroke="black" stroke-miterlimit="10"/>
<path d="M484.415 353.981V373.167H452.571V353.981C452.571 351.92 452.966 349.947 453.695 348.141C456.022 342.273 461.769 338.131 468.493 338.131C472.89 338.131 476.873 339.907 479.751 342.773C481.27 344.285 482.492 346.11 483.291 348.141C484.02 349.947 484.415 351.92 484.415 353.981Z" stroke="black" stroke-miterlimit="10"/>
<path d="M516.258 353.981V373.167H484.414V353.981C484.414 351.92 484.809 349.947 485.538 348.141C487.865 342.273 493.612 338.131 500.336 338.131C504.733 338.131 508.716 339.907 511.595 342.773C513.113 344.285 514.335 346.11 515.134 348.141C515.863 349.947 516.258 351.92 516.258 353.981Z" stroke="black" stroke-miterlimit="10"/>
<path d="M548.101 353.981V373.167H516.257V353.981C516.257 351.92 516.652 349.947 517.381 348.141C519.708 342.273 525.455 338.131 532.179 338.131C536.576 338.131 540.559 339.907 543.438 342.773C544.956 344.285 546.178 346.11 546.977 348.141C547.706 349.947 548.101 351.92 548.101 353.981Z" stroke="black" stroke-miterlimit="10"/>
<path d="M579.944 353.981V373.167H548.1V353.981C548.1 351.92 548.495 349.947 549.224 348.141C551.551 342.273 557.298 338.131 564.022 338.131C568.419 338.131 572.402 339.907 575.281 342.773C576.799 344.285 578.021 346.11 578.82 348.141C579.549 349.947 579.944 351.92 579.944 353.981Z" stroke="black" stroke-miterlimit="10"/>
<path d="M611.798 353.981V373.167H579.944V353.981C579.944 351.92 580.339 349.947 581.068 348.141C583.395 342.273 589.142 338.131 595.866 338.131C600.263 338.131 604.246 339.907 607.134 342.773C608.653 344.285 609.875 346.11 610.674 348.141C611.403 349.947 611.798 351.92 611.798 353.981Z" stroke="black" stroke-miterlimit="10"/>
<path d="M102.274 447.912V467.099H101.151C100.352 465.067 99.1295 463.252 97.6114 461.731C94.7326 458.865 90.7497 457.089 86.3528 457.089C79.6292 457.089 73.8816 461.24 71.5549 467.099H70.4312V447.912C70.4312 445.851 70.8254 443.879 71.5549 442.073C73.8816 436.204 79.6292 432.063 86.3528 432.063C90.7497 432.063 94.7326 433.839 97.6114 436.705C99.1295 438.216 100.352 440.041 101.151 442.073C101.88 443.879 102.274 445.851 102.274 447.912Z" stroke="black" stroke-miterlimit="10"/>
<path d="M134.127 447.912V467.099H133.003C132.205 465.067 130.983 463.252 129.464 461.731C126.576 458.865 122.593 457.089 118.196 457.089C111.482 457.089 105.735 461.24 103.398 467.099H102.274V447.912C102.274 445.851 102.669 443.879 103.398 442.073C105.725 436.204 111.482 432.063 118.196 432.063C122.593 432.063 126.576 433.839 129.464 436.705C130.983 438.216 132.205 440.041 133.003 442.073C133.733 443.879 134.127 445.851 134.127 447.912Z" stroke="black" stroke-miterlimit="10"/>
<path d="M165.971 447.912V467.099H164.847C164.049 465.067 162.826 463.252 161.308 461.731C158.429 458.865 154.446 457.089 150.049 457.089C143.326 457.089 137.578 461.24 135.252 467.099H134.128V447.912C134.128 445.851 134.522 443.879 135.252 442.073C137.578 436.204 143.326 432.063 150.049 432.063C154.446 432.063 158.429 433.839 161.308 436.705C162.826 438.216 164.049 440.041 164.847 442.073C165.577 443.879 165.971 445.851 165.971 447.912Z" stroke="black" stroke-miterlimit="10"/>
<path d="M197.814 447.912V467.099H196.69C195.892 465.067 194.669 463.252 193.151 461.731C190.272 458.865 186.289 457.089 181.892 457.089C175.169 457.089 169.421 461.24 167.095 467.099H165.971V447.912C165.971 445.851 166.365 443.879 167.095 442.073C169.421 436.204 175.169 432.063 181.892 432.063C186.289 432.063 190.272 433.839 193.151 436.705C194.669 438.216 195.892 440.041 196.69 442.073C197.42 443.879 197.814 445.851 197.814 447.912Z" stroke="black" stroke-miterlimit="10"/>
<path d="M229.657 447.912V467.099H228.533C227.735 465.067 226.512 463.252 224.994 461.731C222.115 458.865 218.132 457.089 213.735 457.089C207.012 457.089 201.264 461.24 198.938 467.099H197.814V447.912C197.814 445.851 198.208 443.879 198.938 442.073C201.264 436.204 207.012 432.063 213.735 432.063C218.132 432.063 222.115 433.839 224.994 436.705C226.512 438.216 227.735 440.041 228.533 442.073C229.263 443.879 229.657 445.851 229.657 447.912Z" stroke="black" stroke-miterlimit="10"/>
<path d="M261.501 447.912V467.099H260.377C259.579 465.067 258.356 463.252 256.838 461.731C253.959 458.865 249.976 457.089 245.579 457.089C238.856 457.089 233.108 461.24 230.781 467.099H229.658V447.912C229.658 445.851 230.052 443.879 230.781 442.073C233.108 436.204 238.856 432.063 245.579 432.063C249.976 432.063 253.959 433.839 256.838 436.705C258.356 438.216 259.579 440.041 260.377 442.073C261.107 443.879 261.501 445.851 261.501 447.912Z" stroke="black" stroke-miterlimit="10"/>
<path d="M293.344 447.912V467.099H292.22C291.422 465.067 290.199 463.252 288.681 461.731C285.802 458.865 281.819 457.089 277.422 457.089C270.699 457.089 264.951 461.24 262.625 467.099H261.501V447.912C261.501 445.851 261.895 443.879 262.625 442.073C264.951 436.204 270.699 432.063 277.422 432.063C281.819 432.063 285.802 433.839 288.681 436.705C290.199 438.216 291.422 440.041 292.22 442.073C292.95 443.879 293.344 445.851 293.344 447.912Z" stroke="black" stroke-miterlimit="10"/>
<path d="M325.187 447.912V467.099H324.063C323.265 465.067 322.042 463.252 320.524 461.731C317.645 458.865 313.662 457.089 309.266 457.089C302.542 457.089 296.794 461.24 294.468 467.099H293.344V447.912C293.344 445.851 293.738 443.879 294.468 442.073C296.794 436.204 302.542 432.063 309.266 432.063C313.662 432.063 317.645 433.839 320.524 436.705C322.042 438.216 323.265 440.041 324.063 442.073C324.793 443.879 325.187 445.851 325.187 447.912Z" stroke="black" stroke-miterlimit="10"/>
<path d="M357.031 447.912V467.099H355.907C355.109 465.067 353.886 463.252 352.368 461.731C349.489 458.865 345.506 457.089 341.109 457.089C334.386 457.089 328.638 461.24 326.312 467.099H325.188V447.912C325.188 445.851 325.582 443.879 326.312 442.073C328.638 436.204 334.386 432.063 341.109 432.063C345.506 432.063 349.489 433.839 352.368 436.705C353.886 438.216 355.109 440.041 355.907 442.073C356.637 443.879 357.031 445.851 357.031 447.912Z" stroke="black" stroke-miterlimit="10"/>
<path d="M388.884 447.912V467.099H387.76C386.962 465.067 385.739 463.252 384.221 461.731C381.342 458.865 377.359 457.089 372.962 457.089C366.239 457.089 360.491 461.24 358.155 467.099H357.031V447.912C357.031 445.851 357.425 443.879 358.155 442.073C360.491 436.204 366.239 432.063 372.962 432.063C377.359 432.063 381.342 433.839 384.221 436.705C385.739 438.216 386.962 440.041 387.76 442.073C388.49 443.879 388.884 445.851 388.884 447.912Z" stroke="black" stroke-miterlimit="10"/>
<path d="M420.728 447.912V467.099H419.604C418.805 465.067 417.583 463.252 416.065 461.731C413.186 458.865 409.203 457.089 404.806 457.089C398.082 457.089 392.335 461.24 390.008 467.099H388.884V447.912C388.884 445.851 389.279 443.879 390.008 442.073C392.335 436.204 398.082 432.063 404.806 432.063C409.203 432.063 413.186 433.839 416.065 436.705C417.583 438.216 418.805 440.041 419.604 442.073C420.333 443.879 420.728 445.851 420.728 447.912Z" stroke="black" stroke-miterlimit="10"/>
<path d="M452.571 447.912V467.099H451.447C450.648 465.067 449.426 463.252 447.907 461.731C445.029 458.865 441.046 457.089 436.649 457.089C429.925 457.089 424.178 461.24 421.851 467.099H420.727V447.912C420.727 445.851 421.122 443.879 421.851 442.073C424.178 436.204 429.925 432.063 436.649 432.063C441.046 432.063 445.029 433.839 447.907 436.705C449.426 438.216 450.648 440.041 451.447 442.073C452.176 443.879 452.571 445.851 452.571 447.912Z" stroke="black" stroke-miterlimit="10"/>
<path d="M484.415 447.912V467.099H483.291C482.492 465.067 481.27 463.252 479.751 461.731C476.873 458.865 472.89 457.089 468.493 457.089C461.769 457.089 456.022 461.24 453.695 467.099H452.571V447.912C452.571 445.851 452.966 443.879 453.695 442.073C456.022 436.204 461.769 432.063 468.493 432.063C472.89 432.063 476.873 433.839 479.751 436.705C481.27 438.216 482.492 440.041 483.291 442.073C484.02 443.879 484.415 445.851 484.415 447.912Z" stroke="black" stroke-miterlimit="10"/>
<path d="M516.258 447.912V467.099H515.134C514.335 465.067 513.113 463.252 511.595 461.731C508.716 458.865 504.733 457.089 500.336 457.089C493.612 457.089 487.865 461.24 485.538 467.099H484.414V447.912C484.414 445.851 484.809 443.879 485.538 442.073C487.865 436.204 493.612 432.063 500.336 432.063C504.733 432.063 508.716 433.839 511.595 436.705C513.113 438.216 514.335 440.041 515.134 442.073C515.863 443.879 516.258 445.851 516.258 447.912Z" stroke="black" stroke-miterlimit="10"/>
<path d="M548.101 447.912V467.099H546.977C546.178 465.067 544.956 463.252 543.438 461.731C540.559 458.865 536.576 457.089 532.179 457.089C525.455 457.089 519.708 461.24 517.381 467.099H516.257V447.912C516.257 445.851 516.652 443.879 517.381 442.073C519.708 436.204 525.455 432.063 532.179 432.063C536.576 432.063 540.559 433.839 543.438 436.705C544.956 438.216 546.178 440.041 546.977 442.073C547.706 443.879 548.101 445.851 548.101 447.912Z" stroke="black" stroke-miterlimit="10"/>
<path d="M579.944 447.912V467.099H578.82C578.021 465.067 576.799 463.252 575.281 461.731C572.402 458.865 568.419 457.089 564.022 457.089C557.298 457.089 551.551 461.24 549.224 467.099H548.1V447.912C548.1 445.851 548.495 443.879 549.224 442.073C551.551 436.204 557.298 432.063 564.022 432.063C568.419 432.063 572.402 433.839 575.281 436.705C576.799 438.216 578.021 440.041 578.82 442.073C579.549 443.879 579.944 445.851 579.944 447.912Z" stroke="black" stroke-miterlimit="10"/>
<path d="M611.798 447.912V467.099H610.674C609.875 465.067 608.653 463.252 607.134 461.731C604.246 458.865 600.263 457.089 595.866 457.089C589.142 457.089 583.395 461.24 581.068 467.099H579.944V447.912C579.944 445.851 580.339 443.879 581.068 442.073C583.395 436.204 589.142 432.063 595.866 432.063C600.263 432.063 604.246 433.839 607.134 436.705C608.653 438.216 609.875 440.041 610.674 442.073C611.403 443.879 611.798 445.851 611.798 447.912Z" stroke="black" stroke-miterlimit="10"/>
<path d="M102.274 472.938V492.135H101.151C100.352 490.103 99.1295 488.278 97.6114 486.766C94.7326 483.9 90.7497 482.124 86.3528 482.124C79.6292 482.124 73.8816 486.266 71.5549 492.135H70.4312V472.938C70.4312 470.877 70.8254 468.905 71.5549 467.099C73.8816 461.24 79.6292 457.089 86.3528 457.089C90.7497 457.089 94.7326 458.865 97.6114 461.731C99.1295 463.252 100.352 465.067 101.151 467.099C101.88 468.905 102.274 470.877 102.274 472.938Z" stroke="black" stroke-miterlimit="10"/>
<path d="M134.127 472.938V492.135H133.003C132.205 490.103 130.983 488.278 129.464 486.766C126.576 483.9 122.593 482.124 118.196 482.124C111.482 482.124 105.725 486.266 103.398 492.135H102.274V472.938C102.274 470.877 102.669 468.905 103.398 467.099C105.735 461.24 111.482 457.089 118.196 457.089C122.593 457.089 126.576 458.865 129.464 461.731C130.983 463.252 132.205 465.067 133.003 467.099C133.733 468.905 134.127 470.877 134.127 472.938Z" stroke="black" stroke-miterlimit="10"/>
<path d="M165.971 472.938V492.135H164.847C164.049 490.103 162.826 488.278 161.308 486.766C158.429 483.9 154.446 482.124 150.049 482.124C143.326 482.124 137.578 486.266 135.252 492.135H134.128V472.938C134.128 470.877 134.522 468.905 135.252 467.099C137.578 461.24 143.326 457.089 150.049 457.089C154.446 457.089 158.429 458.865 161.308 461.731C162.826 463.252 164.049 465.067 164.847 467.099C165.577 468.905 165.971 470.877 165.971 472.938Z" stroke="black" stroke-miterlimit="10"/>
<path d="M197.814 472.938V492.135H196.69C195.892 490.103 194.669 488.278 193.151 486.766C190.272 483.9 186.289 482.124 181.892 482.124C175.169 482.124 169.421 486.266 167.095 492.135H165.971V472.938C165.971 470.877 166.365 468.905 167.095 467.099C169.421 461.24 175.169 457.089 181.892 457.089C186.289 457.089 190.272 458.865 193.151 461.731C194.669 463.252 195.892 465.067 196.69 467.099C197.42 468.905 197.814 470.877 197.814 472.938Z" stroke="black" stroke-miterlimit="10"/>
<path d="M229.657 472.938V492.135H228.533C227.735 490.103 226.512 488.278 224.994 486.766C222.115 483.9 218.132 482.124 213.735 482.124C207.012 482.124 201.264 486.266 198.938 492.135H197.814V472.938C197.814 470.877 198.208 468.905 198.938 467.099C201.264 461.24 207.012 457.089 213.735 457.089C218.132 457.089 222.115 458.865 224.994 461.731C226.512 463.252 227.735 465.067 228.533 467.099C229.263 468.905 229.657 470.877 229.657 472.938Z" stroke="black" stroke-miterlimit="10"/>
<path d="M261.501 472.938V492.135H260.377C259.579 490.103 258.356 488.278 256.838 486.766C253.959 483.9 249.976 482.124 245.579 482.124C238.856 482.124 233.108 486.266 230.781 492.135H229.658V472.938C229.658 470.877 230.052 468.905 230.781 467.099C233.108 461.24 238.856 457.089 245.579 457.089C249.976 457.089 253.959 458.865 256.838 461.731C258.356 463.252 259.579 465.067 260.377 467.099C261.107 468.905 261.501 470.877 261.501 472.938Z" stroke="black" stroke-miterlimit="10"/>
<path d="M293.344 472.938V492.135H292.22C291.422 490.103 290.199 488.278 288.681 486.766C285.802 483.9 281.819 482.124 277.422 482.124C270.699 482.124 264.951 486.266 262.625 492.135H261.501V472.938C261.501 470.877 261.895 468.905 262.625 467.099C264.951 461.24 270.699 457.089 277.422 457.089C281.819 457.089 285.802 458.865 288.681 461.731C290.199 463.252 291.422 465.067 292.22 467.099C292.95 468.905 293.344 470.877 293.344 472.938Z" stroke="black" stroke-miterlimit="10"/>
<path d="M325.187 472.938V492.135H324.063C323.265 490.103 322.042 488.278 320.524 486.766C317.645 483.9 313.662 482.124 309.266 482.124C302.542 482.124 296.794 486.266 294.468 492.135H293.344V472.938C293.344 470.877 293.738 468.905 294.468 467.099C296.794 461.24 302.542 457.089 309.266 457.089C313.662 457.089 317.645 458.865 320.524 461.731C322.042 463.252 323.265 465.067 324.063 467.099C324.793 468.905 325.187 470.877 325.187 472.938Z" stroke="black" stroke-miterlimit="10"/>
<path d="M357.031 472.938V492.135H355.907C355.109 490.103 353.886 488.278 352.368 486.766C349.489 483.9 345.506 482.124 341.109 482.124C334.386 482.124 328.638 486.266 326.312 492.135H325.188V472.938C325.188 470.877 325.582 468.905 326.312 467.099C328.638 461.24 334.386 457.089 341.109 457.089C345.506 457.089 349.489 458.865 352.368 461.731C353.886 463.252 355.109 465.067 355.907 467.099C356.637 468.905 357.031 470.877 357.031 472.938Z" stroke="black" stroke-miterlimit="10"/>
<path d="M388.884 472.938V492.135H387.76C386.962 490.103 385.739 488.278 384.221 486.766C381.342 483.9 377.359 482.124 372.962 482.124C366.239 482.124 360.491 486.266 358.155 492.135H357.031V472.938C357.031 470.877 357.425 468.905 358.155 467.099C360.491 461.24 366.239 457.089 372.962 457.089C377.359 457.089 381.342 458.865 384.221 461.731C385.739 463.252 386.962 465.067 387.76 467.099C388.49 468.905 388.884 470.877 388.884 472.938Z" stroke="black" stroke-miterlimit="10"/>
<path d="M420.728 472.938V492.135H419.604C418.805 490.103 417.583 488.278 416.065 486.766C413.186 483.9 409.203 482.124 404.806 482.124C398.082 482.124 392.335 486.266 390.008 492.135H388.884V472.938C388.884 470.877 389.279 468.905 390.008 467.099C392.335 461.24 398.082 457.089 404.806 457.089C409.203 457.089 413.186 458.865 416.065 461.731C417.583 463.252 418.805 465.067 419.604 467.099C420.333 468.905 420.728 470.877 420.728 472.938Z" stroke="black" stroke-miterlimit="10"/>
<path d="M452.571 472.938V492.135H451.447C450.648 490.103 449.426 488.278 447.907 486.766C445.029 483.9 441.046 482.124 436.649 482.124C429.925 482.124 424.178 486.266 421.851 492.135H420.727V472.938C420.727 470.877 421.122 468.905 421.851 467.099C424.178 461.24 429.925 457.089 436.649 457.089C441.046 457.089 445.029 458.865 447.907 461.731C449.426 463.252 450.648 465.067 451.447 467.099C452.176 468.905 452.571 470.877 452.571 472.938Z" stroke="black" stroke-miterlimit="10"/>
<path d="M484.415 472.938V492.135H483.291C482.492 490.103 481.27 488.278 479.751 486.766C476.873 483.9 472.89 482.124 468.493 482.124C461.769 482.124 456.022 486.266 453.695 492.135H452.571V472.938C452.571 470.877 452.966 468.905 453.695 467.099C456.022 461.24 461.769 457.089 468.493 457.089C472.89 457.089 476.873 458.865 479.751 461.731C481.27 463.252 482.492 465.067 483.291 467.099C484.02 468.905 484.415 470.877 484.415 472.938Z" stroke="black" stroke-miterlimit="10"/>
<path d="M516.258 472.938V492.135H515.134C514.335 490.103 513.113 488.278 511.595 486.766C508.716 483.9 504.733 482.124 500.336 482.124C493.612 482.124 487.865 486.266 485.538 492.135H484.414V472.938C484.414 470.877 484.809 468.905 485.538 467.099C487.865 461.24 493.612 457.089 500.336 457.089C504.733 457.089 508.716 458.865 511.595 461.731C513.113 463.252 514.335 465.067 515.134 467.099C515.863 468.905 516.258 470.877 516.258 472.938Z" stroke="black" stroke-miterlimit="10"/>
<path d="M548.101 472.938V492.135H546.977C546.178 490.103 544.956 488.278 543.438 486.766C540.559 483.9 536.576 482.124 532.179 482.124C525.455 482.124 519.708 486.266 517.381 492.135H516.257V472.938C516.257 470.877 516.652 468.905 517.381 467.099C519.708 461.24 525.455 457.089 532.179 457.089C536.576 457.089 540.559 458.865 543.438 461.731C544.956 463.252 546.178 465.067 546.977 467.099C547.706 468.905 548.101 470.877 548.101 472.938Z" stroke="black" stroke-miterlimit="10"/>
<path d="M579.944 472.938V492.135H578.82C578.021 490.103 576.799 488.278 575.281 486.766C572.402 483.9 568.419 482.124 564.022 482.124C557.298 482.124 551.551 486.266 549.224 492.135H548.1V472.938C548.1 470.877 548.495 468.905 549.224 467.099C551.551 461.24 557.298 457.089 564.022 457.089C568.419 457.089 572.402 458.865 575.281 461.731C576.799 463.252 578.021 465.067 578.82 467.099C579.549 468.905 579.944 470.877 579.944 472.938Z" stroke="black" stroke-miterlimit="10"/>
<path d="M611.798 472.938V492.135H610.674C609.875 490.103 608.653 488.278 607.134 486.766C604.246 483.9 600.263 482.124 595.866 482.124C589.142 482.124 583.395 486.266 581.068 492.135H579.944V472.938C579.944 470.877 580.339 468.905 581.068 467.099C583.395 461.24 589.142 457.089 595.866 457.089C600.263 457.089 604.246 458.865 607.134 461.731C608.653 463.252 609.875 465.067 610.674 467.099C611.403 468.905 611.798 470.877 611.798 472.938Z" stroke="black" stroke-miterlimit="10"/>
<path d="M102.274 497.974V517.161H70.4312V497.974C70.4312 495.913 70.8254 493.94 71.5549 492.135C73.8816 486.266 79.6292 482.124 86.3528 482.124C90.7497 482.124 94.7326 483.901 97.6114 486.766C99.1295 488.278 100.352 490.103 101.151 492.135C101.88 493.94 102.274 495.913 102.274 497.974Z" stroke="black" stroke-miterlimit="10"/>
<path d="M134.127 497.974V517.161H102.274V497.974C102.274 495.913 102.669 493.94 103.398 492.135C105.725 486.266 111.482 482.124 118.196 482.124C122.593 482.124 126.576 483.901 129.464 486.766C130.983 488.278 132.205 490.103 133.003 492.135C133.733 493.94 134.127 495.913 134.127 497.974Z" stroke="black" stroke-miterlimit="10"/>
<path d="M165.971 497.974V517.161H134.128V497.974C134.128 495.913 134.522 493.94 135.252 492.135C137.578 486.266 143.326 482.124 150.049 482.124C154.446 482.124 158.429 483.901 161.308 486.766C162.826 488.278 164.049 490.103 164.847 492.135C165.577 493.94 165.971 495.913 165.971 497.974Z" stroke="black" stroke-miterlimit="10"/>
<path d="M197.814 497.974V517.161H165.971V497.974C165.971 495.913 166.365 493.94 167.095 492.135C169.421 486.266 175.169 482.124 181.892 482.124C186.289 482.124 190.272 483.901 193.151 486.766C194.669 488.278 195.892 490.103 196.69 492.135C197.42 493.94 197.814 495.913 197.814 497.974Z" stroke="black" stroke-miterlimit="10"/>
<path d="M229.657 497.974V517.161H197.814V497.974C197.814 495.913 198.208 493.94 198.938 492.135C201.264 486.266 207.012 482.124 213.735 482.124C218.132 482.124 222.115 483.901 224.994 486.766C226.512 488.278 227.735 490.103 228.533 492.135C229.263 493.94 229.657 495.913 229.657 497.974Z" stroke="black" stroke-miterlimit="10"/>
<path d="M261.501 497.974V517.161H229.658V497.974C229.658 495.913 230.052 493.94 230.781 492.135C233.108 486.266 238.856 482.124 245.579 482.124C249.976 482.124 253.959 483.901 256.838 486.766C258.356 488.278 259.579 490.103 260.377 492.135C261.107 493.94 261.501 495.913 261.501 497.974Z" stroke="black" stroke-miterlimit="10"/>
<path d="M293.344 497.974V517.161H261.501V497.974C261.501 495.913 261.895 493.94 262.625 492.135C264.951 486.266 270.699 482.124 277.422 482.124C281.819 482.124 285.802 483.901 288.681 486.766C290.199 488.278 291.422 490.103 292.22 492.135C292.95 493.94 293.344 495.913 293.344 497.974Z" stroke="black" stroke-miterlimit="10"/>
<path d="M325.187 497.974V517.161H293.344V497.974C293.344 495.913 293.738 493.94 294.468 492.135C296.794 486.266 302.542 482.124 309.266 482.124C313.662 482.124 317.645 483.901 320.524 486.766C322.042 488.278 323.265 490.103 324.063 492.135C324.793 493.94 325.187 495.913 325.187 497.974Z" stroke="black" stroke-miterlimit="10"/>
<path d="M357.031 497.974V517.161H325.188V497.974C325.188 495.913 325.582 493.94 326.312 492.135C328.638 486.266 334.386 482.124 341.109 482.124C345.506 482.124 349.489 483.901 352.368 486.766C353.886 488.278 355.109 490.103 355.907 492.135C356.637 493.94 357.031 495.913 357.031 497.974Z" stroke="black" stroke-miterlimit="10"/>
<path d="M388.884 497.974V517.161H357.031V497.974C357.031 495.913 357.425 493.94 358.155 492.135C360.491 486.266 366.239 482.124 372.962 482.124C377.359 482.124 381.342 483.901 384.221 486.766C385.739 488.278 386.962 490.103 387.76 492.135C388.49 493.94 388.884 495.913 388.884 497.974Z" stroke="black" stroke-miterlimit="10"/>
<path d="M420.728 497.974V517.161H388.884V497.974C388.884 495.913 389.279 493.94 390.008 492.135C392.335 486.266 398.082 482.124 404.806 482.124C409.203 482.124 413.186 483.901 416.065 486.766C417.583 488.278 418.805 490.103 419.604 492.135C420.333 493.94 420.728 495.913 420.728 497.974Z" stroke="black" stroke-miterlimit="10"/>
<path d="M452.571 497.974V517.161H420.727V497.974C420.727 495.913 421.122 493.94 421.851 492.135C424.178 486.266 429.925 482.124 436.649 482.124C441.046 482.124 445.029 483.901 447.907 486.766C449.426 488.278 450.648 490.103 451.447 492.135C452.176 493.94 452.571 495.913 452.571 497.974Z" stroke="black" stroke-miterlimit="10"/>
<path d="M484.415 497.974V517.161H452.571V497.974C452.571 495.913 452.966 493.94 453.695 492.135C456.022 486.266 461.769 482.124 468.493 482.124C472.89 482.124 476.873 483.901 479.751 486.766C481.27 488.278 482.492 490.103 483.291 492.135C484.02 493.94 484.415 495.913 484.415 497.974Z" stroke="black" stroke-miterlimit="10"/>
<path d="M516.258 497.974V517.161H484.414V497.974C484.414 495.913 484.809 493.94 485.538 492.135C487.865 486.266 493.612 482.124 500.336 482.124C504.733 482.124 508.716 483.901 511.595 486.766C513.113 488.278 514.335 490.103 515.134 492.135C515.863 493.94 516.258 495.913 516.258 497.974Z" stroke="black" stroke-miterlimit="10"/>
<path d="M548.101 497.974V517.161H516.257V497.974C516.257 495.913 516.652 493.94 517.381 492.135C519.708 486.266 525.455 482.124 532.179 482.124C536.576 482.124 540.559 483.901 543.438 486.766C544.956 488.278 546.178 490.103 546.977 492.135C547.706 493.94 548.101 495.913 548.101 497.974Z" stroke="black" stroke-miterlimit="10"/>
<path d="M579.944 497.974V517.161H548.1V497.974C548.1 495.913 548.495 493.94 549.224 492.135C551.551 486.266 557.298 482.124 564.022 482.124C568.419 482.124 572.402 483.901 575.281 486.766C576.799 488.278 578.021 490.103 578.82 492.135C579.549 493.94 579.944 495.913 579.944 497.974Z" stroke="black" stroke-miterlimit="10"/>
<path d="M611.798 513.244V517.161H579.944V497.974C579.944 495.913 580.339 493.94 581.068 492.135C583.395 486.266 589.142 482.124 595.866 482.124C600.263 482.124 604.246 483.901 607.134 486.766C608.653 488.278 609.875 490.103 610.674 492.135C611.403 493.94 611.798 495.913 611.798 497.974V507.514" stroke="black" stroke-miterlimit="10"/>
<path d="M622.509 373.167H635.527" stroke="black" stroke-miterlimit="10"/>
<path d="M52.7783 373.167H616.805" stroke="black" stroke-miterlimit="10"/>
<path d="M64.7964 517.182H635.527" stroke="black" stroke-miterlimit="10"/>
<path d="M52.7783 517.182H59.6794" stroke="black" stroke-miterlimit="10"/>
</g>
<path d="M574.94 1H330.822V163.725H574.94V1Z" fill="#263238" stroke="#263238" stroke-linecap="round" stroke-linejoin="round"/>
<path d="M341.04 10.864V153.861H564.723V10.864H341.04ZM558.39 147.556H347.372V17.1692H558.39V147.556Z" fill="#F7F9F8" stroke="#263238" stroke-linecap="round" stroke-linejoin="round"/>
<path d="M405.083 65.8517V130.396H500.68V65.8517H405.083ZM494.041 123.828H411.722V72.4201H494.041V123.828Z" fill="#F7F9F8" stroke="#263238" stroke-linecap="round" stroke-linejoin="round"/>
<path d="M462.859 147.701H440.293V656.421H462.859V147.701Z" fill="#263238" stroke="#263238" stroke-linecap="round" stroke-linejoin="round"/>
<path d="M445.241 133.773C410.763 133.773 381.638 122.551 378.937 108.227C378.222 104.431 379.331 100.641 382.145 97.2651C390.047 87.7859 411.365 81.6614 436.458 81.6614C470.937 81.6614 500.061 92.8828 502.762 107.207C503.478 111.002 502.368 114.793 499.554 118.169C491.653 127.648 470.334 133.773 445.241 133.773ZM436.458 87.1852C413.311 87.1852 393.2 92.6536 386.416 100.792C384.64 102.922 383.978 105.02 384.391 107.208C386.308 117.369 411.215 128.249 445.241 128.249C468.388 128.249 488.499 122.781 495.283 114.642C497.059 112.513 497.722 110.414 497.308 108.226C495.392 98.0655 470.484 87.1852 436.458 87.1852Z" fill="#EBC556" stroke="#263238" stroke-linecap="round" stroke-linejoin="round"/>
<path d="M500.57 110.032C499.94 109.613 499.088 109.773 498.659 110.391C498.339 110.85 490.793 121.69 487.138 128.285C486.752 128.983 486.416 129.698 486.102 130.417C488.001 123.859 490.252 116.185 491.925 112.162C494.916 104.966 491.715 99.9278 491.578 99.7168C491.36 99.3823 491.006 99.1585 490.611 99.1024C490.181 99.0385 486.319 98.6952 482.993 105.32C481.632 108.031 480.243 112.693 478.772 117.63C476.936 123.795 474.854 130.784 472.485 135.128C470.834 138.155 469.488 140.375 468.458 141.961C468.127 140.68 467.845 139.733 467.609 138.941C467.074 137.141 466.852 136.396 466.852 134.192C466.852 131.863 468.323 125.131 469.746 118.62C471.318 111.428 472.803 104.634 472.803 101.837C472.803 97.9481 470.952 95.7568 469.559 94.6552C470.311 93.3388 470.486 91.9302 470.507 91.7203C470.583 90.9639 470.03 90.2909 469.27 90.2121C468.505 90.1426 467.829 90.6846 467.746 91.4399C467.695 91.9226 467.393 93.3124 466.637 93.9402C464.821 95.4458 458.648 101.194 455.437 111.923C453.445 118.582 452.177 127.149 451.25 133.404C451.103 134.4 450.954 135.397 450.811 136.326C449.361 133.308 448.229 130.795 448.073 129.474C447.947 128.404 447.931 126.452 447.912 123.981C447.866 117.934 447.796 108.795 445.99 100.628C443.331 88.5931 434.881 85.8204 434.522 85.7084C433.84 85.496 433.108 85.8326 432.829 86.488C432.722 86.7394 430.204 92.781 429.972 103.63L429.292 135.517C428.989 136.307 427.937 139.077 426.65 142.748C426.468 142.282 426.285 141.815 426.115 141.378C425.18 138.975 424.442 137.077 423.66 135.599C421.306 131.148 415.958 117.263 414.635 110.899C413.227 104.118 405.173 91.5936 404.83 91.0637C404.555 90.6375 404.059 90.3962 403.558 90.4339C403.049 90.4729 402.603 90.7859 402.396 91.2497C402.315 91.4338 400.409 95.8746 402.534 106.214C403.909 112.907 408.218 122.645 411.365 129.755C412.174 131.581 412.924 133.28 413.516 134.682C406.739 131.449 399.987 127.85 399.025 126.663C398.597 125.122 396.213 119.448 392.927 111.682C391.253 107.728 389.674 103.993 389.415 103.222C388.625 100.863 387.431 99.8354 387.298 99.7255C386.715 99.2495 385.866 99.3304 385.373 99.9035C384.881 100.475 384.95 101.341 385.515 101.841C385.522 101.848 386.252 102.509 386.783 104.096C387.061 104.924 388.327 107.925 390.37 112.754C392.657 118.156 396.111 126.319 396.358 127.428C396.378 127.516 396.404 127.628 396.474 127.775L398.719 133.863C396.091 131.641 392.901 128.924 391.55 127.702C389.255 125.625 388.177 123.74 388.167 123.723C387.89 123.226 387.346 122.966 386.811 123.021C384.792 115.804 383.997 108.414 383.986 108.301C383.906 107.543 383.234 106.994 382.462 107.071C381.7 107.149 381.146 107.828 381.225 108.587C381.302 109.317 383.158 126.575 388.785 134.745C392.356 139.928 398.401 143.785 403.257 146.885C405.974 148.618 408.32 150.115 409.218 151.233C410.249 152.515 411.992 154.233 414.011 156.223C416.173 158.354 418.667 160.814 420.671 163.144C419.918 166.575 419.32 169.691 418.823 172.295C418.158 175.784 417.469 179.392 417.018 180.02C416.613 180.504 416.589 181.2 416.959 181.711C417.33 182.223 418.003 182.419 418.59 182.189L421.406 181.092C420.454 184.125 419.901 186.328 419.901 186.828C419.901 187.59 420.52 188.253 421.286 188.253C421.426 188.253 421.554 188.214 421.682 188.178C421.689 188.189 421.69 188.201 421.696 188.212C421.99 188.709 422.559 188.973 423.132 188.871C426.211 188.33 429.603 187.762 430.884 187.582C431.337 188.174 432.135 189.404 432.75 190.35C435.361 194.372 436.217 195.492 437.267 195.701C437.965 195.84 438.817 195.794 439.899 195.739C441.029 195.68 442.438 195.607 444.078 195.724C445.558 195.829 446.813 198.181 447.564 199.586C448.168 200.715 448.5 201.338 449.232 201.581C449.423 201.644 449.607 201.675 449.791 201.675C450.677 201.675 451.558 200.954 453.157 199.641C454.059 198.901 455.162 198.004 456.442 197.088C461.091 199.355 463.028 199.866 463.933 199.866C464.345 199.866 464.549 199.764 464.712 199.684C466.127 198.979 466.291 196.667 466.169 194.809C466.21 194.239 466.345 191.674 465.931 186.936C465.892 186.484 465.826 185.92 465.748 185.306C466.931 183.295 468.095 181.214 469.216 179.209L469.423 178.84C470.528 176.865 471.385 174.925 472.093 173.052C472.317 172.859 472.485 172.598 472.547 172.287C472.582 172.114 472.617 171.868 472.646 171.548C473.895 167.875 474.531 164.566 475.01 162.05C475.02 161.994 475.03 161.945 475.041 161.89C476.769 160.041 482.323 154.065 486.888 148.762C491.304 143.635 491.717 141.045 492.54 135.885C492.807 134.212 493.11 132.316 493.603 129.912C495.584 120.274 500.909 112.012 500.962 111.93C501.374 111.297 501.2 110.452 500.57 110.032ZM457.617 192.38C457.587 192.272 457.568 192.162 457.509 192.06C457.325 191.745 453.466 185.12 450.515 180.751C452.071 179.776 453.811 178.594 455.873 177.163C456.357 178.287 456.802 179.336 457.196 180.266C457.853 181.819 458.368 183.031 458.716 183.77L460.546 187.643C460.615 187.79 460.712 187.912 460.821 188.021C459.727 189.697 458.646 191.201 457.617 192.38ZM431.608 177.704C432.153 176.954 432.781 176.119 433.492 175.205C435.134 178.318 436.602 181.022 437.893 183.279C437.126 183.597 436.601 183.831 436.382 183.929L433.718 184.644C433.74 183.392 432.835 180.712 431.608 177.704ZM426.912 173.836C427.452 175.026 427.974 176.219 428.457 177.364C427.886 178.185 427.444 178.857 427.187 179.296C426.236 180.917 424.411 183.336 423.153 184.951C423.829 182.533 425.171 178.305 426.912 173.836ZM428.333 170.371C428.73 169.449 429.137 168.533 429.559 167.64C430.441 169.354 431.282 170.981 432.089 172.529C431.458 173.321 430.885 174.062 430.356 174.762C429.682 173.237 428.987 171.736 428.333 170.371ZM425.929 165.64C425.354 164.627 424.568 163.544 423.674 162.436C423.788 161.936 423.892 161.451 424.013 160.939C424.23 160.012 424.472 159.058 424.73 158.089C425.867 160.362 426.977 162.571 427.984 164.555C427.556 165.393 427.138 166.257 426.731 167.138C426.416 166.528 426.139 166.009 425.929 165.64ZM421.428 159.834L421.408 159.812C421.418 159.807 421.428 159.799 421.438 159.793L421.428 159.834ZM454.692 151.436C453.26 152.392 451.7 153.479 449.994 154.726C449.432 155.137 448.877 155.569 448.323 156.004C447.202 154.207 446.033 152.484 444.823 150.901C444.512 150.494 444.213 150.107 443.911 149.715C445.286 148.467 446.606 147.308 447.777 146.28C449.285 144.955 450.352 144.013 451.101 143.297C452.311 145.841 453.567 148.603 454.692 151.436ZM442.615 152.573C443.84 154.175 445.024 155.932 446.159 157.771C443.432 160.091 440.842 162.621 438.496 165.121C437.421 163.566 436.278 161.843 435.053 159.892C434.911 159.665 434.787 159.445 434.648 159.22C436.74 156.61 439.323 153.993 441.867 151.601C442.116 151.925 442.36 152.239 442.615 152.573ZM436.582 167.209C435.667 168.231 434.81 169.23 433.998 170.198C433.236 168.728 432.525 167.345 431.909 166.147C431.655 165.652 431.386 165.126 431.109 164.584C431.505 163.856 431.905 163.146 432.313 162.487C432.489 162.201 432.681 161.913 432.875 161.625C434.192 163.713 435.423 165.552 436.582 167.209ZM429.95 161.039C429.834 161.227 429.719 161.422 429.604 161.615C428.419 159.269 427.133 156.701 425.851 154.129C426.203 152.946 426.568 151.765 426.938 150.605C428.126 153.214 429.553 156.046 431.306 159.039C430.819 159.708 430.36 160.376 429.95 161.039ZM435.38 172.849C436.257 171.781 437.21 170.662 438.229 169.509C440.501 172.605 442.439 174.949 444.027 176.859C444.948 177.968 445.744 178.947 446.475 179.895C445.449 180.432 444.477 180.867 443.509 181.188C442.408 181.554 441.403 181.915 440.499 182.254C438.862 179.412 437.052 176.038 435.38 172.849ZM446.165 175.099C444.442 173.026 442.46 170.634 440.124 167.418C442.399 164.97 444.921 162.475 447.589 160.179C450.376 165.023 452.816 170.204 454.747 174.577C452.449 176.174 450.548 177.478 448.899 178.504C448.083 177.429 447.194 176.338 446.165 175.099ZM462.515 185.319L461.227 182.594C460.887 181.877 460.39 180.7 459.752 179.193C459.296 178.115 458.771 176.879 458.196 175.548C459.047 174.955 459.941 174.334 460.904 173.667C461.81 178.026 462.493 181.959 462.875 184.716C462.755 184.917 462.636 185.12 462.515 185.319ZM459.409 171.338C458.581 171.91 457.811 172.446 457.066 172.964C455.087 168.51 452.601 163.278 449.756 158.389C450.378 157.896 451.004 157.414 451.636 156.952C453.097 155.883 454.441 154.943 455.691 154.098C455.842 154.52 455.996 154.942 456.138 155.364C457.706 160.046 459.12 165.545 460.268 170.718C459.984 170.925 459.705 171.134 459.409 171.338ZM458.769 154.49C458.549 153.835 458.317 153.182 458.078 152.531C462.95 149.425 465.846 148.182 466.93 147.776C467.188 149.054 467.463 150.51 467.76 152.202C468.46 156.194 468.939 159.379 469.269 161.942C467.876 163.765 465.687 166.29 462.682 168.825C461.567 163.943 460.234 158.863 458.769 154.49ZM473.326 157.164C473.157 157.6 473.013 158.121 472.874 158.693C472.456 158.514 472.004 158.552 471.632 158.772C471.431 157.394 471.197 155.886 470.92 154.226L475.443 152.208C474.594 154.125 473.858 155.792 473.326 157.164ZM474.923 136.446C477.432 131.846 479.558 124.711 481.433 118.415C482.867 113.598 484.222 109.049 485.475 106.555C487.136 103.247 488.778 102.26 489.626 101.964C490.237 103.383 491.19 106.706 489.362 111.106C487.51 115.559 485.132 123.783 483.035 131.038C481.988 134.662 481.083 137.792 480.395 139.922C479.477 142.767 478.247 145.773 477.052 148.542C476.951 148.609 476.882 148.702 476.806 148.788C476.575 148.766 476.339 148.781 476.113 148.882L470.438 151.415C470.027 149.094 469.654 147.197 469.317 145.624C470.44 144.067 472.321 141.218 474.923 136.446ZM483.222 140.183C482.748 142.251 482.252 144.238 481.651 144.837C481.613 144.874 481.571 144.911 481.533 144.948C482.076 143.551 482.592 142.145 483.037 140.767C483.096 140.583 483.159 140.381 483.222 140.183ZM458.095 112.712C460.739 103.879 465.47 98.7327 467.682 96.704C468.581 97.3628 470.029 98.8706 470.029 101.837C470.029 104.338 468.508 111.3 467.035 118.033C465.515 124.992 464.078 131.565 464.078 134.192C464.078 136.796 464.388 137.837 464.95 139.726C465.301 140.907 465.759 142.446 466.335 144.983L466.259 145.079C465.193 145.449 462.203 146.658 457.062 149.898C455.728 146.59 454.24 143.415 452.866 140.569C453.165 139.346 453.482 137.27 453.995 133.807C454.909 127.634 456.161 119.18 458.095 112.712ZM434.918 88.8958C437.098 90.0636 441.54 93.3414 443.28 101.222C445.023 109.106 445.093 118.07 445.138 124.002C445.158 126.558 445.174 128.576 445.318 129.796C445.566 131.891 447.166 135.18 449.381 139.732C449.526 140.031 449.678 140.346 449.828 140.654C449.194 141.351 447.482 142.857 445.941 144.209C444.807 145.205 443.536 146.323 442.209 147.523C436.866 140.697 433.197 136.526 432.073 135.271L432.746 103.689C432.905 96.2556 434.204 91.1627 434.918 88.8958ZM431.16 138.422C432.886 140.403 436.022 144.106 440.165 149.405C437.743 151.673 435.265 154.158 433.149 156.688C431.081 153.047 429.506 149.663 428.236 146.654C429.387 143.249 430.462 140.297 431.16 138.422ZM405.252 105.661C404.302 101.037 404.212 97.7371 404.366 95.582C406.843 99.7093 411.01 107.089 411.918 111.459C413.282 118.015 418.785 132.308 421.206 136.886C421.913 138.223 422.661 140.147 423.528 142.375C424.045 143.706 424.624 145.183 425.276 146.764C424.871 147.978 424.46 149.239 424.057 150.521C420.673 143.705 417.708 137.669 417.316 136.869C416.854 135.311 415.551 132.363 413.904 128.642C410.808 121.646 406.568 112.064 405.252 105.661ZM414.994 138.429C415.865 140.202 419.295 147.177 422.884 154.389C422.552 155.533 422.238 156.67 421.944 157.788C421.914 157.746 421.902 157.696 421.867 157.656C421.348 157.075 420.828 156.257 420.225 155.311C418.888 153.211 417.056 150.333 413.498 147.274C409.085 143.482 404.087 138.577 403.028 137.53L400.674 131.15C403.365 132.777 407.774 135.1 414.994 138.429ZM411.385 149.507C410.201 148.035 407.798 146.501 404.756 144.559C400.109 141.595 394.326 137.905 391.075 133.184C390.24 131.971 389.492 130.515 388.823 128.925C389.093 129.194 389.376 129.468 389.683 129.746C392.15 131.977 400.283 138.8 400.896 139.314C401.341 139.757 406.849 145.209 411.685 149.364C414.048 151.397 415.553 153.308 416.707 154.995C416.458 154.749 416.205 154.499 415.963 154.26C414.005 152.331 412.315 150.665 411.385 149.507ZM420.391 178.522C420.715 177.15 421.073 175.305 421.548 172.81C421.928 170.822 422.374 168.514 422.893 166.021C423.116 166.353 423.336 166.685 423.514 166.999C424.069 167.976 424.675 169.144 425.295 170.404C424.253 172.898 423.316 175.406 422.528 177.689L420.391 178.522ZM429.582 180.688C429.617 180.627 429.676 180.538 429.718 180.469C430.411 182.263 430.883 183.671 430.973 184.298C430.914 184.459 430.891 184.631 430.895 184.804C430.004 184.908 428.128 185.211 426.199 185.538C427.383 183.983 428.758 182.094 429.582 180.688ZM442.27 192.9C441.32 192.9 440.483 192.943 439.754 192.981C439.069 193.017 438.413 193.051 438.013 193.018C437.401 192.428 435.962 190.21 435.08 188.851C434.714 188.286 434.408 187.82 434.125 187.395L437.215 186.565C437.29 186.545 437.364 186.519 437.435 186.487C437.449 186.48 438.149 186.161 439.305 185.689C440.717 188.021 441.865 189.668 442.739 190.538C443.303 191.1 443.914 191.993 444.515 193.016C444.433 193.006 444.36 192.975 444.276 192.969C443.558 192.919 442.89 192.9 442.27 192.9ZM451.392 197.51C450.991 197.839 450.566 198.187 450.21 198.462C449.49 196.693 447.021 190.894 444.7 188.586C444.019 187.906 443.049 186.493 441.932 184.671C442.69 184.391 443.507 184.1 444.387 183.808C445.625 183.398 446.835 182.846 448.118 182.154C451.038 186.457 455.063 193.366 455.108 193.444C455.289 193.755 455.575 193.962 455.893 194.062C455.769 194.159 455.644 194.265 455.523 194.348C453.852 195.491 452.488 196.61 451.392 197.51ZM463.396 194.68C463.389 194.752 463.389 194.827 463.395 194.9C463.446 195.638 463.412 196.475 463.324 196.999C462.382 196.725 460.602 195.983 458.808 195.152C460.28 193.669 461.801 191.608 463.321 189.26C463.543 192.863 463.399 194.659 463.396 194.68ZM466.998 177.497L466.792 177.866C466.243 178.849 465.671 179.871 465.087 180.902C464.646 178.275 464.056 175.161 463.349 171.853C465.995 169.763 468.106 167.641 469.702 165.806C469.959 168.591 469.961 170.168 469.91 170.996C469.184 173.074 468.25 175.258 466.998 177.497ZM490.886 129.358C490.379 131.822 490.058 133.835 489.801 135.453C488.99 140.531 488.687 142.431 484.783 146.965C482.175 149.993 479.24 153.245 476.887 155.815C477.245 154.986 477.644 154.086 478.072 153.12C478.459 152.244 478.871 151.316 479.29 150.353C480.265 149.662 482.092 148.302 483.612 146.789C484.848 145.559 485.367 143.269 486.086 140.1C486.801 136.937 487.694 133.002 489.569 129.619C490.183 128.51 490.918 127.266 491.716 125.965C491.404 127.067 491.123 128.201 490.886 129.358Z" fill="#F7F9F8" stroke="#263238" stroke-linecap="round" stroke-linejoin="round"/>
<path d="M277.284 195.677C277.284 195.677 286.405 199.719 288.138 199.91C289.872 200.102 295.842 196.459 303.161 198.185C310.48 199.91 320.688 208.73 320.688 208.73L345.149 212.181C345.149 212.181 342.26 203.745 340.719 201.636C339.178 199.527 337.252 195.309 337.252 195.309C337.252 195.309 328.778 192.625 326.466 192.049C324.155 191.474 321.651 187.639 319.918 185.53C318.184 183.421 313.369 180.162 314.718 179.587C316.066 179.011 317.992 179.203 319.918 180.545C321.844 181.887 323.962 183.805 325.118 183.805C326.274 183.805 327.815 183.23 327.815 183.23C327.815 183.23 325.311 171.726 325.118 168.274C324.925 164.823 325.696 160.797 326.466 159.071C327.237 157.346 328.007 156.962 328.778 158.496C329.548 160.03 329.355 161.564 329.163 162.522C328.97 163.481 329.548 168.083 329.741 168.658C329.933 169.233 329.741 169.808 330.511 170.192C331.281 170.575 332.437 169.425 332.437 167.891C332.437 166.357 331.474 160.605 331.859 159.263C332.245 157.921 332.63 154.086 333.978 153.894C335.326 153.703 336.674 154.661 336.482 155.812C336.289 156.962 336.096 160.605 336.096 161.372C336.096 162.139 336.867 168.083 337.445 168.466C338.022 168.85 338.793 167.507 338.985 165.015C339.178 162.522 340.334 156.387 340.526 155.62C340.719 154.853 341.875 154.47 342.645 155.237C343.415 156.004 343.415 158.113 343.415 159.071C343.415 160.03 342.452 164.44 342.452 165.782C342.452 167.124 343.608 169.041 343.608 169.041C343.608 169.041 344.571 169.233 344.956 167.507C345.341 165.782 345.534 162.522 345.919 160.989C346.304 159.455 347.267 158.688 348.23 160.222C349.193 161.755 348.616 164.823 348.423 165.782C348.231 166.741 347.845 171.15 348.23 171.917C348.616 172.684 351.312 180.354 351.697 183.996C352.082 187.639 350.927 191.666 350.927 191.666C350.927 191.666 357.861 200.677 361.135 205.471C364.409 210.264 368.646 218.317 369.802 222.918C370.958 227.52 370.572 231.738 367.491 232.888C364.409 234.039 362.676 234.422 361.905 234.806C361.135 235.189 352.082 237.106 337.252 235.381C322.422 233.655 305.087 227.328 305.087 227.328C305.087 227.328 296.228 231.546 295.457 233.272C294.687 234.997 288.716 243.817 288.716 243.817C288.716 243.817 278.893 224.644 277.353 212.373C275.812 200.102 277.284 195.677 277.284 195.677Z" fill="#A1A1A1" stroke="#263238" stroke-linecap="round" stroke-linejoin="round"/>
<path d="M305.087 227.328L295.69 224.863" stroke="#263238" stroke-linecap="round" stroke-linejoin="round"/>
<path d="M303.547 219.851C303.547 219.851 290.065 226.561 289.102 228.67C288.139 230.779 286.983 233.08 286.983 233.08" stroke="#263238" stroke-linecap="round" stroke-linejoin="round"/>
<path d="M352.656 229.122C353.773 229.738 354.828 230.2 355.55 230.396" stroke="#263238" stroke-linecap="round" stroke-linejoin="round"/>
<path d="M345.149 212.181C345.149 212.181 346.497 222.343 347.46 224.644C347.774 225.395 348.52 226.208 349.456 226.982" stroke="#263238" stroke-linecap="round" stroke-linejoin="round"/>
<path d="M337.252 195.309C337.252 195.309 339.948 196.459 342.837 195.309" stroke="#263238" stroke-linecap="round" stroke-linejoin="round"/>
<path d="M334.556 182.654C334.556 182.654 339.756 183.996 341.104 186.873L342.453 189.748" stroke="#263238" stroke-linecap="round" stroke-linejoin="round"/>
<path d="M330.511 170.192C330.511 170.192 340.141 167.124 343.608 169.041" stroke="#263238" stroke-linecap="round" stroke-linejoin="round"/>
<path d="M203.435 191.703C203.435 191.703 194.727 190.515 188.756 191.858C182.785 193.2 178.163 195.309 174.503 198.185C170.844 201.061 167.762 203.17 167.762 203.17C167.762 203.17 155.243 201.636 149.85 202.019C144.457 202.403 132.323 205.854 132.323 205.854C132.323 205.854 126.93 188.406 124.234 182.463C121.538 176.519 116.337 156.195 116.337 153.319C116.337 150.443 115.759 147.376 115.759 146.8C115.759 146.225 123.656 136.639 124.427 135.872C125.197 135.105 130.012 130.311 130.782 129.544C131.553 128.777 131.938 126.668 132.516 124.751C133.094 122.834 134.635 120.341 133.864 120.149C133.094 119.958 131.938 119.766 130.59 121.3C129.242 122.834 126.93 124.751 126.93 124.751C126.93 124.751 122.501 127.244 117.3 127.435C112.1 127.627 101.892 125.71 99.5809 124.559C97.2696 123.409 95.151 120.533 94.9584 123.026C94.7657 125.518 97.0769 132.804 97.4622 134.146C97.8474 135.488 98.8104 141.624 100.544 146.034C102.277 150.443 103.24 157.537 103.048 170.192C102.855 182.846 105.552 196.459 106.322 201.444C107.092 206.429 110.944 223.302 112.485 225.602C114.026 227.903 119.612 228.862 120.767 228.67C121.923 228.478 152.354 234.997 164.681 233.272C177.007 231.546 181.244 227.52 183.748 228.095C186.252 228.67 188.371 232.697 188.563 233.655C188.756 234.614 194.341 247.077 194.341 247.652C194.341 248.227 203.201 239.982 204.934 221.576C206.668 203.17 203.435 191.703 203.435 191.703Z" fill="#A1A1A1" stroke="#263238" stroke-linecap="round" stroke-linejoin="round"/>
<path d="M185.061 212.002C187.83 215.264 191.223 219.323 193.571 222.343C198.194 228.287 198.579 230.396 198.579 230.396" stroke="#263238" stroke-linecap="round" stroke-linejoin="round"/>
<path d="M180.281 206.429C180.281 206.429 181.245 207.539 182.702 209.238" stroke="#263238" stroke-linecap="round" stroke-linejoin="round"/>
<path d="M193.571 222.343C193.571 222.343 184.711 223.493 176.622 223.685" stroke="#263238" stroke-linecap="round" stroke-linejoin="round"/>
<path d="M108.775 141.116C108.775 141.116 108.421 135.82 110.549 134.408C112.677 132.996 120.125 129.112 120.125 129.112" stroke="#263238" stroke-linecap="round" stroke-linejoin="round"/>
<path d="M219.247 192.367C219.247 192.367 214.27 192.27 209.993 191.987C205.716 191.703 203.435 191.703 203.435 191.703C203.435 191.703 200.869 209.869 199.158 221.507C197.447 233.144 197.162 241.66 194.026 244.498L190.889 247.336C190.889 247.336 196.592 275.437 197.447 283.101C198.303 290.765 199.728 295.306 199.728 295.306C199.728 295.306 194.881 300.699 195.166 303.538C195.451 306.376 198.588 309.215 198.588 309.215C198.588 309.215 260.177 328.8 263.028 329.084C265.879 329.368 268.16 329.935 270.727 327.097C273.293 324.258 275.004 320.001 275.859 313.756C276.714 307.512 276.999 302.97 281.276 291.9C285.554 280.83 287.834 254.432 288.69 251.878C289.545 249.323 290.401 245.633 290.401 245.633C290.401 245.633 285.268 237.402 282.132 222.358C278.995 207.314 277.285 195.677 277.285 195.677C277.285 195.677 259.606 190.567 256.755 190.567C253.904 190.567 219.247 192.367 219.247 192.367Z" fill="#F7F9F8" stroke="#263238" stroke-linecap="round" stroke-linejoin="round"/>
<path d="M208.181 236.276C211.726 220.394 210.609 200.757 209.835 191.977C205.666 191.704 203.435 191.703 203.435 191.703C203.435 191.703 200.869 209.869 199.158 221.506C197.447 233.144 197.162 241.659 194.025 244.498L190.889 247.336C190.889 247.336 191.97 252.662 193.26 259.307C198.505 255.768 205.339 249.007 208.181 236.276Z" fill="#EBC556" stroke="#263238" stroke-linecap="round" stroke-linejoin="round"/>
<path d="M282.132 222.358C278.995 207.314 277.284 195.677 277.284 195.677C277.284 195.677 274.229 194.794 270.457 193.763C270.776 200.161 271.697 213.048 274.23 224.535C276.704 235.756 283.023 246.779 288.481 252.799C288.558 252.382 288.628 252.062 288.69 251.878C289.545 249.323 290.4 245.633 290.4 245.633C290.4 245.633 285.268 237.402 282.132 222.358Z" fill="#EBC556" stroke="#263238" stroke-linecap="round" stroke-linejoin="round"/>
<path d="M259.634 207.771C251.363 221.924 234.043 216.122 225.695 205.456C224.691 204.173 217.563 194.831 218.83 192.721L216.985 192.709C216.985 192.709 220.135 219.21 242.991 222.622C260.376 225.218 263.392 206.739 263.84 197.741C263.357 200.091 262.204 203.374 259.634 207.771Z" fill="#EBC556" stroke="#263238" stroke-linecap="round" stroke-linejoin="round"/>
<path d="M274.499 160.481C274.7 158.887 269.695 155.3 268.494 152.709C267.292 150.119 268.694 149.321 267.292 145.136C265.891 140.951 259.923 135.843 259.923 135.843C259.923 135.843 252.879 129.592 239.666 135.969C226.453 142.346 223.251 155.3 222.049 162.474C220.848 169.649 227.054 175.229 227.054 175.229C227.054 175.229 229.056 181.406 229.056 183.997C229.056 186.588 228.055 187.385 226.654 188.78C225.253 190.174 219.252 192.365 219.245 192.368C216.459 193.389 224.616 204.078 225.694 205.456C234.042 216.122 251.362 221.924 259.633 207.771C265.797 197.226 263.819 192.162 263.819 192.162L261.711 191.532C261.711 191.532 259.441 191.091 258.863 190.707C258.285 190.324 257.884 188.78 257.884 188.78C257.884 186.987 260.286 184.595 260.286 184.595C260.286 184.595 265.09 184.396 268.694 183.997C272.297 183.599 273.699 179.613 273.699 175.826C273.699 172.04 271.697 163.869 271.697 163.869C271.697 163.869 274.299 162.076 274.499 160.481Z" fill="#A1A1A1" stroke="#263238" stroke-linecap="round" stroke-linejoin="round"/>
<path d="M260.392 129.775C260.392 129.775 262.736 128.841 260.392 123.706C258.047 118.572 255.234 119.972 255.468 121.373C255.703 122.773 254.531 123.706 254.531 123.706C254.531 123.706 249.842 118.339 245.622 119.972C241.402 121.606 242.574 123.473 242.574 123.473C242.574 123.473 235.306 117.872 231.086 119.972C226.866 122.073 231.555 125.34 231.555 125.34C231.555 125.34 224.052 126.04 223.349 127.907C222.646 129.775 222.646 131.175 222.646 131.175C222.646 131.175 212.33 127.907 209.517 131.875C206.703 135.843 214.909 136.543 214.909 136.543C214.909 136.543 206 138.877 205.297 143.311C204.593 147.746 206.234 147.512 206.234 147.512L209.517 147.746C209.517 147.746 206.469 154.514 207.172 156.614C207.875 158.715 210.22 157.781 210.22 157.781C210.22 157.781 209.048 172.718 212.096 172.952L215.143 173.185C215.143 173.185 217.957 176.919 220.067 178.32C222.177 179.72 223.349 178.32 223.349 178.32C223.349 178.32 222.177 183.921 225.225 183.921C228.272 183.921 228.272 178.32 228.272 178.32C228.272 178.32 230.851 180.887 232.024 178.786C233.196 176.686 233.196 170.151 233.196 170.151C233.196 170.151 228.741 164.316 228.741 160.815C228.741 157.314 232.024 156.148 234.603 156.614C237.182 157.081 239.057 158.481 239.057 158.481C239.057 158.481 240.464 159.648 241.167 157.314C241.871 154.981 241.636 153.347 241.636 153.347C241.636 153.347 244.684 154.047 245.622 152.18C246.559 150.313 248.201 140.51 248.201 140.51C248.201 140.51 248.435 146.579 250.545 143.778C252.655 140.977 252.186 135.609 252.186 135.609C252.186 135.609 259.454 137.943 259.923 135.843C260.392 133.742 257.579 131.875 257.579 131.875C257.579 131.875 265.55 132.575 264.846 130.008C264.143 127.441 260.392 129.775 260.392 129.775Z" fill="#263238" stroke="#263238" stroke-linecap="round" stroke-linejoin="round"/>
<path d="M262.9 152.896C263.045 154.105 262.648 155.146 262.014 155.221C261.381 155.296 260.75 154.377 260.605 153.168C260.46 151.959 260.856 150.917 261.49 150.842C262.124 150.767 262.755 151.686 262.9 152.896Z" fill="#263238"/>
<path d="M256.744 148.334C256.744 148.334 260.403 144.5 263.485 146.992" stroke="#263238" stroke-linecap="round" stroke-linejoin="round"/>
<path d="M269.841 168.85C269.841 168.85 263.871 170 259.826 166.357" stroke="#263238" stroke-linecap="round" stroke-linejoin="round"/>
<path d="M233.197 170.151C233.197 170.151 235.751 171.726 237.87 171.342C239.989 170.959 240.566 169.425 240.566 169.425C240.566 169.425 242.878 175.177 246.73 176.519" stroke="#263238" stroke-linecap="round" stroke-linejoin="round"/>
<path d="M195.882 467.311C195.882 467.311 198.754 471.469 205.542 471.469H227.995C227.995 471.469 226.69 456.395 225.385 453.276C224.079 450.157 217.03 450.157 209.981 453.796C202.932 457.435 196.665 463.672 195.882 467.311Z" fill="#263238" stroke="#263238" stroke-linecap="round" stroke-linejoin="round"/>
<path d="M81.2668 476.667C81.2668 476.667 81.2668 472.769 77.8727 471.729C74.4786 470.69 62.2077 468.61 59.0748 470.43C55.9418 472.249 51.2423 479.526 50.198 484.984C49.1537 490.442 48.1094 493.561 47.8482 496.42C47.5871 499.279 38.9715 510.715 38.7104 520.071C38.4493 529.428 44.4541 547.101 48.3705 549.44C52.2867 551.779 53.0699 550.74 57.5083 546.581C61.9466 542.423 65.3407 520.331 68.7348 514.613C72.1288 508.895 74.4786 505.257 74.4786 505.257C74.4786 505.257 85.9662 501.098 87.2716 496.42C88.5771 491.742 88.316 488.623 88.316 488.623L81.2668 476.667Z" fill="#263238" stroke="#263238" stroke-linecap="round" stroke-linejoin="round"/>
<path d="M151.759 439.761L146.798 447.558C146.798 447.558 130.35 447.298 121.212 451.717C112.074 456.135 92.754 468.61 89.0989 470.43C85.4438 472.249 78.6556 475.628 76.3058 477.187C73.9562 478.747 72.3896 487.583 75.7837 492.262C79.1778 496.94 83.094 496.94 84.6605 495.38C86.227 493.821 107.375 484.464 127.739 477.967C148.103 471.469 160.374 471.729 168.99 467.311C177.606 462.893 179.694 460.034 182.044 456.655C184.394 453.276 186.221 448.078 186.221 448.078C186.221 448.078 156.719 439.242 151.759 439.761Z" fill="#A1A1A1" stroke="#263238" stroke-linecap="round" stroke-linejoin="round"/>
<path d="M146.798 447.558L169.689 450.015L148.625 445.194L146.798 447.558Z" fill="#263238" stroke="#263238" stroke-linecap="round" stroke-linejoin="round"/>
<path d="M91.6525 491.775C89.1147 490.335 86.4054 488.149 85.1827 484.984C83.7171 481.191 85.2132 475.68 86.8077 471.573C83.0935 473.432 78.2231 475.915 76.3058 477.187C73.9562 478.747 72.3896 487.583 75.7837 492.262C79.1778 496.94 83.0941 496.94 84.6604 495.38C85.1674 494.876 87.734 493.552 91.6525 491.775Z" fill="#F7F9F8" stroke="#263238" stroke-linecap="round" stroke-linejoin="round"/>
<path d="M177.867 565.814C177.867 565.814 175.257 563.215 172.124 564.774C168.991 566.334 158.025 574.391 157.242 580.109C156.459 585.826 155.676 590.505 158.025 594.403C160.375 598.302 160.897 596.223 161.419 600.381C161.941 604.539 162.725 605.059 159.853 611.297C156.981 617.535 160.114 626.111 162.202 628.97C164.291 631.829 173.429 638.847 177.345 637.027C181.262 635.208 185.178 624.812 185.178 614.416C185.178 604.02 182.828 598.042 183.611 593.364C184.395 588.685 187.527 586.346 188.833 581.408C190.138 576.47 188.05 574.131 186.222 573.091C184.395 572.052 177.867 565.814 177.867 565.814Z" fill="#263238" stroke="#263238" stroke-linecap="round" stroke-linejoin="round"/>
<path d="M220.424 451.197L222.513 480.566C222.513 480.566 201.887 503.697 200.321 514.873C198.754 526.049 196.927 529.168 194.577 534.366C192.227 539.564 174.735 567.893 174.735 567.893C174.735 567.893 176.823 573.611 178.912 575.95C181.001 578.289 184.656 579.329 187.528 578.029C190.399 576.73 224.601 535.665 229.823 526.828C235.045 517.992 243.66 499.019 246.532 493.821C249.404 488.623 251.232 485.244 252.276 481.606C253.32 477.967 254.887 470.69 255.148 469.91C255.409 469.13 237.394 451.197 220.424 451.197Z" fill="#A1A1A1" stroke="#263238" stroke-linecap="round" stroke-linejoin="round"/>
<path d="M224.16 470.663C224.16 470.663 236.851 465.376 245.999 467.643C245.999 467.643 240.528 459.666 232.957 456.471C225.385 453.276 222.037 453.149 222.037 453.149L224.16 470.663Z" fill="#263238" stroke="#263238" stroke-linecap="round" stroke-linejoin="round"/>
<path d="M181.802 556.338C177.947 562.69 174.735 567.893 174.735 567.893C174.735 567.893 176.824 573.611 178.912 575.95C181.001 578.289 184.656 579.329 187.528 578.029C188.356 577.655 191.793 573.967 196.382 568.709C187.661 565.516 183.601 559.962 181.802 556.338Z" fill="#F7F9F8" stroke="#263238" stroke-linecap="round" stroke-linejoin="round"/>
<path d="M198.588 309.215L193.793 318.127C193.793 318.127 181.523 322.285 179.434 329.043C177.345 335.8 175.518 345.676 174.995 347.236C174.473 348.795 155.414 410.392 153.326 415.071C151.237 419.749 146.799 426.506 145.493 428.066C144.188 429.625 142.882 431.184 144.71 433.004C146.537 434.823 146.205 436.24 146.205 436.24L144.688 444.439C144.688 444.439 166.119 448.858 177.345 451.197C188.572 453.536 188.311 454.056 188.572 454.836C188.833 455.615 211.547 405.974 211.547 405.974C211.547 405.974 206.586 441.58 205.803 445.479C205.02 449.378 195.882 467.311 195.882 467.311C195.882 467.311 205.281 452.236 224.34 457.694C243.399 463.152 254.887 475.888 254.887 475.888C254.887 475.888 259.325 459.514 262.197 450.417C265.069 441.321 268.463 421.568 269.246 406.234C270.029 390.9 269.507 389.86 269.768 385.182C270.029 380.503 275.251 364.649 273.162 355.813C271.074 346.976 268.202 338.919 268.202 337.879C268.202 336.84 268.724 327.223 268.724 327.223L198.588 309.215Z" fill="#F7F9F8" stroke="#263238" stroke-linecap="round" stroke-linejoin="round"/>
<path d="M237.214 330.997L264.024 338.399" stroke="#263238" stroke-linecap="round" stroke-linejoin="round"/>
<path d="M197.188 319.946L232.801 329.779" stroke="#263238" stroke-linecap="round" stroke-linejoin="round"/>
<path d="M247.688 407.717C249.274 409.666 250.523 411.7 251.231 413.771" stroke="#263238" stroke-linecap="round" stroke-linejoin="round"/>
<path d="M213.113 401.036L222.339 390.947C222.339 390.947 236.209 396.403 244.444 404.241" stroke="#263238" stroke-linecap="round" stroke-linejoin="round"/>
<path d="M240.527 406.234C240.527 406.234 248.882 412.731 251.231 427.026" stroke="#263238" stroke-linecap="round" stroke-linejoin="round"/>
<path d="M232.956 444.44C222.738 441.102 212.234 443.693 205.61 446.21C204.084 451.213 195.882 467.311 195.882 467.311C195.882 467.311 205.281 452.237 224.34 457.694C243.399 463.152 254.887 475.888 254.887 475.888C254.887 475.888 257.042 467.938 259.32 460.04C253.539 455.218 243.624 447.924 232.956 444.44Z" fill="#EBC556" stroke="#263238" stroke-linecap="round" stroke-linejoin="round"/>
<path d="M193.793 318.127C193.793 318.127 181.523 322.285 179.434 329.043C177.345 335.8 175.518 345.676 174.995 347.236C174.473 348.795 155.414 410.392 153.326 415.07C151.237 419.749 146.799 426.506 145.493 428.066C144.188 429.625 142.882 431.184 144.71 433.004C146.537 434.823 146.205 436.24 146.205 436.24L144.688 444.439C144.688 444.439 161.018 448.095 172.244 450.434C183.471 452.774 188.311 454.056 188.572 454.836C188.673 455.137 192.134 447.893 196.34 438.898C194.679 437.286 190.666 434.517 181.261 431.964C166.902 428.066 154.109 426.246 154.109 426.246C154.109 426.246 154.37 423.647 155.153 420.268C155.936 416.89 168.991 387.781 170.296 381.283C171.601 374.786 182.045 336.32 183.35 329.823C184.655 323.325 192.227 323.065 194.838 322.285C197.448 321.506 198.754 316.827 198.754 316.827L201.401 309.937L198.588 309.215L193.793 318.127Z" fill="#EBC556" stroke="#263238" stroke-linecap="round" stroke-linejoin="round"/>
<path d="M258.202 351.393C258.155 353.404 258.025 355.323 257.758 356.852" stroke="#263238" stroke-linecap="round" stroke-linejoin="round"/>
<path d="M257.758 338.919C257.758 338.919 258.108 342.928 258.2 347.464" stroke="#263238" stroke-linecap="round" stroke-linejoin="round"/>
<path d="M254.103 335.8L250.708 345.677" stroke="#263238" stroke-linecap="round" stroke-linejoin="round"/>
<path d="M208.675 323.585L204.758 333.201" stroke="#263238" stroke-linecap="round" stroke-linejoin="round"/>
<path d="M211.025 324.884C211.025 324.884 211.286 342.558 209.719 348.276" stroke="#263238" stroke-linecap="round" stroke-linejoin="round"/>
<path d="M218.237 449.096C216.775 455.343 217.552 453.796 217.552 453.796" stroke="#263238" stroke-linecap="round" stroke-linejoin="round"/>
<path d="M222.512 431.444C222.512 431.444 221.729 435.083 219.118 445.479" stroke="#263238" stroke-linecap="round" stroke-linejoin="round"/>
<path d="M225.898 299.851C229.668 311.448 229.476 314.505 232.56 316.04" stroke="#263238" stroke-linecap="round" stroke-linejoin="round"/>
<path d="M218.342 276.592C218.342 276.592 217.132 275.388 223.485 292.853C223.695 293.432 223.898 293.995 224.092 294.545" stroke="#263238" stroke-linecap="round" stroke-linejoin="round"/>
<path d="M218.343 293.757C218.343 293.757 221.065 304.898 224.393 309.415" stroke="#263238" stroke-linecap="round" stroke-linejoin="round"/>
<path d="M221.945 281.707V276.029L232.253 261.499C233.02 260.412 233.744 259.371 234.424 258.377C235.105 257.384 235.662 256.349 236.098 255.273C236.534 254.198 236.753 253.018 236.753 251.733C236.753 250.378 236.491 249.314 235.968 248.538C235.445 247.763 234.694 247.316 233.718 247.197C232.672 247.07 231.869 247.259 231.311 247.764C230.753 248.269 230.37 248.978 230.16 249.89C229.951 250.802 229.846 251.814 229.846 252.925V254.904L221.945 253.944V251.861C221.945 249.361 222.338 247.186 223.122 245.337C223.908 243.488 225.145 242.118 226.837 241.23C228.529 240.342 230.753 240.065 233.509 240.4C237.241 240.853 240.049 242.167 241.933 244.341C243.816 246.515 244.758 249.355 244.758 252.862C244.758 254.563 244.497 256.103 243.973 257.48C243.45 258.858 242.761 260.163 241.907 261.396C241.052 262.629 240.136 263.898 239.16 265.203L230.997 276.452L243.607 277.984V284.339L221.945 281.707Z" fill="#EBC556" stroke="#263238" stroke-linecap="round" stroke-linejoin="round"/>
<path d="M259.67 287.019C256.845 286.676 254.604 285.874 252.947 284.614C251.29 283.354 250.096 281.715 249.363 279.699C248.63 277.683 248.264 275.425 248.264 272.924V271.414L256.322 272.393V273.799C256.356 275.157 256.47 276.291 256.662 277.2C256.853 278.109 257.194 278.819 257.682 279.329C258.171 279.84 258.868 280.151 259.775 280.261C260.717 280.375 261.414 280.225 261.868 279.812C262.321 279.398 262.635 278.751 262.81 277.868C262.984 276.987 263.072 275.887 263.072 274.567C263.072 272.45 262.758 270.77 262.13 269.53C261.502 268.291 260.246 267.54 258.362 267.275L257.839 267.212L256.95 267.104V261.166L257.604 261.246L258.206 261.319C260.089 261.548 261.371 261.2 262.051 260.275C262.732 259.351 263.072 257.813 263.072 255.659C263.072 253.992 262.827 252.661 262.339 251.664C261.85 250.667 260.944 250.088 259.618 249.927C258.292 249.766 257.421 250.18 257.002 251.172C256.584 252.163 256.356 253.472 256.322 255.1V256.975L248.264 255.996V253.704C248.264 251.239 248.717 249.202 249.624 247.593C250.531 245.984 251.822 244.831 253.496 244.13C255.171 243.431 257.211 243.228 259.618 243.52C262.025 243.813 264.083 244.497 265.793 245.572C267.502 246.648 268.801 248.073 269.691 249.849C270.58 251.623 271.025 253.744 271.025 256.209C271.025 258.674 270.51 260.661 269.482 262.168C268.452 263.675 267.187 264.563 265.688 264.832C266.734 265.306 267.658 265.992 268.461 266.888C269.263 267.785 269.891 268.928 270.345 270.32C270.797 271.712 271.025 273.397 271.025 275.377C271.025 277.912 270.659 280.117 269.926 281.989C269.194 283.862 267.99 285.252 266.315 286.16C264.642 287.067 262.426 287.354 259.67 287.019Z" fill="#EBC556" stroke="#263238" stroke-linecap="round" stroke-linejoin="round"/>
<path d="M261.108 250.357C265.154 255.965 269.918 263.493 272.792 271.172C278.539 286.529 277.632 293.154 277.632 293.154" stroke="#263238" stroke-linecap="round" stroke-linejoin="round"/>
<path d="M253.735 241.06C253.735 241.06 255.483 242.998 257.986 246.2" stroke="#263238" stroke-linecap="round" stroke-linejoin="round"/>
<path d="M271.279 275.388C271.279 275.388 276.421 293.455 275.211 299.779" stroke="#263238" stroke-linecap="round" stroke-linejoin="round"/>
<path d="M111.775 130.518C127.846 130.518 140.874 117.549 140.874 101.55C140.874 85.5514 127.846 72.5819 111.775 72.5819C95.7034 72.5819 82.675 85.5514 82.675 101.55C82.675 117.549 95.7034 130.518 111.775 130.518Z" fill="#EBC556" stroke="#263238" stroke-linecap="round" stroke-linejoin="round"/>
<path d="M90.3362 110.747C95.5238 114.898 103.778 119.194 115.573 118.936C127.751 118.664 134.972 114.999 139.044 111.683" stroke="#263238" stroke-linecap="round" stroke-linejoin="round"/>
<path d="M83.4377 103.317C83.4377 103.317 84.4909 105.082 86.7167 107.425" stroke="#263238" stroke-linecap="round" stroke-linejoin="round"/>
<path d="M128.146 95.7359C113.912 94.0097 101.194 98.2888 94.5616 99.535C85.2071 101.296 83.4377 97.2685 83.4377 97.2685C83.4377 97.2685 95.4463 68.516 130.743 79.6025H130.756" stroke="#263238" stroke-linecap="round" stroke-linejoin="round"/>
<path d="M140.748 98.9521C137.779 97.7529 134.818 96.9039 131.903 96.3308" stroke="#263238" stroke-linecap="round" stroke-linejoin="round"/>
<path d="M260.286 184.595C260.286 184.595 252.504 180.834 252.078 181.471C251.651 182.108 253.371 188.93 255.063 189.748C256.755 190.567 257.883 188.78 257.883 188.78L260.286 184.595Z" fill="#263238" stroke="#263238" stroke-linecap="round" stroke-linejoin="round"/>
</svg>
