<svg width="35" height="10" viewBox="0 0 35 10" fill="none" xmlns="http://www.w3.org/2000/svg">
<path d="M9.00638 4.79826C9.00638 7.17659 7.09773 9.09652 4.75319 9.09652C2.40866 9.09652 0.5 7.17659 0.5 4.79826C0.5 2.41994 2.40866 0.5 4.75319 0.5C7.09773 0.5 9.00638 2.41994 9.00638 4.79826Z" stroke="black"/>
<path d="M34.357 4.79838C34.357 7.17671 32.4483 9.09665 30.1038 9.09665C27.7592 9.09665 25.8506 7.17671 25.8506 4.79838C25.8506 2.42006 27.7592 0.500122 30.1038 0.500122C32.4483 0.500122 34.357 2.42006 34.357 4.79838Z" stroke="black"/>
<path d="M21.6817 4.79838C21.6817 7.17671 19.773 9.09665 17.4285 9.09665C15.084 9.09665 13.1753 7.17671 13.1753 4.79838C13.1753 2.42006 15.084 0.500122 17.4285 0.500122C19.773 0.500122 21.6817 2.42006 21.6817 4.79838Z" stroke="black"/>
</svg>
