<svg width="25" height="23" viewBox="0 0 25 23" fill="none" xmlns="http://www.w3.org/2000/svg">
<path d="M12.5 0C5.6125 0 0 5.01988 0 11.1801C0 17.3404 5.6125 22.3602 12.5 22.3602C19.3875 22.3602 25 17.3404 25 11.1801C25 5.01988 19.3875 0 12.5 0ZM17.5 12.0186H13.4375V15.6522C13.4375 16.1106 13.0125 16.4907 12.5 16.4907C11.9875 16.4907 11.5625 16.1106 11.5625 15.6522V12.0186H7.5C6.9875 12.0186 6.5625 11.6385 6.5625 11.1801C6.5625 10.7217 6.9875 10.3416 7.5 10.3416H11.5625V6.70807C11.5625 6.24969 11.9875 5.86957 12.5 5.86957C13.0125 5.86957 13.4375 6.24969 13.4375 6.70807V10.3416H17.5C18.0125 10.3416 18.4375 10.7217 18.4375 11.1801C18.4375 11.6385 18.0125 12.0186 17.5 12.0186Z" fill="#EBC556"/>
</svg>
