<svg width="28" height="27" viewBox="0 0 28 27" fill="none" xmlns="http://www.w3.org/2000/svg">
<path d="M4.77539 11H7.27539C9.77539 11 11.0254 9.75 11.0254 7.25V4.75C11.0254 2.25 9.77539 1 7.27539 1H4.77539C2.27539 1 1.02539 2.25 1.02539 4.75V7.25C1.02539 9.75 2.27539 11 4.77539 11Z" stroke="#EBC556" stroke-width="2" stroke-miterlimit="10" stroke-linecap="round" stroke-linejoin="round"/>
<path d="M19.7754 11H22.2754C24.7754 11 26.0254 9.75 26.0254 7.25V4.75C26.0254 2.25 24.7754 1 22.2754 1H19.7754C17.2754 1 16.0254 2.25 16.0254 4.75V7.25C16.0254 9.75 17.2754 11 19.7754 11Z" stroke="#EBC556" stroke-width="2" stroke-miterlimit="10" stroke-linecap="round" stroke-linejoin="round"/>
<path d="M19.7754 26H22.2754C24.7754 26 26.0254 24.75 26.0254 22.25V19.75C26.0254 17.25 24.7754 16 22.2754 16H19.7754C17.2754 16 16.0254 17.25 16.0254 19.75V22.25C16.0254 24.75 17.2754 26 19.7754 26Z" stroke="#EBC556" stroke-width="2" stroke-miterlimit="10" stroke-linecap="round" stroke-linejoin="round"/>
<path d="M4.77539 26H7.27539C9.77539 26 11.0254 24.75 11.0254 22.25V19.75C11.0254 17.25 9.77539 16 7.27539 16H4.77539C2.27539 16 1.02539 17.25 1.02539 19.75V22.25C1.02539 24.75 2.27539 26 4.77539 26Z" stroke="#EBC556" stroke-width="2" stroke-miterlimit="10" stroke-linecap="round" stroke-linejoin="round"/>
</svg>
