<svg width="265" height="92" viewBox="0 0 265 92" fill="none" xmlns="http://www.w3.org/2000/svg">
<path d="M90.9539 72.783H77.8949V89.586H53.6849V72.783H7.25391V56.583L46.6379 1.76401H72.3599L36.6029 53.064H54.4229V38.16H77.8769V53.091H90.9539V72.783Z" fill="#FF725E"/>
<path d="M95.9492 45.657C95.9492 16.686 112.257 0 134.712 0C157.167 0 173.349 16.713 173.349 45.657C173.349 74.601 157.041 91.314 134.712 91.314C112.383 91.314 95.9492 74.664 95.9492 45.657ZM148.383 45.657C148.383 27.216 142.614 20.322 134.712 20.322C126.81 20.322 120.915 27.216 120.915 45.657C120.915 64.098 126.684 71.001 134.712 71.001C142.74 71.001 148.383 64.125 148.383 45.657Z" fill="#FF725E"/>
<path d="M264.654 72.783H251.604V89.586H227.394V72.783H180.954V56.583L220.347 1.76401H246.06L210.312 53.064H228.123V38.16H251.577V53.091H264.654V72.783Z" fill="#FF725E"/>
<g opacity="0.3">
<path d="M90.9539 72.783H77.8949V89.586H53.6849V72.783H7.25391V56.583L46.6379 1.76401H72.3599L36.6029 53.064H54.4229V38.16H77.8769V53.091H90.9539V72.783Z" fill="black"/>
<path d="M95.9492 45.657C95.9492 16.686 112.257 0 134.712 0C157.167 0 173.349 16.713 173.349 45.657C173.349 74.601 157.041 91.314 134.712 91.314C112.383 91.314 95.9492 74.664 95.9492 45.657ZM148.383 45.657C148.383 27.216 142.614 20.322 134.712 20.322C126.81 20.322 120.915 27.216 120.915 45.657C120.915 64.098 126.684 71.001 134.712 71.001C142.74 71.001 148.383 64.125 148.383 45.657Z" fill="black"/>
<path d="M264.654 72.783H251.604V89.586H227.394V72.783H180.954V56.583L220.347 1.76401H246.06L210.312 53.064H228.123V38.16H251.577V53.091H264.654V72.783Z" fill="black"/>
</g>
<path d="M83.673 72.783H70.623V89.586H46.413V72.783H0V56.583L39.393 1.76401H65.106L29.358 53.064H47.169V38.16H70.623V53.091H83.673V72.783Z" fill="#FF725E"/>
<path d="M88.6768 45.657C88.6768 16.686 104.985 0 127.44 0C149.895 0 166.077 16.713 166.077 45.657C166.077 74.601 149.769 91.314 127.44 91.314C105.111 91.314 88.6768 74.664 88.6768 45.657ZM141.111 45.657C141.111 27.216 135.342 20.322 127.44 20.322C119.538 20.322 113.643 27.216 113.643 45.657C113.643 64.098 119.412 71.001 127.44 71.001C135.468 71.001 141.111 64.125 141.111 45.657Z" fill="#FF725E"/>
<path d="M257.391 72.783H244.341V89.586H220.131V72.783H173.754V56.583L213.147 1.76401H238.824L203.076 53.064H220.887V38.16H244.341V53.091H257.391V72.783Z" fill="#FF725E"/>
</svg>
