<svg width="29" height="30" viewBox="0 0 29 30" fill="none" xmlns="http://www.w3.org/2000/svg">
<path d="M12.1943 1.53716H12.8441L12.8602 1.52003C18.3851 1.87146 22.9234 6.80507 22.9234 13.0072C22.9234 14.9722 22.4007 16.8561 21.5577 18.488L20.9548 19.6552L22.0324 20.4067C22.1464 20.4863 22.2542 20.5794 22.3534 20.6852L22.3536 20.6854L25.8377 24.4018L25.8679 24.4341L25.9 24.4645C26.113 24.6664 26.2906 24.918 26.4172 25.2071C26.5438 25.4963 26.615 25.8137 26.624 26.1392C26.633 26.4647 26.5794 26.7868 26.4684 27.085C26.3575 27.383 26.1929 27.6472 25.9898 27.8638C25.7869 28.0802 25.5504 28.2442 25.2977 28.3512C25.0454 28.4581 24.779 28.5074 24.5137 28.4991C24.2485 28.4908 23.9842 28.4247 23.7364 28.3013C23.4884 28.1778 23.2595 27.9979 23.0673 27.7673L23.0392 27.7335L23.0092 27.7015L19.5251 23.9852L19.4777 23.9346L19.4258 23.8885C19.3308 23.8044 19.2421 23.71 19.1612 23.6061L18.3524 22.5679L17.2178 23.2348C15.7577 24.0929 14.0027 24.5516 12.1943 24.5516C6.38816 24.5516 1.5 19.4812 1.5 13.0444C1.5 6.6076 6.38816 1.53716 12.1943 1.53716ZM12.1943 2.25352H11.5444L11.4887 2.31295C6.05671 2.67526 1.94924 7.41122 1.94924 13.0816C1.94924 18.9831 6.39842 23.8725 12.1594 23.8725C14.8053 23.8725 17.2727 22.8719 19.0918 21.108L19.1667 21.0353L19.2309 20.953C19.3118 20.8491 19.4005 20.7547 19.4954 20.6705L19.5473 20.6245L19.5948 20.5739L19.6993 20.4624L19.7169 20.4437L19.7339 20.4243C21.453 18.4595 22.4045 15.8345 22.4045 13.0444C22.4045 7.14291 17.9553 2.25352 12.1943 2.25352Z" stroke="#EBC556" stroke-width="3"/>
</svg>
