<svg width="558" height="563" viewBox="0 0 558 563" fill="none" xmlns="http://www.w3.org/2000/svg">
<path d="M279 526.281C424.218 526.281 541.941 457.705 541.941 373.111C541.941 288.518 424.218 219.942 279 219.942C133.782 219.942 16.0593 288.518 16.0593 373.111C16.0593 457.705 133.782 526.281 279 526.281Z" fill="#EBC556"/>
<path d="M93.0745 481.421C94.9271 482.547 96.8131 483.561 98.6545 484.597L470.394 268.089C468.597 266.963 466.789 265.837 464.926 264.801C463.754 264.126 462.56 263.45 461.366 262.786L89.6038 479.338C90.7532 480.036 91.9027 480.734 93.0745 481.421Z" fill="#F7F9F8"/>
<path opacity="0.1" d="M353.973 308.231C365.905 308.231 375.579 302.595 375.579 295.643C375.579 288.69 365.905 283.054 353.973 283.054C342.04 283.054 332.367 288.69 332.367 295.643C332.367 302.595 342.04 308.231 353.973 308.231Z" fill="black"/>
<path opacity="0.1" d="M260.675 506.115C283.092 506.115 301.264 495.528 301.264 482.469C301.264 469.409 283.092 458.823 260.675 458.823C238.259 458.823 220.086 469.409 220.086 482.469C220.086 495.528 238.259 506.115 260.675 506.115Z" fill="black"/>
<path d="M153.472 96.2506L146.776 100.158C146.793 99.8577 146.793 99.557 146.776 99.257V97.2978C146.776 93.8184 144.343 92.3997 141.353 94.145C140.069 94.9455 138.97 96.0126 138.127 97.2752C137.636 92.8951 134.232 91.2624 130.092 93.672C127.734 95.2248 125.771 97.3166 124.363 99.7776C122.956 102.239 122.143 105 121.99 107.837V110.765C121.965 111.929 122.201 113.084 122.682 114.143L117.102 117.386C116.231 117.964 115.506 118.74 114.985 119.651C114.464 120.562 114.161 121.583 114.1 122.633C114.1 124.569 115.45 125.346 117.102 124.378L153.472 103.254C154.349 102.671 155.077 101.889 155.599 100.969C156.12 100.05 156.42 99.0199 156.474 97.9621C156.474 96.0704 155.124 95.2822 153.472 96.2506Z" fill="#EBEBEB"/>
<path d="M109.189 78.3021L105.496 79.7321V71.5236C105.496 65.0153 100.351 63.4501 94.7596 66.7043C89.1796 69.9584 84.6486 77.8742 84.6486 84.3825V85.576C83.8615 85.3326 83.03 85.2719 82.2163 85.3987C81.4027 85.5254 80.628 85.8363 79.9503 86.3079C77.8243 87.7081 76.0567 89.5958 74.7921 91.817C73.5275 94.0382 72.8017 96.5297 72.674 99.088V99.6285L67.518 102.579C66.122 103.496 64.9599 104.733 64.1262 106.189C63.2924 107.644 62.8104 109.277 62.7192 110.956C62.7192 114.041 64.8731 115.291 67.518 113.749L109.189 89.472C110.587 88.5556 111.75 87.3192 112.584 85.8634C113.418 84.4076 113.899 82.7736 113.988 81.0946C113.988 78.0093 111.846 76.7595 109.189 78.3021Z" fill="#EBEBEB"/>
<path d="M66.9601 388.65C66.8611 388.65 66.7637 388.625 66.6776 388.575C66.5915 388.526 66.5196 388.455 66.4691 388.369C66.3968 388.239 66.3785 388.085 66.4183 387.942C66.458 387.798 66.5526 387.676 66.6811 387.603L320.504 239.714C320.633 239.641 320.785 239.623 320.927 239.663C321.07 239.703 321.19 239.798 321.263 239.928C321.301 239.991 321.326 240.062 321.336 240.135C321.346 240.208 321.342 240.282 321.323 240.354C321.304 240.425 321.272 240.492 321.227 240.55C321.182 240.609 321.126 240.658 321.062 240.694L67.2057 388.571C67.1316 388.618 67.0472 388.645 66.9601 388.65Z" fill="#F7F9F8"/>
<path d="M70.4754 371.355C70.3536 371.353 70.2356 371.312 70.1393 371.237C70.0431 371.162 69.9738 371.057 69.9422 370.938C69.9106 370.819 69.9183 370.693 69.9642 370.58C70.0101 370.466 70.0917 370.37 70.1964 370.308L324.053 222.43C324.182 222.356 324.335 222.335 324.479 222.373C324.623 222.411 324.746 222.504 324.823 222.633C324.895 222.763 324.913 222.916 324.874 223.06C324.834 223.203 324.739 223.325 324.611 223.398L70.7544 371.276C70.6706 371.328 70.5739 371.355 70.4754 371.355Z" fill="#F7F9F8"/>
<path d="M74.0242 354.059C73.9025 354.058 73.7844 354.017 73.6882 353.941C73.5919 353.866 73.5227 353.761 73.4911 353.643C73.4594 353.524 73.4672 353.398 73.5131 353.284C73.559 353.17 73.6405 353.075 73.7452 353.012L327.613 205.135C327.676 205.088 327.748 205.056 327.824 205.039C327.901 205.023 327.98 205.023 328.056 205.039C328.133 205.055 328.205 205.088 328.268 205.134C328.331 205.18 328.384 205.239 328.424 205.307C328.463 205.375 328.487 205.451 328.496 205.529C328.504 205.607 328.496 205.687 328.473 205.762C328.449 205.837 328.41 205.906 328.358 205.965C328.306 206.023 328.242 206.071 328.171 206.103L74.3032 353.992C74.217 354.037 74.1213 354.06 74.0242 354.059Z" fill="#F7F9F8"/>
<path d="M77.5733 336.764C77.4515 336.763 77.3335 336.721 77.2372 336.646C77.141 336.571 77.0717 336.466 77.0401 336.347C77.0085 336.229 77.0162 336.103 77.0621 335.989C77.108 335.875 77.1896 335.78 77.2943 335.717L331.162 187.839C331.225 187.793 331.297 187.761 331.374 187.744C331.45 187.728 331.529 187.728 331.605 187.744C331.682 187.76 331.754 187.792 331.817 187.838C331.88 187.885 331.933 187.944 331.973 188.012C332.012 188.08 332.036 188.155 332.045 188.234C332.053 188.312 332.045 188.391 332.022 188.466C331.998 188.541 331.959 188.611 331.907 188.669C331.855 188.728 331.791 188.775 331.72 188.808L77.8523 336.674C77.7681 336.727 77.6722 336.758 77.5733 336.764Z" fill="#F7F9F8"/>
<path d="M81.1332 319.469C81.0338 319.471 80.9354 319.446 80.8489 319.397C80.7624 319.347 80.6909 319.275 80.6422 319.187C80.5699 319.057 80.5516 318.904 80.5914 318.76C80.6311 318.617 80.7257 318.495 80.8542 318.422L334.711 170.544C334.774 170.498 334.846 170.465 334.922 170.449C334.999 170.432 335.078 170.432 335.154 170.448C335.23 170.465 335.303 170.497 335.366 170.543C335.429 170.589 335.482 170.648 335.521 170.716C335.561 170.784 335.585 170.86 335.594 170.938C335.602 171.017 335.594 171.096 335.57 171.171C335.547 171.246 335.507 171.315 335.456 171.374C335.404 171.433 335.34 171.48 335.269 171.512L81.468 319.401C81.3646 319.454 81.2489 319.477 81.1332 319.469Z" fill="#F7F9F8"/>
<path d="M84.6823 302.185C84.5849 302.184 84.4894 302.158 84.4052 302.108C84.321 302.059 84.2511 301.988 84.2024 301.903C84.1286 301.773 84.1083 301.619 84.1459 301.473C84.1834 301.328 84.2758 301.203 84.4033 301.126L338.26 153.249C338.324 153.212 338.394 153.188 338.467 153.178C338.54 153.169 338.614 153.174 338.685 153.193C338.756 153.212 338.822 153.246 338.881 153.291C338.939 153.336 338.988 153.393 339.024 153.457C339.061 153.521 339.085 153.592 339.094 153.666C339.104 153.739 339.099 153.814 339.079 153.886C339.06 153.957 339.027 154.024 338.982 154.083C338.937 154.142 338.882 154.191 338.818 154.228L84.9613 302.106C84.8752 302.153 84.7799 302.18 84.6823 302.185Z" fill="#F7F9F8"/>
<path d="M88.2311 284.878C88.1337 284.877 88.0382 284.851 87.954 284.802C87.8698 284.752 87.7999 284.682 87.7512 284.596C87.6774 284.466 87.6572 284.312 87.6947 284.167C87.7322 284.021 87.8246 283.897 87.9521 283.819L341.82 135.953C341.883 135.915 341.952 135.89 342.025 135.88C342.097 135.869 342.171 135.874 342.242 135.893C342.312 135.911 342.379 135.944 342.437 135.99C342.495 136.035 342.543 136.091 342.579 136.156C342.652 136.286 342.673 136.44 342.635 136.586C342.598 136.731 342.505 136.855 342.378 136.933L88.5101 284.81C88.4256 284.86 88.3286 284.883 88.2311 284.878Z" fill="#F7F9F8"/>
<path d="M91.7799 267.594C91.6825 267.593 91.587 267.567 91.5028 267.518C91.4186 267.468 91.3487 267.398 91.3 267.312C91.2263 267.182 91.206 267.028 91.2435 266.883C91.2811 266.737 91.3735 266.613 91.5009 266.535L345.369 118.658C345.497 118.583 345.65 118.563 345.794 118.602C345.937 118.641 346.059 118.736 346.133 118.866C346.207 118.996 346.227 119.15 346.188 119.295C346.149 119.44 346.055 119.563 345.927 119.638L92.0589 267.515C91.9756 267.568 91.8786 267.596 91.7799 267.594Z" fill="#F7F9F8"/>
<path d="M301.677 256.041H301.554C301.483 256.026 301.415 255.997 301.355 255.956C301.294 255.914 301.243 255.861 301.204 255.799C301.164 255.737 301.137 255.668 301.125 255.595C301.112 255.523 301.114 255.449 301.13 255.377L328.327 123.331C328.357 123.181 328.444 123.05 328.57 122.966C328.695 122.881 328.849 122.85 328.997 122.88C329.145 122.91 329.275 122.998 329.359 123.125C329.442 123.252 329.473 123.407 329.443 123.556L302.224 255.602C302.196 255.727 302.127 255.839 302.027 255.919C301.928 255.998 301.804 256.042 301.677 256.041Z" fill="#F7F9F8"/>
<path d="M288.073 263.968H287.928C287.856 263.953 287.788 263.925 287.727 263.883C287.666 263.842 287.614 263.789 287.574 263.727C287.534 263.665 287.506 263.596 287.492 263.524C287.478 263.451 287.478 263.376 287.493 263.304L314.712 131.258C314.744 131.113 314.831 130.986 314.954 130.904C315.076 130.823 315.226 130.792 315.37 130.819C315.442 130.833 315.51 130.862 315.571 130.904C315.632 130.945 315.684 130.998 315.724 131.06C315.765 131.122 315.793 131.191 315.807 131.263C315.821 131.336 315.82 131.411 315.806 131.483L288.62 263.484C288.601 263.617 288.536 263.74 288.435 263.828C288.335 263.917 288.207 263.967 288.073 263.968Z" fill="#F7F9F8"/>
<path d="M274.469 271.895H274.357C274.213 271.86 274.087 271.771 274.006 271.645C273.925 271.519 273.895 271.367 273.922 271.22L301.13 139.174C301.145 139.101 301.174 139.032 301.215 138.971C301.256 138.91 301.308 138.857 301.369 138.816C301.431 138.776 301.499 138.747 301.571 138.733C301.643 138.719 301.717 138.72 301.789 138.734C301.933 138.769 302.059 138.859 302.14 138.985C302.221 139.11 302.251 139.263 302.224 139.41L275.016 271.445C274.99 271.572 274.922 271.686 274.822 271.768C274.722 271.85 274.598 271.895 274.469 271.895Z" fill="#F7F9F8"/>
<path d="M260.876 279.811H260.765C260.693 279.796 260.625 279.767 260.564 279.726C260.503 279.684 260.451 279.631 260.411 279.57C260.37 279.508 260.342 279.439 260.328 279.366C260.314 279.294 260.315 279.219 260.329 279.147L287.526 147.112C287.559 146.967 287.645 146.84 287.768 146.758C287.891 146.677 288.04 146.646 288.185 146.673C288.257 146.687 288.325 146.716 288.386 146.758C288.446 146.799 288.498 146.852 288.539 146.914C288.579 146.976 288.607 147.045 288.621 147.117C288.635 147.19 288.635 147.265 288.62 147.337L261.423 279.361C261.397 279.488 261.329 279.602 261.229 279.684C261.13 279.766 261.005 279.811 260.876 279.811Z" fill="#F7F9F8"/>
<path d="M247.272 287.738H247.16C247.017 287.706 246.891 287.618 246.81 287.494C246.729 287.37 246.699 287.22 246.725 287.074L273.922 155.028C273.938 154.955 273.968 154.886 274.01 154.825C274.052 154.765 274.106 154.713 274.169 154.673C274.231 154.633 274.3 154.606 274.373 154.594C274.446 154.581 274.52 154.583 274.592 154.6C274.663 154.614 274.731 154.643 274.791 154.685C274.852 154.727 274.903 154.78 274.943 154.842C274.982 154.904 275.009 154.973 275.022 155.045C275.034 155.118 275.032 155.192 275.016 155.264L247.819 287.288C247.791 287.414 247.722 287.527 247.623 287.609C247.524 287.69 247.4 287.736 247.272 287.738Z" fill="#F7F9F8"/>
<path d="M233.679 295.654H233.557C233.485 295.639 233.417 295.61 233.357 295.569C233.297 295.527 233.245 295.474 233.206 295.412C233.166 295.35 233.139 295.281 233.127 295.208C233.114 295.136 233.116 295.061 233.133 294.989L260.329 162.955C260.344 162.882 260.373 162.813 260.414 162.752C260.455 162.691 260.507 162.638 260.569 162.597C260.63 162.557 260.698 162.528 260.77 162.514C260.842 162.5 260.916 162.501 260.988 162.516C261.132 162.548 261.257 162.635 261.338 162.759C261.419 162.883 261.45 163.034 261.423 163.18L234.226 295.203C234.201 295.331 234.132 295.445 234.032 295.527C233.933 295.609 233.808 295.654 233.679 295.654Z" fill="#F7F9F8"/>
<path d="M220.075 303.581H219.964C219.892 303.566 219.824 303.537 219.763 303.496C219.702 303.454 219.65 303.401 219.61 303.34C219.569 303.278 219.541 303.209 219.527 303.136C219.513 303.064 219.514 302.989 219.528 302.916L246.725 170.882C246.74 170.808 246.769 170.737 246.81 170.675C246.852 170.612 246.905 170.558 246.968 170.517C247.03 170.475 247.1 170.446 247.173 170.431C247.246 170.416 247.322 170.417 247.395 170.431C247.468 170.446 247.538 170.475 247.6 170.517C247.662 170.559 247.715 170.613 247.757 170.676C247.798 170.739 247.827 170.809 247.842 170.883C247.856 170.957 247.856 171.033 247.841 171.107L220.622 303.13C220.596 303.258 220.528 303.372 220.428 303.454C220.329 303.536 220.204 303.581 220.075 303.581Z" fill="#F7F9F8"/>
<path d="M206.46 311.497H206.348C206.277 311.482 206.208 311.453 206.148 311.412C206.087 311.37 206.035 311.317 205.994 311.255C205.954 311.194 205.926 311.125 205.912 311.052C205.898 310.979 205.898 310.905 205.913 310.832L233.132 178.786C233.147 178.714 233.176 178.645 233.217 178.584C233.258 178.522 233.31 178.47 233.371 178.429C233.433 178.388 233.501 178.36 233.573 178.346C233.645 178.332 233.719 178.332 233.791 178.347C233.934 178.38 234.06 178.467 234.141 178.591C234.222 178.715 234.253 178.865 234.226 179.011L207.018 311.046C206.994 311.176 206.924 311.293 206.822 311.376C206.72 311.459 206.591 311.502 206.46 311.497Z" fill="#F7F9F8"/>
<path d="M192.878 319.424H192.767C192.695 319.409 192.627 319.38 192.566 319.339C192.505 319.297 192.453 319.244 192.413 319.182C192.372 319.121 192.344 319.052 192.33 318.979C192.317 318.906 192.317 318.832 192.332 318.759L219.529 186.725C219.558 186.575 219.645 186.444 219.771 186.359C219.896 186.275 220.05 186.244 220.198 186.274C220.346 186.304 220.476 186.392 220.56 186.519C220.644 186.645 220.674 186.8 220.645 186.95L193.425 318.973C193.4 319.1 193.331 319.215 193.231 319.297C193.132 319.379 193.007 319.424 192.878 319.424Z" fill="#F7F9F8"/>
<path d="M179.274 327.339H179.163C179.091 327.325 179.023 327.296 178.962 327.254C178.901 327.213 178.849 327.16 178.809 327.098C178.768 327.036 178.74 326.967 178.726 326.895C178.712 326.822 178.713 326.747 178.727 326.675L205.924 194.64C205.959 194.494 206.048 194.368 206.172 194.286C206.297 194.204 206.448 194.174 206.594 194.201C206.665 194.216 206.733 194.245 206.794 194.286C206.854 194.328 206.905 194.381 206.945 194.443C206.984 194.505 207.011 194.574 207.024 194.647C207.036 194.719 207.034 194.794 207.018 194.865L179.821 326.9C179.795 327.026 179.726 327.139 179.626 327.219C179.526 327.3 179.402 327.342 179.274 327.339Z" fill="#F7F9F8"/>
<path d="M165.681 335.266H165.559C165.487 335.252 165.419 335.223 165.359 335.181C165.299 335.14 165.247 335.086 165.208 335.024C165.168 334.963 165.141 334.893 165.129 334.821C165.116 334.748 165.118 334.674 165.135 334.602L192.331 202.567C192.345 202.494 192.372 202.424 192.413 202.362C192.454 202.3 192.506 202.247 192.568 202.206C192.629 202.165 192.698 202.137 192.771 202.124C192.844 202.11 192.918 202.112 192.99 202.128C193.133 202.161 193.259 202.248 193.34 202.372C193.421 202.496 193.452 202.647 193.425 202.793L166.284 334.816C166.257 334.953 166.18 335.075 166.069 335.159C165.957 335.242 165.819 335.28 165.681 335.266Z" fill="#F7F9F8"/>
<path d="M152.077 343.194H151.966C151.893 343.18 151.824 343.152 151.763 343.111C151.701 343.07 151.648 343.017 151.608 342.955C151.567 342.893 151.539 342.823 151.526 342.75C151.513 342.677 151.514 342.602 151.531 342.529L178.727 210.494C178.743 210.42 178.773 210.35 178.815 210.288C178.857 210.226 178.911 210.172 178.974 210.131C179.036 210.09 179.107 210.061 179.18 210.047C179.254 210.033 179.329 210.034 179.403 210.05C179.476 210.065 179.545 210.095 179.607 210.138C179.669 210.18 179.722 210.235 179.763 210.298C179.804 210.361 179.832 210.432 179.846 210.506C179.86 210.581 179.859 210.657 179.843 210.731L152.624 342.743C152.597 342.869 152.528 342.982 152.428 343.064C152.329 343.146 152.205 343.191 152.077 343.194Z" fill="#F7F9F8"/>
<path d="M152.077 285.092H151.966C151.894 285.077 151.826 285.048 151.765 285.007C151.704 284.965 151.652 284.912 151.612 284.851C151.571 284.789 151.543 284.72 151.529 284.647C151.516 284.575 151.516 284.5 151.531 284.428L165.168 218.444C165.183 218.371 165.211 218.303 165.252 218.241C165.293 218.18 165.346 218.128 165.407 218.087C165.468 218.046 165.537 218.018 165.609 218.004C165.681 217.99 165.755 217.99 165.827 218.005C165.97 218.037 166.096 218.125 166.177 218.248C166.258 218.372 166.288 218.523 166.262 218.669L152.658 284.687C152.622 284.811 152.545 284.92 152.439 284.994C152.333 285.067 152.206 285.102 152.077 285.092Z" fill="#F7F9F8"/>
<path d="M340.38 257.437C340.234 257.42 340.1 257.346 340.008 257.23C339.916 257.114 339.873 256.966 339.889 256.818L362.209 51.1766C362.223 51.0489 362.279 50.9296 362.368 50.8377C362.457 50.7459 362.574 50.6868 362.7 50.6699C362.846 50.6869 362.98 50.7615 363.072 50.8775C363.164 50.9935 363.207 51.1415 363.191 51.2892L340.871 256.931C340.859 257.059 340.804 257.179 340.714 257.272C340.625 257.364 340.507 257.422 340.38 257.437Z" fill="#F7F9F8"/>
<path d="M356.071 266.603C355.998 266.597 355.926 266.577 355.86 266.543C355.795 266.51 355.737 266.463 355.689 266.407C355.641 266.35 355.605 266.285 355.582 266.214C355.56 266.143 355.551 266.069 355.558 265.995L372.298 55.5793C372.303 55.5053 372.323 55.4332 372.357 55.367C372.39 55.3008 372.436 55.242 372.492 55.1939C372.548 55.1457 372.613 55.1092 372.683 55.0865C372.753 55.0638 372.827 55.0552 372.9 55.0614C372.974 55.0671 373.045 55.0873 373.111 55.121C373.176 55.1547 373.235 55.2011 373.282 55.2576C373.33 55.3142 373.366 55.3796 373.389 55.4503C373.411 55.521 373.42 55.5954 373.414 55.6694L356.674 266.085C356.669 266.16 356.65 266.233 356.617 266.299C356.585 266.366 356.539 266.426 356.482 266.474C356.426 266.523 356.36 266.559 356.29 266.581C356.219 266.603 356.145 266.611 356.071 266.603Z" fill="#F7F9F8"/>
<path d="M371.628 275.352C371.555 275.348 371.483 275.329 371.417 275.296C371.351 275.264 371.292 275.219 371.243 275.163C371.194 275.108 371.157 275.043 371.133 274.973C371.109 274.903 371.099 274.829 371.104 274.755L382.319 60.2747C382.322 60.2008 382.34 60.1281 382.37 60.0609C382.401 59.9937 382.445 59.9333 382.498 59.8831C382.552 59.8329 382.616 59.7939 382.684 59.7683C382.753 59.7428 382.826 59.7312 382.9 59.7342C383.049 59.743 383.188 59.8104 383.289 59.922C383.389 60.0337 383.441 60.1805 383.435 60.331L372.175 274.823C372.169 274.965 372.109 275.1 372.007 275.198C371.905 275.297 371.769 275.352 371.628 275.352Z" fill="#F7F9F8"/>
<path d="M387.81 285.092C387.737 285.09 387.666 285.074 387.599 285.045C387.532 285.015 387.472 284.972 387.423 284.918C387.373 284.865 387.334 284.802 387.308 284.733C387.283 284.664 387.271 284.591 387.274 284.518L392.441 64.9476C392.443 64.8737 392.459 64.8007 392.488 64.733C392.518 64.6652 392.56 64.604 392.613 64.5528C392.666 64.5015 392.728 64.4613 392.796 64.4344C392.865 64.4075 392.937 64.3944 393.011 64.3959C393.157 64.4044 393.294 64.4683 393.396 64.5748C393.497 64.6812 393.555 64.8225 393.557 64.9701L388.368 284.54C388.365 284.687 388.305 284.828 388.201 284.931C388.096 285.034 387.956 285.092 387.81 285.092Z" fill="#F7F9F8"/>
<path d="M403.066 293.762C402.918 293.762 402.776 293.703 402.671 293.597C402.567 293.492 402.508 293.348 402.508 293.199V69.6655C402.508 69.5162 402.567 69.373 402.671 69.2674C402.776 69.1619 402.918 69.1025 403.066 69.1025C403.214 69.1025 403.356 69.1619 403.46 69.2674C403.565 69.373 403.624 69.5162 403.624 69.6655V293.199C403.624 293.348 403.565 293.492 403.46 293.597C403.356 293.703 403.214 293.762 403.066 293.762Z" fill="#F7F9F8"/>
<path d="M403.066 288.706C402.967 288.707 402.871 288.68 402.787 288.628L320.504 240.694C320.44 240.658 320.384 240.609 320.339 240.55C320.295 240.492 320.262 240.425 320.243 240.354C320.224 240.282 320.22 240.208 320.23 240.135C320.241 240.062 320.265 239.991 320.303 239.928C320.378 239.801 320.499 239.707 320.64 239.667C320.781 239.627 320.933 239.644 321.062 239.714L403.345 287.648C403.455 287.708 403.542 287.804 403.592 287.92C403.642 288.036 403.652 288.166 403.619 288.288C403.587 288.411 403.515 288.518 403.414 288.594C403.314 288.67 403.191 288.71 403.066 288.706Z" fill="#F7F9F8"/>
<path d="M403.066 268.844C402.971 268.845 402.877 268.818 402.798 268.765L324.064 223.398C323.999 223.363 323.942 223.315 323.896 223.257C323.85 223.199 323.817 223.132 323.797 223.061C323.777 222.99 323.772 222.915 323.781 222.841C323.791 222.768 323.815 222.697 323.852 222.633C323.927 222.505 324.048 222.412 324.189 222.372C324.33 222.332 324.482 222.349 324.611 222.419L403.345 267.785C403.474 267.861 403.569 267.985 403.609 268.13C403.648 268.275 403.63 268.431 403.557 268.562C403.507 268.649 403.436 268.721 403.349 268.77C403.263 268.82 403.165 268.845 403.066 268.844Z" fill="#F7F9F8"/>
<path d="M403.066 248.981C402.971 248.982 402.878 248.954 402.798 248.902L327.613 206.114C327.545 206.08 327.484 206.033 327.435 205.975C327.386 205.917 327.349 205.849 327.327 205.776C327.304 205.703 327.297 205.626 327.305 205.55C327.313 205.473 327.336 205.4 327.374 205.333C327.411 205.266 327.461 205.208 327.521 205.162C327.582 205.115 327.651 205.082 327.724 205.063C327.798 205.045 327.875 205.041 327.949 205.054C328.024 205.066 328.096 205.094 328.16 205.135L403.345 247.923C403.473 247.996 403.568 248.118 403.608 248.261C403.647 248.405 403.629 248.558 403.557 248.688C403.51 248.778 403.439 248.853 403.352 248.904C403.265 248.956 403.166 248.983 403.066 248.981Z" fill="#F7F9F8"/>
<path d="M403.066 229.118C402.973 229.118 402.881 229.094 402.798 229.051L331.173 188.819C331.043 188.747 330.946 188.626 330.904 188.483C330.862 188.339 330.879 188.185 330.95 188.053C331.021 187.922 331.141 187.824 331.283 187.782C331.425 187.74 331.579 187.756 331.709 187.828L403.345 228.06C403.473 228.133 403.568 228.255 403.608 228.399C403.647 228.542 403.629 228.696 403.557 228.826C403.51 228.915 403.439 228.99 403.352 229.042C403.266 229.093 403.166 229.12 403.066 229.118Z" fill="#F7F9F8"/>
<path d="M403.066 209.256C402.972 209.255 402.881 209.232 402.798 209.188L334.722 171.524C334.592 171.452 334.495 171.331 334.453 171.187C334.411 171.044 334.428 170.889 334.499 170.758C334.57 170.626 334.69 170.529 334.832 170.487C334.974 170.444 335.127 170.461 335.258 170.533L403.334 208.197C403.443 208.257 403.53 208.352 403.58 208.467C403.63 208.582 403.64 208.71 403.609 208.832C403.578 208.954 403.508 209.062 403.41 209.138C403.311 209.215 403.19 209.256 403.066 209.256Z" fill="#F7F9F8"/>
<path d="M403.066 189.393C402.976 189.394 402.887 189.37 402.809 189.326L338.282 154.262C338.217 154.229 338.159 154.183 338.112 154.126C338.064 154.07 338.029 154.005 338.007 153.935C337.985 153.864 337.977 153.79 337.984 153.717C337.991 153.644 338.013 153.572 338.048 153.508C338.082 153.441 338.128 153.383 338.185 153.335C338.242 153.287 338.307 153.251 338.378 153.229C338.449 153.207 338.523 153.2 338.596 153.207C338.67 153.214 338.741 153.236 338.806 153.271L403.334 188.369C403.398 188.404 403.455 188.452 403.501 188.509C403.548 188.567 403.582 188.633 403.603 188.705C403.624 188.776 403.63 188.85 403.622 188.924C403.614 188.998 403.592 189.069 403.557 189.134C403.505 189.218 403.432 189.286 403.346 189.331C403.26 189.377 403.163 189.398 403.066 189.393Z" fill="#F7F9F8"/>
<path d="M403.066 169.531C402.976 169.531 402.887 169.508 402.809 169.463L341.831 136.944C341.703 136.87 341.607 136.75 341.563 136.608C341.52 136.466 341.532 136.312 341.596 136.178C341.667 136.047 341.786 135.949 341.928 135.905C342.07 135.86 342.223 135.874 342.355 135.942L403.334 168.472C403.443 168.532 403.53 168.627 403.58 168.742C403.63 168.857 403.64 168.985 403.609 169.107C403.578 169.229 403.508 169.336 403.41 169.413C403.311 169.49 403.19 169.531 403.066 169.531Z" fill="#F7F9F8"/>
<path d="M403.066 149.668C402.981 149.683 402.894 149.683 402.809 149.668L345.391 119.705C345.259 119.638 345.16 119.52 345.114 119.379C345.068 119.238 345.079 119.084 345.145 118.951C345.214 118.817 345.333 118.717 345.475 118.67C345.616 118.624 345.771 118.636 345.904 118.703L403.322 148.632C403.389 148.664 403.448 148.71 403.496 148.765C403.544 148.821 403.581 148.886 403.604 148.957C403.627 149.027 403.635 149.101 403.629 149.175C403.623 149.249 403.602 149.321 403.568 149.386C403.516 149.474 403.443 149.546 403.355 149.596C403.266 149.645 403.167 149.67 403.066 149.668Z" fill="#F7F9F8"/>
<path d="M403.066 129.805C402.985 129.826 402.901 129.826 402.82 129.805L348.951 102.353C348.885 102.321 348.826 102.276 348.777 102.22C348.729 102.164 348.692 102.099 348.669 102.029C348.646 101.958 348.638 101.884 348.644 101.81C348.65 101.736 348.671 101.665 348.705 101.599C348.772 101.466 348.888 101.366 349.029 101.319C349.169 101.273 349.321 101.284 349.453 101.351L403.322 128.747C403.454 128.814 403.553 128.932 403.599 129.073C403.645 129.214 403.634 129.368 403.568 129.501C403.52 129.594 403.448 129.671 403.36 129.725C403.271 129.779 403.169 129.807 403.066 129.805Z" fill="#F7F9F8"/>
<path d="M403.066 109.943C402.985 109.964 402.901 109.964 402.82 109.943L352.5 85.1706C352.369 85.1029 352.268 84.9865 352.221 84.8457C352.173 84.705 352.181 84.551 352.243 84.4162C352.31 84.2837 352.426 84.1827 352.565 84.1344C352.705 84.0861 352.857 84.0943 352.991 84.1572L403.311 108.929C403.377 108.961 403.436 109.005 403.484 109.059C403.533 109.114 403.57 109.177 403.594 109.247C403.618 109.316 403.628 109.389 403.623 109.462C403.619 109.535 403.6 109.607 403.568 109.672C403.518 109.761 403.444 109.833 403.355 109.88C403.267 109.928 403.166 109.95 403.066 109.943Z" fill="#F7F9F8"/>
<path d="M403.066 90.08C403.003 90.0901 402.939 90.0901 402.876 90.08L356.06 67.7739C355.927 67.7082 355.824 67.5926 355.774 67.4517C355.724 67.3107 355.731 67.1557 355.792 67.0195C355.824 66.9529 355.869 66.8933 355.924 66.8442C355.979 66.7951 356.043 66.7574 356.113 66.7334C356.182 66.7093 356.256 66.6993 356.329 66.704C356.402 66.7087 356.474 66.7279 356.54 66.7605L403.311 89.0103C403.459 89.0432 403.588 89.134 403.67 89.2628C403.752 89.3916 403.779 89.5478 403.747 89.6972C403.714 89.8465 403.624 89.9766 403.496 90.059C403.369 90.1413 403.214 90.1692 403.066 90.1363V90.08Z" fill="#F7F9F8"/>
<path d="M403.066 70.2286C402.992 70.2441 402.916 70.2441 402.843 70.2286L359.62 50.4898C359.542 50.4658 359.471 50.4255 359.41 50.3714C359.35 50.3173 359.301 50.2508 359.268 50.1762C359.235 50.1017 359.218 50.0209 359.218 49.9391C359.218 49.8574 359.236 49.7767 359.269 49.7023C359.303 49.628 359.352 49.5618 359.413 49.5081C359.474 49.4543 359.546 49.4144 359.623 49.3909C359.701 49.3674 359.782 49.3608 359.863 49.3717C359.943 49.3825 360.02 49.4106 360.089 49.4539L403.3 69.1476C403.448 69.179 403.578 69.2684 403.66 69.3961C403.743 69.5239 403.772 69.6795 403.741 69.8289C403.71 69.9782 403.621 70.1089 403.495 70.1923C403.368 70.2757 403.214 70.305 403.066 70.2736V70.2286Z" fill="#F7F9F8"/>
<path d="M405.945 74.3159C405.945 73.669 405.776 73.0334 405.456 72.4731C405.135 71.9129 404.674 71.4478 404.118 71.1248C403.562 70.8017 402.932 70.632 402.291 70.6328C401.65 70.6336 401.02 70.8049 400.465 71.1294L399.774 71.5347L148.428 217.96C148.1 218.192 147.84 218.509 147.675 218.877C147.51 219.246 147.446 219.652 147.491 220.054V439.208C147.525 439.611 147.667 439.997 147.9 440.326C148.134 440.655 148.451 440.914 148.819 441.077C149.81 441.588 150.908 441.854 152.022 441.854C153.135 441.854 154.233 441.588 155.224 441.077C155.592 440.914 155.909 440.655 156.143 440.326C156.377 439.997 156.518 439.611 156.553 439.208V223.781L396.872 83.8306V293.987C396.906 294.391 397.048 294.777 397.282 295.106C397.515 295.435 397.833 295.694 398.2 295.856C399.194 296.368 400.293 296.634 401.409 296.634C402.524 296.634 403.623 296.368 404.617 295.856C404.984 295.694 405.302 295.435 405.535 295.106C405.769 294.777 405.911 294.391 405.945 293.987V74.3159Z" fill="#EBC556"/>
<path d="M155.671 217.948L110.573 197.151C110.122 196.933 109.628 196.817 109.128 196.809C108.627 196.801 108.131 196.903 107.673 197.108C107.215 197.312 106.806 197.614 106.474 197.993C106.143 198.371 105.897 198.818 105.752 199.302L66.2013 391.611C66.1953 391.698 66.1953 391.784 66.2013 391.87C66.2264 392.21 66.3343 392.537 66.5154 392.824C66.6965 393.111 66.9451 393.348 67.2392 393.514C67.3701 393.605 67.5082 393.684 67.6521 393.751C68.609 394.228 69.6651 394.467 70.7322 394.449C73.0535 394.449 74.973 393.447 75.1962 392.197L113.107 208.31L151.14 225.853L155.671 217.948Z" fill="#EBC556"/>
<path d="M403.758 71.0055L360.948 51.2668C360.495 51.0491 360 50.9332 359.498 50.9271C358.996 50.921 358.499 51.0249 358.041 51.2315C357.582 51.438 357.174 51.7425 356.843 52.1238C356.513 52.505 356.269 52.9541 356.127 53.4399L316.576 245.716C316.57 245.802 316.57 245.888 316.576 245.975C316.601 246.314 316.709 246.641 316.89 246.928C317.071 247.215 317.32 247.452 317.614 247.619C317.745 247.709 317.883 247.788 318.027 247.855C318.983 248.332 320.04 248.572 321.107 248.553C323.428 248.553 325.348 247.551 325.571 246.301L363.481 62.4479L401.515 79.946L403.758 71.0055Z" fill="#EBC556"/>
<path opacity="0.8" d="M403.568 70.938L360.948 51.2668C360.495 51.0491 360 50.9332 359.498 50.9271C358.996 50.921 358.499 51.0249 358.041 51.2315C357.582 51.438 357.174 51.7425 356.844 52.1238C356.513 52.505 356.269 52.9541 356.127 53.4399L345.938 102.984L151.665 216.102L110.573 197.151C110.122 196.933 109.628 196.817 109.128 196.809C108.627 196.801 108.131 196.903 107.673 197.108C107.215 197.312 106.806 197.614 106.474 197.993C106.143 198.371 105.897 198.818 105.752 199.302L66.2013 391.612C66.1953 391.698 66.1953 391.784 66.2013 391.87C66.2264 392.21 66.3343 392.537 66.5154 392.824C66.6965 393.111 66.9451 393.348 67.2392 393.514C67.3701 393.605 67.5082 393.684 67.6521 393.751C68.609 394.228 69.6651 394.467 70.7322 394.449C73.0535 394.449 74.973 393.447 75.1962 392.197L113.107 208.31L147.535 224.187V439.208C147.57 439.611 147.711 439.997 147.945 440.326C148.179 440.655 148.496 440.914 148.863 441.077C149.855 441.588 150.953 441.854 152.066 441.854C153.18 441.854 154.278 441.588 155.269 441.077C155.637 440.914 155.954 440.655 156.188 440.326C156.421 439.997 156.563 439.611 156.597 439.208V223.781L343.471 114.942L316.576 245.716C316.57 245.802 316.57 245.888 316.576 245.975C316.601 246.314 316.709 246.641 316.89 246.928C317.071 247.215 317.32 247.452 317.614 247.619C317.745 247.709 317.883 247.788 318.027 247.855C318.984 248.332 320.04 248.572 321.107 248.553C323.428 248.553 325.348 247.551 325.571 246.301L353.884 108.929L396.85 83.8982V293.987C396.884 294.391 397.026 294.777 397.26 295.106C397.493 295.435 397.81 295.694 398.178 295.856C399.172 296.368 400.271 296.634 401.386 296.634C402.502 296.634 403.601 296.368 404.595 295.856C404.962 295.694 405.279 295.435 405.513 295.106C405.747 294.777 405.888 294.391 405.923 293.987V74.316C405.915 73.5788 405.685 72.8614 405.265 72.2584C404.844 71.6554 404.253 71.195 403.568 70.938ZM363.481 62.4479L392.497 75.8248L356.384 96.836L363.481 62.4479Z" fill="white"/>
<path opacity="0.1" d="M113.107 208.333L107.158 205.585L112.683 210.404L113.107 208.333Z" fill="black"/>
<path opacity="0.1" d="M363.481 62.4479L357.522 59.7004L363.057 64.5197L363.481 62.4479Z" fill="black"/>
<path d="M108.788 199.685H108.721C108.575 199.668 108.441 199.593 108.349 199.477C108.257 199.361 108.214 199.213 108.23 199.065L108.297 198.48L108.531 198.334L361.316 51.0753C361.447 51.0047 361.6 50.9876 361.743 51.0274C361.887 51.0672 362.009 51.1609 362.086 51.2893C362.156 51.4198 362.172 51.5724 362.133 51.7151C362.093 51.8578 362.001 51.9795 361.874 52.0549L109.368 199.167C109.357 199.312 109.29 199.447 109.182 199.544C109.073 199.641 108.932 199.691 108.788 199.685Z" fill="#F7F9F8"/>
<path d="M118.91 204.065C118.788 204.064 118.67 204.022 118.574 203.947C118.478 203.872 118.408 203.767 118.377 203.648C118.345 203.529 118.353 203.404 118.399 203.29C118.445 203.176 118.526 203.08 118.631 203.018L371.416 55.7594C371.479 55.7214 371.549 55.6964 371.621 55.6859C371.694 55.6755 371.767 55.6799 371.838 55.6988C371.909 55.7177 371.975 55.7507 372.033 55.796C372.091 55.8412 372.139 55.8977 372.175 55.9621C372.249 56.0924 372.269 56.2467 372.232 56.3919C372.194 56.5371 372.102 56.6617 371.974 56.7391L119.189 203.986C119.106 204.039 119.009 204.067 118.91 204.065Z" fill="#F7F9F8"/>
<path d="M129.01 208.749C128.912 208.748 128.817 208.722 128.733 208.673C128.648 208.623 128.578 208.553 128.53 208.468C128.456 208.337 128.436 208.183 128.473 208.038C128.511 207.893 128.603 207.768 128.731 207.691L381.516 60.4436C381.579 60.3973 381.651 60.3648 381.727 60.3484C381.804 60.3319 381.883 60.3318 381.959 60.348C382.035 60.3643 382.108 60.3965 382.171 60.4427C382.234 60.4888 382.287 60.5479 382.326 60.616C382.366 60.6841 382.39 60.7597 382.399 60.838C382.407 60.9164 382.399 60.9956 382.375 61.0706C382.352 61.1456 382.312 61.2148 382.261 61.2736C382.209 61.3324 382.145 61.3795 382.074 61.412L129.289 208.67C129.203 208.719 129.108 208.746 129.01 208.749Z" fill="#F7F9F8"/>
<path d="M139.109 213.422C138.988 213.421 138.87 213.379 138.773 213.304C138.677 213.229 138.608 213.124 138.576 213.005C138.545 212.887 138.552 212.761 138.598 212.647C138.644 212.533 138.726 212.438 138.83 212.375L391.616 65.1278C391.741 65.0704 391.884 65.0622 392.016 65.1047C392.147 65.1472 392.258 65.2374 392.328 65.3579C392.397 65.4784 392.42 65.6206 392.391 65.757C392.363 65.8934 392.285 66.0142 392.174 66.0962L139.388 213.354C139.302 213.399 139.206 213.423 139.109 213.422Z" fill="#F7F9F8"/>
<path d="M149.209 218.106C149.088 218.105 148.969 218.063 148.873 217.988C148.777 217.913 148.708 217.808 148.676 217.689C148.644 217.571 148.652 217.445 148.698 217.331C148.744 217.217 148.826 217.122 148.93 217.059L401.76 69.812C401.823 69.7743 401.894 69.75 401.967 69.7404C402.04 69.7308 402.114 69.7361 402.185 69.7561C402.255 69.776 402.322 69.8102 402.379 69.8566C402.436 69.903 402.484 69.9606 402.519 70.0259C402.592 70.1545 402.612 70.3071 402.575 70.4504C402.537 70.5938 402.445 70.7164 402.318 70.7916L149.544 218.027C149.444 218.091 149.326 218.119 149.209 218.106Z" fill="#F7F9F8"/>
<path d="M387.799 79.1127C387.725 79.1276 387.649 79.1276 387.576 79.1127L346.775 60.5788C346.649 60.512 346.553 60.3993 346.507 60.2638C346.461 60.1283 346.468 59.9801 346.526 59.8494C346.584 59.7188 346.69 59.6155 346.821 59.5606C346.952 59.5057 347.099 59.5034 347.232 59.5541L388.033 78.043C388.181 78.0744 388.311 78.1638 388.393 78.2915C388.476 78.4193 388.505 78.5749 388.474 78.7243C388.443 78.8736 388.354 79.0043 388.228 79.0877C388.101 79.1711 387.947 79.2004 387.799 79.169V79.1127Z" fill="#F7F9F8"/>
<path d="M374.206 87.0398C374.129 87.0558 374.049 87.0558 373.972 87.0398L333.171 68.5058C333.104 68.4747 333.044 68.4307 332.994 68.3763C332.944 68.3219 332.906 68.2581 332.88 68.1885C332.855 68.119 332.843 68.0451 332.846 67.9711C332.849 67.897 332.866 67.8243 332.897 67.757C332.928 67.6897 332.972 67.6292 333.026 67.5789C333.079 67.5287 333.143 67.4896 333.212 67.464C333.281 67.4384 333.354 67.4267 333.427 67.4296C333.501 67.4326 333.573 67.4501 333.639 67.4811L374.429 85.9588C374.564 86.0202 374.668 86.1329 374.721 86.2722C374.773 86.4115 374.769 86.566 374.708 86.702C374.667 86.8018 374.597 86.887 374.507 86.9471C374.418 87.0072 374.313 87.0394 374.206 87.0398Z" fill="#F7F9F8"/>
<path d="M360.602 94.9668C360.529 94.9833 360.452 94.9833 360.379 94.9668L319.578 76.4328C319.442 76.3716 319.335 76.2583 319.282 76.1179C319.229 75.9775 319.233 75.8214 319.293 75.684C319.354 75.5466 319.466 75.4392 319.605 75.3854C319.745 75.3315 319.899 75.3357 320.035 75.3969L360.836 93.8858C360.971 93.9472 361.076 94.06 361.128 94.1992C361.18 94.3385 361.176 94.4931 361.115 94.629C361.071 94.7288 360.999 94.8137 360.908 94.8735C360.817 94.9334 360.711 94.9657 360.602 94.9668Z" fill="#F7F9F8"/>
<path d="M347.009 102.883C346.932 102.899 346.852 102.899 346.775 102.883L305.974 84.3487C305.848 84.2819 305.753 84.1692 305.706 84.0337C305.66 83.8982 305.667 83.75 305.725 83.6193C305.784 83.4887 305.889 83.3854 306.02 83.3305C306.152 83.2756 306.299 83.2733 306.431 83.324L347.232 101.813C347.367 101.874 347.472 101.987 347.524 102.126C347.576 102.266 347.572 102.42 347.511 102.556C347.468 102.654 347.398 102.737 347.308 102.795C347.219 102.853 347.115 102.883 347.009 102.883Z" fill="#F7F9F8"/>
<path d="M333.405 110.81C333.328 110.825 333.248 110.825 333.171 110.81L292.392 92.332C292.325 92.3028 292.263 92.2601 292.213 92.2065C292.162 92.153 292.122 92.0896 292.096 92.0202C292.07 91.9508 292.058 91.8769 292.061 91.8028C292.064 91.7286 292.082 91.6559 292.113 91.5888C292.141 91.5196 292.182 91.4569 292.235 91.4044C292.288 91.3518 292.35 91.3106 292.419 91.2833C292.488 91.2559 292.562 91.2429 292.636 91.2451C292.71 91.2473 292.783 91.2646 292.85 91.296L333.684 109.729C333.752 109.758 333.813 109.801 333.864 109.854C333.915 109.907 333.955 109.97 333.982 110.039C334.009 110.108 334.023 110.182 334.021 110.256C334.02 110.331 334.004 110.404 333.974 110.472C333.926 110.581 333.845 110.672 333.743 110.733C333.641 110.793 333.523 110.82 333.405 110.81Z" fill="#F7F9F8"/>
<path d="M319.801 118.725C319.728 118.742 319.651 118.742 319.578 118.725L278.777 100.214C278.706 100.187 278.641 100.145 278.586 100.092C278.531 100.038 278.488 99.974 278.459 99.903C278.43 99.832 278.415 99.7557 278.416 99.6788C278.417 99.602 278.434 99.5262 278.466 99.4561C278.497 99.3861 278.542 99.3232 278.598 99.2714C278.655 99.2196 278.721 99.18 278.793 99.155C278.865 99.13 278.941 99.1202 279.017 99.1261C279.093 99.132 279.167 99.1535 279.234 99.1893L320.035 117.678C320.183 117.71 320.313 117.799 320.396 117.927C320.478 118.054 320.507 118.21 320.476 118.359C320.445 118.509 320.356 118.64 320.23 118.723C320.103 118.806 319.949 118.836 319.801 118.804V118.725Z" fill="#F7F9F8"/>
<path d="M306.208 126.652C306.131 126.669 306.051 126.669 305.974 126.652L265.173 108.096C265.038 108.035 264.933 107.922 264.881 107.783C264.829 107.643 264.833 107.489 264.894 107.353C264.955 107.217 265.066 107.111 265.204 107.059C265.342 107.006 265.496 107.01 265.63 107.071L306.431 125.549C306.566 125.61 306.671 125.723 306.723 125.862C306.775 126.002 306.771 126.156 306.71 126.292C306.672 126.396 306.604 126.486 306.514 126.55C306.425 126.615 306.318 126.65 306.208 126.652Z" fill="#F7F9F8"/>
<path d="M292.604 134.58C292.531 134.596 292.455 134.596 292.381 134.58L251.58 116.091C251.512 116.061 251.451 116.019 251.401 115.965C251.35 115.912 251.31 115.848 251.284 115.779C251.258 115.71 251.246 115.636 251.249 115.561C251.252 115.487 251.27 115.415 251.301 115.347C251.362 115.212 251.474 115.106 251.612 115.053C251.75 115 251.903 115.005 252.038 115.066L292.839 133.555C292.973 133.616 293.078 133.729 293.13 133.868C293.183 134.008 293.178 134.162 293.118 134.298C293.065 134.387 292.99 134.461 292.899 134.51C292.809 134.56 292.707 134.584 292.604 134.58Z" fill="#F7F9F8"/>
<path d="M279 142.495C278.926 142.51 278.85 142.51 278.777 142.495L237.976 124.006C237.85 123.94 237.755 123.827 237.708 123.691C237.662 123.556 237.669 123.408 237.727 123.277C237.786 123.146 237.891 123.043 238.022 122.988C238.154 122.933 238.301 122.931 238.433 122.982L279.234 141.459C279.37 141.523 279.475 141.638 279.527 141.779C279.579 141.92 279.574 142.076 279.513 142.214C279.461 142.303 279.386 142.377 279.295 142.426C279.205 142.476 279.103 142.5 279 142.495Z" fill="#F7F9F8"/>
<path d="M265.407 150.422C265.326 150.42 265.246 150.4 265.173 150.366L224.383 131.888C224.315 131.859 224.254 131.816 224.203 131.763C224.152 131.71 224.112 131.647 224.085 131.578C224.058 131.509 224.045 131.435 224.046 131.361C224.047 131.286 224.063 131.213 224.093 131.145C224.154 131.007 224.267 130.898 224.407 130.843C224.547 130.788 224.703 130.792 224.841 130.852L265.608 149.341C265.676 149.371 265.737 149.413 265.788 149.467C265.838 149.52 265.878 149.584 265.904 149.653C265.93 149.722 265.942 149.796 265.939 149.871C265.936 149.945 265.919 150.017 265.887 150.084C265.847 150.181 265.781 150.264 265.696 150.324C265.611 150.383 265.511 150.418 265.407 150.422Z" fill="#F7F9F8"/>
<path d="M251.803 158.338C251.73 158.355 251.653 158.355 251.58 158.338L210.779 139.849C210.653 139.782 210.558 139.67 210.512 139.534C210.465 139.399 210.472 139.25 210.53 139.12C210.589 138.989 210.694 138.886 210.826 138.831C210.957 138.776 211.104 138.774 211.237 138.824L252.038 157.313C252.186 157.345 252.315 157.434 252.398 157.562C252.48 157.69 252.509 157.845 252.478 157.995C252.447 158.144 252.359 158.275 252.232 158.358C252.105 158.442 251.951 158.471 251.803 158.439V158.338Z" fill="#F7F9F8"/>
<path d="M238.21 166.265C238.133 166.281 238.053 166.281 237.976 166.265L197.175 147.731C197.042 147.668 196.939 147.555 196.887 147.416C196.836 147.278 196.839 147.124 196.896 146.988C196.925 146.92 196.967 146.858 197.02 146.807C197.073 146.756 197.136 146.716 197.205 146.689C197.274 146.663 197.347 146.651 197.42 146.654C197.494 146.657 197.566 146.675 197.633 146.707L238.433 165.184C238.568 165.246 238.673 165.358 238.725 165.498C238.777 165.637 238.773 165.791 238.712 165.927C238.671 166.027 238.601 166.112 238.512 166.173C238.422 166.233 238.318 166.265 238.21 166.265Z" fill="#F7F9F8"/>
<path d="M224.606 174.181C224.533 174.198 224.456 174.198 224.383 174.181L183.582 155.647C183.514 155.618 183.453 155.575 183.403 155.521C183.352 155.468 183.312 155.405 183.286 155.335C183.26 155.266 183.248 155.192 183.251 155.118C183.254 155.044 183.272 154.971 183.303 154.904C183.364 154.768 183.476 154.662 183.614 154.609C183.752 154.557 183.905 154.561 184.04 154.622L224.829 173.111C224.897 173.141 224.958 173.183 225.009 173.236C225.061 173.29 225.101 173.353 225.128 173.422C225.155 173.491 225.168 173.565 225.166 173.639C225.165 173.713 225.149 173.786 225.12 173.854C225.072 173.951 224.999 174.033 224.909 174.091C224.818 174.148 224.713 174.18 224.606 174.181Z" fill="#F7F9F8"/>
<path d="M211.002 182.108C210.929 182.124 210.852 182.124 210.779 182.108L169.978 163.619C169.843 163.558 169.739 163.445 169.686 163.306C169.634 163.166 169.639 163.012 169.699 162.876C169.728 162.808 169.77 162.746 169.823 162.695C169.876 162.643 169.939 162.603 170.008 162.577C170.077 162.551 170.15 162.539 170.223 162.542C170.297 162.545 170.369 162.563 170.436 162.594L211.236 181.072C211.369 181.136 211.472 181.249 211.524 181.387C211.576 181.526 211.573 181.679 211.515 181.815C211.466 181.908 211.391 181.984 211.3 182.036C211.21 182.087 211.106 182.112 211.002 182.108Z" fill="#F7F9F8"/>
<path d="M197.409 190.035C197.328 190.032 197.248 190.013 197.175 189.979L156.385 171.49C156.317 171.462 156.254 171.42 156.202 171.367C156.15 171.314 156.109 171.25 156.082 171.181C156.055 171.111 156.042 171.037 156.044 170.962C156.047 170.888 156.064 170.814 156.095 170.747C156.158 170.613 156.27 170.509 156.407 170.457C156.544 170.404 156.696 170.407 156.831 170.465L197.632 188.954C197.7 188.983 197.761 189.026 197.812 189.079C197.863 189.133 197.902 189.196 197.929 189.266C197.955 189.335 197.966 189.409 197.964 189.483C197.961 189.557 197.943 189.63 197.911 189.697C197.87 189.797 197.8 189.882 197.711 189.942C197.621 190.002 197.517 190.035 197.409 190.035Z" fill="#F7F9F8"/>
<path d="M183.805 197.951C183.732 197.968 183.655 197.968 183.582 197.951L142.781 179.462C142.713 179.433 142.652 179.39 142.601 179.336C142.551 179.283 142.511 179.219 142.485 179.15C142.459 179.081 142.447 179.007 142.45 178.933C142.453 178.859 142.471 178.786 142.502 178.719C142.563 178.583 142.675 178.477 142.813 178.424C142.951 178.372 143.104 178.376 143.239 178.437L184.04 196.926C184.174 196.988 184.279 197.1 184.331 197.24C184.383 197.379 184.379 197.533 184.319 197.669C184.265 197.758 184.19 197.831 184.1 197.88C184.009 197.929 183.908 197.954 183.805 197.951Z" fill="#F7F9F8"/>
<path d="M170.201 205.878C170.124 205.874 170.048 205.855 169.978 205.821L129.177 187.344C129.045 187.28 128.942 187.167 128.89 187.029C128.838 186.89 128.841 186.737 128.898 186.601C128.927 186.532 128.969 186.471 129.022 186.419C129.075 186.367 129.138 186.327 129.206 186.3C129.275 186.272 129.348 186.259 129.421 186.261C129.495 186.262 129.567 186.278 129.635 186.308L170.436 204.797C170.57 204.858 170.675 204.971 170.727 205.11C170.78 205.25 170.775 205.404 170.715 205.54C170.672 205.642 170.601 205.728 170.509 205.788C170.418 205.848 170.311 205.88 170.201 205.878Z" fill="#F7F9F8"/>
<path d="M156.608 213.794C156.531 213.81 156.451 213.81 156.374 213.794L115.584 195.305C115.517 195.275 115.456 195.233 115.405 195.179C115.354 195.126 115.314 195.062 115.288 194.993C115.262 194.924 115.25 194.85 115.253 194.775C115.256 194.701 115.274 194.629 115.305 194.561C115.366 194.426 115.478 194.32 115.616 194.267C115.754 194.214 115.907 194.219 116.042 194.28L156.832 212.769C156.899 212.798 156.96 212.841 157.011 212.894C157.063 212.947 157.103 213.01 157.13 213.08C157.157 213.149 157.17 213.222 157.169 213.297C157.167 213.371 157.151 213.444 157.122 213.512C157.068 213.601 156.993 213.673 156.903 213.723C156.813 213.772 156.711 213.797 156.608 213.794Z" fill="#F7F9F8"/>
<path d="M86.4789 405.36H86.4119C86.2657 405.343 86.132 405.268 86.04 405.152C85.948 405.036 85.9052 404.888 85.9209 404.741L108.252 199.066C108.259 198.992 108.28 198.92 108.315 198.855C108.35 198.79 108.398 198.733 108.455 198.687C108.512 198.64 108.578 198.606 108.649 198.586C108.719 198.566 108.793 198.561 108.866 198.57C109.012 198.587 109.146 198.662 109.238 198.778C109.33 198.894 109.373 199.042 109.357 199.189L87.0481 404.82C87.0466 404.893 87.0307 404.965 87.0012 405.033C86.9716 405.1 86.9291 405.16 86.8761 405.211C86.8231 405.261 86.7607 405.3 86.6925 405.326C86.6242 405.351 86.5516 405.363 86.4789 405.36Z" fill="#F7F9F8"/>
<path d="M102.214 414.492C102.067 414.477 101.932 414.406 101.836 414.293C101.74 414.179 101.692 414.033 101.701 413.884L118.441 203.457C118.447 203.383 118.467 203.311 118.5 203.245C118.534 203.178 118.58 203.12 118.636 203.071C118.692 203.023 118.757 202.987 118.827 202.964C118.897 202.941 118.97 202.933 119.044 202.939C119.117 202.945 119.189 202.965 119.254 202.999C119.32 203.032 119.378 203.079 119.426 203.135C119.474 203.192 119.51 203.257 119.532 203.328C119.555 203.399 119.563 203.473 119.557 203.547L102.817 413.974C102.803 414.122 102.732 414.259 102.62 414.356C102.507 414.453 102.362 414.501 102.214 414.492Z" fill="#F7F9F8"/>
<path d="M117.76 423.23C117.614 423.221 117.477 423.155 117.379 423.045C117.281 422.936 117.23 422.792 117.236 422.644L128.452 208.152C128.452 208.003 128.51 207.86 128.615 207.754C128.72 207.649 128.862 207.589 129.01 207.589C129.158 207.589 129.3 207.649 129.404 207.754C129.509 207.86 129.568 208.003 129.568 208.152L118.296 422.7C118.288 422.84 118.228 422.971 118.129 423.069C118.03 423.167 117.899 423.224 117.76 423.23Z" fill="#F7F9F8"/>
<path d="M133.92 432.97C133.846 432.97 133.773 432.955 133.706 432.926C133.638 432.896 133.576 432.854 133.525 432.8C133.474 432.746 133.434 432.683 133.408 432.613C133.382 432.544 133.37 432.47 133.373 432.395L138.54 212.825C138.542 212.751 138.558 212.678 138.587 212.611C138.616 212.543 138.659 212.482 138.712 212.43C138.764 212.379 138.827 212.339 138.895 212.312C138.963 212.285 139.036 212.272 139.109 212.274C139.183 212.275 139.255 212.291 139.322 212.321C139.389 212.35 139.45 212.393 139.501 212.446C139.552 212.5 139.591 212.563 139.618 212.631C139.645 212.7 139.658 212.774 139.656 212.848L134.489 432.418C134.488 432.492 134.472 432.565 134.443 432.632C134.413 432.7 134.371 432.761 134.318 432.813C134.265 432.864 134.203 432.904 134.134 432.931C134.066 432.958 133.993 432.971 133.92 432.97Z" fill="#F7F9F8"/>
<path d="M149.209 441.64C149.061 441.64 148.919 441.58 148.815 441.475C148.71 441.369 148.651 441.226 148.651 441.077V217.543C148.651 217.394 148.71 217.251 148.815 217.145C148.919 217.04 149.061 216.98 149.209 216.98C149.357 216.98 149.499 217.04 149.604 217.145C149.709 217.251 149.767 217.394 149.767 217.543V441.077C149.767 441.226 149.709 441.369 149.604 441.475C149.499 441.58 149.357 441.64 149.209 441.64Z" fill="#F7F9F8"/>
<path d="M149.209 416.721C149.111 416.723 149.014 416.696 148.93 416.642L70.1964 371.287C70.0692 371.21 69.9763 371.086 69.9368 370.941C69.8974 370.797 69.9144 370.642 69.9844 370.51C70.061 370.382 70.1845 370.288 70.3284 370.251C70.4724 370.213 70.6253 370.233 70.7544 370.308L149.544 415.674C149.649 415.737 149.73 415.832 149.776 415.946C149.822 416.06 149.83 416.186 149.798 416.304C149.767 416.423 149.697 416.528 149.601 416.603C149.505 416.679 149.387 416.72 149.265 416.721H149.209Z" fill="#F7F9F8"/>
<path d="M149.209 396.859C149.112 396.859 149.016 396.836 148.93 396.791L73.7565 354.003C73.6362 353.926 73.5498 353.805 73.5152 353.665C73.4806 353.525 73.5003 353.378 73.5703 353.252C73.6404 353.127 73.7554 353.033 73.8917 352.991C74.028 352.948 74.1753 352.96 74.3033 353.024L149.477 395.812C149.581 395.874 149.662 395.968 149.708 396.081C149.755 396.194 149.763 396.319 149.733 396.437C149.703 396.555 149.635 396.66 149.541 396.736C149.446 396.812 149.33 396.855 149.209 396.859Z" fill="#F7F9F8"/>
<path d="M149.209 376.996C149.116 376.996 149.024 376.973 148.941 376.928L77.3053 336.674C77.185 336.596 77.0987 336.475 77.064 336.336C77.0294 336.196 77.0491 336.048 77.1192 335.923C77.1892 335.798 77.3042 335.704 77.4405 335.661C77.5769 335.619 77.7242 335.631 77.8522 335.694L149.477 375.926C149.542 375.962 149.599 376.01 149.645 376.067C149.691 376.125 149.726 376.191 149.746 376.262C149.767 376.333 149.774 376.408 149.766 376.482C149.758 376.556 149.736 376.627 149.7 376.692C149.652 376.781 149.581 376.856 149.495 376.91C149.409 376.963 149.31 376.993 149.209 376.996Z" fill="#F7F9F8"/>
<path d="M149.209 357.133C149.116 357.134 149.024 357.111 148.941 357.066L80.8655 319.401C80.7998 319.367 80.7416 319.32 80.6945 319.262C80.6475 319.205 80.6124 319.138 80.5916 319.066C80.5707 318.995 80.5644 318.92 80.5732 318.846C80.5819 318.772 80.6054 318.7 80.6423 318.635C80.6772 318.57 80.7247 318.512 80.7822 318.466C80.8396 318.42 80.9058 318.386 80.9766 318.366C81.0475 318.346 81.1216 318.34 81.1945 318.35C81.2675 318.359 81.3378 318.384 81.4012 318.421L149.477 356.075C149.606 356.148 149.701 356.269 149.742 356.412C149.784 356.555 149.769 356.709 149.7 356.841C149.652 356.929 149.581 357.004 149.495 357.055C149.408 357.107 149.31 357.134 149.209 357.133Z" fill="#F7F9F8"/>
<path d="M149.209 337.271C149.115 337.275 149.022 337.252 148.941 337.203L84.4143 302.117C84.286 302.044 84.191 301.923 84.1493 301.78C84.1077 301.637 84.1227 301.483 84.1911 301.351C84.2262 301.286 84.2736 301.229 84.3308 301.182C84.3879 301.135 84.4537 301.101 84.5242 301.08C84.5947 301.059 84.6686 301.052 84.7417 301.06C84.8148 301.068 84.8856 301.09 84.95 301.126L149.477 336.212C149.605 336.286 149.7 336.407 149.742 336.55C149.784 336.693 149.769 336.846 149.7 336.978C149.653 337.068 149.582 337.142 149.496 337.194C149.409 337.246 149.31 337.272 149.209 337.271Z" fill="#F7F9F8"/>
<path d="M149.209 317.419C149.116 317.418 149.024 317.395 148.942 317.352L87.9745 284.878C87.9089 284.844 87.8508 284.796 87.8034 284.739C87.7561 284.682 87.7205 284.616 87.6987 284.545C87.6769 284.473 87.6693 284.398 87.6764 284.324C87.6835 284.25 87.7052 284.178 87.7401 284.112C87.811 283.984 87.9281 283.888 88.0672 283.844C88.2063 283.8 88.3569 283.811 88.4878 283.876L149.466 316.406C149.581 316.462 149.673 316.556 149.728 316.672C149.782 316.789 149.796 316.92 149.766 317.045C149.736 317.17 149.664 317.281 149.563 317.36C149.462 317.438 149.337 317.479 149.209 317.476V317.419Z" fill="#F7F9F8"/>
<path d="M149.209 297.557C149.119 297.557 149.031 297.534 148.953 297.489L91.5121 267.526C91.3826 267.457 91.2855 267.339 91.2416 267.198C91.1977 267.056 91.2107 266.904 91.2778 266.772C91.3447 266.639 91.4609 266.539 91.601 266.492C91.7411 266.446 91.8937 266.457 92.0255 266.524L149.455 296.487C149.585 296.559 149.682 296.679 149.726 296.822C149.77 296.965 149.757 297.12 149.689 297.253C149.643 297.342 149.575 297.417 149.49 297.471C149.406 297.524 149.309 297.554 149.209 297.557Z" fill="#F7F9F8"/>
<path d="M149.209 277.694C149.12 277.693 149.031 277.67 148.953 277.626L95.0833 250.242C94.9501 250.175 94.8489 250.057 94.8018 249.915C94.7547 249.772 94.7656 249.616 94.8322 249.482C94.8988 249.348 95.0156 249.246 95.1569 249.198C95.2981 249.151 95.4523 249.162 95.5855 249.229L149.455 276.624C149.603 276.657 149.732 276.748 149.813 276.877C149.895 277.006 149.923 277.162 149.89 277.311C149.858 277.461 149.768 277.591 149.64 277.673C149.512 277.755 149.357 277.783 149.209 277.75V277.694Z" fill="#F7F9F8"/>
<path d="M149.209 257.854C149.128 257.871 149.045 257.871 148.964 257.854L98.6433 232.947C98.5101 232.881 98.4083 232.765 98.3601 232.623C98.312 232.482 98.3215 232.327 98.3866 232.192C98.4518 232.058 98.5671 231.955 98.7073 231.907C98.8476 231.858 99.0012 231.868 99.1344 231.933L149.455 256.728C149.569 256.784 149.66 256.877 149.715 256.992C149.77 257.107 149.784 257.237 149.755 257.362C149.727 257.486 149.657 257.597 149.558 257.676C149.459 257.755 149.336 257.798 149.209 257.798V257.854Z" fill="#F7F9F8"/>
<path d="M149.209 436.584C149.11 436.586 149.013 436.559 148.93 436.505L66.6475 388.571C66.5827 388.536 66.5256 388.488 66.4797 388.43C66.4337 388.372 66.3998 388.305 66.38 388.234C66.3602 388.162 66.3549 388.088 66.3645 388.014C66.374 387.941 66.3981 387.87 66.4354 387.806C66.5121 387.677 66.6356 387.584 66.7795 387.546C66.9234 387.508 67.0763 387.529 67.2055 387.603L149.544 435.537C149.649 435.599 149.73 435.695 149.776 435.809C149.822 435.923 149.83 436.048 149.798 436.167C149.767 436.286 149.697 436.391 149.601 436.466C149.505 436.541 149.387 436.583 149.265 436.584H149.209Z" fill="#F7F9F8"/>
<path d="M66.2012 392.175H66.0896C66.0178 392.16 65.9495 392.131 65.8888 392.089C65.8281 392.048 65.776 391.995 65.7356 391.933C65.6952 391.872 65.6672 391.803 65.6532 391.73C65.6393 391.657 65.6397 391.583 65.6544 391.51L103.063 210.404C103.955 206.351 104.402 206.058 104.335 206.362L66.748 391.724C66.7204 391.85 66.6514 391.963 66.5522 392.045C66.4529 392.127 66.3293 392.172 66.2012 392.175Z" fill="#F7F9F8"/>
<path d="M149.209 237.969C149.128 237.968 149.048 237.948 148.975 237.913L102.203 215.652C102.087 215.579 102.001 215.466 101.962 215.334C101.923 215.202 101.933 215.06 101.991 214.935C102.049 214.81 102.15 214.71 102.276 214.656C102.401 214.601 102.542 214.595 102.672 214.638L149.444 236.899C149.517 236.915 149.586 236.945 149.648 236.987C149.71 237.03 149.763 237.084 149.804 237.148C149.845 237.211 149.873 237.282 149.887 237.356C149.901 237.43 149.9 237.506 149.884 237.58C149.869 237.654 149.839 237.724 149.797 237.787C149.755 237.849 149.701 237.903 149.638 237.944C149.576 237.985 149.505 238.014 149.432 238.028C149.358 238.042 149.283 238.041 149.209 238.025V237.969Z" fill="#F7F9F8"/>
<path d="M149.209 218.106C149.132 218.122 149.052 218.122 148.975 218.106L105.763 198.367C105.638 198.301 105.542 198.188 105.496 198.053C105.45 197.917 105.456 197.769 105.515 197.638C105.573 197.507 105.679 197.404 105.81 197.349C105.941 197.294 106.088 197.292 106.221 197.343L149.433 217.025C149.506 217.04 149.575 217.069 149.638 217.111C149.7 217.153 149.753 217.207 149.794 217.27C149.836 217.333 149.865 217.403 149.879 217.477C149.894 217.551 149.894 217.627 149.879 217.701C149.864 217.775 149.835 217.845 149.794 217.908C149.752 217.97 149.699 218.024 149.637 218.066C149.574 218.108 149.505 218.137 149.431 218.152C149.358 218.166 149.283 218.166 149.209 218.151V218.106Z" fill="#F7F9F8"/>
<path d="M367.851 171.066C375.352 163.498 375.352 151.228 367.851 143.661C360.35 136.093 348.19 136.093 340.689 143.661C333.189 151.228 333.189 163.498 340.689 171.066C348.19 178.634 360.35 178.634 367.851 171.066Z" fill="#F5F5F5"/>
<path d="M357.633 147.934C354.937 148.165 352.313 148.93 349.911 150.186C349.665 152.807 349.665 155.446 349.911 158.068C352.092 159.195 354.422 160.003 356.83 160.466C356.83 160.466 360.502 157.392 361.506 154.611C360.774 152.1 359.445 149.808 357.633 147.934Z" fill="#455A64"/>
<path d="M344.766 146.83L344.219 145.704L344.119 145.851C344.085 145.889 344.055 145.931 344.029 145.975L344.543 146.999L349.821 150.208L350.391 150.636C350.409 150.596 350.431 150.559 350.457 150.524L350.58 150.4L349.978 149.961L344.766 146.83Z" fill="#455A64"/>
<path d="M355.736 139.343C355.29 139.343 354.81 139.241 354.285 139.196C351.481 139.002 348.689 139.729 346.328 141.268L345.212 141.899C345.264 141.986 345.301 142.081 345.324 142.18L346.44 141.516C348.756 140.002 351.5 139.295 354.252 139.5C354.921 139.5 355.524 139.613 356.049 139.692C355.918 139.603 355.81 139.483 355.736 139.343Z" fill="#455A64"/>
<path d="M359.486 141.876L359.24 142.721L357.499 147.866L357.086 148.992C357.186 149.012 357.283 149.042 357.377 149.082L357.778 148.013L359.519 142.867L359.776 142C359.675 141.97 359.578 141.928 359.486 141.876Z" fill="#455A64"/>
<path d="M368.749 154.679C368.557 154.846 368.352 154.996 368.135 155.129C365.945 154.748 363.736 154.493 361.517 154.363H361.406C361.272 154.352 361.138 154.352 361.004 154.363C361.015 154.464 361.015 154.566 361.004 154.667C361.171 154.65 361.339 154.65 361.506 154.667C363.728 154.808 365.941 155.067 368.135 155.444H368.191H368.247C368.247 155.444 368.492 155.287 368.827 155.005C368.789 154.9 368.763 154.79 368.749 154.679Z" fill="#455A64"/>
<path d="M365.97 143.914C367.893 145.578 369.364 147.71 370.244 150.107C370.313 150.339 370.361 150.576 370.389 150.816C370.482 150.771 370.579 150.737 370.679 150.715C370.642 150.479 370.59 150.246 370.523 150.017C369.631 147.573 368.137 145.399 366.182 143.7L365.814 143.34C365.584 143.112 365.342 142.898 365.088 142.698C365.075 142.747 365.052 142.793 365.021 142.833L364.91 142.934C365.152 143.128 365.383 143.335 365.602 143.554L365.97 143.914Z" fill="#455A64"/>
<path d="M356.975 160.376C356.975 160.252 357.131 159.847 357.332 159.318C357.218 159.381 357.093 159.419 356.964 159.43C356.796 159.926 356.696 160.275 356.685 160.331L358.571 167.549C358.571 167.549 359.229 168.033 359.932 168.495H359.999L360.323 168.416C359.754 168.044 359.207 167.65 358.783 167.369L356.975 160.376Z" fill="#455A64"/>
<path d="M370.278 161.345C370.14 161.729 369.979 162.105 369.798 162.471C368.648 164.725 367.062 166.724 365.133 168.348C364.854 168.495 364.385 168.731 363.883 168.956C363.974 169.016 364.053 169.093 364.117 169.182C364.686 168.923 365.233 168.664 365.289 168.596C367.274 166.95 368.903 164.912 370.077 162.606C370.233 162.245 370.389 161.908 370.523 161.57L370.278 161.345Z" fill="#455A64"/>
<path d="M350.736 157.313C350.469 157.46 350.167 157.629 349.832 157.843C347.806 159.209 345.898 160.745 344.13 162.437C344.063 162.561 343.817 162.989 343.549 163.563L343.75 163.833C343.973 163.338 344.208 162.91 344.375 162.617C346.126 160.96 348.011 159.453 350.011 158.113C350.379 157.888 350.703 157.708 350.993 157.55C350.901 157.479 350.815 157.4 350.736 157.313Z" fill="#455A64"/>
<path d="M354.966 171.771L353.248 171.67C350.693 171.477 348.243 170.568 346.172 169.046C346.172 169.046 345.77 168.945 345.246 168.765C345.251 168.866 345.251 168.968 345.246 169.069C345.659 169.215 345.994 169.305 346.094 169.328C348.203 170.881 350.7 171.809 353.303 172.008C353.895 172.008 354.419 172.075 354.91 172.098C354.908 171.986 354.927 171.875 354.966 171.771Z" fill="#455A64"/>
<path d="M338.661 160.083C338.76 160.056 338.864 160.056 338.963 160.083C338.87 159.743 338.799 159.397 338.751 159.048C338.549 156.497 338.673 153.932 339.119 151.413C339.205 150.953 339.317 150.498 339.454 150.051H339.242H339.141C339.018 150.467 338.918 150.895 338.829 151.346C338.371 153.897 338.247 156.498 338.46 159.081C338.506 159.419 338.573 159.754 338.661 160.083Z" fill="#455A64"/>
<path d="M354.274 139.343C356.19 140.133 357.925 141.309 359.374 142.799C361.504 142.64 363.646 142.857 365.702 143.441C365.642 142.806 365.53 142.177 365.367 141.561C362.56 139.55 359.268 138.341 355.837 138.059C355.289 138.452 354.767 138.881 354.274 139.343Z" fill="#455A64"/>
<path d="M372.9 152.641C372.165 151.682 371.318 150.817 370.378 150.062C369.821 151.879 369.073 153.631 368.146 155.287C368.912 157.653 369.505 160.073 369.92 162.527C370.969 162.314 371.997 162.005 372.989 161.604C373.299 160.214 373.456 158.794 373.458 157.37C373.467 155.776 373.28 154.188 372.9 152.641Z" fill="#455A64"/>
<path d="M341.496 170.465C343.091 170.335 344.645 169.891 346.072 169.159C346.072 169.159 345.101 166.22 344.23 162.549C342.272 161.55 340.405 160.378 338.65 159.048C338.65 159.048 337.445 160.309 337.166 164.317C338.206 166.627 339.676 168.714 341.496 170.465Z" fill="#455A64"/>
<path d="M337.445 148.013C337.676 149.247 338.201 150.406 338.974 151.391C340.43 149.418 342.395 147.888 344.654 146.966C345.1 145.074 345.686 143.218 346.406 141.414C345.458 141.304 344.503 141.27 343.549 141.313C341.019 143.029 338.927 145.325 337.445 148.013Z" fill="#455A64"/>
<path d="M365.2 168.472C363.001 168.403 360.817 168.074 358.694 167.493C357.025 169.121 355.197 170.574 353.236 171.828C353.956 173.324 355.001 174.637 356.294 175.667C358.757 175.4 361.155 174.703 363.381 173.607C364.301 172.025 364.918 170.284 365.2 168.472Z" fill="#455A64"/>
<path opacity="0.1" d="M370.802 167.234C367.588 171.828 355.178 174.733 347.299 164.385C339.42 154.037 343.951 142.158 349.71 138.487C346.633 139.246 343.79 140.761 341.433 142.898C339.077 145.034 337.282 147.725 336.206 150.732C335.131 153.738 334.809 156.966 335.27 160.128C335.73 163.29 336.959 166.288 338.846 168.856C340.733 171.423 343.22 173.479 346.086 174.841C348.952 176.203 352.107 176.829 355.27 176.663C358.434 176.497 361.507 175.544 364.217 173.889C366.927 172.234 369.189 169.928 370.802 167.177V167.234Z" fill="black"/>
<path d="M294.624 316.868C293.318 319.018 294.01 322.712 299.545 327.08C305.081 331.449 337.043 349.6 346.54 333.093C356.037 316.586 309.132 308.67 309.132 308.67C309.132 308.67 302.693 309.47 294.624 316.868Z" fill="#E0E0E0"/>
<path d="M345.413 333.555C344.799 337.282 342.701 344.815 337.601 365.905C332.378 387.299 331.084 389.461 325.236 393.672C319.656 397.669 294.122 416.305 287.984 421.394C282.303 423.646 279.29 421.529 279.178 414.751C279.178 414.751 284.513 407.026 291.064 398.311C297.492 389.776 301.61 385.362 312.368 381.342L318.272 328.983L345.413 333.555Z" fill="#FFA8A7"/>
<path d="M295.238 374.429C292.509 378.151 289.393 381.567 285.942 384.619C272.55 397.163 263.622 406.418 253.823 416.271C251.189 418.928 248.556 421.608 245.955 424.299C245.263 425.009 244.192 426.641 243.266 426.923C241.659 427.418 239.728 425.504 239.081 424.254C238.316 422.524 238.016 420.621 238.21 418.737C238.276 417.28 238.433 415.828 238.679 414.39C238.958 412.735 240.911 411.136 241.915 409.886C241.915 409.886 242.708 408.918 243.623 407.691C247.752 401.982 252.216 392.242 258.7 381.939C263.622 374.181 269.324 371.445 274.134 368.281C274.134 368.281 289.379 332.249 300.918 316.169L329.298 326.146C329.298 326.146 297.849 370.927 295.238 374.429Z" fill="#FFA8A7"/>
<path d="M276.768 413.782C276.054 414.165 274.715 415.021 274.536 415.73C274.223 418.56 273.617 421.349 272.728 424.052C271.512 427.261 267.595 432.665 268.8 438.239C269.849 443.137 271.913 445.074 273.878 446.403C274.634 446.987 275.519 447.378 276.458 447.542C277.396 447.707 278.36 447.64 279.268 447.349C279.268 447.349 281.935 446.448 281.645 444.736C281.355 443.025 276.768 413.782 276.768 413.782Z" fill="#37474F"/>
<path d="M276.444 413.974C276.757 413.197 277.917 412.611 278.542 412.116C279.451 411.492 280.299 410.783 281.076 409.999C281.344 409.684 281.645 409.29 281.935 408.997C282.225 408.704 282.538 408.299 282.951 408.355L283.542 408.569C283.436 408.705 283.339 408.848 283.252 408.997C283.059 409.626 282.943 410.276 282.906 410.934C282.906 411.587 283.129 412.229 283.096 412.882C283.006 414.537 281.69 415.809 282.192 417.543C282.951 415.944 283.81 414.098 284.87 414.582C285.573 414.897 286.444 416.429 287.805 417.273C289.167 418.118 290.439 418.309 290.908 418.759C291.376 419.21 290.751 419.807 289.68 421.327C288.411 423.021 287.326 424.848 286.444 426.776C285.908 428.375 285.395 430.042 284.959 431.675C283.33 437.935 284.156 441.876 282.337 444.838C280.518 447.799 274.826 446.842 272.293 442.405C268.063 434.839 271.433 430.526 273.063 426.968C274.184 424.699 274.963 422.274 275.373 419.773C275.764 417.419 275.652 416.057 276.444 413.974Z" fill="#EBC556"/>
<path opacity="0.4" d="M276.444 413.974C276.757 413.197 277.917 412.611 278.542 412.116C279.451 411.492 280.299 410.783 281.076 409.999C281.344 409.684 281.645 409.29 281.935 408.997C282.225 408.704 282.538 408.299 282.951 408.355L283.542 408.569C283.436 408.705 283.339 408.848 283.252 408.997C283.059 409.626 282.943 410.276 282.906 410.934C282.906 411.587 283.129 412.229 283.096 412.882C283.006 414.537 281.69 415.809 282.192 417.543C282.951 415.944 283.81 414.098 284.87 414.582C285.573 414.897 286.444 416.429 287.805 417.273C289.167 418.118 290.439 418.309 290.908 418.759C291.376 419.21 290.751 419.807 289.68 421.327C288.411 423.021 287.326 424.848 286.444 426.776C285.908 428.375 285.395 430.042 284.959 431.675C283.33 437.935 284.156 441.876 282.337 444.838C280.518 447.799 274.826 446.842 272.293 442.405C268.063 434.839 271.433 430.526 273.063 426.968C274.184 424.699 274.963 422.274 275.373 419.773C275.764 417.419 275.652 416.057 276.444 413.974Z" fill="black"/>
<path opacity="0.15" d="M282.136 417.239C281.868 415.663 283.018 414.436 283.096 412.882C283.096 412.229 282.928 411.587 282.906 410.934C282.943 410.276 283.059 409.626 283.252 408.997C283.339 408.848 283.436 408.705 283.542 408.569L282.951 408.355C282.538 408.299 282.225 408.704 281.935 408.997C281.823 409.11 281.712 409.245 281.6 409.38C281.564 409.432 281.534 409.489 281.511 409.549C281.401 409.877 281.33 410.217 281.299 410.562C281.165 411.485 281.076 412.42 281.009 413.355C281.009 413.816 280.942 414.267 280.931 414.728C280.922 415.076 280.884 415.423 280.819 415.764C280.674 416.429 280.272 416.98 280.094 417.633C279.902 418.341 279.66 419.033 279.368 419.705C278.074 422.633 276.668 424.75 275.797 428.815C274.927 432.879 275.797 433.679 276.768 433.521C277.739 433.364 277.438 432.114 278.129 428.522C278.844 424.75 281.065 421.248 282.192 417.543C282.168 417.443 282.149 417.342 282.136 417.239Z" fill="black"/>
<path opacity="0.15" d="M273.476 436.01C274.927 437.969 276.199 438.262 276.98 436.269C277.457 434.862 277.624 433.367 277.471 431.889L282.415 434.287C282.415 434.287 280.607 437.665 281.299 438.937C281.712 439.726 282.928 439.286 283.866 438.476C283.598 441.088 283.43 443.126 282.381 444.838C280.484 447.912 274.871 446.842 272.337 442.405C268.8 436.066 270.585 432.012 272.215 428.77C271.288 430.763 272.025 434.039 273.476 436.01Z" fill="black"/>
<path opacity="0.15" d="M289.568 421.495C288.361 423.15 287.314 424.919 286.444 426.776C285.908 428.375 285.395 430.042 284.959 431.675C284.68 432.744 284.479 433.746 284.323 434.681C284.08 435.137 283.727 435.525 283.297 435.807C282.404 436.1 282.181 435.92 282.415 434.287C282.727 432.44 286.589 423.286 289.568 421.495Z" fill="black"/>
<path d="M283.531 435.255C283.443 435.318 283.337 435.351 283.23 435.351C283.122 435.351 283.017 435.318 282.928 435.255C280.85 433.938 278.595 432.929 276.232 432.26C276.103 432.226 275.992 432.142 275.923 432.026C275.855 431.91 275.833 431.772 275.864 431.641C275.901 431.51 275.986 431.398 276.103 431.328C276.219 431.259 276.357 431.238 276.489 431.269C278.946 431.965 281.288 433.019 283.442 434.399C283.498 434.436 283.546 434.483 283.584 434.539C283.622 434.595 283.649 434.657 283.662 434.723C283.676 434.789 283.676 434.858 283.663 434.924C283.65 434.99 283.624 435.053 283.587 435.109L283.531 435.255Z" fill="#E0E0E0"/>
<path d="M284.379 432.755C284.287 432.839 284.168 432.885 284.044 432.885C283.921 432.885 283.802 432.839 283.709 432.755C281.799 431.035 279.403 429.96 276.857 429.682C276.735 429.657 276.626 429.588 276.551 429.489C276.475 429.389 276.438 429.265 276.446 429.14C276.454 429.014 276.507 428.896 276.595 428.808C276.683 428.719 276.8 428.665 276.924 428.657C279.709 428.953 282.328 430.136 284.401 432.035C284.494 432.131 284.546 432.261 284.546 432.395C284.546 432.53 284.494 432.659 284.401 432.755H284.379Z" fill="#E0E0E0"/>
<path d="M285.384 430.481C285.334 430.525 285.277 430.558 285.214 430.579C285.152 430.6 285.086 430.608 285.02 430.603C284.955 430.598 284.891 430.579 284.832 430.549C284.774 430.518 284.722 430.476 284.68 430.425C282.829 428.46 280.368 427.193 277.705 426.833C277.572 426.816 277.451 426.748 277.366 426.643C277.28 426.539 277.238 426.405 277.248 426.27C277.262 426.134 277.329 426.01 277.433 425.923C277.537 425.837 277.671 425.796 277.806 425.808C280.726 426.189 283.425 427.582 285.439 429.749C285.487 429.796 285.524 429.852 285.55 429.914C285.575 429.976 285.588 430.042 285.588 430.109C285.588 430.176 285.575 430.243 285.55 430.305C285.524 430.367 285.487 430.423 285.439 430.47L285.384 430.481Z" fill="#E0E0E0"/>
<path d="M286.444 428.083C286.335 428.164 286.2 428.199 286.066 428.18C285.932 428.161 285.811 428.089 285.729 427.981C283.988 425.906 281.547 424.555 278.877 424.187C278.811 424.181 278.747 424.162 278.688 424.131C278.629 424.1 278.577 424.058 278.535 424.007C278.492 423.956 278.46 423.896 278.44 423.832C278.421 423.769 278.414 423.701 278.42 423.635C278.434 423.499 278.5 423.375 278.605 423.288C278.709 423.202 278.843 423.161 278.978 423.173C281.938 423.543 284.645 425.042 286.544 427.362C286.622 427.472 286.655 427.608 286.636 427.742C286.617 427.877 286.549 427.998 286.444 428.083Z" fill="#E0E0E0"/>
<path d="M287.504 425.493C287.449 425.531 287.387 425.558 287.322 425.572C287.257 425.586 287.19 425.586 287.124 425.574C287.059 425.561 286.997 425.536 286.941 425.499C286.886 425.461 286.838 425.414 286.801 425.358C284.569 421.98 279.882 421.496 279.837 421.484C279.704 421.467 279.582 421.4 279.497 421.295C279.412 421.19 279.37 421.056 279.38 420.921C279.396 420.786 279.466 420.662 279.572 420.578C279.679 420.493 279.814 420.455 279.949 420.471C280.15 420.471 285.105 421.056 287.638 424.772C287.676 424.828 287.703 424.892 287.717 424.958C287.731 425.025 287.732 425.094 287.719 425.161C287.707 425.228 287.681 425.291 287.644 425.348C287.607 425.405 287.56 425.454 287.504 425.493Z" fill="#E0E0E0"/>
<path d="M288.609 423.376C288.554 423.414 288.492 423.441 288.427 423.455C288.362 423.469 288.295 423.47 288.229 423.457C288.164 423.444 288.101 423.419 288.046 423.382C287.99 423.345 287.943 423.297 287.906 423.241C287.068 422.18 286.03 421.298 284.852 420.644C283.674 419.991 282.379 419.58 281.042 419.435C280.908 419.429 280.781 419.37 280.69 419.271C280.598 419.173 280.548 419.041 280.551 418.906C280.557 418.769 280.615 418.64 280.712 418.546C280.81 418.452 280.94 418.399 281.076 418.399C282.571 418.555 284.02 419.012 285.337 419.743C286.654 420.474 287.812 421.465 288.743 422.655C288.781 422.711 288.808 422.775 288.822 422.841C288.835 422.908 288.836 422.977 288.824 423.044C288.811 423.111 288.786 423.174 288.749 423.231C288.712 423.288 288.664 423.338 288.609 423.376Z" fill="#E0E0E0"/>
<path d="M235.978 413.523C235.219 413.805 233.746 414.481 233.501 415.167C232.834 417.933 231.88 420.62 230.655 423.185C229.059 426.213 224.483 431.067 224.974 436.764C225.41 441.752 227.206 443.937 228.992 445.513C229.669 446.187 230.498 446.687 231.407 446.969C232.316 447.251 233.279 447.308 234.215 447.135C234.215 447.135 236.983 446.583 236.904 444.883C236.826 443.182 235.978 413.523 235.978 413.523Z" fill="#37474F"/>
<path d="M235.576 413.636C235.87 413.056 236.303 412.56 236.838 412.195C237.486 411.825 238.109 411.412 238.701 410.956C239.315 410.404 239.728 409.661 240.342 409.11C240.625 408.815 240.991 408.616 241.391 408.539C241.79 408.463 242.203 408.513 242.574 408.682C242.624 408.729 242.669 408.782 242.708 408.839L242.406 409.222C242.022 409.821 241.806 410.514 241.781 411.226C241.681 411.992 241.681 412.758 241.614 413.535C241.547 414.333 241.413 415.124 241.212 415.899C241.112 416.248 240.956 416.609 240.877 416.969C240.799 417.329 240.956 417.802 240.877 417.937C241.837 416.462 242.92 414.74 243.913 415.348C244.56 415.753 245.241 417.386 246.48 418.399C247.719 419.412 248.957 419.761 249.37 420.268C249.783 420.775 249.091 421.282 247.83 422.655C246.358 424.176 245.052 425.852 243.935 427.655C243.199 429.164 242.473 430.763 241.848 432.316C239.438 438.318 239.773 442.338 237.596 445.04C235.42 447.743 229.885 446.065 227.976 441.347C224.729 433.307 228.613 429.456 230.688 426.135C232.082 424.025 233.158 421.717 233.88 419.289C234.237 418.005 234.438 416.688 234.862 415.426C235.053 414.811 235.291 414.213 235.576 413.636Z" fill="#EBC556"/>
<path opacity="0.4" d="M235.576 413.636C235.87 413.056 236.303 412.56 236.838 412.195C237.486 411.825 238.109 411.412 238.701 410.956C239.315 410.404 239.728 409.661 240.342 409.11C240.625 408.815 240.991 408.616 241.391 408.539C241.79 408.463 242.203 408.513 242.574 408.682C242.624 408.729 242.669 408.782 242.708 408.839L242.406 409.222C242.022 409.821 241.806 410.514 241.781 411.226C241.681 411.992 241.681 412.758 241.614 413.535C241.547 414.333 241.413 415.124 241.212 415.899C241.112 416.248 240.956 416.609 240.877 416.969C240.799 417.329 240.956 417.802 240.877 417.937C241.837 416.462 242.92 414.74 243.913 415.348C244.56 415.753 245.241 417.386 246.48 418.399C247.719 419.412 248.957 419.761 249.37 420.268C249.783 420.775 249.091 421.282 247.83 422.655C246.358 424.176 245.052 425.852 243.935 427.655C243.199 429.164 242.473 430.763 241.848 432.316C239.438 438.318 239.773 442.338 237.596 445.04C235.42 447.743 229.885 446.065 227.976 441.347C224.729 433.307 228.613 429.456 230.688 426.135C232.082 424.025 233.158 421.717 233.88 419.289C234.237 418.005 234.438 416.688 234.862 415.426C235.053 414.811 235.291 414.213 235.576 413.636Z" fill="black"/>
<path opacity="0.15" d="M240.9 416.969C240.978 416.609 241.134 416.248 241.234 415.899C241.435 415.124 241.569 414.333 241.636 413.535C241.703 412.758 241.703 411.992 241.804 411.226C241.828 410.514 242.044 409.821 242.429 409.222L242.73 408.839C242.691 408.782 242.646 408.729 242.596 408.682C242.226 408.513 241.812 408.463 241.413 408.539C241.013 408.616 240.647 408.815 240.364 409.11L240.308 409.177C240.227 409.457 240.168 409.743 240.13 410.033C240.018 410.979 239.962 412.285 239.828 413.208C239.633 414.565 239.285 415.895 238.79 417.172C236.96 421.912 234.181 425.549 232.496 430.346C232.231 430.99 232.131 431.691 232.206 432.384C232.362 432.981 232.742 433.51 233.322 433.296C233.902 433.082 234.036 432.542 234.204 432.102C235.319 429.196 236.624 426.367 238.11 423.635C238.668 422.61 239.293 421.619 239.784 420.561C240.074 419.93 240.654 418.59 240.9 417.937C240.978 417.802 240.855 417.183 240.9 416.969Z" fill="black"/>
<path opacity="0.15" d="M229.896 435.143C231.09 437.282 232.329 437.687 233.344 435.852C233.992 434.518 234.346 433.058 234.382 431.573L238.991 434.58C238.991 434.58 236.759 437.687 237.25 439.084C237.552 439.917 238.813 439.635 239.851 438.948C239.259 441.516 238.835 443.509 237.619 445.074C235.387 447.878 229.907 446.099 227.999 441.381C225.287 434.625 227.564 430.853 229.595 427.869C228.412 429.67 228.78 433.003 229.896 435.143Z" fill="black"/>
<path opacity="0.15" d="M247.752 422.802C246.345 424.292 245.085 425.918 243.991 427.655C243.255 429.164 242.529 430.763 241.904 432.316C241.491 433.341 241.168 434.309 240.889 435.222C240.602 435.639 240.219 435.979 239.773 436.212C238.857 436.381 238.657 436.212 239.103 434.58C239.627 432.801 244.616 424.209 247.797 422.802H247.752Z" fill="black"/>
<path d="M239.94 435.683C239.854 435.751 239.748 435.787 239.639 435.787C239.529 435.787 239.423 435.751 239.337 435.683C237.456 434.118 235.363 432.833 233.121 431.866C233.06 431.841 233.004 431.804 232.956 431.757C232.909 431.71 232.871 431.654 232.845 431.592C232.819 431.53 232.806 431.464 232.805 431.397C232.805 431.33 232.817 431.264 232.842 431.202C232.867 431.14 232.904 431.083 232.95 431.035C232.997 430.987 233.052 430.949 233.114 430.923C233.175 430.897 233.24 430.883 233.307 430.883C233.373 430.882 233.439 430.895 233.501 430.92C235.847 431.922 238.035 433.265 239.996 434.906C240.043 434.953 240.08 435.009 240.106 435.071C240.132 435.133 240.145 435.199 240.145 435.266C240.145 435.333 240.132 435.4 240.106 435.462C240.08 435.524 240.043 435.58 239.996 435.627C239.98 435.648 239.961 435.667 239.94 435.683Z" fill="#E0E0E0"/>
<path d="M241.145 433.319C241.04 433.386 240.915 433.414 240.791 433.395C240.668 433.376 240.556 433.313 240.476 433.217C238.803 431.263 236.567 429.885 234.081 429.276C233.949 429.251 233.833 429.174 233.758 429.062C233.682 428.95 233.654 428.812 233.679 428.679C233.704 428.547 233.781 428.429 233.892 428.353C234.003 428.277 234.139 428.249 234.271 428.274C236.997 428.915 239.449 430.418 241.268 432.564C241.31 432.616 241.342 432.677 241.361 432.741C241.38 432.806 241.387 432.874 241.379 432.941C241.372 433.008 241.351 433.073 241.319 433.132C241.286 433.191 241.243 433.243 241.19 433.285L241.145 433.319Z" fill="#E0E0E0"/>
<path d="M242.429 431.19C242.318 431.263 242.183 431.288 242.053 431.261C241.923 431.233 241.81 431.155 241.737 431.044C240.153 428.845 237.874 427.257 235.275 426.54C235.202 426.533 235.132 426.511 235.068 426.475C235.005 426.438 234.95 426.389 234.907 426.329C234.864 426.27 234.834 426.201 234.819 426.129C234.804 426.057 234.805 425.983 234.821 425.911C234.837 425.839 234.868 425.771 234.912 425.712C234.956 425.653 235.012 425.605 235.076 425.569C235.14 425.534 235.211 425.513 235.284 425.508C235.357 425.502 235.43 425.513 235.498 425.538C238.347 426.29 240.848 428.017 242.574 430.425C242.612 430.48 242.638 430.542 242.652 430.608C242.666 430.674 242.667 430.742 242.654 430.808C242.642 430.874 242.616 430.937 242.58 430.993C242.543 431.049 242.495 431.097 242.44 431.134L242.429 431.19Z" fill="#E0E0E0"/>
<path d="M243.779 428.938C243.72 428.973 243.656 428.995 243.589 429.004C243.521 429.013 243.453 429.008 243.388 428.99C243.323 428.972 243.261 428.942 243.208 428.9C243.154 428.858 243.109 428.806 243.076 428.747C241.614 426.465 239.362 424.815 236.759 424.119C236.63 424.084 236.518 424.001 236.447 423.886C236.377 423.77 236.353 423.632 236.38 423.5C236.412 423.367 236.494 423.253 236.609 423.181C236.724 423.109 236.862 423.086 236.994 423.117C239.881 423.864 242.377 425.697 243.969 428.24C244.002 428.298 244.024 428.363 244.033 428.43C244.041 428.497 244.037 428.564 244.019 428.629C244.002 428.694 243.971 428.755 243.93 428.808C243.889 428.861 243.837 428.906 243.779 428.938Z" fill="#E0E0E0"/>
<path d="M245.163 426.518C245.104 426.548 245.039 426.567 244.973 426.573C244.906 426.578 244.839 426.57 244.776 426.549C244.712 426.528 244.654 426.494 244.603 426.45C244.553 426.406 244.512 426.353 244.482 426.292C242.663 422.712 238.11 421.574 238.065 421.563C237.999 421.549 237.937 421.521 237.882 421.482C237.827 421.442 237.781 421.392 237.745 421.335C237.71 421.277 237.687 421.212 237.676 421.145C237.666 421.078 237.669 421.01 237.686 420.944C237.718 420.811 237.8 420.697 237.915 420.625C238.03 420.554 238.168 420.53 238.3 420.561C238.5 420.617 243.344 421.822 245.386 425.831C245.417 425.89 245.435 425.956 245.441 426.023C245.446 426.09 245.438 426.157 245.417 426.221C245.397 426.285 245.363 426.344 245.32 426.395C245.276 426.446 245.223 426.488 245.163 426.518Z" fill="#E0E0E0"/>
<path d="M246.524 424.502C246.404 424.566 246.264 424.579 246.135 424.539C246.005 424.499 245.896 424.409 245.832 424.288C245.135 423.128 244.217 422.118 243.131 421.318C242.045 420.518 240.812 419.943 239.505 419.626C239.372 419.602 239.254 419.525 239.177 419.414C239.1 419.302 239.069 419.164 239.092 419.03C239.103 418.964 239.126 418.901 239.161 418.844C239.196 418.787 239.242 418.738 239.296 418.7C239.35 418.661 239.411 418.633 239.476 418.618C239.54 418.604 239.607 418.602 239.672 418.613C241.135 418.954 242.515 419.59 243.729 420.482C244.943 421.374 245.966 422.504 246.736 423.804C246.8 423.925 246.813 424.066 246.773 424.197C246.733 424.328 246.644 424.437 246.524 424.502Z" fill="#E0E0E0"/>
<path d="M300.862 312.127C300.862 312.127 296.052 319.795 290.439 329.31C285.116 338.318 282.303 342.664 279.614 347.495C279.614 347.495 277.382 354.409 289.189 360.466C300.996 366.524 306.23 361.84 306.23 361.84L312.703 353.598L311.487 368.236C311.487 368.236 313.875 373.01 325.214 373.359C333.606 373.618 337.724 370.938 337.724 370.938C337.724 370.938 345.424 343.61 346.585 333.048C346.585 333.048 342.489 324.536 330.191 316.158C317.893 307.781 300.862 312.127 300.862 312.127Z" fill="#455A64"/>
<path d="M330.191 316.248C317.915 307.927 300.862 312.127 300.862 312.127L296.398 319.322C299.523 317.746 307.558 322.453 317.368 327.328C326.296 331.832 337.791 334.422 346.563 333.093C346.585 333.093 342.489 324.581 330.191 316.248Z" fill="#37474F"/>
<path d="M372.554 254.048C371.059 257.156 356.138 283.211 352.031 288.357C341.987 283.009 347.935 263.765 347.935 263.765C355.625 254.206 359.843 248.767 361.595 245.749C362.233 244.41 362.655 242.977 362.845 241.504C363.169 239.917 366.037 220.392 365.568 214.402C365.476 213.343 364.999 212.356 364.229 211.632C362.187 209.65 361.562 207.927 360.178 205.686C359.062 203.941 357.946 203.322 358.269 202.894C358.645 202.44 359.175 202.144 359.755 202.065C360.335 201.986 360.924 202.129 361.405 202.466C362.487 203.189 363.48 204.04 364.363 204.999C363.979 202.682 363.225 200.442 362.131 198.367C359.676 193.593 360.055 191.071 366.706 192.411C370.88 193.244 374.719 196.915 375.936 206.801C376.156 210.382 376.156 213.973 375.936 217.554C375.735 225.853 375.59 239.106 374.976 244.815C374.702 248.01 373.883 251.134 372.554 254.048Z" fill="#FFA8A7"/>
<path d="M343.728 264.058C347.299 263.281 359.72 248.362 359.72 248.362C363.068 247.945 371.751 256.086 370.378 259.678C366.081 268.089 357.22 282.198 355.87 287.592C354.676 290.62 354.017 282.13 352.031 276.084C349.308 267.628 340.826 264.689 343.728 264.058Z" fill="#455A64"/>
<path d="M308.552 281.421C310.029 285.326 310.942 289.426 311.264 293.593C311.363 294.749 311.226 295.913 310.861 297.013C310.496 298.113 309.912 299.126 309.143 299.989C302.972 306.959 295.416 315.302 294.635 316.879C301.755 313.872 308.027 319.942 315.839 324.096C326.865 329.929 337.144 333.544 346.496 333.104C346.496 333.104 358.772 304.65 354.899 281.781C353.359 272.773 349.81 264.272 343.65 264.069C336.842 263.833 327.089 264.227 328.751 264.171L317.413 263.326C317.413 263.326 305.449 273.517 308.552 281.421Z" fill="#EBEBEB"/>
<path d="M306.331 246.369C305.516 245.412 301.778 247.495 298.988 250.332C296.198 253.17 294.468 256.424 295.64 258.09C296.331 259.059 305.884 256.593 305.884 256.593L308.206 248.846L306.331 246.369Z" fill="#37474F"/>
<path d="M290.16 244.972C290.952 248.35 306.654 274.113 310.17 280.441C318.451 273.629 316.498 263.551 316.498 263.551C316.498 263.551 303.106 243.554 301.755 240.311C301.521 239.167 301.461 237.994 301.577 236.831C301.577 235.21 302.469 222.193 304.222 216.462C304.544 215.447 305.223 214.586 306.13 214.041C308.541 212.566 309.534 211.024 311.364 209.143C312.792 207.668 314.009 207.308 313.83 206.891C313.569 206.359 313.118 205.946 312.566 205.737C312.015 205.528 311.406 205.538 310.862 205.765C309.65 206.224 308.499 206.833 307.436 207.578C308.293 205.4 309.495 203.377 310.996 201.588C314.411 197.467 314.6 194.922 307.815 194.764C303.563 194.674 299.021 197.376 295.695 206.79C294.517 210.78 293.556 214.832 292.816 218.928C291.209 227.08 290.517 232.665 289.892 238.374C289.444 240.562 289.536 242.828 290.16 244.972Z" fill="#FFA8A7"/>
<path d="M319.377 263.484L306.331 246.369C307.023 247.72 306.554 250.22 303.597 253.609C301.856 255.579 297.403 258.541 295.651 258.113L308.206 280.802C309.322 283.853 316.453 280.396 318.529 274.372C321.408 265.939 319.377 263.484 319.377 263.484Z" fill="#455A64"/>
<path d="M327.334 235.492C327.794 237.561 328.851 239.446 330.373 240.909C331.894 242.371 333.812 243.346 335.883 243.708C337.953 244.071 340.084 243.807 342.005 242.947C343.927 242.088 345.553 240.674 346.677 238.882C347.801 237.091 348.374 235.003 348.322 232.883C348.27 230.763 347.597 228.706 346.386 226.973C345.176 225.24 343.483 223.907 341.522 223.145C339.561 222.382 337.419 222.224 335.369 222.689C334.008 222.996 332.72 223.572 331.579 224.382C330.439 225.192 329.467 226.221 328.721 227.41C327.975 228.599 327.468 229.925 327.23 231.311C326.992 232.698 327.027 234.119 327.334 235.492Z" fill="#263238"/>
<path d="M313.998 236.46C314.222 235.865 314.609 235.345 315.114 234.962C315.739 234.512 316.565 233.69 317.201 234.422C317.614 234.895 317.614 235.818 317.792 236.392C318.428 238.374 319.053 240.356 319.689 242.326C319.756 242.529 320.426 244.072 320.292 244.241L321.966 242.079L325.314 258.856C324.886 258.904 324.454 258.823 324.073 258.623C323.691 258.422 323.377 258.111 323.171 257.73C322.055 255.996 321.341 254.093 320.471 252.494C319.6 250.895 318.239 248.666 317.279 246.999C315.828 244.466 314.165 242.732 313.73 239.838C313.568 238.967 313.568 238.074 313.73 237.203C313.793 236.946 313.883 236.697 313.998 236.46Z" fill="#263238"/>
<path d="M322.357 247.078C321.743 247.675 320.426 246.526 319.332 245.794C318.239 245.063 315.103 244.455 314.355 247.81C313.607 251.166 317.212 254.724 319.634 254.926C323.796 255.275 323.819 252.618 323.819 252.618L326.865 265.409C330.593 274.361 344.989 269.666 340.001 264.475L338.885 259.16C340.679 259.046 342.456 258.741 344.186 258.248C346.942 257.122 348.237 254.465 348.404 251.143C348.683 245.817 348.315 241.651 344.933 232.001C341.228 221.484 328.74 224.198 322.959 229.997C317.178 235.796 322.357 247.078 322.357 247.078Z" fill="#FFA8A7"/>
<path d="M342.355 229.535C342.252 229.545 342.154 229.589 342.076 229.659C342.004 229.738 341.955 229.836 341.931 229.94C341.362 231.832 339.208 232.778 337.389 232.812C336.693 232.825 336 232.707 335.347 232.463C334.705 232.2 334.155 231.754 333.762 231.179C333.474 231.897 333.003 232.526 332.398 233.002C331.793 233.478 331.074 233.785 330.314 233.893C328.778 234.093 327.222 233.743 325.917 232.902C326.13 233.577 326.118 234.304 325.882 234.971C325.646 235.638 325.2 236.209 324.611 236.595C323.949 236.946 323.231 237.175 322.49 237.271C322.855 237.559 323.142 237.934 323.325 238.363C323.508 238.792 323.582 239.26 323.54 239.725C323.483 240.189 323.314 240.63 323.047 241.012C322.781 241.393 322.424 241.701 322.011 241.91C322.5 242.358 322.823 242.962 322.926 243.621C323.124 244.227 323.274 244.849 323.372 245.479C323.372 246.065 323.439 248.092 322.624 248.294C322.267 248.384 320.392 246.414 319.332 245.795C318.785 245.479 318.596 244.5 318.451 243.948C318.163 242.818 317.947 241.671 317.803 240.514C317.772 239.741 317.61 238.979 317.323 238.262C316.955 237.642 316.073 237.282 315.493 236.899C314.806 236.491 314.257 235.883 313.92 235.154C313.196 233.564 313.069 231.764 313.562 230.087C313.9 228.786 314.639 227.627 315.672 226.776C316.195 226.363 316.808 226.083 317.461 225.96C318.113 225.837 318.786 225.873 319.421 226.067C319.248 224.972 319.362 223.851 319.754 222.815C320.146 221.78 320.801 220.866 321.653 220.167C323.707 218.523 325.95 218.838 328.349 219.322C328.866 218.423 329.576 217.652 330.428 217.067C331.28 216.482 332.252 216.098 333.271 215.944C334.28 215.901 335.286 216.094 336.208 216.511C337.13 216.927 337.943 217.554 338.583 218.343C339.466 217.817 340.462 217.513 341.486 217.458C342.509 217.403 343.531 217.599 344.465 218.027C345.718 218.599 346.731 219.6 347.321 220.854C347.568 221.411 347.745 221.997 347.846 222.599C348.069 223.55 348.069 224.541 347.846 225.493C347.488 226.391 346.889 227.171 346.116 227.745C345.06 228.695 343.754 229.316 342.355 229.535Z" fill="#263238"/>
<path d="M338.862 259.16C338.862 259.16 332.166 259.306 329.689 258.62C328.224 258.226 326.91 257.399 325.917 256.244C326.55 257.483 327.423 258.582 328.483 259.475C330.581 261.209 339.242 260.872 339.242 260.872L338.862 259.16Z" fill="#F28F8F"/>
<path d="M334.666 242.315C334.71 242.569 334.679 242.83 334.577 243.067C334.475 243.303 334.307 243.504 334.093 243.645C333.879 243.786 333.629 243.86 333.373 243.859C333.118 243.858 332.868 243.781 332.655 243.638C332.443 243.495 332.276 243.292 332.177 243.055C332.078 242.817 332.049 242.555 332.096 242.302C332.142 242.048 332.262 241.814 332.439 241.628C332.616 241.443 332.843 241.313 333.092 241.257C333.265 241.221 333.442 241.219 333.615 241.253C333.788 241.287 333.952 241.355 334.099 241.454C334.245 241.552 334.371 241.679 334.468 241.827C334.565 241.975 334.633 242.141 334.666 242.315Z" fill="#263238"/>
<path d="M340.001 252.652C340.038 252.821 340.042 252.996 340.012 253.167C339.982 253.338 339.92 253.501 339.827 253.648C339.735 253.794 339.615 253.921 339.475 254.02C339.334 254.12 339.175 254.19 339.007 254.228C338.839 254.266 338.666 254.27 338.497 254.24C338.327 254.21 338.165 254.147 338.02 254.054C337.875 253.961 337.75 253.84 337.651 253.698C337.552 253.556 337.482 253.395 337.445 253.226C337.407 253.057 337.404 252.882 337.433 252.711C337.463 252.54 337.526 252.377 337.618 252.23C337.71 252.084 337.83 251.957 337.971 251.858C338.112 251.758 338.27 251.687 338.438 251.65C338.606 251.612 338.779 251.608 338.949 251.638C339.118 251.668 339.28 251.731 339.425 251.824C339.57 251.917 339.696 252.038 339.794 252.18C339.893 252.322 339.963 252.482 340.001 252.652Z" fill="#F28F8F"/>
<path d="M332.133 238.126L329.22 239.579C329.028 239.181 328.997 238.723 329.135 238.302C329.272 237.881 329.567 237.532 329.957 237.327C330.15 237.226 330.362 237.167 330.579 237.152C330.796 237.138 331.014 237.17 331.219 237.245C331.423 237.32 331.61 237.437 331.767 237.589C331.925 237.741 332.049 237.924 332.133 238.126Z" fill="#263238"/>
<path d="M344.186 234.996L340.96 235.266C340.934 235.056 340.95 234.842 341.008 234.638C341.065 234.433 341.163 234.243 341.296 234.078C341.428 233.913 341.592 233.776 341.778 233.677C341.964 233.577 342.168 233.517 342.378 233.499C342.811 233.469 343.24 233.608 343.576 233.886C343.912 234.164 344.13 234.561 344.186 234.996Z" fill="#263238"/>
<path d="M344.264 238.712C344.305 238.884 344.313 239.062 344.286 239.236C344.259 239.411 344.198 239.578 344.107 239.729C344.015 239.879 343.896 240.01 343.754 240.114C343.612 240.218 343.452 240.292 343.282 240.333C343.019 240.403 342.741 240.393 342.485 240.302C342.228 240.212 342.004 240.046 341.842 239.826C341.679 239.606 341.586 239.342 341.573 239.068C341.561 238.794 341.63 238.523 341.772 238.289C341.914 238.055 342.121 237.869 342.369 237.755C342.616 237.642 342.891 237.605 343.159 237.651C343.427 237.696 343.676 237.822 343.873 238.011C344.069 238.2 344.206 238.444 344.264 238.712Z" fill="#263238"/>
<path d="M338.382 241.031L340.525 248.7L344.241 246.414L338.382 241.031Z" fill="#F28F8F"/>
<path d="M312.703 353.564L322.122 339.692C327.235 339.105 332.261 337.914 337.099 336.145C337.099 336.145 333.885 340.153 323.707 341.977L314.009 355.489L311.442 368.281L312.703 353.564Z" fill="#37474F"/>
<path d="M293.564 214.053C294.113 210.484 294.907 206.959 295.941 203.502C297.537 198.491 299.412 194.618 304.4 193.368C309.389 192.118 312.067 193.728 313.652 195.62C315.236 197.512 312.357 200.27 310.728 202.185C309.679 203.465 308.86 204.921 308.306 206.486C308.306 206.486 311.308 204.166 313.272 205.259C315.236 206.351 315.091 206.925 313.272 208.637C311.453 210.348 308.998 212.882 307.357 214.165C306.222 215.039 305.145 215.987 304.132 217.003C304.132 217.003 297.09 218.444 293.564 214.053Z" fill="#EBC556"/>
<path opacity="0.4" d="M293.564 214.053C294.113 210.484 294.907 206.959 295.941 203.502C297.537 198.491 299.412 194.618 304.4 193.368C309.389 192.118 312.067 193.728 313.652 195.62C315.236 197.512 312.357 200.27 310.728 202.185C309.679 203.465 308.86 204.921 308.306 206.486C308.306 206.486 311.308 204.166 313.272 205.259C315.236 206.351 315.091 206.925 313.272 208.637C311.453 210.348 308.998 212.882 307.357 214.165C306.222 215.039 305.145 215.987 304.132 217.003C304.132 217.003 297.09 218.444 293.564 214.053Z" fill="black"/>
<path d="M293.564 214.053C292.942 215.313 292.717 216.735 292.917 218.129C292.917 218.129 296.097 221.394 303.251 220.482C303.617 220.009 303.883 219.465 304.035 218.884C304.186 218.304 304.22 217.698 304.132 217.104C304.132 217.104 297.414 217.836 293.564 214.053Z" fill="#37474F"/>
<path d="M376.337 212.938C376.558 209.333 376.531 205.718 376.259 202.117C375.768 196.881 374.753 192.692 370.155 190.395C365.557 188.098 362.588 189.078 360.624 190.632C358.66 192.186 360.356 195.564 361.55 197.782C362.327 199.268 362.991 200.811 363.537 202.398C363.537 202.398 361.093 199.482 358.95 200.146C356.807 200.811 356.807 201.374 358.225 203.446C359.642 205.517 361.495 208.524 362.823 210.134C363.748 211.233 364.601 212.392 365.378 213.602C365.378 213.602 371.952 216.485 376.337 212.938Z" fill="#EBC556"/>
<path opacity="0.4" d="M376.337 212.938C376.558 209.333 376.531 205.718 376.259 202.117C375.768 196.881 374.753 192.692 370.155 190.395C365.557 188.098 362.588 189.078 360.624 190.632C358.66 192.186 360.356 195.564 361.55 197.782C362.327 199.268 362.991 200.811 363.537 202.398C363.537 202.398 361.093 199.482 358.95 200.146C356.807 200.811 356.807 201.374 358.225 203.446C359.642 205.517 361.495 208.524 362.823 210.134C363.748 211.233 364.601 212.392 365.378 213.602C365.378 213.602 371.952 216.485 376.337 212.938Z" fill="black"/>
<path d="M376.337 212.938C376.672 214.305 376.586 215.742 376.092 217.059C376.092 217.059 372.297 219.57 365.501 217.059C365.238 216.513 365.092 215.917 365.071 215.31C365.049 214.703 365.154 214.098 365.378 213.535C365.378 213.535 371.773 215.798 376.337 212.938Z" fill="#37474F"/>
</svg>
