<svg width="500" height="500" viewBox="0 0 500 500" fill="none" xmlns="http://www.w3.org/2000/svg">
<path d="M250 468.29C371.138 468.29 469.34 411.591 469.34 341.65C469.34 271.709 371.138 215.01 250 215.01C128.862 215.01 30.6602 271.709 30.6602 341.65C30.6602 411.591 128.862 468.29 250 468.29Z" fill="#EBEBEB"/>
<path d="M94.9002 252.11C56.0002 274.57 34.7702 303.36 31.2002 332.74L265.44 468C316.32 465.94 366.2 453.68 405.1 431.22C450 405.29 471.32 371 469.18 337L258 215.11C199.25 213.87 139.77 226.2 94.9002 252.11Z" fill="#F5F5F5"/>
<path opacity="0.02" d="M116.94 399.81L362.77 258.08C372.34 252.57 373.69 244.39 365.77 239.83C357.85 235.27 343.7 236.04 334.13 241.56L88.5001 383.38C78.9301 388.9 77.5001 397.06 85.4001 401.59C93.3001 406.12 107.37 405.33 116.94 399.81Z" fill="black"/>
<path d="M317.29 411.85C316.89 407.31 313.04 403.92 309.29 401.31C284.15 383.78 237.37 375.62 229.09 374.75C220.81 373.88 207.63 373.89 200.7 376.55C197.877 377.843 195.51 379.959 193.91 382.62C191.78 386.62 191.91 392.12 195.13 395.26C201.13 401.05 211.79 403.5 219.91 405.41C228.03 407.32 236.37 408.26 244.36 410.63C255.24 413.86 265.17 419.63 275.86 423.46C286.55 427.29 298.86 428.85 308.95 423.7C313.53 421.37 317.73 417 317.29 411.85Z" fill="#EBEBEB"/>
<path d="M102.06 37.89L92.76 43.26C92.76 42.84 92.84 42.43 92.84 42.03V39.33C92.84 34.54 89.47 32.6 85.32 34.99C83.5332 36.0867 82.0049 37.557 80.84 39.3C80.16 33.3 75.43 31.03 69.68 34.3C63.47 37.89 58.44 46.61 58.44 53.78V57.78C58.4127 59.3926 58.7547 60.99 59.44 62.45L51.67 67C50.4547 67.7917 49.4436 68.8591 48.719 70.1155C47.9944 71.3719 47.5767 72.7817 47.5 74.23C47.5 76.88 49.36 77.96 51.67 76.63L102.06 47.54C103.273 46.7487 104.283 45.6827 105.008 44.4283C105.732 43.1739 106.151 41.7664 106.23 40.32C106.23 37.64 104.36 36.56 102.06 37.89Z" fill="#EBEBEB"/>
<path d="M158.77 57.43L151.77 61.43C151.81 61.1216 151.83 60.811 151.83 60.5V58.5C151.83 54.88 149.29 53.41 146.16 55.22C144.815 56.0498 143.662 57.158 142.78 58.47C142.27 53.93 138.7 52.23 134.36 54.73C129.67 57.44 125.87 64.02 125.87 69.44V72.44C125.84 73.6528 126.087 74.8564 126.59 75.96L120.76 79.33C119.843 79.9259 119.079 80.7302 118.532 81.6773C117.984 82.6245 117.669 83.6876 117.61 84.78C117.61 86.78 119.02 87.6 120.76 86.59L158.76 64.59C159.674 63.9906 160.436 63.1855 160.983 62.2391C161.53 61.2927 161.847 60.2313 161.91 59.14C161.92 57.24 160.51 56.43 158.77 57.43Z" fill="#EBEBEB"/>
<path d="M95.4198 369.46C95.4198 369.46 98.5798 354 94.9398 340C91.2998 326 83.4498 315.45 74.1798 311.6C64.9098 307.75 54.3698 314 62.5898 323.32C70.8098 332.64 86.8998 344.68 87.8998 369.87L95.4198 369.46Z" fill="#4CD21B"/>
<path opacity="0.15" d="M95.4198 369.46C95.4198 369.46 98.5798 354 94.9398 340C91.2998 326 83.4498 315.45 74.1798 311.6C64.9098 307.75 54.3698 314 62.5898 323.32C70.8098 332.64 86.8998 344.68 87.8998 369.87L95.4198 369.46Z" fill="black"/>
<path d="M93.8906 364.68H94.0006C94.0711 364.676 94.1402 364.658 94.2037 364.627C94.2673 364.597 94.324 364.553 94.3706 364.5C94.4172 364.447 94.4527 364.385 94.475 364.318C94.4973 364.251 94.506 364.18 94.5006 364.11C92.5006 336.11 76.7706 319.56 68.7106 314.72C68.6509 314.684 68.5846 314.66 68.5155 314.649C68.4465 314.638 68.376 314.641 68.3081 314.658C68.2403 314.675 68.1764 314.705 68.1202 314.746C68.064 314.788 68.0166 314.84 67.9806 314.9C67.9443 314.96 67.9201 315.026 67.9095 315.095C67.8989 315.164 67.902 315.235 67.9187 315.302C67.9355 315.37 67.9654 315.434 68.007 315.49C68.0485 315.547 68.1007 315.594 68.1606 315.63C76.0506 320.38 91.4806 336.63 93.4306 364.19C93.4406 364.312 93.4915 364.426 93.5751 364.515C93.6586 364.604 93.7698 364.662 93.8906 364.68Z" fill="white"/>
<path d="M49.2603 345C48.2603 348.12 50.4503 350.29 52.5503 352.05C54.1603 353.39 55.9303 354.86 56.3703 356.92C57.2603 361.08 52.3703 364.92 53.3703 369.04C53.6573 369.888 54.1138 370.668 54.7121 371.333C55.3104 371.998 56.0379 372.535 56.8503 372.91C58.2026 373.547 59.5879 374.111 61.0003 374.6C61.6564 374.804 62.3243 374.967 63.0003 375.09C65.0866 375.291 67.0498 376.169 68.5903 377.59C70.8603 380.06 70.5903 383.85 71.3903 387.11V387.22C71.8071 388.798 72.6037 390.25 73.7107 391.449C74.8177 392.648 76.2014 393.559 77.741 394.1C79.2807 394.642 80.9294 394.798 82.5434 394.556C84.1574 394.313 85.6876 393.68 87.0003 392.71L98.4903 384.53C103.04 378.4 101.89 367.42 94.5903 363.84C93.0403 363.08 91.2703 362.63 90.0403 361.42C88.5403 359.96 88.1703 357.71 88.0403 355.62C87.9103 353.53 88.0403 351.35 87.1903 349.44C86.0003 346.77 83.1903 345.15 80.2903 344.65C76.9303 344.07 73.5703 345.44 70.3803 344.28C67.1903 343.12 64.2403 341.28 60.9403 340.41C57.3103 339.51 53.1503 339.99 50.4503 342.92C49.9037 343.516 49.4971 344.227 49.2603 345Z" fill="#4CD21B"/>
<path d="M82.9205 363.33C82.8913 363.253 82.8389 363.186 82.7705 363.14C74.2305 351 60.8305 345.29 56.3105 344.28C56.2494 344.265 56.1859 344.263 56.1239 344.273C56.0619 344.283 56.0025 344.306 55.9494 344.34C55.8962 344.373 55.8504 344.417 55.8145 344.469C55.7786 344.52 55.7534 344.579 55.7405 344.64C55.7258 344.701 55.7236 344.763 55.7339 344.825C55.7443 344.886 55.7669 344.945 55.8006 344.997C55.8343 345.049 55.8782 345.094 55.9297 345.129C55.9813 345.164 56.0394 345.188 56.1005 345.2C60.3905 346.2 72.8305 351.47 81.2005 362.58C77.7895 361.43 74.1776 360.997 70.5914 361.309C67.0053 361.62 63.5221 362.669 60.3605 364.39C60.255 364.46 60.1812 364.568 60.155 364.691C60.1287 364.815 60.1523 364.944 60.2205 365.05C60.2629 365.113 60.3192 365.166 60.385 365.204C60.4509 365.242 60.5246 365.265 60.6005 365.27C60.696 365.268 60.7893 365.241 60.8705 365.19C64.1114 363.433 67.6977 362.407 71.3775 362.184C75.0573 361.962 78.7412 362.547 82.1705 363.9C87.1593 371.042 89.6612 379.626 89.2905 388.33C89.2849 388.449 89.3255 388.565 89.4038 388.655C89.4821 388.744 89.592 388.8 89.7105 388.81C89.773 388.813 89.8355 388.803 89.8942 388.781C89.9529 388.759 90.0066 388.726 90.0523 388.683C90.0979 388.64 90.1345 388.589 90.16 388.532C90.1854 388.474 90.1992 388.413 90.2005 388.35C90.5918 379.436 88.033 370.642 82.9205 363.33Z" fill="white"/>
<path d="M368.41 246.15V66.87C368.409 64.0625 367.669 61.3047 366.265 58.8736C364.861 56.4425 362.842 54.4237 360.41 53.02L319.79 29.57C317.358 28.1657 314.599 27.4264 311.79 27.4264C308.982 27.4264 306.223 28.1657 303.79 29.57L133.19 128.07C130.758 129.472 128.736 131.49 127.33 133.92L86.7103 204.28C85.3073 206.713 84.5692 209.472 84.5703 212.28V391.55C84.5703 393.92 86.1303 396.28 89.2503 398.08C95.5003 401.69 105.63 401.69 111.88 398.08C115.01 396.28 116.57 393.92 116.57 391.55V216.55L152.9 153.62L311.79 61.9L336.41 76.11V246.11C336.41 248.48 337.97 250.85 341.1 252.65C347.35 256.26 357.48 256.26 363.73 252.65C366.86 250.84 368.42 248.48 368.41 246.11V246.15Z" fill="#455A64"/>
<path d="M116.57 216.57C116.57 216.57 111.47 209.57 96.21 208.12C96.21 208.12 107.07 205.12 119.01 212.34L116.57 216.57Z" fill="#37474F"/>
<path d="M152.9 153.64C152.9 153.64 154.18 145.24 145 138.1C145 138.1 153.44 140.65 156.29 151.68L152.9 153.64Z" fill="#37474F"/>
<path d="M311.79 61.9C314.79 58.84 317.26 50.99 316.64 43.95C316.64 43.95 320.19 51.35 314.98 63.74L311.79 61.9Z" fill="#37474F"/>
<path d="M336.41 76.11C344.61 76.44 352.69 73.37 356.49 67.87C356.49 67.87 353.27 78.96 336.41 80.07V76.11Z" fill="#37474F"/>
<path d="M275.791 82.68V55.84C275.791 54.46 274.791 53.9 273.631 54.59L172.341 113.06C171.712 113.472 171.189 114.026 170.814 114.678C170.439 115.329 170.222 116.059 170.181 116.81V143.66L275.791 82.68Z" fill="#37474F"/>
<path d="M277.801 49.75C277.554 49.6348 277.281 49.588 277.01 49.6144C276.739 49.6408 276.481 49.7394 276.261 49.9L175.001 108.37C174.369 108.78 173.844 109.333 173.466 109.985C173.089 110.637 172.872 111.368 172.831 112.12V149.34C172.802 149.609 172.846 149.881 172.959 150.128C173.072 150.374 173.248 150.585 173.471 150.74L177.531 153.08C177.776 153.195 178.047 153.242 178.316 153.216C178.586 153.19 178.843 153.091 179.061 152.93L280.321 94.45C280.952 94.04 281.478 93.4866 281.855 92.835C282.232 92.1833 282.45 91.4518 282.491 90.7V53.49C282.519 53.2183 282.474 52.9439 282.359 52.6957C282.245 52.4476 282.066 52.2349 281.841 52.08L277.801 49.75Z" fill="#4CD21B"/>
<path d="M179.001 110.72L280.321 52.24C281.521 51.55 282.491 52.11 282.491 53.49V90.7C282.45 91.4518 282.232 92.1833 281.855 92.835C281.478 93.4866 280.953 94.04 280.321 94.45L179.001 152.93C177.801 153.62 176.831 153.06 176.831 151.68V114.47C176.872 113.718 177.09 112.987 177.467 112.335C177.844 111.683 178.37 111.13 179.001 110.72Z" fill="#4CD21B"/>
<path opacity="0.15" d="M176.871 151.68C176.851 151.924 176.887 152.17 176.975 152.398C177.064 152.627 177.202 152.832 177.381 153L173.441 150.73C173.22 150.574 173.046 150.362 172.935 150.116C172.824 149.87 172.781 149.598 172.811 149.33V112.12C172.836 111.366 173.056 110.632 173.451 109.99L177.511 112.33C177.116 112.976 176.895 113.713 176.871 114.47V151.68Z" fill="black"/>
<path opacity="0.4" d="M277.8 49.75L281.73 52C281.494 51.9281 281.244 51.9105 281 51.9486C280.756 51.9867 280.523 52.0795 280.32 52.22L179 110.72C178.361 111.117 177.834 111.671 177.47 112.33L173.45 110C173.814 109.338 174.34 108.781 174.98 108.38L276.26 49.89C276.482 49.7329 276.741 49.6373 277.011 49.6127C277.282 49.5881 277.554 49.6355 277.8 49.75Z" fill="white"/>
<path d="M205.07 105.37C205.126 105.318 205.199 105.289 205.275 105.289C205.351 105.289 205.425 105.318 205.48 105.37C205.603 105.518 205.664 105.708 205.65 105.9V109.41C205.646 109.663 205.588 109.912 205.48 110.14C205.396 110.343 205.253 110.517 205.07 110.64L198.64 114.35V118.88L204.64 115.42C204.698 115.372 204.77 115.346 204.845 115.346C204.92 115.346 204.993 115.372 205.05 115.42C205.112 115.493 205.159 115.577 205.189 115.668C205.218 115.759 205.229 115.855 205.22 115.95V119.45C205.218 119.703 205.16 119.952 205.05 120.18C204.966 120.383 204.823 120.557 204.64 120.68L198.64 124.14V131.29C198.641 131.54 198.583 131.787 198.47 132.01C198.389 132.218 198.246 132.396 198.06 132.52L195.25 134.14C195.193 134.188 195.12 134.214 195.045 134.214C194.97 134.214 194.898 134.188 194.84 134.14C194.716 133.993 194.655 133.802 194.67 133.61V112.26C194.675 112.007 194.733 111.759 194.84 111.53C194.928 111.328 195.07 111.155 195.25 111.03L205.07 105.37Z" fill="#FAFAFA"/>
<path d="M208.511 126.54C208.454 126.59 208.381 126.617 208.306 126.617C208.23 126.617 208.157 126.59 208.101 126.54C208.037 126.468 207.989 126.384 207.96 126.293C207.93 126.202 207.921 126.105 207.931 126.01V104.61C207.929 104.357 207.988 104.107 208.101 103.88C208.182 103.675 208.325 103.5 208.511 103.38L211.321 101.76C211.378 101.712 211.451 101.686 211.526 101.686C211.6 101.686 211.673 101.712 211.731 101.76C211.853 101.908 211.914 102.098 211.901 102.29V123.66C211.898 123.913 211.84 124.162 211.731 124.39C211.646 124.593 211.503 124.767 211.321 124.89L208.511 126.54Z" fill="#FAFAFA"/>
<path d="M224.691 117.2C224.602 117.261 224.498 117.293 224.391 117.293C224.283 117.293 224.179 117.261 224.091 117.2C223.974 117.122 223.875 117.019 223.801 116.9L218.881 108.43V119.61C218.882 119.863 218.824 120.113 218.711 120.34C218.629 120.545 218.486 120.72 218.301 120.84L215.491 122.46C215.435 122.512 215.362 122.541 215.286 122.541C215.209 122.541 215.136 122.512 215.081 122.46C214.956 122.313 214.895 122.122 214.911 121.93V100.58C214.914 100.327 214.972 100.078 215.081 99.85C215.162 99.6447 215.305 99.4699 215.491 99.35L217.721 98.06C217.971 97.92 218.161 97.9 218.311 98.06C218.426 98.1356 218.525 98.2343 218.601 98.35L223.521 106.82V95.6C223.523 95.3492 223.585 95.1026 223.701 94.88C223.779 94.6758 223.918 94.501 224.101 94.38L226.921 92.75C226.978 92.702 227.051 92.6757 227.126 92.6757C227.201 92.6757 227.273 92.702 227.331 92.75C227.455 92.8973 227.516 93.0878 227.501 93.28V114.65C227.496 114.903 227.438 115.151 227.331 115.38C227.243 115.582 227.101 115.755 226.921 115.88L224.691 117.2Z" fill="#FAFAFA"/>
<path d="M231.091 113.5C231.034 113.55 230.961 113.577 230.886 113.577C230.81 113.577 230.737 113.55 230.681 113.5C230.617 113.428 230.569 113.344 230.54 113.253C230.511 113.162 230.501 113.065 230.511 112.97V91.57C230.511 91.3169 230.569 91.0671 230.681 90.84C230.762 90.6347 230.905 90.4599 231.091 90.34L233.901 88.72C233.958 88.672 234.031 88.6457 234.106 88.6457C234.181 88.6457 234.253 88.672 234.311 88.72C234.373 88.7926 234.42 88.8769 234.449 88.9679C234.478 89.0589 234.489 89.1548 234.481 89.25V110.62C234.477 110.869 234.419 111.115 234.311 111.34C234.229 111.545 234.086 111.72 233.901 111.84L231.091 113.5Z" fill="#FAFAFA"/>
<path d="M243.081 83.09C243.839 82.6087 244.705 82.3203 245.601 82.25C246.294 82.1909 246.989 82.337 247.601 82.67C248.15 82.9826 248.601 83.4435 248.901 84C249.215 84.595 249.384 85.2568 249.391 85.93C249.393 86.1352 249.345 86.3378 249.251 86.52C249.191 86.6823 249.083 86.8222 248.941 86.92L246.131 88.54C245.988 88.6431 245.816 88.6958 245.641 88.69C245.504 88.6616 245.377 88.5997 245.271 88.51C245.221 88.51 245.161 88.4 245.061 88.3C244.953 88.1854 244.819 88.0995 244.671 88.05C244.455 87.9767 244.225 87.9595 244.001 88C243.667 88.0579 243.348 88.1801 243.061 88.36C242.784 88.5191 242.519 88.6997 242.271 88.9C242.029 89.0935 241.808 89.3113 241.611 89.55C241.409 89.7822 241.247 90.0457 241.131 90.33C241.01 90.6285 240.948 90.9479 240.951 91.27C240.93 91.523 241.001 91.7749 241.151 91.98C241.346 92.1334 241.592 92.2083 241.841 92.19C242.273 92.1761 242.703 92.1123 243.121 92L245.121 91.49C245.788 91.2893 246.484 91.1981 247.181 91.22C247.719 91.237 248.237 91.4342 248.651 91.78C249.086 92.1698 249.393 92.6823 249.531 93.25C249.749 94.0749 249.847 94.9271 249.821 95.78C249.823 96.8983 249.658 98.0107 249.331 99.08C249 100.155 248.533 101.184 247.941 102.14C247.355 103.111 246.649 104.005 245.841 104.8C245.041 105.575 244.147 106.247 243.181 106.8C242.372 107.302 241.465 107.623 240.521 107.74C239.808 107.825 239.086 107.692 238.451 107.36C237.86 107.041 237.382 106.549 237.081 105.95C236.738 105.275 236.563 104.527 236.571 103.77C236.569 103.566 236.614 103.365 236.701 103.18C236.767 103.019 236.878 102.88 237.021 102.78L239.831 101.16C239.968 101.062 240.132 101.006 240.301 101C240.429 101.015 240.551 101.067 240.651 101.15L240.911 101.43C241.036 101.577 241.194 101.693 241.371 101.77C241.598 101.876 241.85 101.921 242.101 101.9C242.486 101.848 242.855 101.711 243.181 101.5C243.888 101.11 244.53 100.611 245.081 100.02C245.565 99.5414 245.842 98.8911 245.851 98.21C245.866 98.0851 245.848 97.9585 245.799 97.8427C245.749 97.7269 245.671 97.626 245.571 97.55C245.311 97.4194 245.017 97.3739 244.731 97.42C244.246 97.4696 243.768 97.5633 243.301 97.7C242.721 97.86 242.041 98.03 241.251 98.22C239.771 98.59 238.701 98.4 238.021 97.66C237.341 96.92 237.021 95.59 237.021 93.66C237.02 92.646 237.158 91.6367 237.431 90.66C237.718 89.6157 238.128 88.6088 238.651 87.66C239.18 86.6924 239.825 85.7925 240.571 84.98C241.308 84.2277 242.154 83.5905 243.081 83.09Z" fill="#FAFAFA"/>
<path d="M264.111 71.28C264.168 71.232 264.241 71.2057 264.316 71.2057C264.391 71.2057 264.463 71.232 264.521 71.28C264.583 71.3526 264.63 71.4369 264.659 71.5279C264.688 71.6189 264.699 71.7148 264.691 71.81V93.2C264.688 93.4528 264.63 93.702 264.521 93.93C264.44 94.1353 264.296 94.3101 264.111 94.43L261.301 96.06C261.244 96.1099 261.171 96.1375 261.096 96.1375C261.02 96.1375 260.948 96.1099 260.891 96.06C260.827 95.9883 260.779 95.9042 260.75 95.8129C260.721 95.7217 260.711 95.6253 260.721 95.53V87.39L256.001 90.15V98.25C255.999 98.5041 255.938 98.7543 255.821 98.98C255.74 99.1853 255.596 99.3601 255.411 99.48L252.601 101.11C252.543 101.156 252.47 101.181 252.396 101.181C252.322 101.181 252.249 101.156 252.191 101.11C252.127 101.037 252.078 100.951 252.049 100.858C252.02 100.765 252.01 100.667 252.021 100.57V79.18C252.025 78.9273 252.083 78.6784 252.191 78.45C252.275 78.2467 252.418 78.0727 252.601 77.95L255.411 76.33C255.468 76.2801 255.54 76.2525 255.616 76.2525C255.691 76.2525 255.764 76.2801 255.821 76.33C255.885 76.4015 255.934 76.4854 255.965 76.5765C255.996 76.6676 256.008 76.7641 256.001 76.86V84.86L260.771 82.1V74.1C260.771 73.8469 260.829 73.5971 260.941 73.37C261.022 73.1647 261.166 72.9899 261.351 72.87L264.111 71.28Z" fill="#FAFAFA"/>
<path d="M252.481 116C252.236 115.88 251.963 115.83 251.691 115.855C251.42 115.879 251.16 115.978 250.941 116.14L209.371 140.14C208.741 140.551 208.217 141.104 207.841 141.756C207.466 142.408 207.25 143.139 207.211 143.89V162.35C207.184 162.621 207.228 162.894 207.341 163.141C207.453 163.389 207.629 163.602 207.851 163.76L211.911 166.1C212.156 166.213 212.427 166.259 212.696 166.233C212.965 166.206 213.222 166.109 213.441 165.95L255.011 141.95C255.642 141.54 256.168 140.987 256.545 140.335C256.922 139.683 257.14 138.952 257.181 138.2V119.7C257.21 119.428 257.166 119.153 257.051 118.905C256.937 118.657 256.757 118.444 256.531 118.29L252.481 116Z" fill="#455A64"/>
<path d="M211.27 164.68C211.25 164.923 211.284 165.168 211.37 165.397C211.457 165.625 211.594 165.832 211.77 166L207.84 163.73C207.617 163.576 207.44 163.365 207.327 163.118C207.215 162.872 207.171 162.599 207.2 162.33V143.87C207.225 143.116 207.446 142.382 207.84 141.74L211.9 144.08C211.513 144.729 211.296 145.465 211.27 146.22V164.68Z" fill="#263238"/>
<path d="M252.481 116L256.411 118.27C256.174 118.198 255.925 118.18 255.681 118.219C255.436 118.257 255.204 118.349 255.001 118.49L213.431 142.49C212.796 142.893 212.271 143.446 211.901 144.1L207.841 141.76C208.205 141.096 208.736 140.537 209.381 140.14L250.941 116.14C251.162 115.983 251.422 115.887 251.692 115.863C251.962 115.838 252.235 115.885 252.481 116Z" fill="#37474F"/>
<path d="M218.001 145C218.343 144.784 218.729 144.647 219.131 144.6C219.397 144.556 219.67 144.61 219.901 144.75C220.103 144.893 220.264 145.086 220.371 145.31C220.492 145.528 220.576 145.764 220.621 146.01C220.661 146.234 220.681 146.462 220.681 146.69V152.43C220.678 152.681 220.658 152.932 220.621 153.18C220.568 153.52 220.484 153.855 220.371 154.18C220.251 154.561 220.094 154.93 219.901 155.28C219.452 156.087 218.796 156.761 218.001 157.23C217.739 157.386 217.456 157.504 217.161 157.58C216.947 157.633 216.724 157.633 216.511 157.58C216.331 157.556 216.162 157.483 216.021 157.37C215.884 157.262 215.769 157.13 215.681 156.98C215.597 156.823 215.527 156.659 215.471 156.49C215.423 156.319 215.386 156.146 215.361 155.97C215.351 155.813 215.351 155.657 215.361 155.5V149.76C215.351 149.59 215.351 149.42 215.361 149.25C215.361 149.06 215.421 148.85 215.471 148.6C215.521 148.35 215.601 148.11 215.681 147.86C215.78 147.594 215.894 147.334 216.021 147.08C216.159 146.808 216.323 146.55 216.511 146.31C216.705 146.051 216.922 145.81 217.161 145.59C217.42 145.365 217.701 145.167 218.001 145ZM218.001 156.58C218.228 156.441 218.434 156.269 218.611 156.07C218.778 155.879 218.919 155.668 219.031 155.44C219.132 155.22 219.216 154.993 219.281 154.76C219.343 154.551 219.387 154.337 219.411 154.12C219.425 153.944 219.425 153.766 219.411 153.59V147C219.426 146.837 219.426 146.673 219.411 146.51C219.39 146.342 219.346 146.177 219.281 146.02C219.223 145.873 219.134 145.74 219.021 145.63C218.906 145.534 218.76 145.484 218.611 145.49C218.394 145.499 218.184 145.565 218.001 145.68C217.77 145.81 217.567 145.984 217.401 146.19C217.232 146.375 217.09 146.584 216.981 146.81C216.877 147.028 216.793 147.256 216.731 147.49C216.668 147.702 216.625 147.92 216.601 148.14C216.586 148.316 216.586 148.494 216.601 148.67V155.3C216.585 155.463 216.585 155.627 216.601 155.79C216.619 155.959 216.663 156.124 216.731 156.28C216.784 156.427 216.869 156.56 216.981 156.67C217.099 156.768 217.247 156.821 217.401 156.82C217.615 156.809 217.822 156.74 218.001 156.62V156.58Z" fill="#4CD21B"/>
<path d="M222 143.41L224.07 141.59V153.59L222.83 154.31V144.12C222.845 143.964 222.813 143.808 222.74 143.67C222.68 143.6 222.6 143.59 222.49 143.67L222 144V143.41Z" fill="#4CD21B"/>
<path d="M226.691 143.21V144.48C226.697 144.546 226.697 144.613 226.691 144.68C226.677 144.73 226.649 144.775 226.611 144.81C226.549 144.881 226.475 144.939 226.391 144.98L225.781 145.34C225.641 145.42 225.561 145.44 225.521 145.42C225.481 145.4 225.521 145.32 225.521 145.2V143.8C225.521 143.8 225.521 143.74 225.521 143.69C225.542 143.638 225.576 143.594 225.621 143.56C225.676 143.51 225.736 143.467 225.801 143.43L226.411 143.08C226.561 143 226.641 142.97 226.681 143C226.721 143.03 226.691 143.1 226.691 143.21ZM226.691 150.81V152.08C226.697 152.146 226.697 152.213 226.691 152.28C226.677 152.33 226.649 152.375 226.611 152.41C226.549 152.481 226.475 152.539 226.391 152.58L225.781 152.94C225.641 153.02 225.561 153.04 225.521 153.02C225.481 153 225.521 152.92 225.521 152.8V151.4C225.521 151.4 225.521 151.34 225.521 151.29C225.544 151.24 225.578 151.196 225.621 151.16C225.676 151.11 225.736 151.067 225.801 151.03L226.411 150.68C226.561 150.6 226.641 150.57 226.681 150.6C226.721 150.63 226.691 150.7 226.691 150.81Z" fill="#4CD21B"/>
<path d="M230.81 137.67C231.152 137.451 231.538 137.311 231.94 137.26C232.208 137.22 232.481 137.277 232.71 137.42C232.91 137.562 233.071 137.751 233.18 137.97C233.3 138.189 233.384 138.425 233.43 138.67C233.47 138.895 233.49 139.122 233.49 139.35V145.09C233.489 145.341 233.469 145.592 233.43 145.84C233.378 146.18 233.295 146.515 233.18 146.84C233.059 147.221 232.902 147.589 232.71 147.94C232.497 148.304 232.238 148.641 231.94 148.94C231.61 149.294 231.229 149.597 230.81 149.84C230.548 149.996 230.266 150.114 229.97 150.19C229.756 150.238 229.534 150.238 229.32 150.19C229.143 150.158 228.976 150.086 228.83 149.98C228.694 149.872 228.579 149.74 228.49 149.59C228.407 149.429 228.336 149.262 228.28 149.09C228.231 148.923 228.195 148.752 228.17 148.58C228.161 148.423 228.161 148.266 228.17 148.11V142.36C228.161 142.193 228.161 142.027 228.17 141.86C228.17 141.67 228.23 141.46 228.28 141.21C228.33 140.96 228.41 140.72 228.49 140.47C228.586 140.203 228.7 139.942 228.83 139.69C228.972 139.42 229.136 139.163 229.32 138.92C229.515 138.661 229.732 138.42 229.97 138.2C230.23 137.993 230.512 137.815 230.81 137.67ZM230.81 149.24C231.04 149.108 231.246 148.939 231.42 148.74C231.587 148.549 231.729 148.338 231.84 148.11C231.942 147.89 232.025 147.663 232.09 147.43C232.152 147.221 232.195 147.007 232.22 146.79C232.234 146.61 232.234 146.43 232.22 146.25V139.62C232.236 139.457 232.236 139.293 232.22 139.13C232.201 138.961 232.157 138.796 232.09 138.64C232.032 138.493 231.944 138.36 231.83 138.25C231.717 138.15 231.571 138.097 231.42 138.1C231.203 138.114 230.993 138.183 230.81 138.3C230.582 138.43 230.379 138.599 230.21 138.8C230.043 138.991 229.902 139.202 229.79 139.43C229.685 139.648 229.601 139.876 229.54 140.11C229.479 140.319 229.435 140.533 229.41 140.75C229.41 140.94 229.41 141.12 229.41 141.28V147.92C229.4 148.083 229.4 148.247 229.41 148.41C229.436 148.577 229.48 148.742 229.54 148.9C229.596 149.046 229.681 149.178 229.79 149.29C229.909 149.385 230.058 149.435 230.21 149.43C230.425 149.426 230.633 149.36 230.81 149.24Z" fill="#4CD21B"/>
<path d="M234.73 136L236.79 134.18V146.23L235.55 146.94V136.75C235.565 136.594 235.534 136.438 235.46 136.3C235.4 136.23 235.32 136.22 235.21 136.3C235.1 136.38 235.02 136.44 234.73 136.69V136Z" fill="#4CD21B"/>
<path d="M239.461 135.84V137.11C239.467 137.173 239.467 137.237 239.461 137.3C239.448 137.353 239.42 137.402 239.381 137.44C239.32 137.511 239.245 137.569 239.161 137.61L238.551 137.96C238.411 138.04 238.331 138.07 238.291 138.05C238.251 138.03 238.241 137.95 238.241 137.82V136.43C238.239 136.393 238.239 136.357 238.241 136.32C238.262 136.268 238.296 136.224 238.341 136.19C238.393 136.137 238.454 136.093 238.521 136.06L239.131 135.7C239.281 135.62 239.361 135.6 239.401 135.62C239.441 135.64 239.461 135.72 239.461 135.84ZM239.461 143.44V144.71C239.467 144.773 239.467 144.837 239.461 144.9C239.448 144.953 239.42 145.002 239.381 145.04C239.317 145.108 239.243 145.165 239.161 145.21L238.551 145.56C238.411 145.64 238.331 145.67 238.291 145.65C238.251 145.63 238.241 145.55 238.241 145.42V144C238.239 143.963 238.239 143.927 238.241 143.89C238.262 143.838 238.296 143.794 238.341 143.76C238.393 143.707 238.454 143.663 238.521 143.63L239.131 143.27C239.281 143.19 239.361 143.17 239.401 143.19C239.441 143.21 239.461 143.32 239.461 143.44Z" fill="#4CD21B"/>
<path d="M243.58 130.29C243.924 130.078 244.309 129.942 244.71 129.89C244.978 129.844 245.253 129.901 245.48 130.05C245.682 130.19 245.844 130.379 245.95 130.6C246.071 130.818 246.156 131.055 246.2 131.3C246.239 131.525 246.259 131.752 246.26 131.98V137.72C246.258 137.971 246.238 138.222 246.2 138.47C246.148 138.81 246.064 139.145 245.95 139.47C245.829 139.848 245.671 140.213 245.48 140.56C245.271 140.946 245.012 141.302 244.71 141.62C244.379 141.971 243.999 142.271 243.58 142.51C243.318 142.669 243.036 142.79 242.74 142.87C242.526 142.913 242.305 142.913 242.09 142.87C241.912 142.834 241.745 142.759 241.6 142.65C241.466 142.543 241.351 142.415 241.26 142.27C241.176 142.109 241.106 141.942 241.05 141.77C241 141.6 240.963 141.426 240.94 141.25C240.93 141.093 240.93 140.936 240.94 140.78V135.04C240.931 134.87 240.931 134.7 240.94 134.53C240.94 134.35 241 134.13 241.05 133.89C241.1 133.65 241.18 133.4 241.26 133.15C241.457 132.591 241.737 132.066 242.09 131.59C242.285 131.334 242.502 131.096 242.74 130.88C242.999 130.655 243.281 130.458 243.58 130.29ZM243.58 141.87C243.814 141.74 244.021 141.567 244.19 141.36C244.362 141.173 244.503 140.96 244.61 140.73C244.717 140.513 244.801 140.285 244.86 140.05C244.923 139.841 244.966 139.627 244.99 139.41C245.005 139.234 245.005 139.056 244.99 138.88V132.25C245.005 132.084 245.005 131.916 244.99 131.75C244.97 131.585 244.926 131.423 244.86 131.27C244.806 131.121 244.716 130.988 244.6 130.88C244.545 130.829 244.481 130.789 244.41 130.763C244.34 130.738 244.265 130.726 244.19 130.73C243.974 130.739 243.764 130.805 243.58 130.92C243.352 131.054 243.149 131.226 242.98 131.43C242.811 131.619 242.669 131.831 242.56 132.06C242.367 132.478 242.239 132.923 242.18 133.38C242.171 133.557 242.171 133.733 242.18 133.91V140.54C242.17 140.706 242.17 140.873 242.18 141.04C242.206 141.207 242.249 141.372 242.31 141.53C242.368 141.674 242.453 141.807 242.56 141.92C242.679 142.015 242.828 142.065 242.98 142.06C243.193 142.052 243.401 141.986 243.58 141.87Z" fill="#4CD21B"/>
<path d="M250.54 138.49C250.233 138.676 249.894 138.804 249.54 138.87C249.309 138.943 249.062 138.943 248.831 138.87C248.652 138.786 248.492 138.667 248.361 138.52C248.224 138.359 248.121 138.172 248.06 137.97C247.994 137.774 247.944 137.574 247.911 137.37C247.901 137.183 247.901 136.997 247.911 136.81V131C247.902 130.83 247.902 130.66 247.911 130.49C247.911 130.31 247.98 130.09 248.04 129.84C248.1 129.586 248.173 129.336 248.26 129.09C248.362 128.82 248.479 128.556 248.611 128.3C248.755 128.028 248.919 127.768 249.101 127.52C249.296 127.258 249.517 127.017 249.76 126.8C250.021 126.564 250.306 126.356 250.611 126.18L250.81 126.06C251.148 125.884 251.508 125.757 251.881 125.68C252.205 125.587 252.543 125.55 252.881 125.57L252.67 126.42L251.741 126.49C251.417 126.494 251.099 126.573 250.81 126.72C250.518 126.89 250.262 127.118 250.06 127.39C249.843 127.651 249.668 127.945 249.54 128.26C249.425 128.535 249.331 128.82 249.26 129.11C249.205 129.346 249.175 129.587 249.17 129.83V132L250.43 130.5C250.631 130.274 250.845 130.061 251.071 129.86C251.234 129.718 251.408 129.587 251.59 129.47C251.757 129.335 251.963 129.258 252.177 129.248C252.392 129.239 252.603 129.3 252.78 129.42C252.965 129.574 253.108 129.772 253.197 129.996C253.286 130.219 253.318 130.461 253.29 130.7V134C253.287 134.194 253.271 134.388 253.241 134.58C253.197 134.826 253.141 135.07 253.071 135.31C252.993 135.597 252.886 135.875 252.751 136.14C252.602 136.427 252.435 136.705 252.251 136.97C252.044 137.268 251.803 137.54 251.53 137.78C251.227 138.051 250.895 138.289 250.54 138.49ZM249.15 132.55V136.5C249.14 136.663 249.14 136.827 249.15 136.99C249.168 137.161 249.208 137.33 249.271 137.49C249.318 137.64 249.4 137.777 249.51 137.89C249.563 137.942 249.625 137.982 249.694 138.008C249.763 138.034 249.837 138.045 249.911 138.04C250.123 138.038 250.331 137.975 250.51 137.86C250.726 137.729 250.918 137.563 251.081 137.37C251.245 137.178 251.386 136.966 251.501 136.74C251.614 136.515 251.708 136.281 251.78 136.04C251.856 135.825 251.913 135.604 251.95 135.38C251.98 135.201 251.997 135.021 252.001 134.84V131.76C252.033 131.372 251.942 130.983 251.741 130.65C251.703 130.596 251.655 130.551 251.599 130.517C251.543 130.483 251.48 130.461 251.415 130.452C251.35 130.444 251.284 130.449 251.222 130.468C251.159 130.486 251.1 130.518 251.051 130.56C250.874 130.676 250.716 130.818 250.581 130.98L249.15 132.55Z" fill="#4CD21B"/>
<path d="M272.52 264.38C262.52 266.92 257.43 265.14 249.64 262.79C247.8 278.42 244.36 301.24 241.24 320.85C235.09 319.51 231.01 320.19 225.33 321.4C222.7 321.97 219.33 322.8 216.63 323.17C213.93 323.54 209.88 324.5 208.26 323.84C206.26 323.01 205.13 321.53 202.79 321.76C201.836 321.853 200.915 322.151 200.088 322.635C199.261 323.118 198.549 323.775 198 324.56C196.4 326.94 196.56 330.08 195.44 332.72C194.419 334.802 192.947 336.63 191.13 338.07C190.58 338.528 190.066 339.026 189.59 339.56C188.822 340.6 188.273 341.785 187.977 343.043C187.682 344.302 187.645 345.607 187.87 346.88C188.19 348.82 189.2 353.36 192.05 352.44C192.812 352.152 193.458 351.621 193.89 350.93C194.303 350.243 194.673 349.532 195 348.8C195.359 348.112 195.756 347.444 196.19 346.8C198.024 344.271 200.186 341.998 202.62 340.04C203.74 339.04 204.86 338.19 205.98 337.24C206.98 336.42 208.49 335.15 209.82 335.09C214.3 334.974 218.784 335.108 223.25 335.49C230.17 336.03 237.56 336.92 242.06 337.49C251.06 338.64 254.06 338.58 257.65 332.3C261.45 325.71 265.93 314.21 269.06 303.76C273.085 291.045 274.266 277.602 272.52 264.38Z" fill="#F28F8F"/>
<path d="M273.79 275.37C274.22 280.27 272.62 295.27 268.79 308.28L243.29 307.43L244.1 276.91L273.79 275.37Z" fill="#37474F"/>
<path d="M210.45 324.12C210.45 323.23 209.2 322.83 208.25 323.12C207.755 323.28 207.271 323.47 206.8 323.69C207.927 324.261 209.221 324.413 210.45 324.12Z" fill="#4CD21B"/>
<g opacity="0.3">
<path d="M210.45 324.12C210.45 323.23 209.2 322.83 208.25 323.12C207.755 323.28 207.271 323.47 206.8 323.69C207.927 324.261 209.221 324.413 210.45 324.12Z" fill="black"/>
</g>
<path d="M199.06 344.54C200.72 342.54 206.33 337.24 208.11 336.19C209.89 335.14 211.51 335.74 210.76 333.86C210.01 331.98 209.28 329.26 208.09 329.16C206.9 329.06 204.41 330.5 201.54 333.23C199.417 335.474 197.601 337.989 196.14 340.71L199.06 344.54Z" fill="#4CD21B"/>
<path opacity="0.1" d="M199.06 344.54C200.72 342.54 206.33 337.24 208.11 336.19C209.89 335.14 211.51 335.74 210.76 333.86C210.01 331.98 209.28 329.26 208.09 329.16C206.9 329.06 204.41 330.5 201.54 333.23C199.417 335.474 197.601 337.989 196.14 340.71L199.06 344.54Z" fill="black"/>
<path d="M190.76 355.39C189.96 355.67 188.37 355.71 186.54 353.19C185.493 351.592 184.832 349.773 184.608 347.877C184.385 345.98 184.604 344.057 185.25 342.26C186.85 337.58 190.25 335.99 191.67 333.54C193.51 330.41 193.46 326.83 193.92 324.47C194.47 321.72 196 321.69 196.73 321.72C197.46 321.75 199.4 321.95 199.4 321.95L190.76 355.39Z" fill="#EBEBEB"/>
<path d="M210.45 324.12C209.97 322.8 208.45 323.03 207.45 323.45C206.45 323.87 205.05 324.45 204.89 325.5C204.73 326.55 206.78 327.15 207 328.28C207.22 329.41 205.48 330.87 203.37 332.86C201.26 334.85 196.71 340.19 196.84 340.86C196.97 341.53 199 343.51 199.04 344.53C197.71 346.197 196.656 348.068 195.92 350.07C195.34 351.91 194.86 353.4 194.55 354.17C194.24 354.94 191.66 355.54 190.61 355.36C188.88 355.06 185.27 352.17 185.49 346.21C185.71 340.25 188.82 338.94 191.56 336.37C194.3 333.8 195.05 327.96 195.41 326.37C195.843 324.671 196.877 323.186 198.32 322.19C199.569 321.606 200.943 321.338 202.32 321.41C204.75 321.48 206.17 321.93 208.08 321.63C210.23 321.29 211.16 324 211.16 324C211.16 324 211 324.05 210.45 324.12Z" fill="#4CD21B"/>
<path d="M191.84 354C191.37 353 190.84 351.94 190.46 352C190.08 352.06 187.79 352.42 186.94 352C186.09 351.58 185.76 350.6 185.36 349.67C184.777 347.356 184.747 344.938 185.27 342.61C186.27 339.29 187.77 338.26 190.03 335.69C192.072 333.616 193.333 330.899 193.6 328C194.2 324.22 194.43 322.92 195.74 321.81C195.407 321.792 195.073 321.792 194.74 321.81C194.219 322.277 193.827 322.869 193.6 323.53C193.28 324.53 192.6 330.27 191.83 331.8C191.022 333.408 189.927 334.855 188.6 336.07C187.25 337.55 185.5 338.93 184.54 342.63C183.723 346.105 184.316 349.762 186.19 352.8C187.87 355.22 188.91 355.46 189.32 355.64C190.177 355.768 191.052 355.672 191.86 355.36C192.3 355.11 192.18 354.73 191.84 354Z" fill="#455A64"/>
<path d="M196.86 339.63C198.75 341.44 199.63 343.12 199.57 343.96C199.446 344.345 199.191 344.674 198.85 344.89C198.85 344.89 198.61 343.3 196.14 340.71C196.112 340.474 196.169 340.235 196.301 340.037C196.433 339.839 196.631 339.695 196.86 339.63Z" fill="#455A64"/>
<path d="M201.51 341.94C201.147 340.114 200.108 338.492 198.6 337.4C198.608 337.18 198.682 336.967 198.812 336.789C198.942 336.611 199.122 336.475 199.33 336.4C200.894 337.556 201.965 339.259 202.33 341.17C202.33 341.17 202.09 341.89 201.51 341.94Z" fill="#455A64"/>
<path d="M204.26 339.34C204.5 337.98 202.54 335.22 201.31 334.34C201.291 334.216 201.299 334.09 201.331 333.969C201.364 333.848 201.42 333.734 201.498 333.636C201.576 333.538 201.673 333.456 201.783 333.397C201.893 333.337 202.015 333.301 202.14 333.29C203.796 334.544 204.926 336.369 205.31 338.41C205.31 338.41 205.07 339.37 204.26 339.34Z" fill="#455A64"/>
<path d="M206.9 337.07C206.8 336.033 206.493 335.027 205.996 334.111C205.5 333.196 204.824 332.389 204.01 331.74C204.059 331.52 204.173 331.319 204.336 331.164C204.5 331.009 204.707 330.907 204.93 330.87C205.828 331.471 206.569 332.279 207.091 333.226C207.613 334.172 207.9 335.23 207.93 336.31C207.69 336.68 207.324 336.95 206.9 337.07Z" fill="#455A64"/>
<path d="M271 306.72C272 309.11 271.43 313.55 265.65 318.67C259.87 323.79 248.53 325.67 246.21 321.4C243.89 317.13 249.5 310.16 255.79 306.98C262.08 303.8 269 303 271 306.72Z" fill="#37474F"/>
<path d="M300.61 411C300.454 410.809 300.272 410.641 300.07 410.5C299.88 410.35 299.74 410.28 299.57 410.16C293.42 405.56 291.06 402.4 287.17 395.87C286.43 393.65 285.17 390.46 284.87 387.8C284.44 383.45 283.71 377.16 283.17 371.99C282.09 361.64 281.35 351.04 280.7 342.57C279.7 330.01 278.97 328.1 275.09 318.91C270.78 308.71 265.2 297.19 260.89 287.36C265.25 287.07 268.29 283.59 273.45 275.31C273.64 271.31 272.82 269.22 272.36 264.68C267.749 265.657 263.068 266.269 258.36 266.51C249.51 267.08 242.91 266.75 236.2 263.23C234.37 267.44 229.98 273.23 230.4 283.99C230.83 294.99 238.88 306.5 244.9 315.84C249.38 322.78 253.02 329.28 258.69 337.55C258.39 344.22 258.69 348.55 260.74 354.8C261.74 357.8 265.46 365.53 268.74 374.45C270.98 380.57 272.89 385.81 273.2 387.07C273.84 389.68 274.34 392.07 273.35 394.96C272.91 396.22 272.02 398.01 272.98 399.71C274.33 402.1 276.75 402.57 278.66 404.6C280.352 406.295 281.867 408.158 283.18 410.16C283.955 411.395 284.985 412.449 286.201 413.253C287.417 414.057 288.791 414.591 290.23 414.82C291.939 415.219 293.712 415.264 295.439 414.951C297.166 414.638 298.81 413.974 300.27 413C300.561 412.804 300.782 412.52 300.9 412.19C300.94 411.982 300.934 411.769 300.884 411.564C300.834 411.358 300.741 411.166 300.61 411Z" fill="#FFA8A7"/>
<path d="M230.75 262.82C229.95 269.456 229.592 276.137 229.68 282.82C229.68 291.82 234.03 299.82 238.38 307.39C242.73 314.96 246.21 321.39 246.21 321.39C246.21 321.39 245.84 314.95 253.51 309.27C261.76 303.17 269.51 304.4 271 306.71L262.23 286.71C262.23 286.71 270.74 282.39 273.79 275.32C273.79 275.32 273.45 269.69 272.56 264.1C272.56 264.15 249.55 271.79 230.75 262.82Z" fill="#455A64"/>
<path d="M261.78 286.66C264.2 292.22 267.58 298.66 269.34 302.94L265.65 288C269.22 284.22 270.86 282.67 272.65 277.61C270.4 281.11 267.21 283.08 261.78 286.66Z" fill="#263238"/>
<path d="M273.74 388.86C272.88 389.14 272.86 390.14 273.43 390.98C273.718 391.418 274.036 391.835 274.38 392.23L273.74 388.86Z" fill="#4CD21B"/>
<path opacity="0.3" d="M273.74 388.86C272.88 389.14 272.86 390.14 273.43 390.98C273.718 391.418 274.036 391.835 274.38 392.23L273.74 388.86Z" fill="black"/>
<path d="M294 404.7C292.32 402.7 288.17 396.09 287.48 394.11C286.79 392.13 287.69 390.67 285.68 391.03C283.67 391.39 280.84 391.62 280.51 392.78C280.18 393.94 281.12 396.68 283.27 400.05C285.077 402.59 287.216 404.877 289.63 406.85L294 404.7Z" fill="#4CD21B"/>
<path opacity="0.1" d="M294 404.7C292.32 402.7 288.17 396.09 287.48 394.11C286.79 392.13 287.69 390.67 285.68 391.03C283.67 391.39 280.84 391.62 280.51 392.78C280.18 393.94 281.12 396.68 283.27 400.05C285.077 402.59 287.216 404.877 289.63 406.85L294 404.7Z" fill="black"/>
<path d="M303.16 415C303.28 415.84 303.16 416.42 300.23 417.49C297.3 418.56 292.8 418.54 289.04 417.61C285.28 416.68 282.04 413.25 280.46 410.84C278.88 408.43 275.69 406.17 273.57 404.99C271.45 403.81 271.02 403.34 271.19 402.62C271.36 401.9 272 400 272 400L303.16 415Z" fill="#EBEBEB"/>
<path d="M273.74 388.86C273.06 389.33 273.37 390.64 274.51 391.74C274.97 392.43 275.25 394.84 276.28 395.21C277.31 395.58 278.28 393.67 279.45 393.67C280.62 393.67 281.72 395.67 283.29 398.14C284.86 400.61 289.29 406.14 289.95 406.14C290.61 406.14 293 404.51 294.02 404.67C295.571 406.15 297.2 407.545 298.9 408.85C301.3 410.62 302.14 411.16 302.84 411.63C303.54 412.1 303.69 413.79 303.3 414.79C302.91 415.79 297.36 418.23 291.49 416.86C285.62 415.49 283.94 412.91 281.92 409.7C280.422 407.293 278.318 405.321 275.82 403.98C274.281 403.276 272.892 402.281 271.73 401.05C271.397 399.707 271.397 398.303 271.73 396.96C272.27 394.56 272.96 392.56 272.65 390.63C272.517 390.151 272.531 389.644 272.69 389.173C272.848 388.703 273.145 388.29 273.54 387.99C273.63 388.274 273.697 388.565 273.74 388.86Z" fill="#4CD21B"/>
<path d="M302.39 412.71C301.32 412.98 300.16 413.27 300.11 413.71C300.06 414.15 300.01 416.44 299.43 417.2C299.155 417.543 298.805 417.818 298.405 418.002C298.006 418.186 297.57 418.274 297.13 418.26C294.463 418.408 291.788 418.165 289.19 417.54C286.391 416.692 283.913 415.019 282.08 412.74C279.86 410.09 279.46 408.81 276.53 406.74C273.6 404.67 272.53 404.38 271.19 403.16C271.078 403.485 270.998 403.82 270.95 404.16C271.293 404.644 271.75 405.036 272.28 405.3C274.206 406.247 276.04 407.368 277.76 408.65C279.217 410.111 280.555 411.686 281.76 413.36C283.695 415.678 286.285 417.358 289.19 418.18C292.51 419.03 297.1 419.18 300.1 418.11C303.1 417.04 303.27 416.41 303.53 416.05C303.818 415.057 303.889 414.013 303.74 412.99C303.55 412.47 303.15 412.51 302.39 412.71Z" fill="#455A64"/>
<path d="M288.72 405.93C290.88 404.41 292.72 403.87 293.54 404.09C293.896 404.286 294.172 404.601 294.32 404.98C294.32 404.98 292.7 404.91 289.65 406.85C289.41 406.834 289.184 406.732 289.013 406.563C288.843 406.394 288.738 406.169 288.72 405.93Z" fill="#455A64"/>
<path d="M291.919 401.77C290.038 401.776 288.228 402.49 286.849 403.77C286.628 403.724 286.426 403.611 286.27 403.446C286.115 403.282 286.013 403.074 285.979 402.85C287.436 401.541 289.331 400.827 291.289 400.85C291.289 400.85 291.999 401.19 291.919 401.77Z" fill="#455A64"/>
<path d="M289.87 398.55C288.57 398.05 285.45 399.45 284.33 400.5C284.207 400.492 284.086 400.46 283.976 400.406C283.865 400.351 283.766 400.275 283.685 400.182C283.604 400.089 283.543 399.981 283.504 399.864C283.465 399.747 283.45 399.623 283.46 399.5C285.022 398.1 287.052 397.336 289.15 397.36C289.15 397.36 290.05 397.75 289.87 398.55Z" fill="#455A64"/>
<path d="M288.13 395.49C287.083 395.385 286.026 395.493 285.023 395.808C284.019 396.122 283.089 396.637 282.29 397.32C282.082 397.227 281.907 397.075 281.786 396.883C281.665 396.691 281.604 396.467 281.61 396.24C282.383 395.464 283.332 394.885 284.377 394.552C285.421 394.22 286.53 394.144 287.61 394.33C287.918 394.641 288.102 395.053 288.13 395.49Z" fill="#455A64"/>
<path d="M305.49 204.26C304.22 205.6 301.49 208.26 293.14 215.51C287.02 220.83 280.05 227.87 277.84 234.4C278.22 225.23 269.11 210.86 269.11 210.86C271.74 210.16 274.38 209.52 276.46 208.04C285.3 201.77 290.09 197.17 292.51 194.37C293.26 193.48 293.64 192.81 293.92 190.55C294.17 188.55 296.34 170.9 295.62 163.55C295.477 162.244 294.862 161.035 293.89 160.15C291.3 157.77 290.48 155.66 288.71 152.93C287.32 150.79 285.93 150.06 286.27 149.53C286.724 148.959 287.377 148.58 288.098 148.469C288.819 148.358 289.555 148.522 290.16 148.93C291.516 149.782 292.768 150.788 293.89 151.93C293.379 149.086 292.409 146.344 291.02 143.81C287.86 137.99 288.26 134.81 296.58 136.36C301.79 137.3 306.65 141.69 308.39 153.89C308.89 157.4 308.73 162.64 308.71 167.14C308.65 177.38 308.61 185.7 308.2 193.98C308 197.59 307.89 201.73 305.49 204.26Z" fill="#FFA8A7"/>
<path d="M235.931 215.33C234.931 219.1 230.031 251.15 229.181 278.1C241.461 283.48 266.471 279.1 273.881 270.1L274.671 256.51C276.551 246.31 277.291 237.31 278.101 232.93C278.981 228.1 278.851 216.15 271.001 211.45C267.584 210.257 263.999 209.619 260.381 209.56C255.671 209.39 247.081 209.42 242.381 210.34C240.101 210.8 236.581 213 235.931 215.33Z" fill="#4CD21B"/>
<path opacity="0.6" d="M235.931 215.33C234.931 219.1 230.031 251.15 229.181 278.1C241.461 283.48 266.471 279.1 273.881 270.1L274.671 256.51C276.551 246.31 277.291 237.31 278.101 232.93C278.981 228.1 278.851 216.15 271.001 211.45C267.584 210.257 263.999 209.619 260.381 209.56C255.671 209.39 247.081 209.42 242.381 210.34C240.101 210.8 236.581 213 235.931 215.33Z" fill="white"/>
<path d="M245.36 241.89C245.36 241.89 262.94 243.31 273.88 238.83L272 256.32C272 256.32 260.45 262.47 243.65 258.48L245.36 241.89Z" fill="#FAFAFA"/>
<path d="M254 249.62C254 249.78 254 249.96 254 250.15V250.75L253.94 251.35C253.932 251.531 253.912 251.712 253.88 251.89C253.824 252.352 253.71 252.806 253.54 253.24C253.384 253.616 253.152 253.956 252.86 254.24C252.545 254.543 252.161 254.763 251.74 254.88C251.216 255.023 250.669 255.06 250.13 254.99C249.587 254.944 249.058 254.794 248.57 254.55C248.174 254.346 247.831 254.051 247.57 253.69C247.329 253.338 247.162 252.939 247.08 252.52C246.992 252.059 246.955 251.589 246.97 251.12C246.97 250.79 246.97 250.42 247.04 250.01C247.11 249.6 247.12 249.23 247.16 248.91C247.226 248.448 247.343 247.995 247.51 247.56C247.659 247.18 247.892 246.838 248.19 246.56C248.501 246.267 248.879 246.055 249.29 245.94C249.816 245.805 250.363 245.774 250.9 245.85C251.444 245.889 251.976 246.028 252.47 246.26C252.855 246.443 253.19 246.715 253.448 247.055C253.705 247.394 253.878 247.79 253.95 248.21C254.026 248.676 254.043 249.15 254 249.62ZM248.64 251.33C248.608 251.84 248.718 252.349 248.96 252.8C249.099 252.998 249.283 253.16 249.497 253.273C249.711 253.386 249.948 253.447 250.19 253.45C250.424 253.498 250.667 253.489 250.897 253.422C251.127 253.356 251.337 253.235 251.51 253.07C251.829 252.675 252.027 252.195 252.08 251.69C252.08 251.37 252.16 251.01 252.19 250.62C252.22 250.23 252.25 249.87 252.26 249.55C252.297 249.043 252.186 248.535 251.94 248.09C251.799 247.896 251.614 247.738 251.4 247.628C251.187 247.519 250.95 247.461 250.71 247.46C250.477 247.412 250.236 247.419 250.007 247.482C249.778 247.544 249.566 247.66 249.39 247.82C249.07 248.21 248.875 248.687 248.83 249.19C248.78 249.51 248.74 249.87 248.71 250.26C248.68 250.65 248.66 251 248.65 251.33H248.64Z" fill="black"/>
<path d="M260.2 249.33C260.448 249.158 260.65 248.928 260.79 248.66C260.889 248.477 260.954 248.277 260.98 248.07C261.009 247.921 261.006 247.767 260.972 247.619C260.937 247.47 260.872 247.331 260.78 247.21C260.644 247.093 260.484 247.008 260.311 246.962C260.138 246.915 259.956 246.907 259.78 246.94C259.374 246.944 258.981 247.089 258.67 247.35C258.411 247.608 258.21 247.919 258.08 248.26C258.039 248.364 257.97 248.454 257.88 248.52C257.812 248.576 257.728 248.607 257.64 248.61H256.64C256.595 248.615 256.549 248.611 256.506 248.597C256.463 248.583 256.424 248.56 256.39 248.53C256.36 248.499 256.339 248.46 256.328 248.418C256.318 248.376 256.318 248.332 256.33 248.29C256.414 247.9 256.566 247.527 256.78 247.19C257.004 246.843 257.281 246.532 257.6 246.27C257.936 245.997 258.31 245.774 258.71 245.61C259.122 245.432 259.562 245.327 260.01 245.3C260.481 245.248 260.958 245.296 261.41 245.44C261.752 245.558 262.061 245.757 262.31 246.02C262.532 246.264 262.69 246.56 262.77 246.88C262.857 247.206 262.878 247.546 262.83 247.88C262.801 248.085 262.761 248.289 262.71 248.49C262.647 248.698 262.557 248.897 262.44 249.08C262.297 249.311 262.129 249.525 261.94 249.72C261.683 249.988 261.405 250.235 261.11 250.46C260.02 251.41 259.48 251.88 258.39 252.8C259.85 252.7 260.58 252.64 262.04 252.49C262.083 252.484 262.128 252.487 262.169 252.501C262.211 252.515 262.249 252.539 262.28 252.57C262.309 252.6 262.331 252.636 262.343 252.676C262.355 252.716 262.358 252.759 262.35 252.8C262.35 253.16 262.28 253.34 262.23 253.7C262.212 253.796 262.163 253.884 262.09 253.95C262.018 254.024 261.923 254.07 261.82 254.08C259.36 254.33 258.14 254.42 255.7 254.53C255.656 254.532 255.612 254.526 255.571 254.51C255.529 254.495 255.492 254.471 255.46 254.44C255.432 254.407 255.411 254.369 255.399 254.328C255.387 254.286 255.384 254.243 255.39 254.2L255.5 253.42C255.52 253.278 255.583 253.146 255.68 253.04C255.757 252.957 255.841 252.88 255.93 252.81C257.59 251.47 258.46 250.76 260.2 249.33Z" fill="black"/>
<path d="M271.59 244C271.629 243.987 271.671 243.985 271.712 243.993C271.752 244.002 271.79 244.022 271.82 244.05C271.851 244.077 271.874 244.111 271.888 244.15C271.902 244.188 271.906 244.23 271.9 244.27C271.9 244.63 271.82 244.81 271.77 245.17C271.758 245.275 271.713 245.374 271.64 245.45L271.42 245.7C270.54 246.63 270.09 247.09 269.21 248C269.562 247.987 269.915 248.017 270.26 248.09C270.535 248.159 270.791 248.289 271.01 248.47C271.21 248.651 271.359 248.882 271.44 249.14C271.53 249.466 271.547 249.807 271.49 250.14C271.43 250.576 271.28 250.995 271.05 251.37C270.812 251.746 270.519 252.083 270.18 252.37C269.816 252.632 269.42 252.844 269 253C268.536 253.201 268.049 253.346 267.55 253.43C267.029 253.509 266.5 253.509 265.98 253.43C265.602 253.375 265.238 253.245 264.91 253.05C264.655 252.886 264.451 252.654 264.32 252.38C264.203 252.134 264.148 251.862 264.16 251.59C264.162 251.54 264.174 251.491 264.197 251.446C264.219 251.401 264.251 251.361 264.29 251.33C264.367 251.263 264.46 251.218 264.56 251.2L265.61 251.07C265.645 251.062 265.681 251.063 265.716 251.071C265.75 251.08 265.783 251.097 265.81 251.12C265.872 251.18 265.923 251.251 265.96 251.33C266 251.427 266.057 251.515 266.13 251.59C266.224 251.673 266.332 251.737 266.45 251.78C266.618 251.836 266.793 251.867 266.97 251.87C267.238 251.876 267.506 251.856 267.77 251.81C268.255 251.74 268.717 251.559 269.12 251.28C269.286 251.165 269.428 251.017 269.534 250.845C269.641 250.673 269.711 250.48 269.74 250.28C269.781 250.13 269.764 249.97 269.692 249.833C269.619 249.695 269.497 249.59 269.35 249.54C268.932 249.446 268.498 249.446 268.08 249.54L266.98 249.71C266.939 249.719 266.898 249.718 266.858 249.708C266.818 249.697 266.781 249.678 266.75 249.65C266.718 249.622 266.694 249.586 266.68 249.545C266.666 249.505 266.662 249.462 266.67 249.42C266.72 249.06 266.75 248.88 266.8 248.52C266.811 248.415 266.857 248.316 266.93 248.24L267.15 248C268 247.15 268.42 246.71 269.26 245.84C267.8 246.09 267.07 246.19 265.61 246.38C265.567 246.389 265.523 246.388 265.481 246.376C265.439 246.363 265.401 246.341 265.37 246.31C265.341 246.282 265.319 246.247 265.307 246.209C265.294 246.171 265.292 246.13 265.3 246.09C265.35 245.72 265.38 245.54 265.43 245.18C265.442 245.084 265.488 244.995 265.56 244.93C265.633 244.856 265.727 244.807 265.83 244.79C268.1 244.56 269.26 244.38 271.59 244Z" fill="black"/>
<path d="M250.7 172.17C249.577 172.318 248.508 172.74 247.586 173.397C246.664 174.054 245.917 174.927 245.41 175.94C244.3 178.15 245.04 182.62 246.3 188.51C246.997 192.317 248.1 196.038 249.59 199.61C250.122 200.627 251.024 201.4 252.11 201.77L252.17 194.83L252.07 189.98C252.07 189.98 256.39 191.44 257.68 184.41C258.193 181.319 258.463 178.193 258.49 175.06L250.7 172.17Z" fill="#263238"/>
<path d="M255.801 179.9C255.718 182.473 256.402 185.013 257.765 187.197C259.127 189.381 261.108 191.112 263.456 192.169C265.803 193.226 268.412 193.563 270.95 193.136C273.489 192.708 275.844 191.537 277.717 189.77C279.589 188.003 280.894 185.72 281.468 183.21C282.041 180.7 281.856 178.077 280.936 175.672C280.017 173.267 278.404 171.19 276.302 169.703C274.2 168.216 271.704 167.387 269.131 167.32C265.698 167.231 262.369 168.504 259.871 170.861C257.374 173.218 255.91 176.468 255.801 179.9Z" fill="#263238"/>
<path d="M253.761 189.66C253.55 189.742 253.321 189.759 253.101 189.71C252.814 189.616 252.553 189.455 252.339 189.241C252.126 189.028 251.965 188.767 251.871 188.48C251.695 187.902 251.489 187.335 251.251 186.78C250.731 185.78 249.171 185.4 248.101 185.4C247.409 185.425 246.732 185.609 246.123 185.939C245.514 186.268 244.99 186.734 244.591 187.3C242.301 190.3 244.681 195.39 247.041 196.57C250.481 198.31 252.171 194.83 252.171 194.83L252.001 210.52C252.001 210.52 252.831 213.52 258.751 215.79C263.381 217.58 270.411 215.06 266.211 210.47V205.27C268.575 205.817 271.021 205.912 273.421 205.55C275.771 205.07 276.941 203.49 278.011 199.84C280.281 191.817 280.277 183.321 278.001 175.3C275.521 173.25 271.491 173.73 268.601 174.3C266.439 174.755 264.329 175.425 262.301 176.3C261.941 176.45 260.901 176.72 260.691 177.05C260.481 177.38 260.691 177.85 260.691 178.19C260.665 179.143 260.332 180.062 259.741 180.81C258.668 181.845 257.231 182.416 255.741 182.4C255.731 184.214 255.468 186.018 254.961 187.76C254.831 188.5 254.401 189.45 253.761 189.66Z" fill="#FFA8A7"/>
<path d="M281.001 166.81C280.965 166.714 280.904 166.629 280.825 166.564C280.746 166.499 280.652 166.457 280.551 166.44C280.386 166.446 280.228 166.506 280.101 166.61C279.191 167.298 278.224 167.907 277.211 168.43C277.512 167.166 277.569 165.856 277.381 164.57C277.261 163.78 277.101 161.95 276.131 161.73C275.561 161.59 275.041 162.06 274.601 162.45C270.601 165.97 265.601 164.12 260.871 164.12C256.941 164.12 252.161 165.57 250.261 169.32C249.401 171.04 249.201 172.88 250.761 174.13C252.101 175.21 256.571 176.3 258.171 176.83C262.421 178.23 273.361 181.83 279.371 174.72C280.381 173.331 281.065 171.731 281.371 170.04C281.552 168.966 281.424 167.863 281.001 166.86V166.81Z" fill="#263238"/>
<path d="M266.28 205.27C266.28 205.27 260.42 204.03 258.1 202.42C256.581 201.384 255.341 199.99 254.49 198.36C254.49 198.36 254.99 201.7 256.59 203.5C259.41 206.66 266.26 207.62 266.26 207.62L266.28 205.27Z" fill="#F28F8F"/>
<path d="M265.851 187.89C265.831 188.17 265.729 188.438 265.558 188.66C265.388 188.883 265.155 189.05 264.89 189.141C264.625 189.233 264.338 189.244 264.067 189.174C263.795 189.104 263.55 188.955 263.362 188.747C263.174 188.539 263.052 188.28 263.01 188.002C262.968 187.725 263.009 187.441 263.127 187.187C263.245 186.933 263.436 186.719 263.675 186.571C263.913 186.424 264.19 186.351 264.471 186.36C264.855 186.383 265.215 186.557 265.473 186.843C265.732 187.129 265.867 187.505 265.851 187.89Z" fill="#263238"/>
<path d="M263.931 182.94L260.931 184.71C260.701 184.298 260.639 183.813 260.759 183.356C260.878 182.9 261.169 182.507 261.571 182.26C261.769 182.145 261.989 182.071 262.217 182.042C262.444 182.014 262.675 182.033 262.896 182.096C263.117 182.16 263.322 182.267 263.5 182.412C263.678 182.557 263.824 182.737 263.931 182.94Z" fill="#263238"/>
<path d="M265.451 196.3L271.451 198.14C271.182 198.95 270.61 199.625 269.856 200.024C269.101 200.422 268.221 200.514 267.401 200.28C267.007 200.153 266.643 199.948 266.33 199.677C266.018 199.406 265.763 199.075 265.581 198.704C265.399 198.333 265.293 197.928 265.271 197.515C265.249 197.102 265.31 196.689 265.451 196.3Z" fill="#B16668"/>
<path d="M269.451 200.2C269.266 199.41 268.806 198.711 268.154 198.228C267.503 197.744 266.701 197.508 265.891 197.56C265.692 197.583 265.496 197.616 265.301 197.66C265.352 198.26 265.582 198.831 265.962 199.298C266.342 199.765 266.854 200.108 267.431 200.28C268.094 200.48 268.805 200.452 269.451 200.2Z" fill="#F28F8F"/>
<path d="M277.93 183.67L274.82 182.06C274.914 181.851 275.05 181.664 275.219 181.509C275.388 181.355 275.586 181.237 275.803 181.162C276.019 181.087 276.248 181.057 276.477 181.074C276.705 181.091 276.927 181.154 277.13 181.26C277.548 181.482 277.864 181.856 278.013 182.305C278.162 182.754 278.132 183.242 277.93 183.67Z" fill="#263238"/>
<path d="M276.8 187.14C276.78 187.419 276.679 187.687 276.508 187.909C276.338 188.132 276.106 188.299 275.842 188.391C275.577 188.482 275.291 188.494 275.02 188.425C274.748 188.356 274.503 188.208 274.315 188.001C274.127 187.794 274.003 187.536 273.96 187.259C273.917 186.982 273.957 186.699 274.073 186.444C274.19 186.19 274.379 185.975 274.616 185.826C274.854 185.678 275.13 185.603 275.41 185.61C275.796 185.631 276.159 185.803 276.419 186.089C276.679 186.376 276.816 186.753 276.8 187.14Z" fill="#263238"/>
<path d="M270.25 194.72L274.76 193.56L269.63 186.39L270.25 194.72Z" fill="#F28F8F"/>
<path d="M252.64 277.05L247.53 277.62L251.15 273.73C232.04 280.97 203.06 275.47 169.4 281.66C148.88 285.43 123.9 299.85 116.57 307.96V319.57C124 310.57 152.8 292.65 170.04 289.2C205.67 282.05 234.04 288.49 250.15 282.86L252.95 281.66L248.03 281.08L252.64 277.05Z" fill="#4CD21B"/>
<path opacity="0.2" d="M252.64 277.05L247.53 277.62L251.15 273.73C232.04 280.97 203.06 275.47 169.4 281.66C148.88 285.43 123.9 299.85 116.57 307.96V319.57C124 310.57 152.8 292.65 170.04 289.2C205.67 282.05 234.04 288.49 250.15 282.86L252.95 281.66L248.03 281.08L252.64 277.05Z" fill="black"/>
<path d="M220.71 287.36C219.22 284.57 218.27 283.72 217.48 281.07C218.31 281.812 219.239 282.434 220.24 282.92C221.45 283.41 223.02 283.27 223.33 282.18C223.64 281.09 221.8 280.61 221.03 279.45C219.819 277.47 218.419 275.611 216.85 273.9C216.423 273.567 216.068 273.15 215.807 272.676C215.545 272.202 215.383 271.679 215.33 271.14C214.77 263.38 215.08 254.03 214.78 245.25C220.35 241.74 231.91 235.57 236.56 232.71C240.18 230.48 243.11 224.65 243.9 218.81C244.1 217.33 244.3 212.21 243.44 210.18C240.44 209.73 236.39 210.77 233.06 213.06C231.06 214.44 227.21 217.41 218.44 223.99C213.44 227.71 206.49 232.57 201.24 238.85C198.9 241.66 202.83 265.1 203.66 270.38C204.11 273.24 204.92 277.64 205.88 281.38C207.5 287.69 211.58 292.71 216.29 293.45C223.81 294.65 222.72 291.13 220.71 287.36Z" fill="#FFA8A7"/>
<path d="M304.81 237.23C295.81 253.67 284.25 266.4 261.09 270.8L266.74 271.88L262 275L266.82 275.65L263.52 278.9C288.9 273.33 301.06 259.25 310.36 242.98C316.95 231.46 321.22 213.29 328.65 199.82C334.52 189.19 339.65 183.51 344.47 180.18V170.73C336.88 175.11 329.58 183.29 323.81 193.86C315.36 209.42 309.45 228.74 304.81 237.23Z" fill="#4CD21B"/>
<path opacity="0.2" d="M304.81 237.23C295.81 253.67 284.25 266.4 261.09 270.8L266.74 271.88L262 275L266.82 275.65L263.52 278.9C288.9 273.33 301.06 259.25 310.36 242.98C316.95 231.46 321.22 213.29 328.65 199.82C334.52 189.19 339.65 183.51 344.47 180.18V170.73C336.88 175.11 329.58 183.29 323.81 193.86C315.36 209.42 309.45 228.74 304.81 237.23Z" fill="black"/>
<path d="M396.51 133.39C396.51 133.39 392.36 130.89 392.16 126.39L395.23 123.92C395.23 123.92 394.81 126.68 398.38 130.63L396.51 133.39Z" fill="#4CD21B"/>
<path d="M434.15 98.19C434.15 98.19 430.24 95.33 430.43 90.85L433.7 88.66C433.7 88.66 433.04 91.37 436.25 95.66L434.15 98.19Z" fill="#4CD21B"/>
<path d="M458 253.51C458 253.51 454.09 250.65 454.29 246.16L457.56 243.98C457.56 243.98 456.9 246.69 460.11 250.98L458 253.51Z" fill="#4CD21B"/>
<path d="M433.089 45.42C433.089 45.42 431.509 40.84 434.229 37.27L438.159 37.34C438.159 37.34 436.069 39.19 436.279 44.51L433.089 45.42Z" fill="#4CD21B"/>
<path d="M464.409 131.66C464.409 131.66 466.579 135.99 464.359 139.89L460.449 140.35C460.449 140.35 462.279 138.24 461.359 132.99L464.409 131.66Z" fill="#4CD21B"/>
<path d="M94.7595 116.12C94.7595 116.12 97.5095 111.62 95.4395 107.19L91.2295 106.35C91.2295 106.35 93.0295 108.8 91.5695 114.42L94.7595 116.12Z" fill="#4CD21B"/>
<path d="M214.369 34C214.369 34 214.309 38.85 218.009 41.38L221.729 40.07C221.729 40.07 219.159 38.97 217.729 33.86L214.369 34Z" fill="#4CD21B"/>
<path d="M37.4396 172C37.4396 172 41.6796 169.65 42.0396 165.18L39.0396 162.6C39.0396 162.6 39.3596 165.37 35.6396 169.18L37.4396 172Z" fill="#4CD21B"/>
<path d="M57.2296 211.85C57.2296 211.85 52.9996 209.5 52.6396 205L55.6396 202.42C55.6396 202.42 55.3196 205.19 59.0396 209L57.2296 211.85Z" fill="#4CD21B"/>
<path d="M63.8795 202.07C63.8795 202.07 62.0595 197.58 64.5895 193.87L68.5195 193.74C68.5195 193.74 66.5195 195.69 67.0195 200.99L63.8795 202.07Z" fill="#4CD21B"/>
<path d="M374.78 33.16C374.78 33.16 374.51 37.99 378.1 40.68L381.87 39.54C381.87 39.54 379.35 38.33 378.1 33.16H374.78Z" fill="#4CD21B"/>
<path d="M472.679 67.1C472.679 67.1 474.869 71.41 472.679 75.32L468.779 75.8C468.779 75.8 470.589 73.68 469.639 68.44L472.679 67.1Z" fill="#4CD21B"/>
<path d="M408.68 78C408.68 78 405.13 74.71 405.84 70.28L409.34 68.49C409.34 68.49 408.34 71.1 411.07 75.69L408.68 78Z" fill="#4CD21B"/>
<path d="M428.42 155.37C428.42 155.37 430.53 159.73 428.26 163.6L424.34 164C424.34 164 426.2 161.91 425.34 156.65L428.42 155.37Z" fill="#4CD21B"/>
<path d="M455.08 197.79C455.08 197.79 453.67 193.15 456.53 189.69L460.45 189.9C460.45 189.9 457.73 191.81 457.74 197.14L455.08 197.79Z" fill="#4CD21B"/>
<path d="M450.459 210.34C450.459 210.34 446.299 207.87 446.069 203.34L449.119 200.86C449.292 203.494 450.297 206.004 451.989 208.03L450.459 210.34Z" fill="#4CD21B"/>
<path d="M198.13 57.8C198.13 57.8 200.23 62.16 197.94 66.02L194.02 66.41C194.02 66.41 195.89 64.33 195.02 59.07L198.13 57.8Z" fill="#4CD21B"/>
<path d="M45.0896 121.37C45.0896 121.37 48.7996 118.26 48.3096 113.8L44.8996 111.8C44.8996 111.8 45.7396 114.46 42.8096 118.91L45.0896 121.37Z" fill="#4CD21B"/>
<path d="M48.5 254C48.5 254 49.56 260 54.72 262.22L59 259.72C59 259.72 55.58 258.97 52.57 253.02L48.5 254Z" fill="#4CD21B"/>
<path d="M81.6598 148.56C81.6598 148.56 81.4398 153.4 85.0598 156.05L88.8198 154.87C88.8198 154.87 85.7098 153.69 84.4098 148.53L81.6598 148.56Z" fill="#4CD21B"/>
<g opacity="0.25">
<path d="M374.78 33.16C374.78 33.16 374.51 37.99 378.1 40.68L381.87 39.54C381.87 39.54 379.35 38.33 378.1 33.16H374.78Z" fill="black"/>
<path d="M472.679 67.1C472.679 67.1 474.869 71.41 472.679 75.32L468.779 75.8C468.779 75.8 470.589 73.68 469.639 68.44L472.679 67.1Z" fill="black"/>
<path d="M408.68 78C408.68 78 405.13 74.71 405.84 70.28L409.34 68.49C409.34 68.49 408.34 71.1 411.07 75.69L408.68 78Z" fill="black"/>
<path d="M428.42 155.37C428.42 155.37 430.53 159.73 428.26 163.6L424.34 164C424.34 164 426.2 161.91 425.34 156.65L428.42 155.37Z" fill="black"/>
<path d="M455.08 197.79C455.08 197.79 453.67 193.15 456.53 189.69L460.45 189.9C460.45 189.9 457.73 191.81 457.74 197.14L455.08 197.79Z" fill="black"/>
<path d="M450.459 210.34C450.459 210.34 446.299 207.87 446.069 203.34L449.119 200.86C449.292 203.494 450.297 206.004 451.989 208.03L450.459 210.34Z" fill="black"/>
<path d="M198.13 57.8C198.13 57.8 200.23 62.16 197.94 66.02L194.02 66.41C194.02 66.41 195.89 64.33 195.02 59.07L198.13 57.8Z" fill="black"/>
<path d="M45.0896 121.37C45.0896 121.37 48.7996 118.26 48.3096 113.8L44.8996 111.8C44.8996 111.8 45.7396 114.46 42.8096 118.91L45.0896 121.37Z" fill="black"/>
<path d="M48.5 254C48.5 254 49.56 260 54.72 262.22L59 259.72C59 259.72 55.58 258.97 52.57 253.02L48.5 254Z" fill="black"/>
<path d="M81.6598 148.56C81.6598 148.56 81.4398 153.4 85.0598 156.05L88.8198 154.87C88.8198 154.87 85.7098 153.69 84.4098 148.53L81.6598 148.56Z" fill="black"/>
</g>
</svg>
