<svg width="500" height="500" viewBox="0 0 500 500" fill="none" xmlns="http://www.w3.org/2000/svg">
<g clip-path="url(#clip0_620_628)">
<path d="M250 476.51C382.36 476.51 489.66 414.56 489.66 338.14C489.66 261.72 382.36 199.77 250 199.77C117.639 199.77 10.3398 261.72 10.3398 338.14C10.3398 414.56 117.639 476.51 250 476.51Z" fill="#E9B073"/>
<path d="M83.45 356.43C106.778 356.43 125.69 345.51 125.69 332.04C125.69 318.57 106.778 307.65 83.45 307.65C60.1215 307.65 41.21 318.57 41.21 332.04C41.21 345.51 60.1215 356.43 83.45 356.43Z" fill="white" fill-opacity="0.8"/>
<path d="M241.87 296.71C265.198 296.71 284.11 285.79 284.11 272.32C284.11 258.85 265.198 247.93 241.87 247.93C218.541 247.93 199.63 258.85 199.63 272.32C199.63 285.79 218.541 296.71 241.87 296.71Z" fill="white" fill-opacity="0.8"/>
<path d="M410.98 353.86C434.308 353.86 453.22 342.94 453.22 329.47C453.22 316 434.308 305.08 410.98 305.08C387.651 305.08 368.74 316 368.74 329.47C368.74 342.94 387.651 353.86 410.98 353.86Z" fill="white" fill-opacity="0.8"/>
<path d="M306.52 448.53C333.179 448.53 354.79 436.052 354.79 420.66C354.79 405.268 333.179 392.79 306.52 392.79C279.861 392.79 258.25 405.268 258.25 420.66C258.25 436.052 279.861 448.53 306.52 448.53Z" fill="white" fill-opacity="0.8"/>
<path d="M381.37 267.92L371.72 272.54L380.45 270.69C380.037 272.887 379.146 274.966 377.84 276.78C377.84 276.78 371.98 278.58 368.59 280.91L376.2 279.75C376.23 281.05 375.953 282.338 375.39 283.51C375.32 283.67 375.24 283.84 375.15 284C374.59 285.1 373.7 287.21 372.37 289.67C371.23 291.821 369.891 293.86 368.37 295.76C367.617 296.697 366.798 297.579 365.92 298.4C365.92 298.46 365.81 298.51 365.76 298.56C364.55 297.45 362.62 299.1 361.29 298.01C360.79 295.74 360.78 288.3 361.29 284.01C363.16 267.76 377.79 260.75 388.12 259.9C385.408 262.147 383.121 264.864 381.37 267.92Z" fill="#21F736"/>
<path d="M374.38 267C373.369 267.654 372.462 268.456 371.69 269.38C370.922 270.307 370.223 271.29 369.6 272.32C368.363 274.38 367.357 276.57 366.6 278.85C365.017 283.389 364.53 288.237 365.18 293C365.189 293.062 365.173 293.125 365.135 293.176C365.098 293.226 365.042 293.26 364.98 293.27C364.918 293.279 364.855 293.263 364.804 293.225C364.754 293.188 364.72 293.132 364.71 293.07L364.48 292.98C363.897 288.152 364.47 283.254 366.15 278.69C366.967 276.407 368.026 274.217 369.31 272.16C369.979 271.147 370.721 270.184 371.53 269.28C372.362 268.384 373.323 267.615 374.38 267Z" fill="#FAFAFA"/>
<path d="M402 285C401.69 285.1 397.57 285.56 389 289.54L380.45 288.3L385.71 291.11L379.11 294.26L371.11 291.26L376.06 295.67C376.06 295.67 371.11 300.07 365.73 299.81C362.73 299.66 361.58 299.17 361.32 298.13C361.14 297.41 362.67 294.76 363.76 292.21C365.535 288.255 368.499 284.952 372.24 282.76C373.6 281.93 375.071 281.297 376.61 280.88C385.51 278.37 397.16 281.84 402 285Z" fill="#EBC556"/>
<path opacity="0.15" d="M402 285C401.69 285.1 397.57 285.56 389 289.54L380.45 288.3L385.71 291.11L379.11 294.26L371.11 291.26L376.06 295.67C376.06 295.67 371.11 300.07 365.73 299.81C362.73 299.66 361.58 299.17 361.32 298.13C361.14 297.41 362.67 294.76 363.76 292.21C365.535 288.255 368.499 284.952 372.24 282.76C373.6 281.93 375.071 281.297 376.61 280.88C385.51 278.37 397.16 281.84 402 285Z" fill="#21F736"/>
<path opacity="0.1" d="M372.12 286.06C370.088 287.422 368.263 289.069 366.7 290.95C364.831 293.394 363.111 295.949 361.55 298.6C361.439 298.45 361.357 298.281 361.31 298.1C361.13 297.38 362.66 294.73 363.75 292.18C365.525 288.225 368.49 284.922 372.23 282.73C373.59 281.9 375.062 281.267 376.6 280.85C385.53 278.35 397.18 281.85 402.02 285C393.74 281.46 382.52 281.32 374.85 284.59C373.901 285.005 372.988 285.496 372.12 286.06Z" fill="black"/>
<path d="M393 282.59C388.224 281.767 383.329 281.954 378.63 283.14C376.283 283.738 374.045 284.704 372 286C369.97 287.331 368.173 288.986 366.68 290.9C368.324 289.162 370.182 287.64 372.21 286.37C374.231 285.103 376.414 284.114 378.7 283.43C381.003 282.768 383.376 282.382 385.77 282.28C388.17 282.162 390.576 282.259 392.96 282.57L393 282.59Z" fill="#FAFAFA"/>
<path d="M140.41 377.22L151.76 382.66L141.48 380.48C141.967 383.066 143.015 385.513 144.55 387.65C144.55 387.65 151.45 389.77 155.44 392.51L146.49 391.15C146.446 392.678 146.772 394.195 147.44 395.57L147.72 396.15C148.38 397.44 149.43 399.93 150.99 402.82C152.331 405.355 153.912 407.756 155.71 409.99C156.602 411.091 157.567 412.13 158.6 413.1L158.79 413.28C160.21 411.98 162.49 413.92 164.05 412.64C164.64 409.97 164.65 401.21 164.05 396.21C161.85 377.08 144.64 368.83 132.47 367.83C135.655 370.462 138.344 373.642 140.41 377.22Z" fill="#EBC556"/>
<path opacity="0.25" d="M140.41 377.22L151.76 382.66L141.48 380.48C141.967 383.066 143.015 385.513 144.55 387.65C144.55 387.65 151.45 389.77 155.44 392.51L146.49 391.15C146.446 392.678 146.772 394.195 147.44 395.57L147.72 396.15C148.38 397.44 149.43 399.93 150.99 402.82C152.331 405.355 153.912 407.756 155.71 409.99C156.602 411.091 157.567 412.13 158.6 413.1L158.79 413.28C160.21 411.98 162.49 413.92 164.05 412.64C164.64 409.97 164.65 401.21 164.05 396.21C161.85 377.08 144.64 368.83 132.47 367.83C135.655 370.462 138.344 373.642 140.41 377.22Z" fill="#21F736"/>
<path d="M148.62 376.17C149.814 376.94 150.883 377.887 151.79 378.98C152.697 380.066 153.519 381.219 154.25 382.43C155.71 384.856 156.901 387.435 157.8 390.12C159.657 395.469 160.225 401.18 159.46 406.79C159.454 406.826 159.456 406.862 159.465 406.897C159.473 406.932 159.488 406.965 159.51 406.994C159.531 407.022 159.558 407.047 159.589 407.065C159.62 407.083 159.655 407.095 159.69 407.1C159.726 407.106 159.762 407.104 159.797 407.096C159.832 407.087 159.865 407.072 159.893 407.05C159.922 407.029 159.947 407.002 159.965 406.971C159.983 406.94 159.995 406.906 160 406.87L160.28 406.77C160.955 401.081 160.269 395.313 158.28 389.94C157.326 387.251 156.078 384.676 154.56 382.26C153.776 381.069 152.907 379.936 151.96 378.87C150.985 377.811 149.86 376.902 148.62 376.17Z" fill="#FAFAFA"/>
<path d="M116.12 397.35C116.49 397.46 121.34 398.01 131.44 402.7L141.5 401.23L135.3 404.54L143.08 408.25L152.49 404.68L146.67 409.87C146.67 409.87 152.5 415.06 158.82 414.74C162.31 414.57 163.71 413.99 164.01 412.74C164.23 411.89 162.42 408.74 161.15 405.74C159.051 401.086 155.556 397.2 151.15 394.62C149.547 393.64 147.813 392.893 146 392.4C135.53 389.52 121.81 393.61 116.12 397.35Z" fill="#21F736"/>
<path opacity="0.1" d="M151.28 398.57C153.672 400.171 155.82 402.107 157.66 404.32C159.861 407.194 161.885 410.2 163.72 413.32C163.853 413.145 163.948 412.944 164 412.73C164.22 411.88 162.41 408.73 161.14 405.73C159.041 401.076 155.546 397.19 151.14 394.61C149.537 393.63 147.803 392.883 145.99 392.39C135.49 389.45 121.77 393.54 116.08 397.28C125.82 393.11 139.03 392.95 148.08 396.79C149.196 397.29 150.267 397.885 151.28 398.57Z" fill="black"/>
<path d="M126.72 394.49C132.34 393.522 138.1 393.74 143.63 395.13C146.399 395.857 149.037 397.01 151.45 398.55C153.836 400.117 155.948 402.067 157.7 404.32C155.766 402.271 153.578 400.476 151.19 398.98C148.812 397.486 146.242 396.322 143.55 395.52C140.836 394.742 138.041 394.286 135.22 394.16C132.396 394.023 129.565 394.137 126.76 394.5L126.72 394.49Z" fill="#FAFAFA"/>
<path d="M91.21 191.73C93.73 191.56 96.74 190.73 99.69 192.48C101.69 193.65 102.69 194.96 104.32 199.94C106.64 206.83 109.22 215.85 109.22 215.85C109.22 215.85 119.02 218.29 120.5 218.22C121.98 218.15 126.68 217.22 127.74 219.38C128.33 220.62 128.19 223.29 127.74 226.29C127.29 229.14 122.8 229.39 120.9 228.84C119.25 228.35 117.26 226.31 115.16 225.65C113.06 224.99 106.58 224.41 104.4 224.03C101.2 223.47 100.86 222.74 99.93 220.29C99 217.84 91.21 191.73 91.21 191.73Z" fill="#9A4A4D"/>
<path d="M103.22 232.79C103.22 227.69 102.6 225.39 100.22 218.53C100.85 216.572 101.101 214.512 100.96 212.46C105.28 208.71 104.01 203.92 101.88 201.06C98.0998 195.99 92.6598 191.73 91.2098 191.73L82.4498 191.62L77.9998 192C74.7998 192.78 71.5498 194 71.2198 196.81C70.8345 199.677 71.0317 202.591 71.7998 205.38L74.8598 217.38C74.0898 219.71 70.8598 222.69 68.5398 228.79C67.2998 232.03 66.3998 234.22 66.5398 241.39C66.6798 248.56 68.7198 277.72 68.7198 277.72C68.7198 277.72 66.9398 280.49 65.3098 283.14C63.6798 285.79 62.4498 290.6 62.3798 297.29C62.3098 303.98 62.7498 316.96 61.7298 320.7C60.7098 324.44 59.9598 327.75 58.4098 330.85C57.668 332.487 57.2842 334.263 57.2842 336.06C57.2842 337.857 57.668 339.633 58.4098 341.27C59.8398 343.98 62.7998 345.36 65.1698 344.62C67.5398 343.88 68.5598 339.96 68.6498 335.44C68.7398 330.92 68.2998 327.67 70.0698 320.44C71.8398 313.21 80.7798 285.22 82.6098 279.06C84.4398 272.9 88.0498 253.64 88.0498 253.64L96.7198 275.42C94.8849 278.8 93.8999 282.575 93.8498 286.42C93.7898 293.02 92.6498 311.04 92.1398 313.98C91.6298 316.92 89.8598 319.37 90.4598 321.73C91.0598 324.09 94.2698 324.54 95.4598 325.06C98.4598 326.39 99.3298 329.66 102.23 331.57C105.13 333.48 110.35 332.72 112.76 331.74C115.71 330.56 114.49 329.03 111.99 327.74C108.648 325.715 105.742 323.047 103.44 319.89C101.03 316.6 101.44 315.09 102.06 311.63C102.68 308.17 111.29 281.63 112.55 275.02C113.81 268.41 111.11 262.43 109.33 255.26C107.2 246.73 103.22 232.79 103.22 232.79Z" fill="#B16668"/>
<path d="M103.22 232.79C103.272 230.469 103.033 228.151 102.51 225.89C97.6699 225.24 89.1699 223.33 89.1699 223.33L80.1699 205.76C80.1699 205.76 81.0099 197.11 77.1099 193.65C75.1522 193.582 73.2042 193.954 71.4099 194.74C71.3299 195.29 71.2999 195.97 71.1999 196.85C70.8145 199.717 71.0118 202.631 71.7799 205.42L74.8399 217.42C74.7398 217.705 74.6195 217.982 74.4799 218.25C76.5779 221.605 78.8893 224.821 81.3999 227.88C84.5799 231.68 85.1499 231.88 89.7299 232.33C92.5999 232.69 103.22 232.79 103.22 232.79Z" fill="#9A4A4D"/>
<path d="M89.0601 247.33L88.0601 253.73L96.7301 275.51L90.0001 254L91.2301 249.46C93.3916 248.863 95.3765 247.752 97.0152 246.221C98.6539 244.691 99.8976 242.786 100.64 240.67L89.0601 247.33Z" fill="#9A4A4D"/>
<path d="M89.0599 247.33C89.0599 247.33 89.2699 247.88 92.4199 246.89C95.5699 245.9 100.89 241.09 104.16 236.11C103.932 234.981 103.618 233.871 103.22 232.79C99.0799 236.19 78.5199 236.56 68.5099 228.87C67.5506 231.097 66.9369 233.458 66.6899 235.87C66.6899 235.87 80.0999 236.91 89.0599 247.33Z" fill="#EBC556"/>
<path opacity="0.2" d="M89.0599 247.33C89.0599 247.33 89.2699 247.88 92.4199 246.89C95.5699 245.9 100.89 241.09 104.16 236.11C103.932 234.981 103.618 233.871 103.22 232.79C99.0799 236.19 78.5199 236.56 68.5099 228.87C67.5506 231.097 66.9369 233.458 66.6899 235.87C66.6899 235.87 80.0999 236.91 89.0599 247.33Z" fill="black"/>
<path opacity="0.1" d="M88.6999 243.36C85.5099 241.03 77.5799 236.05 74.6299 235.12C72.8099 234.55 72.1499 233.53 72.7599 231.41C71.2588 230.714 69.8344 229.862 68.5099 228.87C67.5506 231.097 66.9369 233.458 66.6899 235.87C66.6899 235.87 80.0999 236.93 89.0599 247.35C89.0599 247.35 89.2699 247.9 92.4199 246.91C94.8242 245.898 96.9956 244.404 98.7999 242.52C95.8299 244.35 91.8899 245.69 88.6999 243.36Z" fill="black"/>
<path d="M77.9999 192C77.9999 192 80.7299 199.25 79.7899 202.63C78.8499 206.01 76.6499 208.82 72.4399 207.91C72.4399 208.09 72.5299 208.27 72.5799 208.46L73.3799 211.61C77.797 213.484 82.5921 214.296 87.3799 213.98C91.1499 213.65 94.3099 212.41 95.9699 212.29C97.6299 212.17 98.8299 212.93 100.97 212.42C105.29 208.67 104.02 203.88 101.89 201.02C98.1099 195.95 92.6699 191.69 91.2199 191.69L82.4599 191.58L77.9999 192Z" fill="#EBC556"/>
<path opacity="0.2" d="M77.9999 192C77.9999 192 80.7299 199.25 79.7899 202.63C78.8499 206.01 76.6499 208.82 72.4399 207.91C72.4399 208.09 72.5299 208.27 72.5799 208.46L73.3799 211.61C77.797 213.484 82.5921 214.296 87.3799 213.98C91.1499 213.65 94.3099 212.41 95.9699 212.29C97.6299 212.17 98.8299 212.93 100.97 212.42C105.29 208.67 104.02 203.88 101.89 201.02C98.1099 195.95 92.6699 191.69 91.2199 191.69L82.4599 191.58L77.9999 192Z" fill="black"/>
<path opacity="0.1" d="M101 212.46C101.795 211.823 102.457 211.034 102.946 210.14C103.435 209.246 103.742 208.264 103.85 207.25C103.24 207.803 102.467 208.141 101.647 208.214C100.827 208.286 100.006 208.088 99.3097 207.65C96.7997 206.27 96.3097 204.31 93.3097 207.02C90.3097 209.73 86.5197 209.37 84.9397 208.23C83.3597 207.09 80.3697 199.23 80.3697 199.23L79.8897 199.55C80.0446 200.595 80.0073 201.659 79.7797 202.69C78.8497 206.06 76.6397 208.88 72.4297 207.97C72.4297 208.15 72.5197 208.33 72.5697 208.52L73.3697 211.67C77.7867 213.544 82.5819 214.356 87.3697 214.04C91.1397 213.71 94.2997 212.47 95.9597 212.35C97.6197 212.23 98.8097 213 101 212.46Z" fill="black"/>
<path d="M74.0898 166.07L77.1599 168.59C77.3277 168.399 77.4546 168.176 77.5327 167.934C77.6109 167.692 77.6386 167.437 77.6143 167.184C77.5899 166.931 77.5139 166.685 77.3911 166.463C77.2682 166.24 77.101 166.045 76.8998 165.89C76.4961 165.558 75.9811 165.392 75.4593 165.425C74.9375 165.458 74.4479 165.689 74.0898 166.07Z" fill="black"/>
<path d="M82.1196 188.61C82.1196 186.68 77.6296 183.79 75.3096 179.73C72.9896 175.67 74.1396 169 77.3296 168C77.3296 168 77.6096 166.46 77.6496 166.35C78.0995 164.98 78.9115 163.757 79.9996 162.81C80.6335 162.265 81.3403 161.81 82.0996 161.46C82.9875 161.061 83.9033 160.727 84.8396 160.46C86.9903 159.8 89.0704 158.929 91.0496 157.86C92.2447 157.073 93.5895 156.542 94.9996 156.3C95.8364 156.227 96.6767 156.391 97.4247 156.774C98.1726 157.156 98.7982 157.74 99.2298 158.461C99.6615 159.181 99.8819 160.009 99.866 160.848C99.85 161.688 99.5983 162.506 99.1396 163.21C99.9708 163.12 100.811 163.16 101.63 163.33C102.039 163.416 102.421 163.597 102.746 163.86C103.072 164.122 103.33 164.458 103.5 164.84C103.612 165.171 103.648 165.522 103.604 165.869C103.561 166.215 103.44 166.547 103.25 166.84C102.862 167.422 102.298 167.864 101.64 168.1C102.244 168.181 102.792 168.499 103.162 168.983C103.533 169.468 103.696 170.08 103.615 170.685C103.534 171.29 103.216 171.837 102.731 172.208C102.246 172.578 101.634 172.741 101.03 172.66C101.11 173.17 101.081 173.692 100.945 174.19C100.809 174.688 100.568 175.152 100.24 175.55C99.5596 176.36 98.7096 176.45 97.8596 176.95C97.3496 177.25 96.8596 177.71 96.4296 178.06L93.4996 180.23L86.3996 185.46C85.3996 186.22 84.3996 186.97 83.3496 187.72C83.1896 187.82 82.1196 188.44 82.1196 188.61Z" fill="black"/>
<path d="M96.0796 165.86C98.0796 166.72 99.9296 169.74 99.9096 178.18C99.9096 185.34 97.6896 187.18 96.5796 187.68C95.4696 188.18 93.3096 187.94 91.1996 187.62V191.73C92.8047 194.024 93.7144 196.732 93.8196 199.53C91.0348 198.773 88.4095 197.519 86.0696 195.83C84.4473 194.696 83.0839 193.23 82.0696 191.53L81.9996 182.53C81.9996 182.53 80.7896 183.8 78.6596 181.94C76.9096 180.4 76.2696 177.76 77.5896 176.31C78.9096 174.86 80.5896 174.74 82.1396 176.36L83.2396 175.78C85.6459 175.627 88.0108 175.08 90.2396 174.16C95.5696 171.4 96.1196 168.4 96.0796 165.86Z" fill="#B16668"/>
<path d="M81.4697 174.34L82.6497 178.14C82.8945 178.072 83.1229 177.954 83.3208 177.795C83.5187 177.636 83.6821 177.438 83.8009 177.213C83.9198 176.989 83.9916 176.742 84.0121 176.489C84.0325 176.236 84.0011 175.981 83.9197 175.74C83.7662 175.239 83.4273 174.815 82.9721 174.555C82.5168 174.295 81.9796 174.218 81.4697 174.34Z" fill="black"/>
<path d="M96.2695 175.75C96.2695 175.948 96.3282 176.141 96.4381 176.306C96.5479 176.47 96.7041 176.598 96.8868 176.674C97.0696 176.75 97.2706 176.769 97.4646 176.731C97.6586 176.692 97.8368 176.597 97.9766 176.457C98.1165 176.317 98.2117 176.139 98.2503 175.945C98.2889 175.751 98.2691 175.55 98.1934 175.367C98.1177 175.185 97.9896 175.028 97.8251 174.919C97.6607 174.809 97.4673 174.75 97.2695 174.75C97.0043 174.75 96.75 174.855 96.5624 175.043C96.3749 175.23 96.2695 175.485 96.2695 175.75Z" fill="black"/>
<path d="M88.9995 176.73C88.9999 176.925 89.0573 177.116 89.1648 177.279C89.2722 177.442 89.425 177.57 89.6042 177.647C89.7835 177.724 89.9814 177.747 90.1736 177.713C90.3658 177.679 90.5438 177.589 90.6857 177.456C90.8277 177.322 90.9273 177.149 90.9724 176.959C91.0175 176.769 91.0061 176.57 90.9395 176.387C90.873 176.204 90.7542 176.044 90.5978 175.927C90.4414 175.81 90.2543 175.742 90.0595 175.73C89.9232 175.722 89.7867 175.742 89.6584 175.788C89.53 175.835 89.4126 175.907 89.3133 176.001C89.214 176.094 89.1349 176.207 89.0809 176.333C89.027 176.458 88.9993 176.593 88.9995 176.73Z" fill="black"/>
<path d="M90.7694 182L93.8294 183C93.785 183.214 93.6963 183.416 93.5688 183.593C93.4414 183.771 93.2781 183.919 93.0896 184.03C92.9011 184.14 92.6915 184.21 92.4744 184.234C92.2573 184.258 92.0376 184.236 91.8294 184.17C91.4062 184.016 91.0593 183.704 90.8616 183.299C90.6639 182.894 90.6309 182.429 90.7694 182Z" fill="#9A4A4D"/>
<path d="M98.7898 174L96.3398 173C96.396 172.836 96.4855 172.685 96.6027 172.557C96.7199 172.429 96.8623 172.326 97.021 172.256C97.1797 172.185 97.3512 172.149 97.5248 172.148C97.6984 172.147 97.8704 172.181 98.0298 172.25C98.3608 172.384 98.626 172.642 98.7682 172.969C98.9104 173.297 98.9182 173.667 98.7898 174Z" fill="black"/>
<path d="M93.5898 174.98L94.1798 180.76L97.2198 179.62L93.5898 174.98Z" fill="#9A4A4D"/>
<path d="M91.1995 187.62C88.9895 187.36 84.9395 185.74 83.4995 183.9C83.6975 184.968 84.2508 185.937 85.0695 186.65C86.8895 188.23 91.2095 189.12 91.2095 189.12L91.1995 187.62Z" fill="#9A4A4D"/>
<path d="M77.9996 192C72.1996 192.26 68.7496 195.29 68.3896 198.87C67.9796 202.98 69.2296 205.65 71.5496 209.64C74.0996 214.04 81.3096 223.72 83.7396 226.77C86.1696 229.82 87.7396 230.6 92.3096 231.08C96.8796 231.56 112.31 232.24 114.91 231.89C117.101 231.664 119.229 231.023 121.18 230C123.18 229 122.78 224.05 122.92 222.8C123.06 221.55 120.07 219.45 118.33 219.48C116.59 219.51 115.81 220.68 113.98 220.96C112.15 221.24 111.22 223.57 109.07 223.54C106.42 223.54 92.3296 220.54 92.3296 220.54L82.6696 204.54C82.6696 204.54 81.7196 196.25 77.9996 192Z" fill="#B16668"/>
<path d="M114.75 220.74C115.897 220.841 117.035 221.015 118.16 221.26C118.88 221.33 119.79 221.84 118.85 222.78C117.91 223.72 115.41 223.39 115.41 223.39C116.552 223.917 117.837 224.044 119.06 223.75C120.87 223.21 120.36 222.05 119.86 221.44C119.36 220.83 117.49 220.66 114.75 220.74Z" fill="#9A4A4D"/>
<path d="M82.6396 204.63L92.2997 220.63L105.3 223.13L91.9996 221.18C90.7665 221.419 89.636 222.03 88.7597 222.93C89.4163 221.933 90.2875 221.096 91.3096 220.48L82.6396 204.63Z" fill="#9A4A4D"/>
<path d="M201.24 126.26C202.1 127.16 203.93 128.94 209.64 133.91C213.8 137.53 220.45 142.19 222.45 145.91C222.19 139.68 233.08 129.76 233.08 129.76C229.47 129.4 225.7 130.05 222.53 128.28C217.442 125.413 212.833 121.77 208.87 117.48C208.49 114.69 207.46 103.48 207.96 98.48C208.054 97.5926 208.47 96.7705 209.13 96.17C210.89 94.55 211.45 93.11 212.66 91.25C213.6 89.8 214.55 89.25 214.32 88.94C214.007 88.5556 213.563 88.3008 213.074 88.2251C212.584 88.1493 212.084 88.258 211.67 88.53C210.653 89.0962 209.709 89.7846 208.86 90.58C209.228 88.5079 209.859 86.4914 210.74 84.58C212.82 80.17 213 79 207.3 80C203.76 80.64 200.45 83.63 199.3 91.93C198.86 94.9307 198.619 97.9574 198.58 100.99C198.58 107.99 197.88 114.99 198.16 120.59C198.24 123.07 199.6 124.53 201.24 126.26Z" fill="#F28F8F"/>
<path d="M222.45 145.93C222.36 143.88 223.45 141.36 224.96 138.93L223.67 133.93C221.799 136.775 220.759 140.086 220.67 143.49C221.341 144.243 221.937 145.061 222.45 145.93Z" fill="#B16668"/>
<path d="M213.69 205.56C213.01 207.38 215.54 210.17 221.83 212.13C228.12 214.09 230.44 213.6 231.12 212.13C231.8 210.66 229.46 206.27 224.4 204.32C219.34 202.37 214.48 203.35 213.69 205.56Z" fill="#37474F"/>
<path d="M267 273C265.42 269.86 264.65 266.51 263.62 262.72C262.59 258.93 262.62 246.72 262.56 239.9C262.5 233.08 261.27 227.59 260.01 224.69C259.01 222.49 257.51 219.86 257.51 219.86C257.51 219.86 258.32 195.86 258.51 188.61C258.7 181.36 257.85 175.43 257.32 169.74C257.02 164.97 257.12 160.95 256.91 157.37C256.55 151.18 256.27 146.94 256.19 145.46C256.04 142.99 253.01 130.85 251.46 130.51C246.883 129.668 242.251 129.163 237.6 129C235.13 129 224.42 131.9 224.42 131.9C222.917 135.575 222.188 139.521 222.28 143.49C222.28 146.49 223.7 153.44 224.28 160.49L224.56 174.49C224.56 174.49 219.76 187.79 216.66 197.59C212.76 209.96 212.01 215.48 212.9 218.79C214.65 225.34 222.22 249.9 222.84 253.39C223.46 256.88 223.84 258.39 221.44 261.76C219.109 264.955 216.165 267.654 212.78 269.7C210.24 271.03 209.01 272.57 211.99 273.77C214.44 274.77 219.72 275.52 222.66 273.59C225.6 271.66 226.44 268.35 229.51 267C230.73 266.48 233.97 266 234.58 263.63C235.19 261.26 233.39 258.76 232.88 255.78C232.37 252.8 231.21 234.56 231.14 227.87C231.093 223.981 230.101 220.161 228.25 216.74L237.57 198.17C237.57 198.17 240.69 214.17 242.57 220.43C244.45 226.69 253.49 255.04 255.28 262.34C257.07 269.64 256.61 272.95 256.71 277.53C256.81 282.11 257.83 286.07 260.24 286.82C262.65 287.57 265.63 286.17 267.09 283.43C267.804 281.781 268.164 280.002 268.149 278.205C268.133 276.409 267.742 274.636 267 273Z" fill="#F28F8F"/>
<path d="M254.06 145.47C255.519 151.461 256.539 157.55 257.11 163.69C257.11 161.4 257.04 159.29 256.93 157.32C256.65 152.42 256.41 148.75 256.28 146.7L254.06 145.47Z" fill="#B16668"/>
<path d="M224.5 172.06C224.5 172.06 229.12 175.47 239.21 175.32C245.581 175.1 251.811 173.387 257.4 170.32C258.082 174.016 258.573 177.744 258.87 181.49C259.1 185.95 258.4 210.76 258.4 210.76C258.4 210.76 253.16 215.49 240.08 212.87L237.68 199.4L231.12 212.12C231.12 212.12 230.92 208.81 223.76 206.05C216.6 203.29 213.69 205.55 213.69 205.55C213.69 205.55 218.49 190.28 220.11 185.65C221.73 181.02 224.5 172.06 224.5 172.06Z" fill="#455A64"/>
<path d="M237.68 199.41L236.58 191.7C233.526 190.985 230.763 189.356 228.66 187.03C228.66 187.03 228.97 190.52 234.3 193.22L236.3 199.41L231.9 210.63L237.68 199.41Z" fill="#37474F"/>
<path d="M266.68 185.56C267.865 183.372 268.782 181.048 269.41 178.64C268.636 179.349 267.796 179.982 266.9 180.53C266.08 180.87 264.99 180.86 264.57 180.18C264.26 179.68 265.62 178.92 266.15 178.13C267.175 176.616 268.322 175.188 269.58 173.86C269.865 173.628 270.101 173.342 270.273 173.017C270.445 172.692 270.549 172.336 270.58 171.97C270.96 166.69 270.75 160.33 270.95 154.35C267.16 151.96 257.19 147.42 254.02 145.47C251.852 142.995 250.538 139.889 250.27 136.61C250.14 135.61 250.27 131.31 251.44 130.47C256.15 130.9 257.85 131.62 260.01 133.32C261.31 134.32 262.49 135.4 268.46 139.88C271.84 142.41 276.59 145.71 280.17 149.99C281.76 151.9 279.36 168.14 278.8 171.74C278.49 173.69 277.46 179.35 276.8 181.9C275.7 186.2 272.72 189.77 269.52 190.28C264.45 191.09 265.3 188.13 266.68 185.56Z" fill="#F28F8F"/>
<path d="M243.82 103.94C244.601 104.042 245.345 104.334 245.987 104.791C246.628 105.248 247.148 105.855 247.5 106.56C248.27 108.09 247.75 111.19 246.88 115.29C246.395 117.935 245.627 120.519 244.59 123C244.18 123.738 243.536 124.318 242.76 124.65V120.31L240.51 117.59C240.51 117.59 239.9 117.32 239 112.44C238.645 110.291 238.458 108.118 238.44 105.94L243.82 103.94Z" fill="black"/>
<path d="M240.28 109.31C240.329 111.089 239.849 112.842 238.902 114.348C237.954 115.854 236.582 117.046 234.957 117.772C233.333 118.498 231.53 118.727 229.776 118.429C228.022 118.131 226.395 117.32 225.102 116.098C223.809 114.876 222.907 113.298 222.51 111.563C222.113 109.829 222.239 108.016 222.873 106.353C223.506 104.69 224.618 103.252 226.068 102.221C227.518 101.19 229.241 100.612 231.02 100.56C232.203 100.525 233.381 100.724 234.487 101.146C235.592 101.567 236.604 102.202 237.464 103.015C238.325 103.827 239.016 104.802 239.499 105.882C239.982 106.962 240.247 108.127 240.28 109.31Z" fill="black"/>
<path d="M241.79 116.15C242.329 115.362 242.924 114.613 243.57 113.91C243.836 113.641 244.156 113.432 244.51 113.297C244.864 113.162 245.242 113.105 245.62 113.13C246.076 113.144 246.519 113.288 246.896 113.545C247.273 113.802 247.569 114.161 247.75 114.58C248.75 116.46 247.61 119 246.19 120.15C245.716 120.564 245.116 120.806 244.488 120.835C243.859 120.864 243.24 120.679 242.73 120.31L242.8 129.78C242.8 129.78 242.13 131.9 238.01 133.5C234.8 134.74 230.18 133.25 233.1 130.06L233 126.93C231.462 127.307 229.863 127.372 228.3 127.12C226.67 126.79 225.41 126.02 224.47 123.56C222.79 119.19 222.71 112.18 224.47 106.25C226.19 104.82 229.4 105.02 231.42 105.44C233.209 106.041 234.94 106.804 236.59 107.72C236.892 108.579 237.408 109.347 238.09 109.95C238.846 110.55 239.759 110.918 240.72 111.01C240.72 111.01 240.42 112.1 240.4 112.2C240.277 112.637 240.183 113.081 240.12 113.53C239.96 114.399 239.96 115.291 240.12 116.16C240.136 116.307 240.185 116.449 240.263 116.576C240.34 116.702 240.445 116.809 240.57 116.89C240.693 116.936 240.826 116.948 240.955 116.923C241.084 116.898 241.203 116.838 241.3 116.75C241.495 116.578 241.661 116.376 241.79 116.15Z" fill="#F28F8F"/>
<path d="M222.8 100.21C222.823 100.144 222.865 100.085 222.92 100.041C222.974 99.997 223.04 99.9689 223.11 99.96C223.224 99.9618 223.334 100.004 223.42 100.08C224.05 100.556 224.719 100.977 225.42 101.34C225.21 100.459 225.169 99.5462 225.3 98.65C225.38 98.11 225.49 96.84 226.17 96.65C226.56 96.56 226.93 96.88 227.23 97.15C230.02 99.6 233.51 98.32 236.77 98.32C239.5 98.32 242.82 99.32 244.14 101.93C244.74 103.12 244.88 104.4 243.79 105.27C242.86 106.02 239.79 106.78 238.64 107.15C235.64 108.15 228.09 110.61 223.92 105.68C223.213 104.717 222.734 103.606 222.52 102.43C222.393 101.685 222.479 100.918 222.77 100.22L222.8 100.21Z" fill="black"/>
<path d="M233 126.93C234.711 126.622 236.362 126.041 237.89 125.21C239.068 124.282 240.033 123.112 240.72 121.78C240.475 123.132 239.882 124.397 239 125.45C237 127.24 233 128.02 233 128.02V126.93Z" fill="#B16668"/>
<path d="M233.5 114.83C233.5 115.095 233.605 115.35 233.793 115.537C233.98 115.725 234.235 115.83 234.5 115.83C234.698 115.83 234.891 115.771 235.056 115.661C235.22 115.552 235.348 115.395 235.424 115.213C235.5 115.03 235.519 114.829 235.481 114.635C235.442 114.441 235.347 114.263 235.207 114.123C235.067 113.983 234.889 113.888 234.695 113.849C234.501 113.811 234.3 113.83 234.117 113.906C233.935 113.982 233.778 114.11 233.669 114.274C233.559 114.439 233.5 114.632 233.5 114.83Z" fill="black"/>
<path d="M234.85 111.41L236.93 112.64C237.087 112.354 237.129 112.019 237.048 111.703C236.966 111.387 236.766 111.114 236.49 110.94C236.352 110.86 236.2 110.808 236.042 110.788C235.883 110.768 235.723 110.78 235.57 110.824C235.416 110.868 235.274 110.943 235.15 111.044C235.026 111.144 234.924 111.269 234.85 111.41Z" fill="black"/>
<path d="M233.78 120.68L229.58 121.96C229.768 122.523 230.167 122.991 230.692 123.267C231.218 123.543 231.83 123.605 232.4 123.44C232.675 123.354 232.93 123.214 233.15 123.027C233.369 122.841 233.549 122.612 233.678 122.354C233.807 122.096 233.882 121.815 233.9 121.527C233.917 121.24 233.877 120.952 233.78 120.68Z" fill="#B16668"/>
<path d="M231 123.39C231.127 122.839 231.447 122.352 231.902 122.017C232.357 121.681 232.916 121.519 233.48 121.56C233.619 121.568 233.756 121.591 233.89 121.63C233.85 122.044 233.689 122.438 233.425 122.76C233.162 123.082 232.808 123.319 232.41 123.44C231.947 123.579 231.452 123.562 231 123.39Z" fill="#FFA8A7"/>
<path d="M225 112.2L227.16 111.08C227.094 110.936 226.999 110.808 226.882 110.702C226.764 110.595 226.627 110.514 226.477 110.463C226.328 110.411 226.169 110.391 226.012 110.402C225.854 110.414 225.7 110.457 225.56 110.53C225.27 110.684 225.051 110.943 224.947 111.253C224.843 111.564 224.862 111.903 225 112.2Z" fill="black"/>
<path d="M225.74 114.61C225.74 114.875 225.845 115.13 226.033 115.317C226.22 115.505 226.474 115.61 226.74 115.61C226.875 115.606 227.008 115.576 227.132 115.52C227.255 115.465 227.366 115.386 227.459 115.287C227.552 115.189 227.625 115.073 227.673 114.946C227.721 114.82 227.744 114.685 227.74 114.55C227.736 114.415 227.705 114.282 227.65 114.158C227.594 114.035 227.515 113.923 227.417 113.83C227.318 113.738 227.203 113.665 227.076 113.617C226.95 113.569 226.815 113.546 226.68 113.55C226.548 113.558 226.42 113.591 226.301 113.649C226.183 113.706 226.077 113.786 225.99 113.885C225.902 113.983 225.835 114.098 225.792 114.222C225.749 114.347 225.732 114.479 225.74 114.61Z" fill="black"/>
<path d="M230.44 119.58L227.31 118.77L230.87 113.79L230.44 119.58Z" fill="#B16668"/>
<path d="M348.35 113.62C348.274 113.618 348.2 113.601 348.13 113.57C348.071 113.541 348.018 113.501 347.975 113.452C347.931 113.402 347.898 113.345 347.876 113.283C347.855 113.221 347.846 113.155 347.85 113.089C347.854 113.023 347.871 112.959 347.9 112.9L359.21 88.9C359.238 88.84 359.278 88.7861 359.327 88.7415C359.376 88.6968 359.433 88.6623 359.495 88.64C359.557 88.6177 359.624 88.608 359.69 88.6114C359.756 88.6148 359.821 88.6314 359.88 88.66C359.94 88.6869 359.994 88.7255 360.038 88.7735C360.083 88.8214 360.117 88.8779 360.14 88.9394C360.162 89.0009 360.172 89.0663 360.169 89.1317C360.165 89.197 360.149 89.2611 360.12 89.32L348.8 113.32C348.762 113.408 348.699 113.483 348.619 113.536C348.54 113.589 348.446 113.618 348.35 113.62Z" fill="#455A64"/>
<path d="M359.09 228.67C358.963 228.669 358.841 228.619 358.75 228.53L346.65 216.89C346.597 216.846 346.554 216.792 346.522 216.731C346.491 216.669 346.473 216.602 346.469 216.534C346.465 216.465 346.475 216.396 346.499 216.332C346.523 216.267 346.56 216.208 346.607 216.158C346.655 216.109 346.712 216.069 346.776 216.043C346.839 216.016 346.907 216.003 346.976 216.004C347.045 216.006 347.113 216.021 347.175 216.049C347.238 216.078 347.294 216.119 347.34 216.17L359.44 227.81C359.488 227.855 359.526 227.909 359.552 227.969C359.578 228.03 359.592 228.094 359.592 228.16C359.592 228.226 359.578 228.291 359.552 228.351C359.526 228.411 359.488 228.465 359.44 228.51C359.397 228.56 359.343 228.601 359.283 228.628C359.222 228.656 359.156 228.67 359.09 228.67Z" fill="#455A64"/>
<path d="M174.63 213C174.492 213 174.359 212.946 174.26 212.85L164.45 203.41C164.4 203.361 164.359 203.303 164.331 203.239C164.303 203.175 164.288 203.106 164.286 203.036C164.285 202.966 164.297 202.896 164.323 202.83C164.348 202.765 164.387 202.706 164.435 202.655C164.484 202.604 164.542 202.564 164.606 202.536C164.67 202.508 164.739 202.493 164.809 202.491C164.88 202.49 164.949 202.502 165.015 202.528C165.08 202.553 165.14 202.591 165.19 202.64L175 212.08C175.1 212.181 175.156 212.318 175.156 212.46C175.156 212.602 175.1 212.739 175 212.84C174.902 212.939 174.769 212.996 174.63 213Z" fill="#455A64"/>
<path d="M164.47 341.15C164.394 341.163 164.316 341.163 164.24 341.15C164.114 341.086 164.017 340.975 163.97 340.84C163.924 340.706 163.931 340.559 163.99 340.43L175.16 316.79C175.189 316.726 175.231 316.668 175.282 316.62C175.334 316.573 175.395 316.535 175.461 316.511C175.527 316.487 175.597 316.476 175.667 316.479C175.738 316.483 175.807 316.5 175.87 316.53C175.934 316.559 175.992 316.601 176.04 316.652C176.088 316.704 176.125 316.764 176.149 316.831C176.173 316.897 176.184 316.967 176.181 317.037C176.178 317.108 176.16 317.176 176.13 317.24L165 340.84C164.954 340.939 164.878 341.022 164.784 341.078C164.689 341.133 164.58 341.158 164.47 341.15Z" fill="#455A64"/>
<path d="M349.46 110.75L174.1 212V320.23L349.46 219V110.75ZM180.15 309.75V215.49L343.42 121.23V215.49L180.15 309.75Z" fill="#EBEBEB"/>
<path d="M189.72 206.76H188.72V308.01H189.72V206.76Z" fill="black"/>
<path d="M198.79 201.52H197.79V302.76H198.79V201.52Z" fill="black"/>
<path d="M207.86 196.29H206.86V297.54H207.86V196.29Z" fill="black"/>
<path d="M216.93 191.05H215.93V292.3H216.93V191.05Z" fill="black"/>
<path d="M226 185.81H225V287.06H226V185.81Z" fill="black"/>
<path d="M235.07 180.58H234.07V281.82H235.07V180.58Z" fill="black"/>
<path d="M244.14 175.34H243.14V276.58H244.14V175.34Z" fill="black"/>
<path d="M253.21 170.1H252.21V271.35H253.21V170.1Z" fill="black"/>
<path d="M262.28 164.87H261.28V266.12H262.28V164.87Z" fill="black"/>
<path d="M271.35 159.63H270.35V260.88H271.35V159.63Z" fill="black"/>
<path d="M280.42 154.39H279.42V255.63H280.42V154.39Z" fill="black"/>
<path d="M289.5 149.16H288.5V250.4H289.5V149.16Z" fill="black"/>
<path d="M298.57 143.92H297.57V245.17H298.57V143.92Z" fill="black"/>
<path d="M307.64 138.68H306.64V239.93H307.64V138.68Z" fill="black"/>
<path d="M316.71 133.45H315.71V234.7H316.71V133.45Z" fill="black"/>
<path d="M325.78 128.21H324.78V229.45H325.78V128.21Z" fill="black"/>
<path d="M334.85 122.97H333.85V224.22H334.85V122.97Z" fill="black"/>
<path d="M346.2 129.558L176.867 227.284L177.367 228.15L346.7 130.424L346.2 129.558Z" fill="black"/>
<path d="M346.199 140.035L176.865 237.76L177.365 238.627L346.699 140.901L346.199 140.035Z" fill="black"/>
<path d="M346.202 150.513L176.869 248.239L177.369 249.105L346.702 151.379L346.202 150.513Z" fill="black"/>
<path d="M346.196 160.982L176.862 258.707L177.362 259.573L346.695 161.848L346.196 160.982Z" fill="black"/>
<path d="M346.199 171.45L176.865 269.175L177.365 270.041L346.699 172.316L346.199 171.45Z" fill="black"/>
<path d="M346.197 181.927L176.864 279.652L177.364 280.518L346.697 182.793L346.197 181.927Z" fill="black"/>
<path d="M346.191 192.405L176.857 290.13L177.357 290.996L346.69 193.271L346.191 192.405Z" fill="black"/>
<path d="M346.194 202.873L176.86 300.598L177.36 301.465L346.694 203.739L346.194 202.873Z" fill="black"/>
<path d="M162.12 196.39V414C162.136 414.167 162.197 414.326 162.295 414.461C162.394 414.597 162.527 414.703 162.68 414.77C163.098 414.979 163.558 415.088 164.025 415.088C164.492 415.088 164.953 414.979 165.37 414.77C165.522 414.703 165.654 414.596 165.75 414.46C165.847 414.325 165.906 414.166 165.92 414V196.39H162.12Z" fill="black"/>
<path opacity="0.15" d="M162.12 196.39V414C162.136 414.167 162.197 414.326 162.295 414.461C162.394 414.597 162.527 414.703 162.68 414.77C163.098 414.979 163.558 415.088 164.025 415.088C164.492 415.088 164.953 414.979 165.37 414.77C165.522 414.703 165.654 414.596 165.75 414.46C165.847 414.325 165.906 414.166 165.92 414V196.39H162.12Z" fill="black"/>
<path d="M162.68 197.17C163.097 197.379 163.558 197.488 164.025 197.488C164.492 197.488 164.953 197.379 165.37 197.17C165.53 197.112 165.668 197.006 165.766 196.866C165.864 196.727 165.916 196.56 165.916 196.39C165.916 196.22 165.864 196.053 165.766 195.914C165.668 195.774 165.53 195.668 165.37 195.61C164.953 195.401 164.492 195.292 164.025 195.292C163.558 195.292 163.097 195.401 162.68 195.61C162.52 195.668 162.382 195.774 162.284 195.914C162.186 196.053 162.134 196.22 162.134 196.39C162.134 196.56 162.186 196.727 162.284 196.866C162.382 197.006 162.52 197.112 162.68 197.17Z" fill="black"/>
<path d="M359 82.76V300.31C359.013 300.478 359.071 300.639 359.168 300.776C359.265 300.913 359.397 301.022 359.55 301.09C359.968 301.299 360.428 301.408 360.895 301.408C361.362 301.408 361.823 301.299 362.24 301.09C362.395 301.022 362.529 300.914 362.628 300.777C362.726 300.64 362.786 300.478 362.8 300.31V82.76H359Z" fill="black"/>
<path opacity="0.15" d="M359 82.76V300.31C359.013 300.478 359.071 300.639 359.168 300.776C359.265 300.913 359.397 301.022 359.55 301.09C359.968 301.299 360.428 301.408 360.895 301.408C361.362 301.408 361.823 301.299 362.24 301.09C362.395 301.022 362.529 300.914 362.628 300.777C362.726 300.64 362.786 300.478 362.8 300.31V82.76H359Z" fill="black"/>
<path d="M359.54 83.53C359.958 83.7394 360.418 83.8484 360.885 83.8484C361.352 83.8484 361.813 83.7394 362.23 83.53C362.392 83.4743 362.531 83.3697 362.63 83.2308C362.729 83.0919 362.782 82.9256 362.782 82.755C362.782 82.5845 362.729 82.4182 362.63 82.2793C362.531 82.1403 362.392 82.0357 362.23 81.98C361.813 81.7707 361.352 81.6616 360.885 81.6616C360.418 81.6616 359.958 81.7707 359.54 81.98C359.379 82.0357 359.239 82.1403 359.14 82.2793C359.041 82.4182 358.988 82.5845 358.988 82.755C358.988 82.9256 359.041 83.0919 359.14 83.2308C359.239 83.3697 359.379 83.4743 359.54 83.53Z" fill="black"/>
<path d="M156.646 116.354C163.631 123.338 163.631 134.662 156.646 141.646C149.662 148.631 138.338 148.631 131.354 141.646C124.369 134.662 124.369 123.338 131.354 116.354C138.338 109.369 149.662 109.369 156.646 116.354Z" fill="#B2B3A4" stroke="black"/>
<path opacity="0.15" d="M160.076 120.08C159.934 119.824 159.773 119.578 159.612 119.332C156.813 119.057 153.995 119.62 151.517 120.95C147.942 122.775 144.736 125.99 143.762 128.686C141 128.686 138.447 128.424 136.064 127.239C137.284 123.134 141.871 118.245 147.356 115.256C149.151 114.278 151.055 113.516 153.03 112.987C152.746 112.826 152.444 112.675 152.151 112.533C150.38 113.062 148.669 113.772 147.044 114.651C141.455 117.696 136.764 122.699 135.449 126.945C134.836 126.639 134.24 126.301 133.662 125.934C132.411 125.133 131.284 124.155 130.314 123.03C131.515 119.522 135.326 114.689 140.83 110.906C140.253 111.01 139.695 111.133 139.138 111.284C134.409 114.85 131.099 119.105 129.822 122.397C129.17 121.53 128.645 120.574 128.262 119.559C128.12 119.805 127.959 120.042 127.827 120.288C128.988 122.863 130.891 125.033 133.293 126.52C136.03 128.312 139.198 129.337 142.466 129.489C142.935 129.492 143.404 129.454 143.866 129.376C145.402 131.541 146.3 134.093 146.457 136.743C142.296 137.746 135.761 136.223 130.437 132.96C128.692 131.896 127.083 130.626 125.642 129.177C125.642 129.508 125.642 129.839 125.689 130.17C127.031 131.439 128.502 132.565 130.078 133.528C134.168 136.087 138.856 137.534 143.677 137.727C144.632 137.726 145.583 137.619 146.514 137.405C146.552 138.095 146.552 138.786 146.514 139.476C146.443 140.959 146.16 142.424 145.672 143.827C142.031 144.545 135.932 143.656 129.888 140.772C130.248 141.197 130.626 141.614 131.023 142.011C134.809 143.69 138.885 144.618 143.024 144.744C143.813 144.746 144.6 144.686 145.379 144.564C144.951 145.57 144.381 146.51 143.686 147.354H143.989H144.556C146.192 145.066 147.11 142.344 147.195 139.533C147.403 135.523 146.249 131.135 144.358 128.95C145.469 126.536 147.231 124.48 149.446 123.011C152.396 126.113 154.335 132.535 154.174 138.786C154.126 140.821 153.834 142.844 153.304 144.81C153.588 144.64 153.872 144.479 154.137 144.299C154.57 142.495 154.811 140.65 154.855 138.795C155.016 132.44 153.03 125.877 150.013 122.614C150.581 122.232 151.172 121.885 151.782 121.574C153.101 120.891 154.512 120.404 155.971 120.127C158.402 122.917 160.7 128.638 161.211 135.258C161.409 134.71 161.579 134.161 161.721 133.603C161.003 127.73 158.969 122.718 156.766 119.976C157.868 119.85 158.983 119.885 160.076 120.08Z" fill="black" stroke="black"/>
<path opacity="0.1" d="M136.395 138.701C129.983 133.348 128.186 119.238 134.598 113.214C132.172 114.656 130.111 116.638 128.574 119.006C127.038 121.374 126.068 124.064 125.739 126.867C125.41 129.671 125.732 132.512 126.678 135.171C127.625 137.83 129.172 140.236 131.198 142.2C133.225 144.165 135.677 145.637 138.364 146.501C141.051 147.365 143.901 147.598 146.693 147.183C149.485 146.768 152.143 145.715 154.462 144.106C156.782 142.497 158.699 140.376 160.066 137.906C154.742 143.108 142.816 144.063 136.395 138.701Z" fill="black"/>
<path d="M421.55 153.81C420.1 149.35 419.88 150.41 419.34 146.45C425.15 140.01 433.15 130.24 434.12 126.45C434.5 124.94 434.78 109.86 433.26 107.61C432.71 106.8 431.54 106.36 430.36 105.17C428.44 103.17 427.29 102.24 427.36 101.24C427.49 99.66 430.79 102 431.36 101.59C432.36 100.86 429.3 97.65 427.16 95.47C424.62 92.89 428.62 89.99 432.85 91.57C436.79 93.04 439.39 98.66 440.85 104.65C442.537 111.227 443.786 117.908 444.59 124.65C444.97 127.154 444.513 129.713 443.29 131.93C439.07 138.53 436.92 142.39 430.55 152.22C428.302 155.957 426.42 159.902 424.93 164C423.67 167.8 421.55 153.81 421.55 153.81Z" fill="#9E6767"/>
<path d="M406.22 140.99L406.82 152.11L416.75 151.91L416.48 139.59L406.22 140.99Z" fill="#9E6767"/>
<path d="M405.26 131.82C405.26 130.88 404.01 130.32 403.51 129.69C402.879 128.725 402.646 127.553 402.86 126.42C403.054 125.283 403.39 124.174 403.86 123.12C403.156 123.222 402.439 123.162 401.762 122.943C401.085 122.725 400.468 122.354 399.957 121.86C399.446 121.365 399.055 120.76 398.815 120.091C398.575 119.422 398.491 118.707 398.57 118C398.56 117.808 398.606 117.617 398.702 117.45C398.797 117.284 398.939 117.148 399.11 117.06C399.3 117.01 399.5 117.01 399.69 117.06L402.87 117.69C402.375 117.11 402.059 116.398 401.962 115.642C401.864 114.885 401.988 114.117 402.32 113.43C402.378 113.283 402.489 113.162 402.63 113.09C402.741 113.069 402.855 113.073 402.964 113.103C403.074 113.132 403.175 113.186 403.26 113.26C405.077 114.381 407.176 114.96 409.31 114.93C410.31 114.93 411.22 114.63 412.2 114.55C413.4 114.45 414.59 114.3 415.8 114.28C417.534 114.161 419.266 114.532 420.8 115.35C421.747 115.906 422.495 116.746 422.94 117.75C423.237 118.691 423.415 119.665 423.47 120.65C423.64 121.81 424.09 122.92 424.26 124.1C424.418 125.427 424.485 126.764 424.46 128.1C424.46 133.57 411.59 136.6 411.69 140.36L405.26 131.82Z" fill="black"/>
<path d="M399.39 128.52C399.39 128.52 396.61 131.87 396.88 132.23C397.15 132.59 398.88 132.94 398.88 132.94L399.39 128.52Z" fill="#874C4C"/>
<path d="M406.53 118.47C404.35 119.47 400.58 121.31 399.31 128.99C398 136.87 399.68 139.7 400.73 140.79C401.45 141.52 405.26 141.94 407.29 141.41C409.82 140.75 415.29 138.35 418.05 134.41C421.24 129.73 422.13 123.34 418.79 120.68C417.092 119.32 415.081 118.405 412.94 118.019C410.799 117.633 408.596 117.788 406.53 118.47Z" fill="#9E6767"/>
<path d="M405.6 118.2C404.685 118.494 403.827 118.941 403.06 119.52C402.678 119.812 402.364 120.184 402.14 120.61C401.957 121.007 401.875 121.443 401.9 121.88C401.938 122.476 402.131 123.052 402.461 123.551C402.791 124.049 403.246 124.452 403.78 124.72C403.476 125.1 403.26 125.543 403.148 126.017C403.036 126.491 403.029 126.984 403.13 127.46C403.473 128.568 404.105 129.566 404.96 130.35C405.01 130.4 405.05 130.46 405.12 130.48C405.181 130.489 405.244 130.486 405.304 130.471C405.364 130.455 405.421 130.428 405.47 130.39C406.85 129.55 407.74 128.04 409.61 128.74C412.06 129.66 411.69 132.9 409.67 134.48C409.146 134.939 408.504 135.243 407.817 135.358C407.13 135.473 406.425 135.394 405.78 135.13C405.78 135.13 405.68 139.13 409.09 140.86C411.48 141.672 414.047 141.81 416.51 141.26C417.89 139.65 420.33 137.76 422.07 135.79C426.54 130.73 429.02 120.69 420.35 117.44L419.45 117.13C415.23 115.846 410.693 116.084 406.63 117.8L405.6 118.2Z" fill="black"/>
<path d="M404.69 133.14C404.466 133.048 404.262 132.912 404.09 132.741C403.918 132.57 403.782 132.367 403.689 132.143C403.596 131.919 403.548 131.679 403.548 131.436C403.549 131.194 403.597 130.954 403.69 130.73C403.884 130.274 404.25 129.913 404.709 129.726C405.168 129.539 405.682 129.54 406.14 129.73L404.69 133.14Z" fill="black"/>
<path d="M423.41 120.55C426.35 117.21 431.41 119.21 433.82 122.13C434.924 123.586 435.854 125.167 436.59 126.84C437.331 128.512 438.387 130.026 439.7 131.3C440.365 131.929 441.174 132.384 442.056 132.627C442.939 132.869 443.867 132.891 444.76 132.69C445.76 132.39 446.7 131.69 447.76 131.76C449.28 131.84 450.31 133.45 450.47 134.96C450.553 136.106 450.35 137.254 449.879 138.301C449.407 139.349 448.683 140.263 447.77 140.96C445.97 142.36 443.61 143.69 441.34 143.56C440.115 143.483 438.919 143.148 437.832 142.578C436.745 142.008 435.79 141.214 435.03 140.25C434.78 141.36 436.51 143.98 438.8 144.63C436.36 145.72 433.06 143.29 431.88 141.21C430.691 139.136 430.031 136.8 429.96 134.41C430.07 132.027 429.845 129.64 429.29 127.32C428.58 125.04 426.9 122.89 424.57 122.39C423.94 122.25 423.11 122.08 423.04 121.39C423.041 121.232 423.074 121.076 423.138 120.931C423.201 120.787 423.294 120.657 423.41 120.55Z" fill="black"/>
<path d="M475.21 216.55C473.95 214.1 470.89 213.48 468.91 211.85C467.712 210.899 466.643 209.796 465.73 208.57C464.4 206.76 463.44 204.12 460.73 204.57C457.21 205.1 457.32 207.38 453.48 209C449.64 210.62 437.54 213.58 433.68 215.35C431.766 216.137 429.951 217.144 428.27 218.35L424.91 200.35C425.833 197.866 426.203 195.21 425.996 192.568C425.789 189.925 425.009 187.36 423.71 185.05C421.9 181.55 419.71 178.48 420.19 175.89C420.55 174.46 422.01 172.41 424.37 165.72C427.09 157.97 425.52 150.91 423.57 148.39C421.62 145.87 415.93 146.14 412.13 146.39C409.271 146.618 406.429 147.022 403.62 147.6C403.62 147.6 397.07 151.81 393.72 157.65C390.37 163.49 395.05 168.85 395.05 168.85C395.05 168.85 394.84 172.74 395.05 177.56C395.16 180.29 393.84 182.03 394.26 187.74C388.74 199.55 381.65 215.87 379.8 221.74C377.66 228.56 377.74 230.23 381.06 234.17C383.06 236.48 411.57 261.68 413.52 264.43C415.47 267.18 414.69 275.04 412.52 282.1C411.37 285.91 419.27 285.8 422.19 280.54C424.57 276.27 422.37 273.07 424.5 269.08C426.63 265.09 428.62 262.34 426.12 259.84C423.62 257.34 419.57 257.39 416.31 253.26C413.05 249.13 404.93 234.76 402.31 231.37C400.938 229.48 399.245 227.846 397.31 226.54L406.92 210.98C408.99 215.51 412.71 223.49 415.25 227.98C418.94 234.53 422.52 234.81 425.45 234.24C427.111 233.721 428.695 232.981 430.16 232.04C433.06 230.52 435.92 228.92 438.77 227.32C444.55 224.07 450.15 220.49 456.02 217.41C457.056 216.759 458.268 216.445 459.49 216.51C460.818 216.688 462.08 217.197 463.16 217.99C466.63 220.23 468.93 222.89 471.56 225.6C471.731 225.816 471.956 225.984 472.212 226.087C472.468 226.19 472.746 226.226 473.02 226.19C473.404 226.086 473.756 225.888 474.044 225.614C474.332 225.34 474.547 224.998 474.67 224.62C475.187 223.139 475.522 221.601 475.67 220.04C475.843 218.856 475.684 217.648 475.21 216.55Z" fill="#9E6767"/>
<path d="M398.15 162.87L401.04 159.51L399.16 165.96L398.15 162.87Z" fill="#874C4C"/>
<path d="M421.36 189.79C421.96 196.72 413.63 200.09 413.63 200.09L406.92 210.94C408.42 214.23 410.8 219.34 412.92 223.62C411.35 219.29 409.19 211.13 409.19 211.13L415.3 201.82C421.36 198.88 422.31 192.5 421.36 189.79Z" fill="#874C4C"/>
<path d="M407.77 190.68C409.366 191.734 410.716 193.121 411.728 194.745C412.739 196.369 413.388 198.192 413.63 200.09L412.55 201.82C413.474 201.961 414.415 201.961 415.34 201.82C424.92 198.03 425.72 190.39 425.72 190.39C425.372 188.506 424.695 186.698 423.72 185.05L423.35 184.35C422.262 184.984 421.045 185.36 419.79 185.45C415.86 185.85 409.58 185.37 403.61 185.11C400.286 184.843 396.977 185.764 394.27 187.71L394.21 187.84L392.59 191.35L392.52 191.49C393.17 190.13 402.24 186.86 407.77 190.68Z" fill="#EBC556"/>
<path opacity="0.1" d="M421.36 189.79C421.96 196.72 413.63 200.09 413.63 200.09L412.55 201.82C413.474 201.961 414.415 201.961 415.34 201.82C421.36 198.88 422.31 192.5 421.36 189.79Z" fill="black"/>
<path d="M403.65 147.57C403.65 147.57 396.94 151.74 393.59 157.57C390.24 163.4 394.87 168.78 394.87 168.78V173.18C399.197 174.326 403.653 174.918 408.13 174.94C411.202 174.861 414.263 174.526 417.28 173.94C418.536 173.818 419.799 173.782 421.06 173.83C421.06 173.83 422.9 169.93 424.38 165.74C424.58 165.16 424.75 164.59 424.91 164.02C423.19 165.22 418.65 164.83 416.73 165.02C414.81 165.21 410.45 165.38 406.82 165.62C403.19 165.86 396.56 164.62 397.39 159.71C398.22 154.8 403.65 147.57 403.65 147.57Z" fill="#EBC556"/>
<path d="M416.75 146.23C417.32 153.16 413.59 161.82 409.09 167.23L411.75 166.83C411.75 166.83 418.93 157.73 419.34 146.48C418.504 146.216 417.621 146.131 416.75 146.23Z" fill="#EBC556"/>
<path d="M406.55 147C406.55 147 419.34 153.24 423.12 165.76H420.91C420.91 165.76 420.07 161.23 414.77 155.49C410.77 151.13 403.65 147.49 403.65 147.49C404.566 147.106 405.558 146.938 406.55 147Z" fill="#EBC556"/>
<path opacity="0.1" d="M417.12 167.2C416.7 167.34 414.3 171.2 414.02 174.95C413.74 178.7 416.34 182.51 416.75 182.26C417.16 182.01 416.08 178.85 416.33 175.81C416.58 172.77 418.53 166.74 417.12 167.2Z" fill="black"/>
<path d="M403.65 147.57C397.84 146.23 394.65 146.19 390.39 151.57C385.02 158.36 378.69 167.46 376.56 168.84C375.25 169.69 360.56 173.26 357.99 172.39C357.06 172.07 356.33 171.06 354.87 170.24C352.48 168.9 351.23 168.05 350.28 168.39C348.79 168.93 351.93 171.5 351.67 172.13C351.22 173.25 347.33 171.13 344.67 169.68C341.51 167.91 339.76 172.53 342.4 176.21C344.86 179.62 350.97 180.65 357.13 180.5C364.208 180.407 371.275 179.882 378.29 178.93C380.599 178.483 382.755 177.45 384.55 175.93C390.16 171.39 391.03 170.93 398.84 162.17C404.28 156 403.65 147.57 403.65 147.57Z" fill="#9E6767"/>
<path d="M317.63 274.66C324.88 275.28 325.5 275.82 330.43 284.27C335.51 292.99 339.43 299.1 339.9 301.17C340.37 303.24 341.08 304.74 336.35 307.45C332.35 309.73 318.35 312.4 318.35 312.4L317.23 304.24L326.58 299.75L318.58 289.9L317.63 274.66Z" fill="#B16668"/>
<path d="M323.3 301.34L317.3 304.24L318.42 312.4C318.42 312.4 320.95 311.92 324.15 311.19C323.84 308.65 323.39 304 323.3 301.34Z" fill="#9A4A4D"/>
<path d="M324.1 296.66C324.01 296.55 324.98 289.59 323.56 284.21L319.67 291.21L324.1 296.64V296.66Z" fill="#9A4A4D"/>
<path d="M326.61 299.75L328.39 302.1L325.39 300.34L326.61 299.75Z" fill="#9A4A4D"/>
<path d="M299.81 267.98L299.8 279.06L312.5 278.78L312.12 266.29L299.81 267.98Z" fill="#B16668"/>
<path d="M343.92 415.16C344.17 413.25 345.07 411.33 344.54 409.48C344.059 408.201 343.188 407.106 342.05 406.35C341.605 406.073 341.178 405.769 340.77 405.44C340.42 405.073 340.117 404.663 339.87 404.22C339.307 403.353 338.819 402.44 338.41 401.49C338.16 400.91 337.76 399.8 337.33 398.49C336.86 397.01 335.87 393.94 334.79 390.68C333.49 386.74 332.08 382.53 331.32 380.58C329.12 374.93 328.61 373.91 324.46 369.96C324.46 369.96 324.67 344.26 324.46 334.21C324.255 330.479 323.814 326.765 323.14 323.09C322.337 317.797 322.029 312.44 322.22 307.09C322.35 302.43 322.46 299.43 323.06 294.17C323.93 286.55 323.65 281.17 322.8 279.17C321.48 276.07 321.41 275.52 316.47 274.39C315.59 274.19 312.87 273.75 311.96 273.47C311.5 275.34 306.96 275.65 302.05 274.47C300.58 274.85 295.56 276.63 294.33 277.04C290.82 278.2 287.75 283.68 287.26 293.53C286.77 303.38 286.26 320.53 286.05 325.26C285.84 329.99 284.17 351.57 283.73 368.78C283.63 372.68 283.82 376.59 284.12 382.51C284.4 388.18 284.83 411.05 284.87 413.78C284.87 415.7 284.93 417.72 284.93 417.72C282.431 418.781 279.831 419.585 277.17 420.12C274.72 420.43 272.24 420.43 269.79 420.12C269.075 419.951 268.328 419.982 267.63 420.21C266.11 420.91 266.63 423.04 267.1 424.21C267.72 425.581 268.85 426.657 270.25 427.21C273.25 428.54 276.35 428.15 279.52 428.21C281.86 428.22 284.198 428.371 286.52 428.66C288.028 429.075 289.585 429.287 291.15 429.29C292.58 429.21 294.32 428.79 294.6 427.91C294.979 426.689 295.044 425.393 294.79 424.14C294.6 422.43 294.16 421.14 294.16 419.8C294.16 417.85 296.11 407.22 298.05 398.07C299.2 392.64 300.14 388.48 300.3 385.43C300.5 381.71 300.54 377.95 299.35 374.36L305.77 346C305.77 346 307.64 361.76 308.77 369.75C309.01 372.072 309.761 374.313 310.97 376.31C312.33 378.85 318.66 387.66 324.44 396.36C327.07 400.36 333.25 408.03 333.79 409.08C335.11 411.65 335.19 413.08 334.97 415.97C334.9 416.9 334.91 417.97 333.97 418.2C333.39 418.36 332.85 418.67 332.28 418.86C331.668 419.07 331.043 419.24 330.41 419.37C330.046 419.409 329.7 419.548 329.41 419.77C329.241 419.961 329.133 420.198 329.1 420.451C329.066 420.704 329.108 420.961 329.22 421.19C329.416 421.636 329.718 422.027 330.1 422.33C330.764 422.792 331.475 423.184 332.22 423.5C332.932 423.862 333.684 424.14 334.46 424.33C335.475 424.627 336.54 424.712 337.59 424.58C339.15 424.32 340.47 423.31 341.89 422.66C342.488 422.462 343.041 422.15 343.52 421.74C344.023 421.196 344.298 420.48 344.29 419.74C344.288 419.017 344.211 418.297 344.06 417.59C343.893 416.791 343.846 415.972 343.92 415.16Z" fill="#B16668"/>
<path d="M341.8 422.69C342.398 422.492 342.951 422.18 343.43 421.77C343.933 421.226 344.208 420.51 344.2 419.77C344.198 419.047 344.121 418.327 343.97 417.62C343.828 416.801 343.812 415.964 343.92 415.14C344.17 413.23 345.07 411.31 344.54 409.46C344.538 409.427 344.538 409.393 344.54 409.36C344.294 409.112 343.973 408.954 343.626 408.91C343.28 408.867 342.929 408.941 342.63 409.12C340.36 410.28 339.5 411.84 339.36 415.67C339.22 419.5 339.26 422.82 336.82 423.87C336.067 424.161 335.259 424.28 334.454 424.218C333.649 424.156 332.869 423.914 332.17 423.51C332.882 423.872 333.634 424.15 334.41 424.34C335.425 424.637 336.49 424.722 337.54 424.59C339.06 424.35 340.38 423.34 341.8 422.69Z" fill="#9A4A4D"/>
<path d="M286.61 309.88C288.82 305.251 290.584 300.423 291.88 295.46L286.69 304.87L286.61 309.88Z" fill="#9A4A4D"/>
<path d="M286.09 324.28C290.47 326.44 304.2 326.47 312.09 325.28C319.98 324.09 322.93 321.39 322.93 321.39C323.917 324.923 324.685 328.513 325.23 332.14C325.82 336.84 325.23 363.31 325.23 363.31C325.23 363.31 320.11 369.2 305.71 365.67V351.94L301.9 368.41C298.486 369.329 294.924 369.561 291.42 369.09C287.916 368.62 284.541 367.457 281.49 365.67L286.09 324.28Z" fill="#455A64"/>
<path d="M305.66 351.94L307.73 342.94C307.73 342.94 315.25 342.4 319.34 335.88C319.34 335.88 319.08 342.62 309.67 344.88L307.13 353.61L305.66 365.61V351.94Z" fill="#37474F"/>
<path d="M293.93 254.16C293.93 254.16 290.83 258.16 291.13 258.65C291.43 259.14 293.49 259.58 293.49 259.58L293.93 254.16Z" fill="#9A4A4D"/>
<path d="M301.79 243.52C296.45 244.34 294.79 246.58 293.79 254.95C292.79 263.69 293.53 266.49 294.62 267.74C295.35 268.58 299.62 268.96 301.88 268.47C304.65 267.87 310.93 266.03 314.06 261.77C317.74 256.77 319.06 249.77 315.54 246.7C310.7 242.36 304 243.18 301.79 243.52Z" fill="#B16668"/>
<path d="M299.81 268.68C301.232 268.654 302.643 268.425 304 268C302.787 268.927 301.339 269.498 299.82 269.65L299.81 268.68Z" fill="#9A4A4D"/>
<path d="M293.24 246.3C293.621 246.732 294.055 247.115 294.53 247.44C295.211 247.939 295.926 248.39 296.67 248.79C297.4 249.097 298.1 249.472 298.76 249.91C299.148 250.245 299.443 250.673 299.618 251.155C299.793 251.636 299.842 252.154 299.76 252.66C299.76 253.38 299.68 254.28 299.64 255.25C299.58 256.7 300.45 257.86 301.01 255.94C301.01 255.94 302.01 252.74 304.73 253.3C307.45 253.86 307.51 256.95 306.07 259.3C305.2 260.73 303.07 260.23 303.07 260.23C303.198 263.013 304.291 265.664 306.16 267.73C306.16 267.73 307.84 268.73 312.16 268.04C315.32 264.15 317.07 262.55 318.83 259.14C322.55 251.93 321.21 247.2 318.74 245.14C318.42 241.7 315.82 240.03 312.8 239.14C308.29 237.84 303.86 240.32 299.39 239.06C298.67 238.85 297.92 238.63 297.22 238.36C297.086 238.284 296.939 238.235 296.786 238.216C296.633 238.197 296.478 238.209 296.33 238.25C296.16 238.351 296.024 238.499 295.939 238.677C295.853 238.855 295.822 239.055 295.85 239.25C295.859 239.69 295.973 240.121 296.184 240.508C296.394 240.894 296.695 241.224 297.06 241.47C296.97 241.41 296.52 241.47 296.4 241.47H295.64C295.143 241.441 294.648 241.378 294.16 241.28C293.829 241.219 293.491 241.219 293.16 241.28C292.784 241.406 292.458 241.648 292.23 241.972C292.001 242.296 291.882 242.684 291.89 243.08C291.925 243.873 292.163 244.644 292.58 245.32C292.735 245.603 292.905 245.876 293.09 246.14C293.136 246.197 293.186 246.25 293.24 246.3Z" fill="black"/>
<path d="M318.78 246.24L322.05 244.55C321.939 244.335 321.787 244.145 321.602 243.989C321.418 243.833 321.204 243.715 320.974 243.641C320.743 243.568 320.501 243.541 320.26 243.561C320.019 243.581 319.785 243.649 319.57 243.76C319.355 243.871 319.165 244.023 319.009 244.208C318.853 244.393 318.735 244.606 318.662 244.836C318.588 245.067 318.561 245.309 318.581 245.55C318.602 245.791 318.669 246.025 318.78 246.24Z" fill="black"/>
<path d="M298.14 275.74C294.56 276.36 289.65 276.06 286.33 278.1C284.1 279.47 281.91 281.81 280.62 286.58C279.4 291.07 275.01 300.35 273.07 304.37C268.81 306.3 259.71 306.84 255.83 306C255.069 305.84 254.392 305.406 253.93 304.78C252.7 303.04 251.45 302.98 249.93 301.78C248.77 300.78 248.23 299.87 247.93 300.03C247.63 300.19 247 301.12 247.48 302.37C248.033 303.278 248.665 304.135 249.37 304.93C248.3 305.05 245.54 303.93 242.86 302.11C239.61 299.9 238.91 300.44 239.2 305.43C239.39 308.57 241.82 311.21 248.46 312.96C251.245 313.6 254.067 314.064 256.91 314.35C263.33 315.03 273 315.65 277.55 314.88C280.62 314.35 280.89 313.17 282.91 310.6C286.82 305.6 291.91 295.51 291.91 295.51C296.63 288 299.26 279.94 298.14 275.74Z" fill="#B16668"/>
<path d="M98.131 37.567C94.741 36.9887 91.3059 36.7155 87.867 36.7505C84.424 36.7092 80.9845 36.9825 77.5913 37.567C80.9856 38.1419 84.4246 38.4113 87.867 38.3718C91.3053 38.405 94.7399 38.1357 98.131 37.567Z" fill="#FFC727"/>
<path d="M46.0292 5.88846C46.5994 0.593262 46.8681 -4.73007 46.834 -10.0558C46.8744 -15.3816 46.6057 -20.7053 46.0292 -26C45.4487 -20.7055 45.1761 -15.3818 45.2127 -10.0558C45.1825 -4.72985 45.455 0.593481 46.0292 5.88846Z" fill="#FFC727"/>
<path d="M61.8335 10.1457C64.0489 7.46554 66.0201 4.59261 67.7236 1.56125C69.4972 -1.43255 71 -4.57867 72.2141 -7.83966C67.8458 -2.41664 64.3441 3.65044 61.8335 10.1457Z" fill="#FFC727"/>
<path d="M73.3804 21.7394C78.257 19.5958 83.0044 17.1695 87.5984 14.4729C92.2312 11.8361 96.706 8.9308 101 5.77185C96.1247 7.91474 91.3809 10.3451 86.7936 13.05C82.1587 15.6854 77.6802 18.5868 73.3804 21.7394Z" fill="#FFC727"/>
<path d="M14.3503 37.4503C10.9592 36.8812 7.52464 36.6119 4.08631 36.6455C0.647762 36.6056 -2.78743 36.8749 -6.17773 37.4503C-2.7885 38.0353 0.647217 38.3086 4.08631 38.2668C7.52519 38.3023 10.9603 38.0291 14.3503 37.4503Z" fill="#FFC727"/>
<path d="M18.6195 21.646C14.3164 18.5054 9.83806 15.612 5.20633 12.9799C0.614016 10.2841 -4.12922 7.85406 -9 5.70178C-4.70832 8.8568 -0.233289 11.7545 4.40154 14.3795C8.9968 17.0738 13.7441 19.5 18.6195 21.646Z" fill="#FFC727"/>
<path d="M30.213 10.099C28.9931 6.86483 27.4945 3.74278 25.7342 0.768039C24.0465 -2.25204 22.0949 -5.11691 19.9023 -7.79309C21.1104 -4.55387 22.6094 -1.43078 24.3812 1.53784C26.0689 4.55792 28.0205 7.42279 30.213 10.099Z" fill="#FFC727"/>
<path d="M45.9709 69.1988C45.4003 74.494 45.1316 79.8173 45.1661 85.143C45.1256 90.4689 45.3943 95.7926 45.9709 101.087C46.5513 95.7928 46.8239 90.4691 46.7873 85.143C46.8178 79.8171 46.5453 74.4937 45.9709 69.1988Z" fill="#FFC727"/>
<path d="M30.1433 64.9415C25.772 70.3582 22.2699 76.4219 19.7627 82.9152C21.9781 80.2351 23.9493 77.3621 25.6528 74.3308C27.4241 71.3398 28.9268 68.1978 30.1433 64.9415Z" fill="#FFC727"/>
<path d="M18.6195 53.3479C13.7446 55.4863 8.99735 57.9047 4.40154 60.591C-0.233289 63.2161 -4.70832 66.1138 -9 69.2688C-4.12922 67.1165 0.614016 64.6865 5.20633 61.9907C9.83749 59.3661 14.3158 56.4806 18.6195 53.3479Z" fill="#FFC727"/>
<path d="M73.3804 53.4295C77.6806 56.5779 82.1592 59.4754 86.7936 62.1073C91.3859 64.8031 96.1291 67.2331 101 69.3854C96.7082 66.2304 92.2332 63.3327 87.5984 60.7076C83.0021 58.0118 78.2549 55.5817 73.3804 53.4295Z" fill="#FFC727"/>
<path d="M61.7866 64.9882C63.0066 68.2224 64.5051 71.3444 66.2655 74.3192C67.9505 77.3372 69.9022 80.1985 72.0973 82.8686C70.8876 79.6301 69.3886 76.5072 67.6185 73.5377C65.9301 70.5216 63.9786 67.6607 61.7866 64.9882Z" fill="#FFC727"/>
<path d="M46.006 62.8538C59.9844 62.8538 71.3161 51.5221 71.3161 37.5437C71.3161 23.5653 59.9844 12.2335 46.006 12.2335C32.0276 12.2335 20.6958 23.5653 20.6958 37.5437C20.6958 51.5221 32.0276 62.8538 46.006 62.8538Z" fill="#FFC727"/>
<path d="M76.06 76.1517L71.06 79.0117C71.0749 78.792 71.0749 78.5715 71.06 78.3517V76.9217C71.06 74.3617 69.27 73.3217 67.06 74.6017C66.1073 75.1877 65.2921 75.9722 64.67 76.9017C64.31 73.6917 61.79 72.4917 58.73 74.2617C56.9843 75.3985 55.5313 76.9308 54.4888 78.7343C53.4463 80.5378 52.8437 82.5617 52.73 84.6417V86.7917C52.7059 87.6467 52.8805 88.4956 53.24 89.2717L49.22 91.6517C48.5744 92.0749 48.0372 92.6437 47.6516 93.3124C47.266 93.9811 47.0428 94.731 47 95.5017C47 96.9217 48 97.5017 49.22 96.7817L76.08 81.2817C76.7236 80.8582 77.2582 80.2888 77.6404 79.6198C78.0227 78.9509 78.2418 78.2013 78.28 77.4317C78.28 76.0117 77.29 75.4317 76.06 76.1517Z" fill="#EBEBEB"/>
<path d="M111.05 38.0717L105.37 41.3417C105.385 41.0919 105.385 40.8415 105.37 40.5917V38.9517C105.37 36.0217 103.31 34.8417 100.78 36.3017C99.6885 36.9679 98.7566 37.8657 98.0502 38.9317C97.6302 35.2517 94.7502 33.9317 91.2402 35.9317C89.2425 37.2348 87.5803 38.9905 86.3884 41.0564C85.1965 43.1223 84.5085 45.4401 84.3802 47.8217V50.2817C84.3561 51.2633 84.5544 52.2376 84.9602 53.1317L80.2402 55.8517C79.5008 56.3363 78.8857 56.9879 78.4445 57.754C78.0033 58.52 77.7483 59.379 77.7002 60.2617C77.7002 61.8817 78.8402 62.5417 80.2402 61.7317L111 43.9717C111.739 43.4893 112.354 42.8396 112.796 42.0751C113.237 41.3107 113.492 40.4531 113.54 39.5717C113.59 37.9117 112.45 37.2517 111.05 38.0717Z" fill="#EBEBEB"/>
</g>
<defs>
<clipPath id="clip0_620_628">
<rect width="500" height="500" fill="white"/>
</clipPath>
</defs>
</svg>
