<svg width="39" height="39" viewBox="0 0 39 39" fill="none" xmlns="http://www.w3.org/2000/svg">
<path d="M19.4898 38.84C30.2152 38.84 38.9098 30.1454 38.9098 19.42C38.9098 8.69463 30.2152 0 19.4898 0C8.76445 0 0.0698242 8.69463 0.0698242 19.42C0.0698242 30.1454 8.76445 38.84 19.4898 38.84Z" fill="black"/>
<path opacity="0.6" d="M2.5498 11.8399C3.91906 8.77994 6.09152 6.14796 8.83647 4.2235C11.5814 2.29905 14.7963 1.15398 18.1398 0.909912C18.5251 2.61829 18.809 4.34797 18.9898 6.0899L18.3298 6.21991L17.9998 6.28991L17.5498 6.37991L16.6898 6.56991H16.6398C15.7498 6.75991 14.8698 6.98991 13.9698 7.24991C13.6674 7.31554 13.37 7.40242 13.0798 7.50991L12.7498 7.59991L11.7498 7.91991L11.1398 8.11991C10.9798 8.17991 10.7998 8.22991 10.6298 8.29991H10.5598C10.2698 8.38991 9.9498 8.49991 9.5598 8.63991L8.7998 8.92991L8.59981 9.00991L8.1398 9.19991C7.8498 9.29991 7.55981 9.41991 7.26981 9.53991L7.0898 9.62991L6.8298 9.72991L6.4498 9.89991C6.0298 10.0799 5.6598 10.2499 5.2798 10.4299C4.8998 10.6099 4.36979 10.8599 3.78979 11.1499L3.6498 11.2199C3.2598 11.4599 2.9098 11.6499 2.5498 11.8399Z" fill="white"/>
<path opacity="0.6" d="M2.99959 27.9999C2.02149 26.1492 1.37186 24.1428 1.07959 22.0699L1.16959 22.0099L2.43959 21.1499H2.48959L3.74959 20.3699L4.50958 19.9299L4.68959 19.8199L4.83958 19.7299L4.91959 19.6799L5.34959 19.4399L5.65959 19.2599L5.91959 19.1199L6.12959 19.0099L7.12959 18.4999L7.5696 18.2899L7.74959 18.1999L8.52959 17.8299C8.88959 17.6499 9.23959 17.4999 9.59959 17.3499L9.93959 17.1999C10.2529 17.0599 10.5629 16.9299 10.8696 16.8099H10.9596H11.0696L11.5296 16.6299L12.6496 16.1999L13.5296 15.8999L13.9796 15.7499L14.1496 15.6899L15.0896 15.3899H15.1896L15.4796 15.2999L16.1896 15.0899L16.6196 14.9699H16.7296C17.3896 14.7899 18.1096 14.6099 18.9096 14.4399C18.8196 15.4399 18.6896 16.4399 18.5396 17.3499C18.3596 18.4999 18.1296 19.6499 17.8396 20.7999C16.5196 21.1699 15.2496 21.5799 14.0796 22.0299C10.116 23.4715 6.38353 25.4826 2.99959 27.9999Z" fill="white"/>
<path d="M0.999789 20.9C0.999789 20.4 0.939791 19.9 0.939791 19.42C0.927217 17.3579 1.26537 15.3087 1.93979 13.36L2.42978 13.09L2.73979 12.92L2.85979 12.85C3.27979 12.63 3.68979 12.41 4.10979 12.21L4.52979 12C4.92979 11.8 5.26979 11.64 5.59979 11.5C5.92979 11.36 6.32979 11.15 6.71979 10.99C6.76093 10.9656 6.8045 10.9455 6.84979 10.93L6.99979 10.86L7.41979 10.68L7.54979 10.62C7.82979 10.5 8.10979 10.38 8.40979 10.28L8.85979 10.1H8.93979C9.17979 10 9.44978 9.89003 9.72978 9.80003H9.79979L10.7998 9.43003L11.2898 9.27003L11.9998 9.00003C12.3298 8.88003 12.6498 8.78003 12.9998 8.68003H13.0898H13.1698H13.2598L14.0698 8.44003H14.1198C15.0098 8.19003 15.8898 7.96003 16.8098 7.74003H16.8698L17.6298 7.57003L18.4998 7.38003L19.0498 7.28003C19.1933 9.27745 19.1933 11.2826 19.0498 13.28C18.1098 13.48 17.2898 13.68 16.5698 13.87H16.4598H16.3398C15.9798 13.97 15.5998 14.07 15.2398 14.19L15.0298 14.25H14.9298C14.5698 14.35 14.2298 14.46 13.8598 14.59L13.2698 14.78C12.9598 14.88 12.6598 14.99 12.3498 15.11L11.2298 15.53L10.7798 15.7H10.6498L10.5398 15.75L9.58979 16.15L9.0998 16.36C8.7798 16.5 8.45979 16.64 8.15979 16.79C7.85979 16.94 7.48979 17.1 7.15979 17.27L6.69979 17.49L6.38979 17.65L5.72978 18L5.46979 18.14L5.25978 18.25L5.04979 18.36L4.51979 18.67H4.4598L4.38979 18.73L3.99979 19L3.23979 19.46L2.90979 19.67L2.55979 19.88L1.90979 20.29L0.999789 20.9Z" fill="white"/>
<path opacity="0.6" d="M19.4896 38C16.2838 37.9998 13.1325 37.171 10.3414 35.5941C7.55033 34.0172 5.21415 31.7457 3.55957 29C4.88572 27.9894 6.26792 27.0545 7.69957 26.2L7.86957 26.39C7.92957 26.47 7.99957 26.54 8.07957 26.63L8.20958 26.77L8.50957 27.11L8.58957 27.18C8.81404 27.4507 9.05447 27.7078 9.30957 27.95L9.35957 28.01C9.39388 28.0553 9.43426 28.0956 9.47957 28.13C9.67957 28.35 9.91958 28.59 10.1596 28.84L10.4096 29.09C11.0696 29.74 11.7796 30.42 12.5296 31.09L12.6296 31.18C12.9296 31.46 13.2596 31.75 13.6296 32.05L14.2696 32.59L14.3596 32.67H14.4296L15.2196 33.32L15.3296 33.4L16.4896 34.3L16.6196 34.39L16.6996 34.45C16.9696 34.65 17.2396 34.85 17.5096 35.03L17.7496 35.2C18.0096 35.4 18.2296 35.55 18.4096 35.67L18.5096 35.73C18.9296 36.02 19.3596 36.31 19.7996 36.59L19.8896 36.65C20.2896 36.91 20.6996 37.17 21.0996 37.41L21.2096 37.48L21.7796 37.82C21.021 37.9297 20.256 37.9898 19.4896 38Z" fill="white"/>
<path opacity="0.6" d="M24.83 21.7801C23.005 20.3548 21.2962 18.7865 19.72 17.0901C19.9 15.9601 20.04 14.8001 20.12 13.6401C20.3151 11.2541 20.3151 8.85613 20.12 6.47011C19.9475 4.58377 19.6569 2.7101 19.25 0.860107H19.53C21.5512 0.86813 23.5576 1.2059 25.47 1.86011V1.9901C25.47 2.2001 25.54 2.40011 25.57 2.61011C25.6 2.82011 25.65 3.14011 25.69 3.41011L25.8 4.22011C25.8 4.42011 25.85 4.6101 25.87 4.8101C25.89 5.0101 25.93 5.41011 25.96 5.71011L26.07 7.04011C26.07 7.28011 26.07 7.5201 26.07 7.7701V8.60011C26.07 8.82011 26.07 9.04011 26.07 9.26011C26.07 9.48011 26.07 9.81011 26.07 10.0801V10.8401C26.07 11.0601 26.07 11.2801 26.07 11.5001C26.07 11.7201 26.07 12.1101 26.07 12.4201V13.0001C26.07 13.2401 26.07 13.4801 26.07 13.7201C26.07 14.1401 26 14.5701 25.96 14.9901V15.3301C25.96 15.5401 25.96 15.7501 25.9 15.9601C25.84 16.1701 25.82 16.6101 25.77 16.9601L25.72 17.2701V17.6101C25.72 17.8001 25.72 18.0001 25.64 18.2001C25.57 18.6301 25.49 19.0601 25.41 19.4901L25.33 19.9001L25.24 20.4101C25.05 20.8401 24.94 21.3101 24.83 21.7801Z" fill="white"/>
<path d="M22.86 37.23L21.8 36.61L21.7 36.54C21.29 36.3 20.89 36.04 20.5 35.79L20.41 35.73C19.99 35.46 19.57 35.17 19.14 34.88L18.8999 34.71C18.6999 34.58 18.51 34.44 18.32 34.3C18.13 34.16 17.68 33.85 17.32 33.62L17.2299 33.55L17.11 33.46L15.9799 32.58L15.6499 32.32L15.02 31.81L14.64 31.49L14.3699 31.27C13.9999 30.95 13.64 30.64 13.3 30.33C12.63 29.74 11.93 29.07 11.21 28.33L11.05 28.17C10.79 27.92 10.5399 27.66 10.2899 27.39L10.19 27.29C9.90996 27.01 9.65995 26.74 9.41995 26.47C9.17995 26.2 9.18995 26.23 9.08995 26.11V26.05H9.01996L8.70996 25.7C10.4856 24.6675 12.3338 23.7651 14.24 23C18.3625 27.3778 23.2362 30.9815 28.63 33.64H28.7599C29.2999 33.91 29.84 34.17 30.39 34.41C28.3008 35.9308 25.9163 36.997 23.39 37.54L22.86 37.23Z" fill="white"/>
<path d="M30.9997 25.8C29.1671 24.8205 27.4091 23.7075 25.7397 22.47C25.8797 21.93 26.0397 21.25 26.1697 20.57C26.1697 20.39 26.2397 20.22 26.2697 20.04L26.3897 19.4C26.4597 19.04 26.5297 18.68 26.5897 18.31L26.7697 17C26.7697 16.68 26.8597 16.36 26.8897 16L26.9497 15.35L27.0197 14.53C27.0197 14.27 27.0197 14 27.0897 13.73C27.1597 13.46 27.0897 13.28 27.0897 13.05V12.16V11.45V9.21001V8.50001V8.06001V7.50001C27.0897 7.32001 27.0897 7.13 27.0897 6.95C27.0897 6.77 27.0897 6.43001 27.0197 6.17001L26.9497 5.35001L26.8897 4.68001L26.7997 3.99001C26.7997 3.84001 26.6797 3.16001 26.6797 3.16001C26.6797 2.91001 26.6197 2.67001 26.5797 2.42001C26.5797 2.42001 26.5797 2.31001 26.5797 2.26001C29.0078 3.27271 31.1953 4.78556 32.9997 6.7C32.9997 6.97 32.9997 7.19001 32.9997 7.43001C32.9997 7.67001 32.9997 8.07001 32.9997 8.43001C32.9997 8.79001 32.9997 8.79001 32.9997 8.96001V9.18001C32.9997 9.48001 32.9997 9.79001 32.9997 10.11C32.9997 10.43 32.9997 10.75 32.9997 11.11C32.9997 11.47 32.9997 11.72 32.9997 12.01V12.89V13.31V14.41C32.9961 14.4533 32.9961 14.4968 32.9997 14.54C32.9997 14.66 32.9997 14.81 32.9997 14.96L32.9397 15.67L32.8797 16.28V16.44L32.7597 17.44C32.7597 17.77 32.6797 18.09 32.6297 18.44C32.5797 18.79 32.5197 19.12 32.4697 19.44C32.3597 20.14 32.2497 20.8 32.1097 21.44C32.0497 21.79 31.9797 22.11 31.9097 22.44C31.8397 22.77 31.7897 23 31.7097 23.28C31.6812 23.4385 31.6445 23.5953 31.5997 23.75V23.89C31.4897 24.32 31.3797 24.75 31.2697 25.15C31.1697 25.2 31.0497 25.65 30.9997 25.8Z" fill="white"/>
<path opacity="0.6" d="M31.3396 33.7099C30.6696 33.4099 29.9596 33.0899 29.2496 32.7099L29.1896 32.6399H29.1096C23.9569 30.0976 19.287 26.6763 15.3096 22.5299C16.3596 22.1499 17.4296 21.8099 18.4896 21.5299H18.6396L18.7096 21.4199L18.8096 21.3199C18.8449 21.2764 18.869 21.2249 18.8796 21.1699C19.1096 20.2899 19.3096 19.3599 19.4796 18.3899C21.1238 20.1165 22.9101 21.7021 24.8196 23.1299C26.7933 24.5943 28.8874 25.8889 31.0796 26.9999C32.4839 27.7411 33.9258 28.4086 35.3996 28.9999C34.3234 30.789 32.9505 32.3817 31.3396 33.7099Z" fill="white"/>
<path opacity="0.6" d="M35.9199 28.05C34.5899 27.54 33.2599 26.95 31.9199 26.3C31.9999 26.02 32.0799 25.75 32.1499 25.48L32.3199 24.84L32.4699 24.22V24.1C32.5299 23.88 32.5699 23.71 32.5999 23.54C32.6299 23.37 32.7299 22.98 32.7799 22.71V22.63C32.8499 22.31 32.9199 22 32.9699 21.68C33.0999 21.08 33.2299 20.41 33.3399 19.68C33.4099 19.27 33.4599 18.95 33.5099 18.62C33.5599 18.29 33.5999 17.95 33.6399 17.62C33.6799 17.29 33.7299 16.9 33.7599 16.62L33.8399 15.88L33.9999 15V14.65V14.54C34.0599 13.99 34.0899 13.46 34.0999 12.85C34.0999 12.56 34.0999 12.26 34.0999 11.96V11.76C34.0999 11.52 34.0999 11.29 34.0999 11.06C34.0999 10.3 34.0999 9.68 34.0999 9.06V8.86C34.0999 8.66 34.0999 8.47 34.0999 8.26V8C36.2813 10.8129 37.6087 14.1932 37.9243 17.7388C38.2398 21.2844 37.5302 24.8461 35.8799 28L35.9199 28.05Z" fill="white"/>
</svg>
