<svg width="151" height="140" viewBox="0 0 151 140" fill="none" xmlns="http://www.w3.org/2000/svg">
<g filter="url(#filter0_ddd_481_3156)">
<path d="M19.9294 125C19.636 125 19.4894 124.853 19.4894 124.56L19.2894 120.36C19.2894 120.227 19.2094 120.16 19.0494 120.16H13.4094C13.276 120.16 13.1827 120.227 13.1294 120.36L11.8894 124.56C11.8094 124.853 11.6227 125 11.3294 125H7.80938C7.46271 125 7.34271 124.827 7.44937 124.48L16.4894 97.44C16.5694 97.1467 16.756 97 17.0494 97H21.1694C21.4627 97 21.6094 97.1467 21.6094 97.44L24.0494 124.48V124.56C24.0494 124.853 23.8894 125 23.5694 125H19.9294ZM14.3294 116.32C14.3027 116.453 14.3694 116.52 14.5294 116.52H18.8094C18.9694 116.52 19.0494 116.453 19.0494 116.32L18.3294 103.68C18.3294 103.6 18.3027 103.56 18.2494 103.56C18.196 103.56 18.1427 103.6 18.0894 103.68L14.3294 116.32ZM41.68 97C41.8133 97 41.92 97.0533 42 97.16C42.08 97.24 42.1067 97.3467 42.08 97.48L41.72 100.52C41.6933 100.653 41.6267 100.773 41.52 100.88C41.44 100.96 41.3333 101 41.2 101H36.28C36.1733 101 36.0933 101.067 36.04 101.2L33.2 124.52C33.1733 124.653 33.1067 124.773 33 124.88C32.92 124.96 32.8133 125 32.68 125H29.08C28.9467 125 28.84 124.96 28.76 124.88C28.68 124.773 28.6533 124.653 28.68 124.52L31.56 101.2C31.56 101.067 31.4933 101 31.36 101H26.72C26.5867 101 26.48 100.96 26.4 100.88C26.32 100.773 26.2933 100.653 26.32 100.52L26.68 97.48C26.7067 97.3467 26.76 97.24 26.84 97.16C26.9467 97.0533 27.0667 97 27.2 97H41.68ZM55.0981 97.48C55.1248 97.3467 55.1781 97.24 55.2581 97.16C55.3648 97.0533 55.4848 97 55.6181 97H59.1781C59.3115 97 59.4181 97.0533 59.4981 97.16C59.5781 97.24 59.6048 97.3467 59.5781 97.48L56.2581 124.52C56.2581 124.653 56.2048 124.773 56.0981 124.88C55.9915 124.96 55.8715 125 55.7381 125H52.1781C52.0448 125 51.9381 124.96 51.8581 124.88C51.7781 124.773 51.7515 124.653 51.7781 124.52L53.1781 113.2C53.1781 113.067 53.1115 113 52.9781 113H48.0581C47.9248 113 47.8581 113.067 47.8581 113.2L46.4581 124.52C46.4315 124.653 46.3648 124.773 46.2581 124.88C46.1781 124.96 46.0715 125 45.9381 125H42.3781C42.0848 125 41.9381 124.84 41.9381 124.52L45.2581 97.48C45.2848 97.3467 45.3515 97.24 45.4581 97.16C45.5648 97.0533 45.6848 97 45.8181 97H49.3781C49.5115 97 49.6181 97.0533 49.6981 97.16C49.7781 97.24 49.8048 97.3467 49.7781 97.48L48.3781 108.76C48.3781 108.893 48.4448 108.96 48.5781 108.96H53.4981C53.6315 108.96 53.6981 108.893 53.6981 108.76L55.0981 97.48ZM60.8938 125C60.6004 125 60.4538 124.84 60.4538 124.52L63.7738 97.48C63.8004 97.3467 63.8671 97.24 63.9738 97.16C64.0804 97.0533 64.2004 97 64.3338 97H67.8938C68.0271 97 68.1338 97.0533 68.2138 97.16C68.2938 97.24 68.3204 97.3467 68.2938 97.48L65.4138 120.8C65.4138 120.933 65.4804 121 65.6138 121H73.9738C74.1071 121 74.2138 121.053 74.2938 121.16C74.3738 121.24 74.4004 121.347 74.3738 121.48L74.0138 124.52C73.9871 124.653 73.9204 124.773 73.8138 124.88C73.7338 124.96 73.6271 125 73.4938 125H60.8938ZM93.1066 100.52C93.0799 100.653 93.0132 100.773 92.9066 100.88C92.8266 100.96 92.7199 101 92.5866 101H84.1866C84.0532 101 83.9866 101.067 83.9866 101.2L83.0266 108.76C83.0266 108.893 83.0932 108.96 83.2266 108.96H88.1866C88.3199 108.96 88.4266 109.013 88.5066 109.12C88.5866 109.2 88.6132 109.307 88.5866 109.44L88.1866 112.52C88.1866 112.653 88.1332 112.773 88.0266 112.88C87.9199 112.96 87.7999 113 87.6666 113H82.7066C82.5732 113 82.5066 113.067 82.5066 113.2L81.5466 120.8C81.5466 120.933 81.6132 121 81.7466 121H90.1066C90.2399 121 90.3466 121.053 90.4266 121.16C90.5066 121.24 90.5332 121.347 90.5066 121.48L90.1466 124.52C90.1199 124.653 90.0532 124.773 89.9466 124.88C89.8666 124.96 89.7599 125 89.6266 125H77.0266C76.7332 125 76.5866 124.84 76.5866 124.52L79.9066 97.48C79.9332 97.3467 79.9999 97.24 80.1066 97.16C80.2132 97.0533 80.3332 97 80.4666 97H93.0666C93.1999 97 93.3066 97.0533 93.3866 97.16C93.4666 97.24 93.4932 97.3467 93.4666 97.48L93.1066 100.52ZM110.782 97C110.915 97 111.022 97.0533 111.102 97.16C111.182 97.24 111.208 97.3467 111.182 97.48L110.822 100.52C110.795 100.653 110.728 100.773 110.622 100.88C110.542 100.96 110.435 101 110.302 101H105.382C105.275 101 105.195 101.067 105.142 101.2L102.302 124.52C102.275 124.653 102.208 124.773 102.102 124.88C102.022 124.96 101.915 125 101.782 125H98.1816C98.0482 125 97.9416 124.96 97.8616 124.88C97.7816 124.773 97.7549 124.653 97.7816 124.52L100.662 101.2C100.662 101.067 100.595 101 100.462 101H95.8216C95.6882 101 95.5816 100.96 95.5016 100.88C95.4216 100.773 95.3949 100.653 95.4216 100.52L95.7816 97.48C95.8082 97.3467 95.8616 97.24 95.9416 97.16C96.0482 97.0533 96.1682 97 96.3016 97H110.782ZM127.56 100.52C127.533 100.653 127.466 100.773 127.36 100.88C127.28 100.96 127.173 101 127.04 101H118.64C118.506 101 118.44 101.067 118.44 101.2L117.48 108.76C117.48 108.893 117.546 108.96 117.68 108.96H122.64C122.773 108.96 122.88 109.013 122.96 109.12C123.04 109.2 123.066 109.307 123.04 109.44L122.64 112.52C122.64 112.653 122.586 112.773 122.48 112.88C122.373 112.96 122.253 113 122.12 113H117.16C117.026 113 116.96 113.067 116.96 113.2L116 120.8C116 120.933 116.066 121 116.2 121H124.56C124.693 121 124.8 121.053 124.88 121.16C124.96 121.24 124.986 121.347 124.96 121.48L124.6 124.52C124.573 124.653 124.506 124.773 124.4 124.88C124.32 124.96 124.213 125 124.08 125H111.48C111.186 125 111.04 124.84 111.04 124.52L114.36 97.48C114.386 97.3467 114.453 97.24 114.56 97.16C114.666 97.0533 114.786 97 114.92 97H127.52C127.653 97 127.76 97.0533 127.84 97.16C127.92 97.24 127.946 97.3467 127.92 97.48L127.56 100.52ZM134.235 125.32C132.288 125.32 130.741 124.76 129.595 123.64C128.448 122.52 127.875 121.04 127.875 119.2C127.875 118.933 127.901 118.56 127.955 118.08L128.075 117.04C128.101 116.907 128.155 116.8 128.235 116.72C128.341 116.613 128.461 116.56 128.595 116.56H132.115C132.408 116.56 132.555 116.72 132.555 117.04L132.435 117.84C132.408 117.973 132.395 118.187 132.395 118.48C132.395 119.36 132.608 120.053 133.035 120.56C133.461 121.067 134.021 121.32 134.715 121.32C135.595 121.32 136.341 120.96 136.955 120.24C137.595 119.52 137.915 118.6 137.915 117.48C137.915 116.68 137.661 115.987 137.155 115.4C136.675 114.813 135.755 113.96 134.395 112.84C133.328 111.96 132.461 111.187 131.795 110.52C131.155 109.853 130.608 109.067 130.155 108.16C129.728 107.253 129.515 106.213 129.515 105.04C129.515 104.827 129.541 104.453 129.595 103.92C129.861 101.707 130.728 99.9467 132.195 98.64C133.661 97.3333 135.448 96.68 137.555 96.68C139.501 96.68 141.035 97.2533 142.155 98.4C143.301 99.52 143.875 101.04 143.875 102.96C143.875 103.2 143.848 103.613 143.795 104.2L143.715 105.16C143.688 105.293 143.621 105.413 143.515 105.52C143.408 105.6 143.288 105.64 143.155 105.64H139.675C139.541 105.64 139.435 105.6 139.355 105.52C139.275 105.413 139.248 105.293 139.275 105.16L139.395 104.12C139.421 103.96 139.435 103.733 139.435 103.44C139.435 102.587 139.221 101.92 138.795 101.44C138.368 100.933 137.795 100.68 137.075 100.68C136.221 100.68 135.488 101.027 134.875 101.72C134.288 102.387 133.995 103.307 133.995 104.48C133.995 105.253 134.235 105.96 134.715 106.6C135.195 107.213 136.061 108.053 137.315 109.12C138.595 110.187 139.581 111.067 140.275 111.76C140.968 112.453 141.501 113.2 141.875 114C142.248 114.773 142.435 115.653 142.435 116.64C142.435 116.88 142.408 117.267 142.355 117.8C142.061 120.093 141.168 121.92 139.675 123.28C138.181 124.64 136.368 125.32 134.235 125.32Z" fill="#EBC556"/>
</g>
<g filter="url(#filter1_dd_481_3156)">
<path d="M38.386 68.8705L31 84.744L56.4407 85L61.0912 74.503H86.5319L84.8906 71.1747H57.8085L53.7052 80.1355H38.386L73.9483 4.09639H77.231L113.34 80.3916H99.9362L91.1824 63.75L51.2432 63.2379L44.6778 77.0633H50.696L54.7994 67.0783H88.9939L96.9271 84.744H121L80.5137 0H71.2128L38.386 68.8705Z" fill="#EBC556"/>
<path d="M66.0146 52.2288H71.2122L75.8626 41.2198L83.2486 56.0692H59.7228L75.8626 20.2258L102.398 77.3192H108.142L75.8626 10.4969L52.6104 59.6535L90.0876 59.9095L75.8626 29.4427L66.0146 52.2288Z" fill="#EBC556"/>
</g>
<defs>
<filter id="filter0_ddd_481_3156" x="3.28931" y="96.68" width="144.585" height="36.64" filterUnits="userSpaceOnUse" color-interpolation-filters="sRGB">
<feFlood flood-opacity="0" result="BackgroundImageFix"/>
<feColorMatrix in="SourceAlpha" type="matrix" values="0 0 0 0 0 0 0 0 0 0 0 0 0 0 0 0 0 0 127 0" result="hardAlpha"/>
<feOffset dy="4"/>
<feGaussianBlur stdDeviation="2"/>
<feComposite in2="hardAlpha" operator="out"/>
<feColorMatrix type="matrix" values="0 0 0 0 0 0 0 0 0 0 0 0 0 0 0 0 0 0 0.25 0"/>
<feBlend mode="normal" in2="BackgroundImageFix" result="effect1_dropShadow_481_3156"/>
<feColorMatrix in="SourceAlpha" type="matrix" values="0 0 0 0 0 0 0 0 0 0 0 0 0 0 0 0 0 0 127 0" result="hardAlpha"/>
<feOffset dy="4"/>
<feGaussianBlur stdDeviation="2"/>
<feComposite in2="hardAlpha" operator="out"/>
<feColorMatrix type="matrix" values="0 0 0 0 0 0 0 0 0 0 0 0 0 0 0 0 0 0 0.25 0"/>
<feBlend mode="normal" in2="effect1_dropShadow_481_3156" result="effect2_dropShadow_481_3156"/>
<feColorMatrix in="SourceAlpha" type="matrix" values="0 0 0 0 0 0 0 0 0 0 0 0 0 0 0 0 0 0 127 0" result="hardAlpha"/>
<feOffset dy="4"/>
<feGaussianBlur stdDeviation="2"/>
<feComposite in2="hardAlpha" operator="out"/>
<feColorMatrix type="matrix" values="0 0 0 0 0 0 0 0 0 0 0 0 0 0 0 0 0 0 0.25 0"/>
<feBlend mode="normal" in2="effect2_dropShadow_481_3156" result="effect3_dropShadow_481_3156"/>
<feBlend mode="normal" in="SourceGraphic" in2="effect3_dropShadow_481_3156" result="shape"/>
</filter>
<filter id="filter1_dd_481_3156" x="27" y="0" width="98" height="93" filterUnits="userSpaceOnUse" color-interpolation-filters="sRGB">
<feFlood flood-opacity="0" result="BackgroundImageFix"/>
<feColorMatrix in="SourceAlpha" type="matrix" values="0 0 0 0 0 0 0 0 0 0 0 0 0 0 0 0 0 0 127 0" result="hardAlpha"/>
<feOffset dy="4"/>
<feGaussianBlur stdDeviation="2"/>
<feComposite in2="hardAlpha" operator="out"/>
<feColorMatrix type="matrix" values="0 0 0 0 0 0 0 0 0 0 0 0 0 0 0 0 0 0 0.25 0"/>
<feBlend mode="normal" in2="BackgroundImageFix" result="effect1_dropShadow_481_3156"/>
<feColorMatrix in="SourceAlpha" type="matrix" values="0 0 0 0 0 0 0 0 0 0 0 0 0 0 0 0 0 0 127 0" result="hardAlpha"/>
<feOffset dy="4"/>
<feGaussianBlur stdDeviation="2"/>
<feComposite in2="hardAlpha" operator="out"/>
<feColorMatrix type="matrix" values="0 0 0 0 0 0 0 0 0 0 0 0 0 0 0 0 0 0 0.25 0"/>
<feBlend mode="normal" in2="effect1_dropShadow_481_3156" result="effect2_dropShadow_481_3156"/>
<feBlend mode="normal" in="SourceGraphic" in2="effect2_dropShadow_481_3156" result="shape"/>
</filter>
</defs>
</svg>
